<?xml version="1.0" encoding="utf-8"?>
<!-- Generator: Adobe Illustrator 26.0.1, SVG Export Plug-In . SVG Version: 6.00 Build 0)  -->
<svg version="1.1" id="Layer_1" xmlns="http://www.w3.org/2000/svg" xmlns:xlink="http://www.w3.org/1999/xlink" x="0px" y="0px"
	 viewBox="0 0 88 88" style="enable-background:new 0 0 88 88;" xml:space="preserve">
<style type="text/css">
	.st0{fill:url(#SVGID_1_);}
	.st1{fill:#FFFFFF;}
</style>
<linearGradient id="SVGID_1_" gradientUnits="userSpaceOnUse" x1="2.4925" y1="12.2918" x2="85.0283" y2="75.3421">
	<stop  offset="0" style="stop-color:#B201D6"/>
	<stop  offset="1" style="stop-color:#390153"/>
</linearGradient>
<path class="st0" d="M63.1,88H24.9C11.1,88,0,76.9,0,63.1V24.9C0,11.1,11.1,0,24.9,0h38.3C76.9,0,88,11.1,88,24.9v38.3
	C88,76.9,76.9,88,63.1,88z"/>
<g>
	<path class="st1" d="M65.4,39.2c-1-0.2-2-0.2-3,0c-1.2,0.2-2,0.9-2.5,2c-0.4,0.7-0.4,1.5-0.3,2.3c0,0.6-0.2,1-0.8,1.1
		c-0.5,0.1-1,0.1-1.4,0c-0.7-0.1-1-0.5-1-1.2c0-2.4,0-4.8,0-7.3c0-0.1,0-0.1,0-0.2c-0.7,0.1-1.3,0.2-1.9,0.6
		c-0.3,0.2-0.5,0.5-0.7,0.9c-0.1,0.3-0.1,0.5-0.2,0.8c0,0.4,0,0.9,0,1.3c0,1.3,0,2.6,0,3.9c0,0.5-0.3,0.9-0.8,1
		c-0.2,0.1-0.4,0.1-0.6,0.1c-1.2,0-2.4,0-3.6,0c-0.1,0-0.1,0-0.2,0c0,0.9,0,1.8,0,2.8c0.1,0,0.1,0,0.2,0c1.3,0,2.7,0,4,0
		c0.8,0,1.6-0.2,2.2-0.7c0.1-0.1,0.1,0,0.2,0c0.7,0.5,1.5,0.7,2.4,0.7c0.4,0,0.7,0,1.1,0c0.9,0,1.7-0.2,2.4-0.7c0,0,0.1,0,0.1,0
		c0.2,0.1,0.4,0.2,0.5,0.3c0.6,0.3,1.2,0.4,1.9,0.4c0.6,0,1.3,0,1.9-0.1c1.5-0.2,2.7-1.4,3-2.9c0.1-0.6,0.1-1.3,0.1-1.9
		C68.2,40.8,67.1,39.5,65.4,39.2z M65.5,43.5c0,0.6-0.3,1-0.9,1.1c-0.5,0.1-1,0.1-1.6,0c-0.5-0.1-0.8-0.5-0.8-1.1c0-0.1,0-0.2,0-0.3
		c0,0,0,0,0,0c0-0.2,0-0.3,0-0.5c0-0.3,0.2-0.6,0.6-0.7c0.2-0.1,0.4-0.1,0.6-0.2c0.5,0,0.9-0.1,1.4,0.1c0.5,0.2,0.7,0.5,0.7,1
		C65.5,43.1,65.5,43.3,65.5,43.5z"/>
	<path class="st1" d="M27.1,44.7c-0.4,0-0.8,0-1.2,0c-0.3,0-0.6-0.1-0.9-0.2c-0.3-0.2-0.4-0.4-0.4-0.7c0-0.5,0-1,0-1.5
		c-0.2-1.9-1.7-3-3.3-3.2c-0.6-0.1-1.1,0-1.7,0c-0.3,0-0.6,0-0.9,0.1c-1.5,0.3-2.7,1.5-2.9,3c-0.1,0.6-0.1,1.1-0.1,1.7
		c0.1,2.1,1.6,3.5,3.5,3.6c0.8,0,1.7,0.1,2.5-0.1c0,1.4,0,2.9,0,4.3c0,0,0.1,0,0.1,0c1.2-0.4,2.1-1.1,2.5-2.4
		c0.2-0.5,0.2-1.1,0.2-1.7c0-0.1,0-0.1,0-0.2c0.3,0,0.5,0.1,0.8,0.1c1,0,1.9,0,2.9,0c0.3,0,0.6,0,0.9-0.1c0.5-0.1,1-0.2,1.3-0.6
		c0.3-0.3,0.5-0.7,0.6-1.1c0.1-0.3,0.1-0.7,0.2-1c-0.1,0-0.2,0-0.2,0C29.8,44.7,28.4,44.7,27.1,44.7z M21.8,43.3
		C21.8,43.3,21.8,43.3,21.8,43.3c0,0.2,0,0.4,0,0.5c0,0.4-0.3,0.7-0.6,0.8c-0.2,0.1-0.3,0.1-0.5,0.1c-0.5,0-0.9,0.1-1.4-0.1
		c-0.5-0.1-0.7-0.4-0.8-0.9c0-0.3,0-0.6,0-0.9c0-0.4,0.3-0.7,0.6-0.8c0.2-0.1,0.4-0.1,0.5-0.1c0.4,0,0.9-0.1,1.3,0.1
		c0.6,0.2,0.8,0.5,0.8,1.1C21.8,43.1,21.8,43.2,21.8,43.3z"/>
	<path class="st1" d="M46.2,36.2c-0.6,0.1-1.2,0.4-1.5,0.9c-0.3,0.5-0.4,1-0.4,1.5c0,0.6,0,1.2,0,1.9c0,1,0,2.1,0,3.1
		c0,0.5-0.2,0.8-0.7,0.9c-0.2,0.1-0.5,0.1-0.7,0.1c-2.4,0-4.9,0-7.3,0c-0.4,0-0.7,0-1.1,0.1c-0.5,0.1-1,0.2-1.4,0.6
		c-0.3,0.4-0.5,0.8-0.7,1.3c-0.1,0.3-0.1,0.5-0.1,0.8c0.1,0,0.2,0,0.2,0c3.5,0,6.9,0,10.4,0c0.3,0,0.6,0,0.9,0
		c0.8-0.1,1.5-0.4,2.1-1c0.8-0.7,1.1-1.7,1.1-2.7c0-2.5,0-5,0-7.5c0-0.1,0-0.1,0-0.2C46.7,36.1,46.4,36.1,46.2,36.2z"/>
	<path class="st1" d="M72.2,36c-0.4,0-0.9,0.1-1.3,0.3c-0.6,0.3-1,0.6-1.3,1.2c-0.2,0.5-0.2,1.1-0.2,1.6c0,2.7,0,5.5,0,8.2
		c0,0,0,0.1,0,0.1c0.4,0,1.1-0.2,1.6-0.4c0.6-0.3,1-0.8,1.1-1.4c0.1-0.4,0.1-0.8,0.1-1.3c0-2.7,0-5.5,0-8.2
		C72.2,36.1,72.2,36.1,72.2,36z"/>
	<path class="st1" d="M44.5,36c0.1,0,0.1,0,0.1-0.1c2.2-1.1,4.4-2.2,6.5-3.3c1-0.5,1.8-1.7,1.6-2.9c0-0.3-0.1-0.5-0.2-0.8
		c-0.1,0-0.1,0.1-0.2,0.1c-0.5,0.3-1,0.5-1.5,0.8c-1.7,0.9-3.4,1.7-5.1,2.6c-1,0.5-1.8,1.8-1.5,3.1C44.3,35.6,44.4,35.8,44.5,36z"/>
	<path class="st1" d="M51.1,36c-0.3,0.1-0.6,0.1-0.9,0.2c-1,0.3-1.6,0.9-1.8,1.9c-0.1,0.5-0.1,1.1-0.1,1.6c0,1.1,0,2.2,0,3.3
		c0,0,0,0.1,0,0.1c0.9,0,1.8,0,2.7,0C51.1,40.7,51.1,38.4,51.1,36z"/>
	<path class="st1" d="M29.7,43.1c0.7,0,1.2-0.5,1.2-1.2c0-0.7-0.6-1.2-1.2-1.2c-0.7,0-1.2,0.5-1.2,1.2C28.5,42.6,29,43.1,29.7,43.1z
		"/>
	<path class="st1" d="M27.1,43c0.7,0,1.2-0.5,1.2-1.2c0-0.7-0.5-1.2-1.2-1.2c-0.7,0-1.2,0.5-1.2,1.2C25.9,42.5,26.5,43,27.1,43z"/>
</g>
</svg>
