<?xml version="1.0" encoding="utf-8"?>
<!-- Generator: Adobe Illustrator 26.0.1, SVG Export Plug-In . SVG Version: 6.00 Build 0)  -->
<svg version="1.1" id="Layer_1" xmlns="http://www.w3.org/2000/svg" xmlns:xlink="http://www.w3.org/1999/xlink" x="0px" y="0px"
	 viewBox="0 0 88 88" style="enable-background:new 0 0 88 88;" xml:space="preserve">
<style type="text/css">
	.st0{fill:url(#SVGID_1_);}
	.st1{fill:#FEFEFE;}
</style>
<linearGradient id="SVGID_1_" gradientUnits="userSpaceOnUse" x1="2.4925" y1="12.2918" x2="85.0283" y2="75.3421">
	<stop  offset="0" style="stop-color:#FF6C89"/>
	<stop  offset="1" style="stop-color:#FF22A8"/>
</linearGradient>
<path class="st0" d="M63.1,88H24.9C11.1,88,0,76.9,0,63.1V24.9C0,11.1,11.1,0,24.9,0h38.3C76.9,0,88,11.1,88,24.9v38.3
	C88,76.9,76.9,88,63.1,88z"/>
<g>
	<g>
		<path class="st1" d="M77.8,44.9c-1.4,0-2.8,0-4.2,0c-0.1,0-0.1,0-0.2,0c-0.7-0.1-1.2-0.3-1.1-1.2c0-1.4,0-2.8,0-4.2
			c0-0.1,0-0.1-0.1-0.1c-0.3,0-0.6,0.1-1,0.2c-0.7,0.3-1.2,0.7-1.3,1.5c-0.1,0.3-0.1,0.6-0.1,0.9c0,0.6,0,1.2,0,1.8
			c0,0.6-0.3,0.9-0.8,1c-0.5,0.1-0.9,0.1-1.4,0c-0.5-0.1-0.7-0.4-0.8-0.9c0-0.3,0-0.6,0-0.9c0-0.4,0-0.7-0.1-1.1
			c-0.3-1.4-1.4-2.4-2.8-2.6c-0.7-0.1-1.5-0.1-2.2,0c-1,0.1-1.9,0.6-2.5,1.5c-0.6,0.9-0.7,1.9-0.6,2.9c0,0.5-0.2,0.9-0.7,1.1
			c-0.5,0.1-1,0.1-1.6,0c-0.5-0.1-0.7-0.5-0.7-1c0-0.3,0-0.6,0-0.9c0-0.3,0-0.7-0.1-1c-0.4-1.4-1.3-2.3-2.8-2.5
			c-0.5-0.1-1-0.1-1.5,0c-0.7,0-1.3,0.2-1.9,0.6c-0.9,0.7-1.4,1.7-1.4,2.8c0,0.8,0,1.5,0,2.3h0c0,0.8,0,1.6,0,2.4
			c0,0.1,0,0.1,0.1,0.1c0.4,0,0.8-0.1,1.2-0.3c0.6-0.3,1-0.7,1.1-1.4c0.1-0.3,0.1-0.6,0.1-0.9c0-0.5,0-1,0-1.5c0-0.3,0-0.6,0.2-0.8
			c0.1-0.3,0.4-0.5,0.7-0.6c0.4,0,0.8,0,1.1,0.1c0.4,0.2,0.6,0.4,0.6,0.9c0,0.3,0,0.6,0,0.9c0,0.4,0,0.7,0.1,1.1
			c0.4,1.4,1.5,2.4,2.9,2.6c0.5,0.1,1,0,1.5,0c0.8,0,1.5-0.2,2.1-0.7c0.1-0.1,0.1-0.1,0.2,0c0.7,0.4,1.4,0.7,2.2,0.7
			c0.4,0,0.8,0,1.2,0c0.8,0,1.5-0.2,2.1-0.7c0.1,0,0.1-0.1,0.2,0c0.7,0.5,1.4,0.7,2.2,0.7c0.3,0,0.7,0,1,0c0.8,0,1.5-0.2,2.2-0.7
			c0.1,0,0.1,0,0.1,0c0.4,0.3,0.9,0.5,1.4,0.6c0.3,0.1,0.5,0.1,0.8,0.1c0.9,0,1.8,0,2.6,0c0.9-0.1,1.5-0.5,1.9-1.4
			c0.1-0.4,0.2-0.7,0.3-1.1C78,44.9,78,44.9,77.8,44.9z M64.2,43.5L64.2,43.5c0,0.2,0,0.3,0,0.5c0,0.4-0.3,0.7-0.8,0.8
			c-0.5,0.1-0.9,0.1-1.4,0c-0.5-0.1-0.8-0.5-0.8-1c0-0.3,0-0.5,0-0.8c0-0.4,0.2-0.7,0.6-0.9c0.1-0.1,0.3-0.1,0.4-0.1
			c0.4,0,0.8-0.1,1.2,0.1c0.5,0.1,0.8,0.5,0.8,1C64.2,43.3,64.2,43.4,64.2,43.5z"/>
		<path class="st1" d="M46.3,42.2c-0.3-1.6-1.6-2.8-3.2-2.8c-1.2,0-2.4,0-3.6,0c-0.1,0-0.1,0-0.1,0.1c0,0.3,0.1,0.7,0.2,1
			c0.3,0.8,0.8,1.4,1.6,1.5c0.4,0.1,0.8,0.1,1.2,0.1c0.2,0,0.4,0,0.5,0.1c0.5,0.1,0.8,0.4,0.8,0.9c0,0.3,0,0.7,0,1
			c0,0.4-0.3,0.7-0.6,0.8c-0.2,0.1-0.4,0.1-0.6,0.1c-1.2,0-2.3,0-3.5,0c-0.1,0-0.1,0-0.1-0.1c0-1.5,0-3,0-4.5c0-0.9,0-1.9,0-2.8
			c0-0.1,0-0.1-0.1-0.1c-0.3,0-0.5,0.1-0.7,0.2c-0.6,0.2-1.1,0.5-1.4,1.2c-0.1,0.2-0.2,0.4-0.2,0.6c0,0.2-0.1,0.2-0.2,0.2
			c-0.7,0-1.4,0-2.2,0c-1.4,0.1-2.8,1.1-3.1,3c-0.1,0.5,0,1-0.1,1.5c0,0.4-0.2,0.7-0.6,0.9c-0.4,0.1-0.7,0.2-1.1,0.1
			c-0.3-0.1-0.5-0.3-0.5-0.6c0-0.1,0-0.1,0-0.2v-5.7c0-1.3,0-2.7,0-4c0-0.1,0-0.1-0.1-0.1c-0.3,0-0.6,0.1-0.8,0.2
			c-0.8,0.3-1.3,0.8-1.5,1.6c-0.1,0.3-0.1,0.6-0.1,1c0,2.3,0,4.6,0,6.9c0,0.2,0,0.4,0.1,0.6c0.2,1.3,1,2.3,2.2,2.7
			c0.6,0.2,1.1,0.2,1.7,0.2c0.8,0,1.4-0.3,2-0.8c0.1,0,0.1,0,0.1,0c0.7,0.5,1.5,0.8,2.3,0.8c2.7,0,5.5,0,8.2,0c0.2,0,0.4,0,0.6,0
			c1.4-0.2,2.4-1,2.9-2.4C46.5,44.2,46.5,43.2,46.3,42.2z M36.3,43.5c0,0.4,0,0.9,0,1.3c0,0.1,0,0.1-0.1,0.1c-0.5,0-1,0-1.5,0
			c-0.2,0-0.4,0-0.5-0.1c-0.4-0.1-0.7-0.4-0.7-0.9c0-0.3,0-0.6,0-1c0.1-0.5,0.4-0.8,1-0.9c0.4-0.1,0.8,0,1.2,0c0.2,0,0.3,0,0.5,0
			c0.1,0,0.2,0,0.2,0.1C36.3,42.6,36.3,43.1,36.3,43.5z"/>
		<path class="st1" d="M24.3,44.9h-2.4c-0.8,0-1.6,0-2.4,0c-0.3,0-0.6-0.1-0.8-0.2c-0.3-0.2-0.4-0.4-0.4-0.7c0-0.3,0-0.6,0-0.9
			c0-0.3,0-0.7-0.1-1c-0.3-1.4-1.2-2.4-2.7-2.7c-0.8-0.2-1.5-0.1-2.3-0.1c-1.4,0.1-2.5,1.1-2.9,2.4c-0.3,1-0.3,2-0.1,3
			c0.3,1.6,1.6,2.8,3.3,2.9c0.5,0,0.9,0,1.4,0c0.3,0,0.5,0,0.8-0.1c0.1,0,0.2,0,0.2,0.1c0,1.3,0,2.6,0,3.9c0,0.1,0,0.2,0.1,0.1
			c1.4-0.5,2.2-1.5,2.4-2.9c0.1-0.4,0-0.7,0-1.1c0-0.1,0-0.1,0.1-0.1c0.3,0.1,0.5,0.1,0.8,0.1c0.8,0,1.6,0,2.5,0c0.3,0,0.5,0,0.8,0
			c0.9-0.1,1.6-0.6,1.9-1.5c0.1-0.3,0.2-0.7,0.2-1C24.5,44.9,24.5,44.9,24.3,44.9z M15.7,43.5L15.7,43.5c0,0.2,0,0.4,0,0.5
			c-0.1,0.5-0.3,0.7-0.8,0.8c-0.5,0.1-1,0.1-1.4,0c-0.5-0.1-0.7-0.4-0.8-0.9c0-0.3,0-0.6,0-0.9c0-0.5,0.3-0.8,0.8-0.9
			c0.5-0.1,1.1-0.1,1.6,0c0.5,0.1,0.7,0.5,0.7,0.9V43.5z"/>
		<path class="st1" d="M71.3,49.8c0.6,0,1.1,0.6,1.1,1.2c0,0.4-0.2,0.7-0.4,0.9c-0.4,0.4-1.1,0.3-1.5-0.1c-0.3-0.3-0.4-0.8-0.3-1.2
			c0.1-0.4,0.4-0.7,0.8-0.8C71.2,49.8,71.3,49.8,71.3,49.8z"/>
		<path class="st1" d="M21.9,42.1c0-0.8,0.7-1.4,1.4-1.1c0.5,0.2,0.9,0.7,0.8,1.3c-0.1,0.6-0.5,1-1,1C22.4,43.4,21.9,42.8,21.9,42.1
			z"/>
		<path class="st1" d="M73.8,50.9c0-0.7,0.5-1.2,1.2-1.2c0.5,0,0.9,0.4,1,1c0.1,0.6-0.3,1.2-0.8,1.4c-0.8,0.2-1.3-0.4-1.4-1
			C73.8,51,73.8,51,73.8,50.9z"/>
		<path class="st1" d="M21.7,42.1c0,0.4-0.2,0.7-0.6,1c-0.4,0.2-0.8,0.2-1.1-0.1c-0.4-0.3-0.6-0.9-0.4-1.4c0.2-0.5,0.6-0.8,1.1-0.8
			C21.2,40.9,21.7,41.4,21.7,42.1z"/>
		<path class="st1" d="M67.7,50.9c0-0.9,0.8-1.4,1.6-1.1c0.5,0.2,0.7,0.7,0.7,1.2c-0.1,0.5-0.4,0.9-0.9,1
			C68.4,52.3,67.7,51.7,67.7,50.9z"/>
	</g>
</g>
</svg>
