<?xml version="1.0" encoding="utf-8"?>
<!-- Generator: Adobe Illustrator 26.0.1, SVG Export Plug-In . SVG Version: 6.00 Build 0)  -->
<svg version="1.1" id="Layer_1" xmlns="http://www.w3.org/2000/svg" xmlns:xlink="http://www.w3.org/1999/xlink" x="0px" y="0px"
	 viewBox="0 0 88 88" style="enable-background:new 0 0 88 88;" xml:space="preserve">
<style type="text/css">
	.st0{fill:url(#SVGID_1_);}
	.st1{fill:#FFFFFF;}
</style>
<linearGradient id="SVGID_1_" gradientUnits="userSpaceOnUse" x1="2.4925" y1="12.2918" x2="85.0283" y2="75.3421">
	<stop  offset="9.350728e-02" style="stop-color:#77D5C7"/>
	<stop  offset="0.6617" style="stop-color:#58B4A4"/>
	<stop  offset="1" style="stop-color:#4AA595"/>
</linearGradient>
<path class="st0" d="M63.1,88H24.9C11.1,88,0,76.9,0,63.1V24.9C0,11.1,11.1,0,24.9,0h38.3C76.9,0,88,11.1,88,24.9v38.3
	C88,76.9,76.9,88,63.1,88z"/>
<g>
	<path class="st1" d="M72.1,36.5c0-0.1,0-0.1,0-0.2c-0.3,0.1-0.7,0.1-1,0.2c-0.9,0.3-1.5,0.8-1.7,1.7c-0.1,0.6-0.1,1.1-0.1,1.7
		c0,1.3,0,2.6,0,3.9c0,0.4-0.2,0.8-0.6,0.9c-0.2,0.1-0.5,0.1-0.7,0.1c-0.6,0-1.1,0-1.7,0c-0.6,0-1.2-0.3-1.1-1.1c0-3.1,0-6.2,0-9.3
		c0-0.1,0-0.1,0-0.2c-0.5,0-0.9,0.1-1.3,0.3c-0.7,0.3-1.2,0.9-1.3,1.7c-0.1,0.4-0.1,0.7-0.1,1.1c0,2.2,0,4.3,0,6.5
		c0,0.4-0.1,0.7-0.4,0.9c-0.2,0.2-0.5,0.2-0.7,0.2c-0.4,0-0.7,0-1.1,0c-0.6,0-1.1-0.4-1.1-1.1c0-1.4,0-2.9,0-4.3c0-0.1,0-0.1,0-0.2
		c-0.6,0-1.2,0.2-1.7,0.5c-0.5,0.3-0.8,0.8-1,1.3c-0.1,0.3-0.1,0.7-0.1,1c0,0.5,0,1.1,0,1.6c0,0.6-0.3,0.9-0.8,1
		c-0.5,0.1-1,0.1-1.4,0c-0.7-0.1-0.9-0.5-0.9-1.2c0-1.4,0-2.8,0-4.2c0-0.1,0-0.1,0-0.2c-0.1,0-0.1,0-0.1,0c-0.4,0-0.8,0.1-1.2,0.3
		c-0.7,0.3-1.2,0.8-1.3,1.6c-0.1,0.3-0.1,0.6-0.1,1c0,0.5,0,1.1,0,1.6c0,0.5-0.3,0.9-0.8,1c-0.5,0.1-1,0.1-1.5,0
		c-0.7-0.1-0.9-0.5-0.9-1.2c0-1.4,0-2.8,0-4.2c0-0.1,0-0.1,0-0.2c-0.6,0-1.1,0.2-1.6,0.4c-0.6,0.3-0.9,0.8-1,1.4
		c-0.1,0.3-0.1,0.7-0.1,1c0,0.5,0,1.1,0,1.6c0,0.4-0.1,0.7-0.5,0.9c-0.4,0.3-1.8,0.3-2.2,0c-0.3-0.2-0.5-0.4-0.5-0.8
		c0-2.5,0-5,0-7.5c0,0,0-0.1,0-0.2c-0.3,0.1-0.6,0.1-0.9,0.2c-1,0.3-1.6,0.8-1.8,1.9c-0.1,0.5-0.1,1-0.1,1.5c0,0.6,0,1.3,0,1.9
		c0,0.7,0,1.4,0,2.1c0,0.5-0.2,0.8-0.7,1c-0.2,0.1-0.4,0.1-0.6,0.1c-2.5,0-5,0-7.5,0c-0.4,0-0.7,0-1.1,0.1c-0.5,0.1-0.9,0.3-1.2,0.7
		c-0.3,0.4-0.5,0.9-0.6,1.4c0,0.2,0,0.3-0.1,0.5c0.1,0,0.1,0,0.2,0c3.6,0,7.1,0,10.7,0c0.8,0,1.5-0.2,2.1-0.7c0.1-0.1,0.1-0.1,0.2,0
		c0.7,0.4,1.5,0.7,2.3,0.7c0.4,0,0.9,0,1.3,0c0.8,0,1.5-0.2,2.2-0.7c0.1-0.1,0.1-0.1,0.2,0c0.7,0.4,1.5,0.7,2.3,0.7
		c0.4,0,0.9,0,1.3,0c0.8,0,1.5-0.2,2.2-0.7c0.1,0,0.1-0.1,0.2,0c0.7,0.5,1.5,0.7,2.4,0.7c0.4,0,0.8,0,1.2,0c0.8,0,1.5-0.2,2.1-0.7
		c0.1-0.1,0.1-0.1,0.2,0c0.7,0.4,1.5,0.7,2.3,0.7c0.4,0,0.9,0,1.3,0c0.8,0,1.5-0.2,2.2-0.7c0.1-0.1,0.1-0.1,0.2,0
		c0.6,0.4,1.4,0.7,2.1,0.7c0.9,0,1.8,0,2.7,0c0.9,0,1.8-0.4,2.4-1c0.8-0.7,1.1-1.7,1.1-2.7c0-0.7,0-1.3,0-2
		C72,40.1,72.1,38.3,72.1,36.5z"/>
	<path class="st1" d="M21.9,44.9c-0.6,0-1.1,0-1.7,0c-0.4,0-0.7-0.1-1-0.3C19.1,44.5,19,44.3,19,44c0-0.5,0-1,0-1.5
		c-0.2-1.9-1.6-3-3.2-3.2c-0.5-0.1-1.1,0-1.6,0c-0.3,0-0.6,0-0.9,0.1c-1.5,0.3-2.5,1.4-2.8,2.8c-0.1,0.7-0.1,1.4-0.1,2.1
		c0.1,1.5,1.2,2.8,2.6,3.1c1,0.2,2,0.2,3,0.1c0.1,0,0.2,0,0.3-0.1c0,1.4,0,2.8,0,4.3c1.1-0.3,1.9-1,2.4-2c0.2-0.5,0.3-1.1,0.3-1.6
		c0-0.2,0-0.4,0-0.6c0.6,0.1,1.1,0.1,1.6,0.1c0.6,0,1.3,0,1.9,0c0.3,0,0.5,0,0.8,0c0.7-0.1,1.2-0.3,1.7-0.8c0.4-0.6,0.6-1.2,0.6-1.9
		c-0.1,0-0.1,0-0.2,0C24.3,44.9,23.1,44.9,21.9,44.9z M16.2,44c0,0.4-0.2,0.7-0.6,0.8c-0.2,0.1-0.3,0.1-0.5,0.1
		c-0.5,0-0.9,0.1-1.4-0.1c-0.5-0.1-0.7-0.4-0.8-0.9c0-0.3,0-0.6,0-0.9c0-0.4,0.3-0.7,0.6-0.8c0.2-0.1,0.3-0.1,0.5-0.1
		c0.4,0,0.9-0.1,1.3,0.1c0.5,0.2,0.8,0.5,0.8,1.1c0,0.1,0,0.2,0,0.3c0,0,0,0,0,0C16.2,43.6,16.2,43.8,16.2,44z"/>
	<path class="st1" d="M38.9,36.2c2.2-1.1,4.3-2.2,6.5-3.3c1-0.5,1.7-1.7,1.5-2.9c0-0.3-0.1-0.5-0.2-0.8c0,0-0.1,0-0.1,0
		c-2.2,1.1-4.4,2.2-6.5,3.3c-0.6,0.3-1,0.7-1.3,1.3c-0.4,0.8-0.4,1.6,0,2.4C38.9,36.2,38.9,36.2,38.9,36.2z"/>
	<path class="st1" d="M77.5,29.2c-0.5,0.2-0.9,0.5-1.4,0.7c-1.7,0.9-3.4,1.8-5.2,2.6c-0.9,0.5-1.5,1.2-1.6,2.3c-0.1,0.5,0,1,0.3,1.5
		c0,0,0.1,0,0.1,0c2.2-1.1,4.4-2.2,6.6-3.4c1-0.5,1.8-1.8,1.4-3.2C77.6,29.5,77.6,29.3,77.5,29.2z"/>
	<path class="st1" d="M25.3,42.1c0-0.7-0.5-1.2-1.2-1.2c-0.7,0-1.2,0.5-1.2,1.2c0,0.7,0.5,1.2,1.2,1.2
		C24.7,43.3,25.3,42.8,25.3,42.1z"/>
	<path class="st1" d="M52.1,37.6c0.7,0,1.2-0.5,1.2-1.2c0-0.7-0.5-1.2-1.2-1.2c-0.7,0-1.2,0.5-1.2,1.2
		C50.9,37.1,51.4,37.6,52.1,37.6z"/>
	<path class="st1" d="M22.7,42c0-0.7-0.5-1.2-1.2-1.2c-0.7,0-1.2,0.5-1.2,1.2c0,0.7,0.5,1.2,1.2,1.2C22.2,43.2,22.7,42.7,22.7,42z"
		/>
	<path class="st1" d="M43.5,49.8c-0.7,0-1.2,0.5-1.2,1.2c0,0.7,0.5,1.2,1.2,1.2c0.7,0,1.2-0.5,1.2-1.2
		C44.7,50.4,44.2,49.8,43.5,49.8z"/>
	<path class="st1" d="M55.4,49.8c-0.7,0-1.2,0.5-1.2,1.2c0,0.7,0.5,1.2,1.2,1.2c0.7,0,1.2-0.5,1.2-1.2
		C56.6,50.4,56.1,49.8,55.4,49.8z"/>
	<path class="st1" d="M46.2,49.8c-0.7,0-1.2,0.5-1.2,1.2c0,0.7,0.5,1.2,1.2,1.2c0.7,0,1.2-0.5,1.2-1.2
		C47.4,50.3,46.9,49.8,46.2,49.8z"/>
	<path class="st1" d="M58.1,49.8c-0.7,0-1.2,0.5-1.2,1.2c0,0.7,0.5,1.2,1.2,1.2c0.7,0,1.2-0.5,1.2-1.2
		C59.3,50.4,58.8,49.8,58.1,49.8z"/>
</g>
</svg>
