<?xml version="1.0" encoding="utf-8"?>
<!-- Generator: Adobe Illustrator 26.0.1, SVG Export Plug-In . SVG Version: 6.00 Build 0)  -->
<svg version="1.1" id="Layer_1" xmlns="http://www.w3.org/2000/svg" xmlns:xlink="http://www.w3.org/1999/xlink" x="0px" y="0px"
	 viewBox="0 0 88 88" style="enable-background:new 0 0 88 88;" xml:space="preserve">
<style type="text/css">
	.st0{fill:url(#SVGID_1_);}
	.st1{fill:#FFFFFF;}
</style>
<linearGradient id="SVGID_1_" gradientUnits="userSpaceOnUse" x1="2.4925" y1="12.2918" x2="85.0283" y2="75.3421">
	<stop  offset="0" style="stop-color:#E23A39"/>
	<stop  offset="1" style="stop-color:#680101"/>
</linearGradient>
<path class="st0" d="M63.1,88H24.9C11.1,88,0,76.9,0,63.1V24.9C0,11.1,11.1,0,24.9,0h38.3C76.9,0,88,11.1,88,24.9v38.3
	C88,76.9,76.9,88,63.1,88z"/>
<g>
	<path class="st1" d="M35.3,44.8c-0.3,0-0.5,0-0.8,0c-0.3,0-0.6-0.1-0.9-0.2c-0.3-0.2-0.4-0.4-0.4-0.7c0-0.5,0-1,0-1.5
		c-0.2-1.9-1.6-3-3.2-3.2c-0.6-0.1-1.1,0-1.7,0c-0.3,0-0.6,0-0.9,0.1c-1.5,0.3-2.5,1.4-2.8,2.8c-0.1,0.7-0.1,1.4-0.1,2.2
		c0.1,1.5,1.2,2.8,2.6,3.1c1,0.3,2,0.2,3,0.1c0.1,0,0.2,0,0.3-0.1c0,1.4,0,2.8,0,4.3c1-0.3,1.7-0.8,2.2-1.7c0.3-0.6,0.5-1.3,0.5-2
		c0-0.2,0-0.4,0-0.6c0.6,0.1,1.1,0.1,1.6,0.1c0.6,0,1.3,0,1.9,0c0.3,0,0.5,0,0.8,0c0.7-0.1,1.3-0.3,1.7-0.8c0.4-0.5,0.6-1.2,0.6-1.8
		c-0.1,0-0.1,0-0.2,0C38.3,44.8,36.8,44.8,35.3,44.8z M30.5,43.3C30.5,43.3,30.5,43.3,30.5,43.3c0,0.2,0,0.4,0,0.5
		c0,0.4-0.3,0.7-0.6,0.8c-0.1,0.1-0.3,0.1-0.5,0.1c-0.5,0-0.9,0.1-1.4-0.1c-0.5-0.1-0.7-0.4-0.8-0.9c0-0.3,0-0.6,0-0.9
		c0-0.4,0.3-0.6,0.6-0.8c0.2-0.1,0.4-0.1,0.5-0.1c0.4,0,0.9-0.1,1.3,0.1c0.6,0.2,0.8,0.5,0.8,1.1C30.5,43.1,30.5,43.2,30.5,43.3z"/>
	<path class="st1" d="M60.6,37c-0.5,0-1,0.1-1.5,0.4c-0.5,0.3-0.9,0.7-1.1,1.3c-0.1,0.4-0.2,0.8-0.2,1.2c0,1.1,0,2.2,0,3.3
		c0,0.2,0,0.3,0,0.5c0,0.6-0.3,1-0.9,1.1c-0.6,0.1-1.3,0.1-2,0c-0.4,0-0.6-0.3-0.6-0.7c0-0.1,0-0.1,0-0.2c0-3.2,0-6.4,0-9.7
		c0-0.1,0-0.1,0-0.2c-0.5,0-1.2,0.2-1.6,0.4c-0.5,0.3-0.9,0.8-1,1.4c-0.1,0.3-0.1,0.7-0.1,1c0,2.3,0,4.6,0,6.9c0,0.1,0,0.3,0,0.4
		c0.2,1.7,1.4,2.8,2.9,3.1c0.3,0.1,0.6,0.1,0.9,0.1c0.7,0,1.3,0,2-0.1c1.5-0.2,2.7-1.4,3-2.9c0.1-0.5,0.1-1.1,0.1-1.6
		c0-2,0-3.9,0-5.9C60.6,37.1,60.6,37,60.6,37z"/>
	<path class="st1" d="M47.5,35.9c-0.1,0.3-0.1,0.7-0.1,1c0,0.9,0,1.8,0,2.7c0,1.3,0,2.7,0,4c0,0.6-0.3,0.9-0.8,1.1
		c-0.2,0.1-0.4,0.1-0.6,0.1c-1.2,0-2.4,0-3.6,0c-0.1,0-0.1,0-0.2,0c0,0.9,0,1.8,0,2.7c0,0,0,0,0.1,0c1.5,0,2.9,0,4.4,0
		c0.9,0,1.7-0.4,2.4-1c0.8-0.7,1.1-1.7,1.1-2.7c0-3.2,0-6.4,0-9.5c0-0.1,0-0.1,0-0.2c-0.7,0.1-1.3,0.2-1.9,0.6
		C47.8,35,47.6,35.4,47.5,35.9z"/>
	<path class="st1" d="M66.1,29.8c-0.1,0-0.1,0-0.1,0.1c-0.7,0.4-1.4,0.7-2.2,1.1c-1.5,0.7-2.9,1.5-4.4,2.3c-1.2,0.7-1.8,2-1.4,3.3
		c0,0.1,0.1,0.2,0.1,0.4c0,0,0.1,0,0.1,0c2.2-1.1,4.4-2.2,6.5-3.3c0.6-0.3,1.1-0.8,1.3-1.5C66.5,31.3,66.4,30.6,66.1,29.8z"/>
	<path class="st1" d="M44.9,42.5c0-2.8,0-5.6,0-8.4c-0.4,0-1.3,0.2-1.7,0.5c-0.5,0.3-0.8,0.7-0.9,1.3c-0.1,0.4-0.1,0.8-0.1,1.2
		c0,1.8,0,3.5,0,5.3c0,0,0,0.1,0,0.1C43.1,42.5,44,42.5,44.9,42.5z"/>
	<path class="st1" d="M38.4,43.2c0.7,0,1.2-0.5,1.2-1.2c0-0.7-0.5-1.2-1.2-1.2c-0.7,0-1.2,0.5-1.2,1.2
		C37.2,42.6,37.7,43.2,38.4,43.2z"/>
	<path class="st1" d="M35.8,43.1c0.7,0,1.2-0.5,1.2-1.2c0-0.7-0.5-1.2-1.2-1.2c-0.7,0-1.2,0.5-1.2,1.2
		C34.6,42.5,35.1,43.1,35.8,43.1z"/>
</g>
</svg>
