<?xml version="1.0" encoding="utf-8"?>
<!-- Generator: Adobe Illustrator 26.0.1, SVG Export Plug-In . SVG Version: 6.00 Build 0)  -->
<svg version="1.1" id="Layer_1" xmlns="http://www.w3.org/2000/svg" xmlns:xlink="http://www.w3.org/1999/xlink" x="0px" y="0px"
	 viewBox="0 0 88 88" style="enable-background:new 0 0 88 88;" xml:space="preserve">
<style type="text/css">
	.st0{fill:url(#SVGID_1_);}
	.st1{fill:#FFFFFF;}
</style>
<linearGradient id="SVGID_1_" gradientUnits="userSpaceOnUse" x1="2.4925" y1="12.2918" x2="85.0283" y2="75.3421">
	<stop  offset="0" style="stop-color:#094DD6"/>
	<stop  offset="1" style="stop-color:#0E0D77"/>
</linearGradient>
<path class="st0" d="M63.1,88H24.9C11.1,88,0,76.9,0,63.1V24.9C0,11.1,11.1,0,24.9,0h38.3C76.9,0,88,11.1,88,24.9v38.3
	C88,76.9,76.9,88,63.1,88z"/>
<g>
	<path class="st1" d="M47.3,44.9c-0.2,0-0.3,0-0.5,0c-0.5-0.1-1-0.4-1-1.1c0-1.4,0-2.8,0-4.2c0-0.1,0-0.1,0-0.2
		c-0.6,0-1.3,0.2-1.9,0.6c-0.4,0.3-0.6,0.6-0.7,1.1c-0.1,0.3-0.1,0.7-0.1,1.1c0,0.6,0,1.2,0,1.7c0,0.5-0.2,0.8-0.7,1
		c-0.6,0.2-1.1,0.2-1.7,0.1c-0.7-0.1-0.9-0.5-0.9-1.1c0-1.4,0-2.8,0-4.2c0,0,0-0.1,0-0.2c-0.5,0-1,0.1-1.4,0.4
		c-0.6,0.3-1,0.8-1.2,1.4c-0.1,0.4-0.1,0.8-0.1,1.2c0,1.8,0,3.6,0,5.4c0,0.1,0,0.2,0,0.3c-0.1,0.6-0.5,0.9-1.1,0.9c-1,0-1.9,0-2.9,0
		c-0.4,0-0.8-0.2-0.9-0.6C32,48.2,32,47.9,32,47.7c0-2.7,0-5.5,0-8.2c0-0.1,0-0.1,0-0.2c-0.6,0.1-1.2,0.2-1.8,0.6
		c-0.4,0.3-0.7,0.7-0.8,1.1c-0.1,0.4-0.1,0.7-0.1,1.1c0,1.9,0,3.8,0,5.7c0,0.5,0.1,0.9,0.2,1.4c0.5,1.5,1.8,2.5,3.4,2.5
		c1.1,0,2.2,0,3.4,0c0.2,0,0.3,0,0.5,0c1-0.1,1.8-0.5,2.4-1.3c0.5-0.7,0.8-1.4,0.8-2.3c0-0.2,0-0.4,0-0.6c0.4,0,0.7,0.1,1,0.1
		c0.4,0,0.8,0,1.2,0c0.8,0,1.5-0.2,2.1-0.7c0.1-0.1,0.1,0,0.2,0c0.7,0.4,1.4,0.7,2.3,0.7c3.8,0,7.5,0,11.3,0c0.3,0,0.7,0,1-0.1
		c0.6-0.1,1.1-0.3,1.5-0.8c0.4-0.5,0.6-1.2,0.6-1.8c-0.1,0-0.1,0-0.2,0C56.3,44.9,51.8,44.9,47.3,44.9z"/>
	<path class="st1" d="M75.7,42.1c-0.4-1.6-1.6-2.6-3-2.7c-0.6-0.1-1.1-0.1-1.7-0.1c-0.3,0-0.6,0-1,0.1c-1.3,0.3-2.2,1-2.7,2.3
		c-0.2,0.7-0.2,1.3-0.2,2c0,0.5-0.2,0.9-0.7,1c-0.3,0.1-0.6,0.1-1,0.1c-0.5,0-0.7-0.3-0.7-0.7c0-2.5,0-5.1,0-7.6c0-0.1,0-0.1,0-0.2
		c-0.7,0.1-1.3,0.2-1.8,0.6c-0.4,0.3-0.6,0.6-0.7,1.1c-0.1,0.4-0.1,0.7-0.1,1.1c0,1.2,0,2.5,0,3.7c0,0.6,0,1.1,0.1,1.7
		c0.2,1.3,0.9,2.1,2,2.7c0.6,0.3,1.3,0.4,2,0.3c0.8,0,1.5-0.2,2.1-0.7c0.1-0.1,0.1-0.1,0.2,0c0.7,0.4,1.4,0.7,2.3,0.7
		c0.5,0,0.9,0,1.4,0c0.2,0,0.4,0,0.7-0.1c1.9-0.4,3-1.8,3-3.6C75.7,43.3,75.8,42.7,75.7,42.1z M73,44c0,0.4-0.3,0.6-0.7,0.8
		c-0.6,0.2-1.3,0.2-1.9,0c-0.4-0.1-0.7-0.5-0.7-0.9c0-0.1,0-0.3,0-0.4c0,0,0,0,0,0c0-0.2,0-0.4,0-0.6c0.1-0.4,0.4-0.6,0.7-0.7
		c0.6-0.1,1.1-0.1,1.7,0c0.5,0.1,0.8,0.4,0.8,0.9C73.1,43.3,73.1,43.7,73,44z"/>
	<path class="st1" d="M22.3,44.9c-0.2,0-0.3,0-0.5,0c-0.2-0.1-0.4-0.1-0.6-0.3c-0.2-0.1-0.3-0.3-0.3-0.6c0-0.6,0-1.2-0.1-1.8
		c-0.4-1.8-1.8-2.7-3.2-2.8c-0.5,0-1,0-1.5,0c-0.3,0-0.7,0-1,0.1c-1.4,0.3-2.5,1.4-2.7,2.8c-0.1,0.6-0.1,1.3-0.1,1.9
		c0,0.3,0.1,0.6,0.1,0.9c0.4,1.6,1.8,2.5,3.3,2.6c0.8,0,1.6,0.1,2.4-0.1c0,1.4,0,2.8,0,4.2c0.8-0.2,1.5-0.6,1.9-1.2
		c0.5-0.6,0.7-1.4,0.8-2.2c0-0.3,0-0.5,0-0.8c0.1,0,0.1,0,0.1,0c0.2,0,0.4,0.1,0.6,0.1c1,0,2,0,2.9,0c0.3,0,0.7,0,1-0.1
		c0.4-0.1,0.8-0.2,1.1-0.5c0.6-0.6,0.8-1.3,0.8-2.1c-0.1,0-0.1,0-0.2,0C25.7,44.9,24,44.9,22.3,44.9z M18.2,44
		c0,0.4-0.3,0.6-0.6,0.8c-0.3,0.1-0.6,0.1-1,0.1c-0.3,0-0.6,0-0.9-0.1c-0.4-0.2-0.7-0.5-0.7-0.9c0-0.3,0-0.5,0-0.8
		c0-0.5,0.3-0.8,0.8-1c0.5-0.1,1.1-0.1,1.6,0c0.5,0.1,0.8,0.5,0.8,1C18.2,43.4,18.2,43.7,18.2,44z"/>
	<path class="st1" d="M57.1,43.4c0.7,0,1.2-0.5,1.2-1.2c0-0.6-0.5-1.2-1.2-1.2c-0.7,0-1.2,0.5-1.2,1.2
		C55.9,42.8,56.5,43.4,57.1,43.4z"/>
	<path class="st1" d="M44.8,49.3c-0.7,0-1.2,0.5-1.2,1.2c0,0.7,0.5,1.2,1.2,1.2c0.6,0,1.2-0.5,1.2-1.2C46,49.8,45.5,49.3,44.8,49.3z
		"/>
	<path class="st1" d="M23.5,43.2c0.7,0,1.2-0.5,1.2-1.2c0-0.6-0.5-1.2-1.2-1.2c-0.7,0-1.2,0.5-1.2,1.2
		C22.3,42.6,22.8,43.2,23.5,43.2z"/>
	<path class="st1" d="M54.3,43.3c0.7,0,1.2-0.5,1.2-1.2c0-0.6-0.5-1.2-1.2-1.2c-0.7,0-1.2,0.5-1.2,1.2
		C53.1,42.8,53.7,43.3,54.3,43.3z"/>
	<path class="st1" d="M51.5,43.3c0.7,0,1.2-0.5,1.2-1.2c0-0.7-0.5-1.2-1.2-1.2c-0.7,0-1.2,0.5-1.2,1.2
		C50.3,42.8,50.8,43.3,51.5,43.3z"/>
	<path class="st1" d="M34.5,43.3c0.7,0,1.2-0.5,1.2-1.2c0-0.6-0.5-1.2-1.2-1.2c-0.7,0-1.2,0.5-1.2,1.2
		C33.3,42.8,33.8,43.3,34.5,43.3z"/>
	<path class="st1" d="M42.1,49.3c-0.7,0-1.2,0.5-1.2,1.2c0,0.7,0.5,1.2,1.2,1.2c0.6,0,1.2-0.5,1.2-1.2
		C43.3,49.8,42.8,49.3,42.1,49.3z"/>
	<path class="st1" d="M26,43.3c0.7,0,1.2-0.5,1.2-1.2c0-0.7-0.5-1.2-1.2-1.2c-0.7,0-1.2,0.5-1.2,1.2C24.8,42.7,25.4,43.3,26,43.3z"
		/>
</g>
</svg>
