<?xml version="1.0" encoding="utf-8"?>
<!-- Generator: Adobe Illustrator 26.0.1, SVG Export Plug-In . SVG Version: 6.00 Build 0)  -->
<svg version="1.1" id="Layer_1" xmlns="http://www.w3.org/2000/svg" xmlns:xlink="http://www.w3.org/1999/xlink" x="0px" y="0px"
	 viewBox="0 0 88 88" style="enable-background:new 0 0 88 88;" xml:space="preserve">
<style type="text/css">
	.st0{fill:url(#SVGID_1_);}
	.st1{fill:#FFFFFF;}
</style>
<linearGradient id="SVGID_1_" gradientUnits="userSpaceOnUse" x1="2.4925" y1="12.2918" x2="85.0283" y2="75.3421">
	<stop  offset="9.350728e-02" style="stop-color:#F28500"/>
	<stop  offset="0.4545" style="stop-color:#CE6501"/>
	<stop  offset="0.8005" style="stop-color:#B24C03"/>
	<stop  offset="1" style="stop-color:#A74303"/>
</linearGradient>
<path class="st0" d="M63.1,88H24.9C11.1,88,0,76.9,0,63.1V24.9C0,11.1,11.1,0,24.9,0h38.3C76.9,0,88,11.1,88,24.9v38.3
	C88,76.9,76.9,88,63.1,88z"/>
<g>
	<path class="st1" d="M73.3,42.6c-0.1-1.7-1.2-3-2.9-3.4c-1-0.2-2-0.2-3,0c-1.2,0.2-2,0.9-2.5,2c-0.4,0.7-0.4,1.5-0.3,2.3
		c0,0.5-0.2,0.9-0.6,1c-0.3,0.1-0.5,0.1-0.8,0.1c-5.3,0-10.6,0-15.9,0c-0.1,0-0.1,0-0.2,0c-0.3,0-0.6-0.1-0.9-0.3
		c-0.2-0.2-0.3-0.3-0.3-0.6c0-0.5,0-1,0-1.5c-0.2-1.5-1.2-2.8-2.8-3.1c-1-0.2-1.9-0.2-2.9,0c-1.4,0.2-2.4,1-2.9,2.4
		c-0.3,0.9-0.3,1.8-0.1,2.7c0.2,2,1.8,3.1,3.4,3.2c0.8,0,1.7,0.1,2.6-0.1c0,0.7,0,1.4,0,2.1c0,0.7,0,1.4,0,2.1c0,0,0.1,0,0.1,0
		c1.6-0.4,2.6-1.8,2.7-3.5c0-0.3,0-0.5,0-0.8c0.6,0.2,1.2,0.1,1.9,0.1c5.3,0,10.5,0,15.8,0c0.8,0,1.6-0.2,2.3-0.7c0.1,0,0.1,0,0.2,0
		c0.7,0.5,1.5,0.7,2.4,0.7c0.4,0,0.8,0,1.1,0c0.3,0,0.7,0,1-0.1c1.5-0.3,2.7-1.5,2.8-3C73.3,43.8,73.3,43.2,73.3,42.6z M43.1,43.3
		C43.1,43.3,43,43.3,43.1,43.3c0,0.2,0,0.4,0,0.5c0,0.4-0.2,0.7-0.6,0.8c-0.2,0.1-0.3,0.1-0.5,0.1c-0.4,0-0.9,0.1-1.3-0.1
		c-0.5-0.2-0.8-0.5-0.8-1.1c0-0.3,0-0.5,0-0.8c0-0.4,0.3-0.7,0.6-0.8c0.2-0.1,0.3-0.1,0.5-0.1c0.4,0,0.9-0.1,1.3,0.1
		c0.5,0.2,0.8,0.5,0.8,1.1C43.1,43.1,43.1,43.2,43.1,43.3z M70.5,43.7c0,0.4-0.2,0.7-0.6,0.9c-0.2,0.1-0.3,0.1-0.5,0.1
		c-0.5,0-1,0.1-1.4-0.1c-0.5-0.2-0.7-0.5-0.7-1c0-0.2,0-0.5,0-0.7c0-0.4,0.2-0.7,0.5-0.8c0.2-0.1,0.4-0.2,0.7-0.2
		c0.4,0,0.9-0.1,1.3,0.1c0.5,0.2,0.8,0.5,0.8,1.1c0,0.1,0,0.2,0,0.3c0,0,0,0,0,0C70.5,43.5,70.5,43.6,70.5,43.7z"/>
	<path class="st1" d="M25.8,44.8c-0.3,0-0.6,0-0.9,0c-0.3,0-0.6-0.1-0.9-0.2c-0.3-0.2-0.4-0.4-0.4-0.7c0-0.5,0-1,0-1.5
		c-0.2-1.6-1.2-2.8-2.8-3.1c-1-0.2-1.9-0.2-2.9,0c-1.5,0.2-2.5,1.1-2.9,2.5c-0.3,0.8-0.2,1.7-0.1,2.6c0.3,2,1.9,3.1,3.5,3.2
		c0.8,0,1.6,0.1,2.5-0.1c0,1.4,0,2.8,0,4.3c0,0,0,0,0.1,0c0.7-0.2,1.4-0.6,1.8-1.2c0.5-0.7,0.8-1.4,0.8-2.3c0-0.3,0-0.5,0-0.8
		c0.3,0,0.5,0.1,0.8,0.1c1,0,1.9,0,2.9,0c0.3,0,0.6,0,0.9-0.1c0.4-0.1,0.9-0.2,1.2-0.5c0.6-0.6,0.8-1.3,0.9-2.2c-0.1,0-0.1,0-0.2,0
		C28.6,44.8,27.2,44.8,25.8,44.8z M20.8,43.9c-0.1,0.4-0.3,0.6-0.6,0.7c-0.2,0.1-0.3,0.1-0.5,0.1c-0.5,0-0.9,0.1-1.4-0.1
		c-0.5-0.1-0.7-0.4-0.8-0.9c0-0.3,0-0.6,0-0.9c0-0.4,0.3-0.7,0.6-0.8c0.2-0.1,0.4-0.1,0.5-0.1c0.4,0,0.9-0.1,1.3,0.1
		c0.6,0.2,0.8,0.5,0.8,1.1c0,0.1,0,0.2,0,0.3c0,0,0,0,0,0C20.8,43.5,20.8,43.7,20.8,43.9z"/>
	<path class="st1" d="M35.8,39.1c-0.5,0-0.9,0.1-1.4,0.3c-0.5,0.2-0.9,0.5-1.1,1.1C33.1,41,33,41.5,33,42c0,3.2,0,6.4,0,9.6
		c0,0,0,0.1,0,0.1c0,0,0,0,0,0c0.7-0.2,1.3-0.5,1.8-1.1c0.6-0.7,0.9-1.6,0.9-2.5c0-2.9,0-5.8,0-8.7C35.8,39.2,35.8,39.2,35.8,39.1z"
		/>
	<path class="st1" d="M28.7,43.2c0.7,0,1.2-0.5,1.2-1.2c0-0.7-0.6-1.2-1.2-1.2c-0.7,0-1.2,0.5-1.2,1.2C27.5,42.6,28,43.2,28.7,43.2z
		"/>
	<path class="st1" d="M55.5,43.2c0.7,0,1.2-0.5,1.2-1.2c0-0.7-0.5-1.2-1.2-1.2c-0.7,0-1.2,0.5-1.2,1.2
		C54.3,42.7,54.8,43.2,55.5,43.2z"/>
	<path class="st1" d="M26.1,43.1c0.7,0,1.2-0.5,1.2-1.2c0-0.7-0.5-1.2-1.2-1.2c-0.7,0-1.2,0.5-1.2,1.2
		C24.9,42.5,25.4,43.1,26.1,43.1z"/>
	<path class="st1" d="M58.3,43.3c0.7,0,1.2-0.5,1.2-1.2c0-0.7-0.5-1.2-1.2-1.2c-0.7,0-1.2,0.5-1.2,1.2
		C57.1,42.7,57.6,43.2,58.3,43.3z"/>
	<path class="st1" d="M52.6,43.2c0.7,0,1.2-0.5,1.2-1.2c0-0.7-0.5-1.2-1.2-1.2c-0.7,0-1.2,0.5-1.2,1.2
		C51.4,42.7,51.9,43.2,52.6,43.2z"/>
</g>
</svg>
