<?xml version="1.0" encoding="utf-8"?>
<!-- Generator: Adobe Illustrator 26.0.1, SVG Export Plug-In . SVG Version: 6.00 Build 0)  -->
<svg version="1.1" id="Layer_1" xmlns="http://www.w3.org/2000/svg" xmlns:xlink="http://www.w3.org/1999/xlink" x="0px" y="0px"
	 viewBox="0 0 65 65" style="enable-background:new 0 0 65 65;" xml:space="preserve">
<style type="text/css">
	.st0{fill:url(#SVGID_1_);}
	.st1{fill:#FFFFFF;}
</style>
<linearGradient id="SVGID_1_" gradientUnits="userSpaceOnUse" x1="1.841" y1="9.0792" x2="62.805" y2="55.6504">
	<stop  offset="0" style="stop-color:#C44FE0"/>
	<stop  offset="1" style="stop-color:#5A1399"/>
</linearGradient>
<path class="st0" d="M46.6,65H18.4C8.2,65,0,56.8,0,46.6V18.4C0,8.2,8.2,0,18.4,0h28.3C56.8,0,65,8.2,65,18.4v28.3
	C65,56.8,56.8,65,46.6,65z"/>
<g>
	<g>
		<path class="st1" d="M51.5,48.4c-0.2,0.3-0.4,0.4-0.8,0.4c-12.1,0-24.3,0-36.4,0h-0.1c-0.4,0-0.7-0.2-0.7-0.6
			c0-0.3,0.2-0.6,0.7-0.6c1,0,1.9,0,2.9,0c0.1,0,0.3,0,0.5,0c0-0.7,0-1.3,0-1.9c0-0.1-0.2-0.2-0.3-0.2c-1.1-0.3-1.9-1.1-2.2-2.2
			c-0.4-1.2-0.1-2.3,0.8-3.2c0.9-0.9,2.1-1.1,3.3-0.7c0.1,0,0.2,0.1,0.3,0.1c0-6.6,0-13.1,0-19.7c-0.1,0-0.1,0-0.2,0
			c-0.9,0-1.2-0.3-1.2-1.2c0-0.4,0-0.8,0-1.2c0-0.7,0.4-1.1,1.1-1.1c4,0,8,0,12,0c1,0,2.1,0,3.1,0c0.7,0,1,0.4,1.1,1.1
			c0,0.4,0,0.9,0,1.3c0,0.8-0.3,1.1-1.1,1.1c-0.1,0-0.1,0-0.2,0c0,0.5,0,1,0,1.5c0.2,0,0.3,0,0.5,0c3.8,0,7.6,0,11.4,0
			c0.9,0,1.2,0.3,1.2,1.2c0,0.4,0,0.7,0,1.1c0,0.8-0.3,1.1-1.1,1.2c0,0.1,0,0.3,0,0.4c0,3.1,0,6.2,0,9.3c0,0.6-0.2,0.8-0.6,0.8
			c-0.4,0-0.6-0.3-0.6-0.8c0-3.1,0-6.2,0-9.3c0-0.1,0-0.3,0-0.5c-3.6,0-7.2,0-10.8,0c0,0.1,0,0.3,0,0.4c0,0.7,0,1.4,0,2.2
			c0,0.3-0.2,0.5-0.5,0.6c-0.3,0-0.5-0.2-0.6-0.5c0-0.1,0-0.2,0-0.4c0-2.3,0-4.5,0-6.8c0-0.1,0-0.3,0-0.5c-4.1,0-8.2,0-12.3,0
			c0,0.1,0,0.3,0,0.4c0,6.6,0,13.2,0,19.8c0,0.2,0.1,0.4,0.2,0.6c0.7,1.1,0.7,2.5,0,3.6c-0.1,0.2-0.2,0.4-0.2,0.6c0,0.9,0,1.9,0,2.8
			c4.1,0,8.2,0,12.3,0c0-0.2,0-0.3,0-0.5c0-5.6,0-11.1,0-16.7c0-0.2,0-0.3,0-0.5c0.1-0.3,0.3-0.4,0.5-0.4c0.3,0,0.5,0.2,0.5,0.5
			c0,0.1,0,0.3,0,0.4c0,5.5,0,11.1,0,16.6c0,0.2,0,0.3,0,0.5c3.6,0,7.2,0,10.8,0c0-0.1,0-0.2,0-0.3c0-0.5,0-1,0-1.6
			c0-0.7-0.1-1.2-0.4-1.8c-0.7-1.2-0.6-2.4,0.2-3.5c0.1-0.1,0.2-0.3,0.2-0.5c0-0.7,0-1.4,0-2c0-0.1,0-0.2,0-0.3
			c0-0.3,0.3-0.6,0.6-0.6s0.5,0.2,0.5,0.6c0,0.6,0,1.2,0,1.7c0.6,0,1.2-0.1,1.7-0.1c1.4,0.1,2.6,1.4,2.7,2.8c0.2,1.7-0.9,3-2.2,3.4
			c-0.3,0.1-0.4,0.2-0.4,0.5c0,0.5,0,1.1,0,1.6c0.9,0,1.7,0,2.6,0c0.2,0,0.3,0,0.5,0c0.3,0,0.5,0.1,0.7,0.4
			C51.5,48.1,51.5,48.2,51.5,48.4z M19.2,17.4c0,0.4,0,0.8,0,1.2c5,0,10,0,15,0c0-0.4,0-0.8,0-1.2C29.2,17.4,24.2,17.4,19.2,17.4z
			 M33.9,23.7c4,0,7.9,0,11.9,0c0-0.4,0-0.8,0-1.2c-4,0-7.9,0-11.9,0C33.9,22.9,33.9,23.3,33.9,23.7z M47.7,44.4
			c1-0.2,1.7-1.2,1.5-2.3c-0.1-1-1.1-1.8-2.1-1.8c-1.1,0-2,0.9-2.1,2c-0.1,1,0.6,2,1.5,2.1c0-0.2,0-0.3,0-0.5c0-0.4,0.2-0.7,0.6-0.7
			c0.3,0,0.5,0.3,0.5,0.7C47.7,44,47.7,44.2,47.7,44.4z M18.6,44.4c1-0.2,1.6-1.2,1.5-2.3c-0.1-1-1.1-1.9-2.1-1.8c-1.1,0-2,1-2,2.1
			c0,1,0.7,1.9,1.5,2c0-0.1,0-0.3,0-0.4c0-0.5,0.2-0.8,0.5-0.8c0.4,0,0.6,0.3,0.6,0.8C18.6,44.1,18.6,44.2,18.6,44.4z M19.4,45.3
			c-0.2,0.1-0.4,0.1-0.6,0.2c-0.1,0-0.2,0.1-0.2,0.2c0,0.6,0,1.3,0,1.9c0.3,0,0.5,0,0.8,0C19.4,46.8,19.4,46.1,19.4,45.3z
			 M46.5,47.6c0-0.6,0-1.2,0-1.9c0-0.1-0.1-0.2-0.2-0.2c-0.2-0.1-0.3-0.1-0.5-0.1c0,0.8,0,1.5,0,2.2C46.1,47.6,46.3,47.6,46.5,47.6z
			"/>
		<path class="st1" d="M26.7,21c1,0,1.9,0,2.9,0c0.7,0,1.1,0.4,1.1,1.1c0,1.6,0,3.2,0,4.9c0,0.7-0.4,1.1-1.1,1.1c-1.9,0-3.8,0-5.7,0
			c-0.7,0-1.1-0.4-1.1-1c0-1.6,0-3.3,0-4.9c0-0.7,0.4-1.1,1.1-1.1C24.8,21,25.7,21,26.7,21z M29.5,26.1c-0.2,0-0.3,0-0.4,0
			c-1.5,0-3,0-4.5,0c-0.7,0-0.7,0-0.6,0.7l0,0c1.9,0,3.7,0,5.6,0C29.5,26.6,29.5,26.4,29.5,26.1z M23.9,22.1c0,1,0,1.9,0,2.8
			c0.4,0,0.8,0,1.1,0c0-1,0-1.9,0-2.8C24.6,22.1,24.3,22.1,23.9,22.1z M28.3,22.1c0,1,0,1.9,0,2.8c0.4,0,0.8,0,1.1,0
			c0-1,0-1.9,0-2.8C29.1,22.1,28.7,22.1,28.3,22.1z M26.2,22.1c0,1,0,1.9,0,2.8c0.4,0,0.7,0,1,0c0-1,0-1.9,0-2.8
			C26.8,22.1,26.5,22.1,26.2,22.1z"/>
		<path class="st1" d="M26.7,29.3c1,0,1.9,0,2.9,0c0.7,0,1,0.4,1,1.1c0,1.6,0,3.3,0,4.9c0,0.7-0.4,1-1.1,1c-1.9,0-3.8,0-5.7,0
			c-0.7,0-1-0.4-1.1-1c0-1.7,0-3.3,0-5c0-0.6,0.4-1,1-1C24.7,29.2,25.7,29.3,26.7,29.3z M29.5,34.3c-0.2,0-0.3,0-0.4,0
			c-1.5,0-3,0-4.5,0c-0.7,0-0.7,0-0.6,0.7l0,0c1.9,0,3.7,0,5.6,0C29.5,34.8,29.5,34.6,29.5,34.3z M23.9,30.4c0,1,0,1.9,0,2.8
			c0.4,0,0.8,0,1.1,0c0-1,0-1.9,0-2.8C24.6,30.4,24.3,30.4,23.9,30.4z M29.5,33.2c0-1,0-1.9,0-2.8c-0.4,0-0.8,0-1.1,0
			c0,0.9,0,1.9,0,2.8C28.7,33.2,29.1,33.2,29.5,33.2z M26.2,30.4c0,1,0,1.9,0,2.8c0.3,0,0.7,0,1,0c0-1,0-1.9,0-2.8
			C26.8,30.4,26.5,30.4,26.2,30.4z"/>
		<path class="st1" d="M29.5,43.4c0-0.3,0-0.5,0-0.8c-0.1,0-0.3,0-0.4,0c-1.6,0-3.1,0-4.7,0c-0.5,0-0.5,0-0.5,0.5c0,0.1,0,0.1,0,0.3
			c0.7,0,1.4,0,2,0c0.1,0,0.3,0,0.4,0c0.3,0,0.6,0.3,0.6,0.6s-0.2,0.5-0.6,0.6c-0.5,0-1.1,0-1.6,0c-0.3,0-0.6,0-1,0
			c-0.7,0-1-0.4-1.1-1c0-0.8,0-1.6,0-2.5c0-0.8,0-1.6,0-2.4c0-0.8,0.4-1.1,1.1-1.1c1.9,0,3.8,0,5.6,0c0.8,0,1.1,0.4,1.1,1.1
			c0,1.6,0,3.2,0,4.8c0,0.8-0.4,1.1-1.1,1.1c-0.2,0-0.3,0-0.5,0c-0.3,0-0.5-0.3-0.5-0.6s0.2-0.5,0.5-0.5
			C29.1,43.4,29.3,43.4,29.5,43.4z M23.9,38.6c0,1,0,1.9,0,2.8c0.4,0,0.8,0,1.1,0c0-1,0-1.9,0-2.8C24.6,38.6,24.3,38.6,23.9,38.6z
			 M28.3,38.6c0,1,0,1.9,0,2.8c0.4,0,0.8,0,1.1,0c0-1,0-1.9,0-2.8C29.1,38.6,28.7,38.6,28.3,38.6z M27.2,41.5c0-1,0-1.9,0-2.8
			c-0.4,0-0.7,0-1,0c0,1,0,1.9,0,2.8C26.5,41.5,26.8,41.5,27.2,41.5z"/>
		<path class="st1" d="M43.2,33.2c0,0.4,0,0.8,0,1.3s-0.4,0.9-0.9,0.9s-1.1,0-1.6,0s-0.9-0.4-0.9-0.9c0-0.9,0-1.7,0-2.6
			c0-0.5,0.4-0.9,1-0.9c0.5,0,1,0,1.6,0s0.9,0.4,1,1c0,0,0,0,0,0.1C43.2,32.4,43.2,32.8,43.2,33.2L43.2,33.2z M40.8,32.1
			c0,0.7,0,1.5,0,2.2c0.4,0,0.8,0,1.2,0c0-0.7,0-1.5,0-2.2C41.6,32.1,41.2,32.1,40.8,32.1z"/>
		<path class="st1" d="M43.2,43.6c0,0.4,0,0.8,0,1.3s-0.4,0.9-0.9,0.9s-1.1,0-1.6,0s-0.9-0.4-0.9-0.9c0-0.9,0-1.7,0-2.6
			c0-0.5,0.4-0.9,1-0.9c0.5,0,1.1,0,1.6,0s0.9,0.4,0.9,0.9c0,0,0,0,0,0.1C43.2,42.8,43.2,43.2,43.2,43.6L43.2,43.6z M40.8,42.5
			c0,0.7,0,1.5,0,2.2c0.4,0,0.8,0,1.2,0c0-0.7,0-1.5,0-2.2C41.6,42.5,41.3,42.5,40.8,42.5z"/>
		<path class="st1" d="M38.7,28c0,0.4,0,0.8,0,1.3c0,0.6-0.4,0.9-1,1c-0.5,0-1,0-1.6,0c-0.5,0-0.9-0.4-1-0.9c0-0.9,0-1.7,0-2.6
			c0-0.5,0.4-0.9,1-0.9c0.5,0,1,0,1.6,0s0.9,0.4,1,1C38.7,27.2,38.7,27.6,38.7,28z M36.3,26.9c0,0.8,0,1.5,0,2.2c0.4,0,0.8,0,1.2,0
			c0-0.7,0-1.5,0-2.2C37.1,26.9,36.7,26.9,36.3,26.9z"/>
		<path class="st1" d="M43.2,28c0,0.4,0,0.8,0,1.3s-0.4,0.9-0.9,0.9s-1.1,0-1.6,0s-0.9-0.4-0.9-0.9c0-0.9,0-1.8,0-2.6
			c0-0.5,0.4-0.9,0.9-0.9s1.1,0,1.6,0s0.9,0.4,0.9,1C43.2,27.2,43.2,27.6,43.2,28z M40.8,26.9c0,0.7,0,1.5,0,2.2c0.4,0,0.8,0,1.2,0
			c0-0.7,0-1.5,0-2.2C41.6,26.9,41.2,26.9,40.8,26.9z"/>
		<path class="st1" d="M38.7,38.4c0,0.4,0,0.8,0,1.3c0,0.6-0.4,0.9-0.9,1c-0.5,0-1.1,0-1.6,0s-0.9-0.4-0.9-0.9c0-0.9,0-1.7,0-2.6
			c0-0.5,0.4-0.9,1-0.9c0.5,0,1,0,1.6,0s0.9,0.4,1,1c0,0,0,0,0,0.1C38.7,37.6,38.7,38,38.7,38.4z M36.3,37.3c0,0.8,0,1.5,0,2.2
			c0.4,0,0.8,0,1.2,0c0-0.7,0-1.5,0-2.2C37.1,37.3,36.7,37.3,36.3,37.3z"/>
		<path class="st1" d="M38.7,43.6c0,0.4,0,0.8,0,1.2c0,0.6-0.4,1-1,1c-0.5,0-1,0-1.6,0s-1-0.4-1-1c0-0.8,0-1.7,0-2.5
			c0-0.6,0.4-0.9,1-1c0.5,0,1,0,1.6,0s0.9,0.4,1,1C38.7,42.8,38.7,43.2,38.7,43.6z M36.3,44.7c0.4,0,0.8,0,1.2,0c0-0.7,0-1.5,0-2.2
			c-0.4,0-0.8,0-1.2,0C36.3,43.2,36.3,43.9,36.3,44.7z"/>
		<path class="st1" d="M43.2,38.4c0,0.4,0,0.8,0,1.2c0,0.6-0.4,1-0.9,1s-1.1,0-1.6,0s-0.9-0.4-0.9-0.9c0-0.9,0-1.8,0-2.6
			c0-0.5,0.4-0.9,0.9-0.9s1.1,0,1.6,0s0.9,0.4,0.9,0.9C43.2,37.6,43.2,38,43.2,38.4z M40.8,37.3c0,0.8,0,1.5,0,2.2
			c0.4,0,0.8,0,1.2,0c0-0.7,0-1.5,0-2.2C41.6,37.3,41.3,37.3,40.8,37.3z"/>
		<path class="st1" d="M38.7,33.2c0,0.4,0,0.8,0,1.3s-0.4,0.9-0.9,0.9s-1.1,0-1.6,0s-0.9-0.4-0.9-0.9c0-0.9,0-1.7,0-2.6
			c0-0.6,0.4-0.9,1-0.9c0.5,0,1,0,1.6,0c0.5,0,0.9,0.4,0.9,0.9C38.7,32.3,38.7,32.8,38.7,33.2z M37.5,34.3c0-0.8,0-1.5,0-2.2
			c-0.4,0-0.8,0-1.2,0c0,0.7,0,1.5,0,2.2C36.7,34.3,37.1,34.3,37.5,34.3z"/>
	</g>
</g>
</svg>
