<?xml version="1.0" encoding="utf-8"?>
<!-- Generator: Adobe Illustrator 26.0.1, SVG Export Plug-In . SVG Version: 6.00 Build 0)  -->
<svg version="1.1" id="Layer_1" xmlns="http://www.w3.org/2000/svg" xmlns:xlink="http://www.w3.org/1999/xlink" x="0px" y="0px"
	 viewBox="0 0 65 65" style="enable-background:new 0 0 65 65;" xml:space="preserve">
<style type="text/css">
	.st0{fill:url(#SVGID_1_);}
	.st1{fill:#FFFFFF;}
</style>
<linearGradient id="SVGID_1_" gradientUnits="userSpaceOnUse" x1="1.8447" y1="56.217" x2="62.8087" y2="9.6458" gradientTransform="matrix(1 0 0 -1 0 65.2912)">
	<stop  offset="0" style="stop-color:#C44FE0"/>
	<stop  offset="1" style="stop-color:#5A1399"/>
</linearGradient>
<path class="st0" d="M46.6,65H18.4C8.2,65,0,56.8,0,46.6V18.4C0,8.2,8.2,0,18.4,0h28.3C56.8,0,65,8.2,65,18.4v28.3
	C65,56.8,56.8,65,46.6,65z"/>
<path class="st1" d="M49.1,22v-5.2c0-1.4-1.1-2.5-2.5-2.5c-1.4,0-2.5,1.1-2.5,2.5v1.8l-6.5-4.4c-3.1-2.1-7.1-2.1-10.2,0l-10.8,7.3
	c-2.5,1.7-4,4.5-4,7.6v14.3c0,5,4.1,9.1,9.1,9.1h5c1.4,0,2.5-1.1,2.5-2.5V36.7c0-0.5,0.4-0.8,0.8-0.8h5c0.5,0,0.8,0.4,0.8,0.8v13.3
	c0,1.4,1.1,2.5,2.5,2.5h5c5,0,9.1-4.1,9.1-9.1V29C52.4,26.3,51.2,23.7,49.1,22L49.1,22z M47.4,43.3c0,2.3-1.9,4.1-4.1,4.1h-2.5V36.7
	c0-3.2-2.6-5.8-5.8-5.8h-5c-3.2,0-5.8,2.6-5.8,5.8v10.8h-2.5c-2.3,0-4.1-1.9-4.1-4.1V29c0-1.4,0.7-2.7,1.8-3.4l10.8-7.3
	c1.4-1,3.2-1,4.6,0l10.8,7.3c1.1,0.8,1.8,2.1,1.8,3.4L47.4,43.3L47.4,43.3z"/>
</svg>
