<?xml version="1.0" encoding="utf-8"?>
<!-- Generator: Adobe Illustrator 26.0.1, SVG Export Plug-In . SVG Version: 6.00 Build 0)  -->
<svg version="1.1" id="Layer_1" xmlns="http://www.w3.org/2000/svg" xmlns:xlink="http://www.w3.org/1999/xlink" x="0px" y="0px"
	 viewBox="0 0 65 65" style="enable-background:new 0 0 65 65;" xml:space="preserve">
<style type="text/css">
	.st0{fill:url(#SVGID_1_);}
	.st1{fill:#FFFFFF;}
</style>
<linearGradient id="SVGID_1_" gradientUnits="userSpaceOnUse" x1="1.841" y1="9.0792" x2="62.805" y2="55.6504">
	<stop  offset="0" style="stop-color:#C44FE0"/>
	<stop  offset="1" style="stop-color:#5A1399"/>
</linearGradient>
<path class="st0" d="M46.6,65H18.4C8.2,65,0,56.8,0,46.6V18.4C0,8.2,8.2,0,18.4,0h28.3C56.8,0,65,8.2,65,18.4v28.3
	C65,56.8,56.8,65,46.6,65z"/>
<g>
	<g>
		<path class="st1" d="M27.1,48.6c0-7.7,0-15.3,0-23c-1.7,0-3.3,0-5.1,0c0,0.1,0,0.3,0,0.4c0,2.4,0,4.7,0,7.1c0,0.1,0,0.3,0,0.4
			c0,0.3-0.3,0.6-0.7,0.6c-0.3,0-0.6-0.2-0.7-0.6c0-0.1,0-0.2,0-0.3c0-2.7,0-5.3,0-8c0-0.7,0.2-0.9,1-0.9c1.7,0,3.3,0,5,0
			c0.1,0,0.3,0,0.5,0c0-0.2,0-0.3,0-0.4c0-2.6,0-5.3,0-7.9c0-0.7,0.2-0.9,0.9-0.9c4.7,0,9.3,0,14,0c0.7,0,0.9,0.2,0.9,0.9
			c0,4.7,0,9.4,0,14.2c0,0.1,0,0.3,0,0.4c0.2,0,0.3,0,0.4,0c1.9,0,3.9,0,5.8,0c0.6,0,0.9,0.2,0.9,0.9c0,5.1,0,10.3,0,15.4
			c0,1.8-1.3,3.1-3.1,3.1c-8.2,0-16.5,0-24.7,0c-0.7,0-1-0.6-0.7-1c0.2-0.3,0.4-0.4,0.7-0.4c1.5,0,3,0,4.5,0
			C26.8,48.6,27,48.6,27.1,48.6z M38.1,48.6c1.2,0,2.3,0,3.4,0c0-10.8,0-21.5,0-32.2c-4.3,0-8.7,0-13,0c0,10.7,0,21.5,0,32.2
			c1.1,0,2.2,0,3.4,0c0-0.2,0-0.3,0-0.4c0-1.8,0-3.6,0-5.5c0-0.7,0.2-0.9,0.9-0.9c1.5,0,2.9,0,4.4,0c0.7,0,1,0.2,1,1
			c0,1.8,0,3.6,0,5.4C38.1,48.3,38.1,48.4,38.1,48.6z M42.9,48.6c0.1,0,0.2,0,0.4,0c1.2,0,2.3,0,3.5,0s1.9-0.7,1.9-1.9
			c0-4.8,0-9.6,0-14.5c0-0.1,0-0.2,0-0.4c-1.9,0-3.8,0-5.7,0C42.9,37.5,42.9,43,42.9,48.6z M36.7,48.6c0-1.8,0-3.6,0-5.4
			c-1.2,0-2.3,0-3.5,0c0,1.8,0,3.6,0,5.4C34.4,48.6,35.6,48.6,36.7,48.6z"/>
		<path class="st1" d="M18.5,47.5c0-0.6,0-1.2,0-1.8c0-0.1-0.1-0.3-0.2-0.3c-1.8-0.6-2.7-2-3.1-3.7c-0.4-1.5,0-2.9,1.1-4.1
			c0.7-0.8,1.6-1.5,2.5-2.1c0.3-0.2,0.6-0.2,0.8,0c1,0.6,1.9,1.4,2.6,2.2c1.8,2,1.1,4.5,0.1,6.1c-0.5,0.8-1.3,1.4-2.2,1.6
			c-0.2,0.1-0.2,0.2-0.2,0.4c0,1.1,0,2.1,0,3.2c0,0.1,0,0.2,0,0.3c0,0.4-0.3,0.7-0.7,0.6c-0.4,0-0.7-0.3-0.7-0.7
			C18.5,48.7,18.5,48.1,18.5,47.5z M19.9,44.1C20,44,20.1,44,20.2,44c1.5-0.7,2.3-3.4,1.4-4.7c-0.6-0.9-1.4-1.6-2.3-2.2
			c-0.1,0-0.3,0-0.3,0c-0.6,0.5-1.2,0.9-1.7,1.5c-1.3,1.5-1.2,3.7,0.3,5.1c0.2,0.2,0.5,0.4,0.9,0.6c0-0.6,0-1.1,0-1.6
			s0.4-0.8,0.9-0.7c0.3,0.1,0.5,0.3,0.5,0.7C19.9,43,19.9,43.5,19.9,44.1z"/>
		<path class="st1" d="M24.6,29.7c-0.1,0-0.2,0-0.3,0c-0.4,0-0.7-0.3-0.7-0.7c0-0.4,0.3-0.7,0.7-0.7c0.2,0,0.3,0,0.5,0
			c0.4,0,0.7,0.3,0.7,0.7c0,0.4-0.3,0.7-0.7,0.7C24.8,29.7,24.7,29.7,24.6,29.7z"/>
		<path class="st1" d="M24.6,37.5c-0.6,0-1-0.2-1-0.7s0.3-0.7,1-0.7c0.1,0,0.2,0,0.3,0c0.4,0.1,0.6,0.3,0.6,0.7s-0.3,0.6-0.7,0.6
			C24.8,37.5,24.7,37.5,24.6,37.5z"/>
		<path class="st1" d="M24.6,33.6c-0.1,0-0.1,0-0.2,0c-0.5,0-0.8-0.3-0.8-0.7s0.3-0.7,0.8-0.7c0.2,0,0.3,0,0.5,0
			c0.4,0,0.7,0.3,0.6,0.7c0,0.4-0.3,0.6-0.7,0.7C24.8,33.6,24.7,33.6,24.6,33.6L24.6,33.6z"/>
		<path class="st1" d="M33.3,29.2c0,0.5,0,1,0,1.5s-0.3,0.8-0.7,0.8s-0.7-0.3-0.7-0.8c0-1,0-2,0-3c0-0.5,0.3-0.8,0.7-0.8
			s0.7,0.3,0.7,0.8S33.3,28.7,33.3,29.2z"/>
		<path class="st1" d="M33.3,36.5c0,0.5,0,1,0,1.5s-0.3,0.8-0.7,0.8s-0.7-0.3-0.7-0.8c0-1,0-2.1,0-3.1c0-0.5,0.3-0.8,0.7-0.8
			s0.7,0.3,0.7,0.8C33.3,35.5,33.3,36,33.3,36.5z"/>
		<path class="st1" d="M38.1,36.5c0,0.5,0,1,0,1.5s-0.3,0.8-0.7,0.8s-0.7-0.3-0.7-0.8c0-1,0-2,0-3.1c0-0.5,0.3-0.8,0.7-0.8
			s0.7,0.3,0.7,0.7C38.1,35.4,38.1,36,38.1,36.5z"/>
		<path class="st1" d="M31.9,21.9c0-0.5,0-1,0-1.5s0.3-0.8,0.7-0.8c0.4,0,0.7,0.3,0.7,0.8c0,1,0,2,0,3.1c0,0.5-0.3,0.8-0.7,0.8
			s-0.7-0.3-0.7-0.8C31.9,22.9,31.9,22.4,31.9,21.9z"/>
		<path class="st1" d="M36.7,29.2c0-0.5,0-1,0-1.6c0-0.4,0.3-0.7,0.7-0.7s0.7,0.3,0.7,0.7c0,1.1,0,2.2,0,3.2c0,0.4-0.3,0.7-0.7,0.7
			s-0.6-0.3-0.6-0.7C36.7,30.2,36.7,29.7,36.7,29.2z"/>
		<path class="st1" d="M36.7,21.9c0-0.5,0-1,0-1.5s0.3-0.8,0.7-0.8s0.7,0.3,0.7,0.7c0,1.1,0,2.1,0,3.2c0,0.4-0.3,0.7-0.7,0.7
			s-0.7-0.3-0.7-0.7C36.7,22.9,36.7,22.4,36.7,21.9z"/>
		<path class="st1" d="M45.8,37.5c-0.6,0-1-0.2-1-0.7s0.3-0.7,1-0.7c0.1,0,0.3,0,0.4,0c0.4,0.1,0.6,0.3,0.6,0.7s-0.3,0.6-0.7,0.6
			C46,37.5,45.9,37.5,45.8,37.5z"/>
		<path class="st1" d="M45.8,45.3c-0.1,0-0.3,0-0.4,0c-0.3,0-0.6-0.3-0.6-0.7c0-0.3,0.2-0.6,0.6-0.7c0.2,0,0.4,0,0.7,0
			c0.4,0,0.7,0.3,0.7,0.7s-0.3,0.7-0.7,0.7C46,45.3,45.9,45.3,45.8,45.3L45.8,45.3z"/>
		<path class="st1" d="M45.8,40.1c0.1,0,0.2,0,0.3,0c0.4,0,0.7,0.3,0.7,0.7s-0.2,0.7-0.7,0.7c-0.2,0-0.4,0-0.6,0
			c-0.4,0-0.7-0.3-0.7-0.7s0.3-0.6,0.7-0.6C45.6,40,45.7,40.1,45.8,40.1z"/>
	</g>
</g>
</svg>
