<?xml version="1.0" encoding="utf-8"?>
<!-- Generator: Adobe Illustrator 26.0.1, SVG Export Plug-In . SVG Version: 6.00 Build 0)  -->
<svg version="1.1" id="Layer_1" xmlns="http://www.w3.org/2000/svg" xmlns:xlink="http://www.w3.org/1999/xlink" x="0px" y="0px"
	 viewBox="0 0 65 65" style="enable-background:new 0 0 65 65;" xml:space="preserve">
<style type="text/css">
	.st0{fill:url(#SVGID_1_);}
	.st1{fill:#FFFFFF;}
</style>
<linearGradient id="SVGID_1_" gradientUnits="userSpaceOnUse" x1="1.8447" y1="56.217" x2="62.8087" y2="9.6458" gradientTransform="matrix(1 0 0 -1 0 65.2912)">
	<stop  offset="0" style="stop-color:#C44FE0"/>
	<stop  offset="1" style="stop-color:#5A1399"/>
</linearGradient>
<path class="st0" d="M46.6,65H18.4C8.2,65,0,56.8,0,46.6V18.4C0,8.2,8.2,0,18.4,0h28.3C56.8,0,65,8.2,65,18.4v28.3
	C65,56.8,56.8,65,46.6,65z"/>
<g>
	<g>
		<path class="st1" d="M15.5,49.5c0-0.2,0-0.4,0-0.6c0-6.4,0-12.7,0-19.1c0-0.9,0.3-1.5,1.2-1.9c1.5-0.7,3.1-1.5,4.6-2.3
			c0.3-0.2,0.4-0.3,0.4-0.7c0-1.7,0-3.5,0-5.2c0-0.7,0.3-1.2,0.9-1.6c3-1.8,6-3.6,9-5.4c0.6-0.4,1.2-0.4,1.8,0
			c5.1,3,10.1,6.1,15.2,9.1c0.6,0.4,0.9,0.9,0.9,1.6c0,8.4,0,16.9,0,25.3c0,0.2,0,0.4,0,0.6c0.5,0,1,0,1.5,0c0.9,0,1.6,0.7,1.6,1.5
			c0,0.9-0.7,1.5-1.6,1.5c-12.3,0-24.5,0-36.8,0c-0.9,0-1.6-0.7-1.6-1.5c0-0.9,0.7-1.5,1.7-1.6C14.6,49.5,15,49.5,15.5,49.5z
			 M31,24.2c-0.1,0.1-0.2,0.1-0.3,0.1c-3.9,2-7.8,3.9-11.8,5.9c-0.3,0.2-0.3,0.4-0.3,0.6c0,6,0,12.1,0,18.1c0,0.2,0,0.3,0,0.5
			c3.1,0,6.2,0,9.3,0c0-0.2,0-0.4,0-0.5c0-2.3,0-4.6,0-6.9c0-1.1,0.6-1.7,1.7-1.7c1.9,0,3.9,0,5.8,0c1.1,0,1.7,0.6,1.7,1.8
			c0,2.3,0,4.6,0,6.9c0,0.2,0,0.3,0,0.5c1.1,0,2.1,0,3,0c0-5.1,0-10.3,0-15.4c-5.1,0-10.2,0-15.4,0c0,0.2,0,0.4,0,0.5
			c0,3.4,0,6.7,0,10.1c0,0.8-0.3,1.3-1,1.6c-1,0.4-2.1-0.4-2.1-1.6c0-4,0-8,0-12c0-1.2,0.6-1.8,1.8-1.8c6,0,12,0,18,0
			c1.2,0,1.8,0.6,1.8,1.8c0,5.4,0,10.7,0,16.1c0,0.2,0,0.4,0,0.5c1.1,0,2.1,0,3.1,0c0-0.1,0-0.2,0-0.3c0-8.2,0-16.4,0-24.7
			c0-0.2-0.1-0.4-0.3-0.5c-4.4-2.7-8.8-5.3-13.2-8c-0.3-0.2-0.4-0.1-0.7,0c-2.2,1.3-4.3,2.6-6.5,3.9c-0.6,0.4-0.9,0.8-0.8,1.5
			c0.1,0.8,0,1.6,0,2.4c0.2-0.1,0.4-0.2,0.5-0.2c2.1-1.1,4.3-2.1,6.4-3.2c1.2-0.6,2.3,0.1,2.3,1.5c0,1.5,0,3,0,4.4
			c0,0.9-0.7,1.6-1.6,1.6c-0.9,0-1.5-0.7-1.5-1.6C31,25.6,31,25,31,24.2z M31,49.4c1.1,0,2.1,0,3,0c0-2.1,0-4.1,0-6.1c-1,0-2,0-3,0
			C31,45.4,31,47.4,31,49.4z"/>
	</g>
</g>
</svg>
