<?xml version="1.0" encoding="utf-8"?>
<!-- Generator: Adobe Illustrator 26.0.1, SVG Export Plug-In . SVG Version: 6.00 Build 0)  -->
<svg version="1.1" id="Layer_1" xmlns="http://www.w3.org/2000/svg" xmlns:xlink="http://www.w3.org/1999/xlink" x="0px" y="0px"
	 viewBox="0 0 65 65" style="enable-background:new 0 0 65 65;" xml:space="preserve">
<style type="text/css">
	.st0{fill:url(#SVGID_1_);}
	.st1{fill:#FFFFFF;}
</style>
<linearGradient id="SVGID_1_" gradientUnits="userSpaceOnUse" x1="1.841" y1="9.0792" x2="62.805" y2="55.6504">
	<stop  offset="0" style="stop-color:#C44FE0"/>
	<stop  offset="1" style="stop-color:#5A1399"/>
</linearGradient>
<path class="st0" d="M46.6,65H18.4C8.2,65,0,56.8,0,46.6V18.4C0,8.2,8.2,0,18.4,0h28.3C56.8,0,65,8.2,65,18.4v28.3
	C65,56.8,56.8,65,46.6,65z"/>
<g>
	<g>
		<path class="st1" d="M19.4,26c1.4-6,6.7-10.2,12.5-10.4c3.2-0.1,6.2,0.8,8.7,2.7c2.6,2,4.2,4.5,5,7.6c0.7,0.1,1.3,0.1,2,0.2
			c2,0.5,3.5,2.3,3.6,4.4c0,1.3,0,2.5,0,3.8C51.1,36.9,49,39,46.4,39c-0.1,0-0.3,0-0.4,0c0,0.5,0,1-0.1,1.6c-0.6,4.2-4,7.1-8.2,7.1
			c-0.7,0-1.4,0-2.1,0c-0.2,0-0.4,0.1-0.5,0.3c-0.6,0.9-1.5,1.4-2.6,1.5c-0.6,0-1.2,0-1.8,0c-1.6,0-2.9-1.3-3-2.9
			c-0.1-1.5,1.1-3,2.7-3.1c0.8-0.1,1.7-0.1,2.5,0c1,0.1,1.7,0.6,2.2,1.4c0.1,0.2,0.3,0.3,0.5,0.3c1.1-0.1,2.2,0,3.3-0.2
			c2.5-0.4,4.4-2.7,4.4-5.2c0-3.8,0.1-7.7,0-11.5c-0.2-4.5-3.4-8.3-7.6-9.6c-6.2-1.8-12.4,1.8-13.8,8.1c-0.2,0.9-0.2,1.9-0.2,2.9
			c0,2-0.1,3.9,0,5.9c0.1,2.3-1.8,4.1-4.4,3.3c-2-0.6-3.3-2.4-3.4-4.5c0-1.2,0-2.5,0-3.7c0.1-2.6,2.1-4.6,4.7-4.7
			C18.8,26,19.1,26,19.4,26z M46,28.6c0,2.6,0,5.2,0,7.8c1.5,0.1,2.6-0.8,2.6-2.3c0-1.1,0-2.2,0-3.3C48.5,29.4,47.5,28.5,46,28.6z
			 M19,28.6c-1.4-0.1-2.5,0.7-2.6,1.9c-0.1,1.3,0,2.6,0,3.9c0,1,1,1.9,2,1.9c0.4,0,0.6-0.1,0.6-0.6c0-0.3,0-0.6,0-0.9
			C19,32.8,19,30.7,19,28.6z M31.6,46.8c0.3,0,0.5,0,0.8,0c0.3,0,0.5-0.1,0.5-0.4c0-0.3-0.2-0.4-0.4-0.4c-0.6,0-1.1,0-1.7,0
			c-0.3,0-0.4,0.2-0.4,0.4c0,0.3,0.2,0.4,0.5,0.4C31.1,46.8,31.4,46.8,31.6,46.8z"/>
		<path class="st1" d="M32.5,39.4c-2.5,0.2-4.9-1.6-5.4-4.3c-0.2-1,0.4-1.8,1.3-1.8c0.7,0,1.2,0.5,1.3,1.2c0.2,1.1,0.8,1.9,1.8,2.2
			c1.1,0.3,2.2,0.3,3.1-0.7c0.4-0.4,0.7-0.9,0.7-1.5c0.1-0.6,0.5-1.1,1.1-1.1c0.6-0.1,1.2,0.2,1.4,0.7c0.1,0.3,0.1,0.7,0.1,1
			C37.5,37.7,35.1,39.6,32.5,39.4z"/>
		<path class="st1" d="M36,29c-1,0-1.7-0.7-1.8-1.7c0-1,0.8-1.7,1.7-1.7c1,0,1.7,0.8,1.8,1.7C37.7,28.2,37,29,36,29z"/>
		<path class="st1" d="M29,25.6c1,0,1.7,0.8,1.7,1.7c0,1-0.8,1.7-1.7,1.7c-1,0-1.7-0.8-1.7-1.7C27.3,26.3,28.1,25.6,29,25.6z"/>
	</g>
</g>
</svg>
