<?xml version="1.0" encoding="utf-8"?>
<!-- Generator: Adobe Illustrator 26.0.1, SVG Export Plug-In . SVG Version: 6.00 Build 0)  -->
<svg version="1.1" id="Layer_1" xmlns="http://www.w3.org/2000/svg" xmlns:xlink="http://www.w3.org/1999/xlink" x="0px" y="0px"
	 viewBox="0 0 65 65" style="enable-background:new 0 0 65 65;" xml:space="preserve">
<style type="text/css">
	.st0{fill:url(#SVGID_1_);}
	.st1{fill:#FFFFFF;}
</style>
<linearGradient id="SVGID_1_" gradientUnits="userSpaceOnUse" x1="1.8447" y1="56.217" x2="62.8087" y2="9.6458" gradientTransform="matrix(1 0 0 -1 0 65.2912)">
	<stop  offset="0" style="stop-color:#EFEA39"/>
	<stop  offset="1" style="stop-color:#A5A519"/>
</linearGradient>
<path class="st0" d="M46.6,65H18.4C8.2,65,0,56.8,0,46.6V18.4C0,8.2,8.2,0,18.4,0h28.3C56.8,0,65,8.2,65,18.4v28.3
	C65,56.8,56.8,65,46.6,65z"/>
<path class="st1" d="M49.5,21.1l-12.5-6c-2.7-1.6-6.2-1.7-8.9-0.1l-12.6,6c0,0-0.1,0-0.1,0.1c-3,1.7-4,5.5-2.3,8.5
	c0.6,1,1.4,1.8,2.5,2.4l3.5,1.7V42c0,3.7,2.4,7,6,8.1c2.5,0.7,5,1.1,7.6,1c2.6,0,5.1-0.3,7.6-1c3.5-1.1,6-4.4,6-8.1v-8.3l3.4-1.6v14
	c0,0.9,0.8,1.7,1.7,1.7s1.7-0.8,1.7-1.7V25.7C52.8,23.8,51.3,21.9,49.5,21.1z M42.7,42c0,2.2-1.4,4.2-3.6,4.8
	c-2.1,0.6-4.4,0.9-6.6,0.9c-2.2,0-4.5-0.3-6.6-0.9c-2.1-0.7-3.6-2.6-3.6-4.8v-6.7L28,38c1.4,0.8,3,1.3,4.6,1.3c1.5,0,3-0.4,4.4-1.2
	l5.8-2.8V42z M48.1,29l-12.8,6.1c-1.8,1-4,1-5.7-0.1l-12.5-5.9c-1.4-0.8-1.9-2.5-1.2-3.9c0.3-0.5,0.6-0.9,1.1-1.1L29.7,18
	c1.8-1,4-1,5.7,0.1l12.5,6c0.9,0.5,1.5,1.5,1.5,2.5C49.4,27.6,48.9,28.5,48.1,29L48.1,29z"/>
</svg>
