<?xml version="1.0" encoding="utf-8"?>
<!-- Generator: Adobe Illustrator 26.0.1, SVG Export Plug-In . SVG Version: 6.00 Build 0)  -->
<svg version="1.1" id="Layer_1" xmlns="http://www.w3.org/2000/svg" xmlns:xlink="http://www.w3.org/1999/xlink" x="0px" y="0px"
	 viewBox="0 0 65 65" style="enable-background:new 0 0 65 65;" xml:space="preserve">
<style type="text/css">
	.st0{fill:url(#SVGID_1_);}
	.st1{fill:#FFFFFF;}
</style>
<linearGradient id="SVGID_1_" gradientUnits="userSpaceOnUse" x1="1.8445" y1="-5547.7832" x2="62.8085" y2="-5594.3545" gradientTransform="matrix(1 0 0 -1 0 -5538.7095)">
	<stop  offset="0.1904" style="stop-color:#59D86E"/>
	<stop  offset="1" style="stop-color:#19994C"/>
</linearGradient>
<path class="st0" d="M46.6,65H18.4C8.2,65,0,56.8,0,46.6V18.4C0,8.2,8.2,0,18.4,0h28.3C56.8,0,65,8.2,65,18.4v28.3
	C65,56.8,56.8,65,46.6,65z"/>
<g>
	<g>
		<path class="st1" d="M36.8,16c0.6,0.2,1.2,0.3,1.7,0.5c1.8,0.9,2.8,2.4,2.9,4.5c0,0.7,0,1.4,0,2.1c0,0.8-0.6,1.3-1.3,1.3
			c-0.7,0-1.3-0.6-1.3-1.3c0-0.6,0-1.2,0-1.8c0-1.6-1.1-2.7-2.7-2.7c-2.8,0-5.5,0-8.3,0c-1.3,0-2.6,0-4,0c-1.7,0-2.7,1.1-2.7,2.8
			c0,7.5,0,14.9,0,22.4c0,1.7,1.1,2.8,2.8,2.8c4,0,8.1,0,12.1,0c1.7,0,2.8-1.1,2.8-2.8c0-0.7,0-1.4,0-2.1c0-0.8,0.5-1.4,1.3-1.4
			c0.7,0,1.3,0.6,1.3,1.4c0,1,0,2.1-0.1,3.1C41,47,38.9,48.9,36.5,49c-0.8,0-1.6,0-2.4,0c-3.4,0-6.9,0-10.3,0c-2.3,0-4.2-1.3-5-3.5
			c-0.2-0.5-0.3-1.1-0.3-1.7c0-7.6,0-15.1,0-22.7c0-2.6,1.8-4.7,4.4-5.1c0,0,0.1,0,0.1-0.1C27.7,16,32.2,16,36.8,16z"/>
		<path class="st1" d="M29.9,37.9c-0.3-0.1-0.6-0.2-0.8-0.4c-1.1-0.9-2.1-1.7-3.1-2.6c-1.5-1.3-1.5-3.4,0-4.7c1-0.9,2.1-1.7,3.1-2.6
			c0.6-0.5,1.4-0.5,1.9,0.1c0.5,0.6,0.4,1.4-0.2,1.9c-1,0.8-1.9,1.6-2.9,2.4c-0.5,0.4-0.5,0.6,0,1c1,0.8,2,1.7,3,2.5
			c0.4,0.3,0.6,0.8,0.4,1.3c-0.1,0.5-0.4,0.8-0.9,1C30.2,37.8,30,37.9,29.9,37.9C29.9,37.9,29.9,37.9,29.9,37.9z"/>
		<path class="st1" d="M46.5,32.6c0,0.8-0.3,1.6-0.9,2.1c-1.1,1-2.2,1.9-3.3,2.8c-0.6,0.5-1.3,0.4-1.8-0.2c-0.5-0.6-0.4-1.3,0.2-1.8
			c1-0.9,2-1.7,3-2.5c0.4-0.4,0.4-0.6,0-0.9c-1-0.8-1.9-1.7-2.9-2.5c-0.6-0.5-0.7-1.2-0.3-1.8c0.5-0.6,1.3-0.7,1.9-0.1
			c0.8,0.7,1.6,1.3,2.4,2c0.3,0.2,0.6,0.5,0.8,0.7C46.2,31,46.5,31.7,46.5,32.6z"/>
		<path class="st1" d="M34.3,39c-0.8,0-1.4-0.7-1.2-1.5c0.3-1.3,0.7-2.5,1.1-3.8c0.6-2.1,1.2-4.3,1.8-6.4c0.2-0.6,0.4-1,1-1.1
			c0.9-0.2,1.8,0.6,1.6,1.5c-0.4,1.6-0.9,3.1-1.3,4.6c-0.5,1.9-1.1,3.8-1.6,5.7C35.5,38.6,34.9,39,34.3,39z"/>
		<path class="st1" d="M29.9,23.1c-0.4,0-0.8,0-1.3,0c-0.7,0-1.3-0.6-1.3-1.3c0-0.7,0.5-1.3,1.2-1.3c0.9,0,1.8,0,2.7,0
			c0.7,0,1.2,0.6,1.2,1.3c0,0.7-0.6,1.2-1.3,1.2C30.8,23.1,30.4,23.1,29.9,23.1z"/>
		<path class="st1" d="M29.9,44.4c-0.7,0-1.3-0.6-1.3-1.3c0-0.7,0.6-1.3,1.3-1.3c0.7,0,1.3,0.6,1.3,1.3
			C31.2,43.9,30.6,44.5,29.9,44.4z"/>
	</g>
</g>
</svg>
