<?xml version="1.0" encoding="utf-8"?>
<!-- Generator: Adobe Illustrator 26.0.1, SVG Export Plug-In . SVG Version: 6.00 Build 0)  -->
<svg version="1.1" id="Layer_1" xmlns="http://www.w3.org/2000/svg" xmlns:xlink="http://www.w3.org/1999/xlink" x="0px" y="0px"
	 viewBox="0 0 65 65" style="enable-background:new 0 0 65 65;" xml:space="preserve">
<style type="text/css">
	.st0{fill:url(#SVGID_1_);}
	.st1{fill:#FFFFFF;}
</style>
<linearGradient id="SVGID_1_" gradientUnits="userSpaceOnUse" x1="1.8445" y1="-5547.7832" x2="62.8085" y2="-5594.3545" gradientTransform="matrix(1 0 0 -1 0 -5538.7095)">
	<stop  offset="0.1904" style="stop-color:#59D86E"/>
	<stop  offset="1" style="stop-color:#19994C"/>
</linearGradient>
<path class="st0" d="M46.6,65H18.4C8.2,65,0,56.8,0,46.6V18.4C0,8.2,8.2,0,18.4,0h28.3C56.8,0,65,8.2,65,18.4v28.3
	C65,56.8,56.8,65,46.6,65z"/>
<g>
	<path class="st1" d="M42.6,20.9h-0.7l-3.2-4.1c-0.8-1.1-2.1-1.7-3.4-1.7h-5.6c-1.3,0-2.6,0.6-3.4,1.7l-3.2,4.1h-0.7
		c-4,0-7.2,3.2-7.2,7.2v14.5c0,4,3.2,7.2,7.2,7.2h20.3c4,0,7.2-3.2,7.2-7.2V28.2C49.9,24.2,46.6,20.9,42.6,20.9z M28.6,18.6
		c0.3-0.4,0.7-0.6,1.1-0.6h5.6c0.4,0,0.9,0.2,1.1,0.6l1.8,2.3H26.8L28.6,18.6z M47,42.6C47,45,45,47,42.6,47H22.4
		C20,47,18,45,18,42.6V28.2c0-2.4,1.9-4.3,4.3-4.3h20.3c2.4,0,4.3,1.9,4.3,4.3V42.6z"/>
	<path class="st1" d="M32.5,26.7c-4.8,0-8.7,3.9-8.7,8.7s3.9,8.7,8.7,8.7s8.7-3.9,8.7-8.7C41.2,30.6,37.3,26.7,32.5,26.7z
		 M32.5,41.2c-3.2,0-5.8-2.6-5.8-5.8s2.6-5.8,5.8-5.8s5.8,2.6,5.8,5.8S35.7,41.2,32.5,41.2z"/>
</g>
</svg>
