<?xml version="1.0" encoding="utf-8"?>
<!-- Generator: Adobe Illustrator 26.0.1, SVG Export Plug-In . SVG Version: 6.00 Build 0)  -->
<svg version="1.1" id="Layer_1" xmlns="http://www.w3.org/2000/svg" xmlns:xlink="http://www.w3.org/1999/xlink" x="0px" y="0px"
	 viewBox="0 0 65 65" style="enable-background:new 0 0 65 65;" xml:space="preserve">
<style type="text/css">
	.st0{fill:url(#SVGID_1_);}
	.st1{fill:#FFFFFF;}
</style>
<linearGradient id="SVGID_1_" gradientUnits="userSpaceOnUse" x1="1.8447" y1="56.217" x2="62.8087" y2="9.6458" gradientTransform="matrix(1 0 0 -1 0 65.2912)">
	<stop  offset="0" style="stop-color:#FF6EEB"/>
	<stop  offset="1" style="stop-color:#A223CC"/>
</linearGradient>
<path class="st0" d="M46.6,65H18.4C8.2,65,0,56.8,0,46.6V18.4C0,8.2,8.2,0,18.4,0h28.3C56.8,0,65,8.2,65,18.4v28.3
	C65,56.8,56.8,65,46.6,65z"/>
<path class="st1" d="M36.6,34.1c-1.3,0-2.4-1.1-2.4-2.4s1.1-2.4,2.4-2.4c1.3,0,2.4,1.1,2.4,2.4S37.9,34.1,36.6,34.1z M51.9,42.5
	c0.8,4.4-2.2,8.6-6.6,9.4C44.8,52,44.4,52,43.9,52h-6.5c-0.9,0-1.6-0.7-1.6-1.6v-3.7c-1.1,0.3-2.2,0.4-3.3,0.4
	c-1.1,0-2.2-0.2-3.3-0.4v3.7c0,0.9-0.7,1.6-1.6,1.6h-6.5c-4.5,0-8.1-3.6-8.1-8.1c0-0.5,0-0.9,0.1-1.4l0.5-2.8
	c0.4-2.6,2.9-4.4,5.5-3.9c1.3,0.2,2.4,1,3.2,2.1c2.1,3,6,6.1,10.2,6.1l0,0c5.1,0,10.1-4.5,11.6-8.8c0.2-0.7,0.9-1.1,1.6-1.1l0.7,0
	c1.3,0,2.4-1,2.4-2.4c0,0,0,0,0,0c0-1.2-0.8-2.2-2-2.4c-0.7-0.1-1.3-0.7-1.3-1.4c-0.7-6.6-6.3-11.7-13-11.6
	c-9.1,0-11.6,5.9-13.6,10.7c-0.4,0.9-0.7,1.7-1.1,2.4c6.6-0.4,12.7-3.7,16.6-9.1c0.5-0.7,1.5-0.9,2.3-0.4c0.7,0.5,0.9,1.5,0.4,2.3
	l0,0c-2.1,3-4.9,5.5-8.1,7.3c1.3,0.3,2.1,1.6,1.8,3c-0.3,1.3-1.6,2.1-3,1.8c-1.3-0.3-2.1-1.6-1.8-3c0-0.1,0.1-0.3,0.1-0.4
	c-3.7,1.5-7.8,2.1-11.8,1.8c-0.9-0.1-1.5-0.9-1.4-1.8c0.1-0.5,0.4-0.9,0.8-1.2c1-1.1,1.7-2.4,2.1-3.9C18,20.6,21.3,13,32.5,13
	c7.9,0,14.7,5.7,16,13.5c2.1,0.9,3.5,3,3.5,5.3c0,1.4-0.5,2.7-1.4,3.7c0,0,0,0.1,0,0.1L51.9,42.5z M26,45.4
	c-2.6-1.4-4.8-3.4-6.4-5.8c-0.3-0.4-0.8-0.7-1.3-0.7h0c-0.7,0-1.4,0.5-1.5,1.3l-0.5,2.8c-0.5,2.7,1.3,5.2,4,5.7
	c0.3,0,0.6,0.1,0.8,0.1H26V45.4z M48.7,43.1l-1-5.9c-0.3,0.1-0.6,0.1-0.9,0.1c-1.6,3.5-4.4,6.3-7.7,8.1v3.3h4.9
	c2.7,0,4.9-2.2,4.9-4.9C48.8,43.6,48.8,43.3,48.7,43.1L48.7,43.1z"/>
</svg>
