<?xml version="1.0" encoding="utf-8"?>
<!-- Generator: Adobe Illustrator 26.0.1, SVG Export Plug-In . SVG Version: 6.00 Build 0)  -->
<svg version="1.1" id="Layer_1" xmlns="http://www.w3.org/2000/svg" xmlns:xlink="http://www.w3.org/1999/xlink" x="0px" y="0px"
	 viewBox="0 0 65 65" style="enable-background:new 0 0 65 65;" xml:space="preserve">
<style type="text/css">
	.st0{fill:url(#SVGID_1_);}
	.st1{fill:#FFFFFF;}
</style>
<linearGradient id="SVGID_1_" gradientUnits="userSpaceOnUse" x1="1.8447" y1="56.217" x2="62.8087" y2="9.6458" gradientTransform="matrix(1 0 0 -1 0 65.2912)">
	<stop  offset="0" style="stop-color:#FF6C89"/>
	<stop  offset="1" style="stop-color:#FF22A8"/>
</linearGradient>
<path class="st0" d="M46.6,65H18.4C8.2,65,0,56.8,0,46.6V18.4C0,8.2,8.2,0,18.4,0h28.3C56.8,0,65,8.2,65,18.4v28.3
	C65,56.8,56.8,65,46.6,65z"/>
<path class="st1" d="M51.7,29c-2.8-7-9.2-11.9-16.7-12.8v-1c0-1.4-1.1-2.5-2.5-2.5S30,13.9,30,15.3v1c-7.4,1-13.8,5.8-16.7,12.7
	c-0.9,2.3-0.6,4.9,0.8,6.9c1.3,1.9,3.5,3.1,5.8,3.1h10v7c0,0.7-0.6,1.2-1.2,1.2c-0.6,0-1.1-0.5-1.2-1.1c-0.1-1.4-1.4-2.3-2.7-2.2
	c-1.4,0.1-2.3,1.4-2.2,2.7l0,0c0.4,3.4,3.4,5.8,6.8,5.4c3.1-0.3,5.5-3,5.5-6.1v-7h10c2.3,0,4.5-1.2,5.8-3.1
	C52.2,33.9,52.6,31.3,51.7,29z M46.8,33.1c-0.4,0.6-1.1,1-1.8,1H20c-0.7,0-1.4-0.4-1.8-1c-0.5-0.7-0.6-1.6-0.3-2.4
	c2.5-5.9,8.2-9.7,14.6-9.8c6.4,0.1,12.1,3.9,14.6,9.8C47.4,31.6,47.3,32.5,46.8,33.1z"/>
</svg>
