<?xml version="1.0" encoding="utf-8"?>
<!-- Generator: Adobe Illustrator 26.0.1, SVG Export Plug-In . SVG Version: 6.00 Build 0)  -->
<svg version="1.1" id="Layer_1" xmlns="http://www.w3.org/2000/svg" xmlns:xlink="http://www.w3.org/1999/xlink" x="0px" y="0px"
	 viewBox="0 0 65 65" style="enable-background:new 0 0 65 65;" xml:space="preserve">
<style type="text/css">
	.st0{fill:url(#SVGID_1_);}
	.st1{fill:#FFFFFF;}
</style>
<linearGradient id="SVGID_1_" gradientUnits="userSpaceOnUse" x1="1.841" y1="9.0792" x2="62.805" y2="55.6504">
	<stop  offset="0" style="stop-color:#FF6C89"/>
	<stop  offset="1" style="stop-color:#FF22A8"/>
</linearGradient>
<path class="st0" d="M46.6,65H18.4C8.2,65,0,56.8,0,46.6V18.4C0,8.2,8.2,0,18.4,0h28.3C56.8,0,65,8.2,65,18.4v28.3
	C65,56.8,56.8,65,46.6,65z"/>
<g>
	<path class="st1" d="M35,34.9l5.3-4.8c1.2-1.1,3.3-0.9,4.2,0.6c0.6,1,0.4,2.3-0.3,3.2l-2.7,2.8c-0.7,0.7-0.7,1.8,0,2.4l0.5,0.5
		c0,0,0,0,0,0l4.2-4.2c1.6-2,1.5-4.8-0.2-6.7c-0.2-0.2-1-0.9-1.1-0.9c0,0,0,0,0,0l0-4.8c0-1.6,1.3-3.2,2.9-3.2
		c1.7-0.1,3.2,1.3,3.2,3v15.1c0,1.2-0.5,2.4-1.3,3.3l-3,3.3c-0.5,0.5-1.2,0.9-1.9,0.9h-8.4c-1.3,0-2.4-1.1-2.4-2.4v-5.3
		C33.8,36.6,34.2,35.6,35,34.9L35,34.9z"/>
	<path class="st1" d="M30,34.9c0.8,0.7,1.2,1.7,1.2,2.7v5.3c0,1.3-1.1,2.4-2.4,2.4h-8.4c-0.7,0-1.4-0.3-1.9-0.9l-3-3.3
		c-0.8-0.9-1.3-2.1-1.3-3.3V22.8c0-1.7,1.4-3.1,3.2-3c1.6,0.1,2.9,1.6,2.9,3.2v4.8c0,0,0,0,0,0c-0.1,0-0.9,0.8-1.1,0.9
		c-1.7,1.9-1.8,4.8-0.2,6.7l4.2,4.2c0,0,0,0,0,0l0.5-0.5c0.7-0.7,0.7-1.8,0-2.4L20.9,34c-0.7-0.9-0.9-2.2-0.3-3.2
		c0.9-1.5,2.9-1.8,4.2-0.6L30,34.9L30,34.9z"/>
</g>
</svg>
