<?xml version="1.0" encoding="utf-8"?>
<!-- Generator: Adobe Illustrator 26.0.1, SVG Export Plug-In . SVG Version: 6.00 Build 0)  -->
<svg version="1.1" id="Layer_1" xmlns="http://www.w3.org/2000/svg" xmlns:xlink="http://www.w3.org/1999/xlink" x="0px" y="0px"
	 viewBox="0 0 65 65" style="enable-background:new 0 0 65 65;" xml:space="preserve">
<style type="text/css">
	.st0{fill:url(#SVGID_1_);}
	.st1{fill:#FFFFFF;}
</style>
<linearGradient id="SVGID_1_" gradientUnits="userSpaceOnUse" x1="1.8445" y1="-5547.7832" x2="62.8085" y2="-5594.3545" gradientTransform="matrix(1 0 0 -1 0 -5538.7095)">
	<stop  offset="0.1904" style="stop-color:#59D86E"/>
	<stop  offset="1" style="stop-color:#19994C"/>
</linearGradient>
<path class="st0" d="M46.6,65H18.4C8.2,65,0,56.8,0,46.6V18.4C0,8.2,8.2,0,18.4,0h28.3C56.8,0,65,8.2,65,18.4v28.3
	C65,56.8,56.8,65,46.6,65z"/>
<path class="st1" d="M37.4,38.8c10.4-0.1,14.2-5.6,14.2-10.3c0-2.7-1.9-4.9-4.4-5.4c0.2-0.6,0.4-1.2,0.5-1.6c0.6-1.9,0.2-3.9-1-5.5
	c-1.2-1.6-3.1-2.6-5.1-2.6H23.4c-2,0-3.9,0.9-5.1,2.6c-1.2,1.6-1.6,3.6-1,5.5c0.1,0.4,0.3,1,0.5,1.6c-2.5,0.5-4.4,2.8-4.4,5.4
	c0,4.7,3.7,10.3,14.2,10.3c0.1,0.5,0.1,1,0.1,1.5v4.9c0,2.9-2.4,3.2-3.2,3.2H23c-0.9,0-1.6,0.7-1.6,1.6s0.7,1.6,1.6,1.6H42
	c0.9,0,1.6-0.7,1.6-1.6s-0.7-1.6-1.6-1.6h-1.6c-0.7,0-3.2-0.3-3.2-3.2v-4.9C37.3,39.8,37.3,39.3,37.4,38.8z M46,26.1
	c1.3,0,2.4,1.1,2.4,2.4c0,3.2-2.6,6.7-9.6,7.1c0.4-0.5,0.8-0.9,1.2-1.3C42.8,32,44.7,28.8,46,26.1C46,26.1,46,26.1,46,26.1L46,26.1z
	 M16.6,28.5c0-1.3,1.1-2.4,2.4-2.4c0,0,0,0,0.1,0c1.3,2.7,3.2,5.8,5.9,8.2c0.5,0.4,0.9,0.8,1.2,1.3C19.2,35.2,16.6,31.8,16.6,28.5
	L16.6,28.5z M30.1,48.4c0.5-0.9,0.8-1.9,0.8-3.2v-4.9c0-3.3-1.4-6.3-3.9-8.4c-2.8-2.4-5.3-6.6-6.7-11.3c-0.3-0.9-0.1-1.9,0.5-2.7
	c0.6-0.8,1.5-1.3,2.6-1.3h18.2c1,0,2,0.5,2.6,1.3c0.6,0.8,0.8,1.8,0.5,2.7c-1.4,4.7-3.9,8.9-6.7,11.3c-2.5,2.1-3.9,5.2-3.9,8.4v4.9
	c0,1.3,0.3,2.3,0.8,3.2H30.1L30.1,48.4z M29,28.9c-0.4-0.3-0.6-0.8-0.4-1.3l0.8-2.6l-2.2-1.6c-0.5-0.4-0.6-1.1-0.3-1.6
	c0.2-0.3,0.6-0.5,0.9-0.5h2.7l0.8-2.5c0.2-0.6,0.9-0.9,1.5-0.7c0.3,0.1,0.6,0.4,0.7,0.7l0.8,2.5h2.7c0.6,0,1.2,0.5,1.2,1.2
	c0,0.4-0.2,0.7-0.5,0.9l-2.2,1.6l0.8,2.6c0.2,0.6-0.1,1.3-0.8,1.5c-0.4,0.1-0.7,0.1-1-0.2l-2.1-1.6l-2.1,1.6
	C30,29.2,29.4,29.2,29,28.9L29,28.9z"/>
</svg>
