<?xml version="1.0" encoding="utf-8"?>
<!-- Generator: Adobe Illustrator 26.0.1, SVG Export Plug-In . SVG Version: 6.00 Build 0)  -->
<svg version="1.1" id="Layer_1" xmlns="http://www.w3.org/2000/svg" xmlns:xlink="http://www.w3.org/1999/xlink" x="0px" y="0px"
	 viewBox="0 0 65 65" style="enable-background:new 0 0 65 65;" xml:space="preserve">
<style type="text/css">
	.st0{fill:url(#SVGID_1_);}
	.st1{fill:#FFFFFF;}
</style>
<linearGradient id="SVGID_1_" gradientUnits="userSpaceOnUse" x1="1.8447" y1="56.217" x2="62.8087" y2="9.6458" gradientTransform="matrix(1 0 0 -1 0 65.2912)">
	<stop  offset="0.3374" style="stop-color:#76DFFF"/>
	<stop  offset="1" style="stop-color:#0483AF"/>
</linearGradient>
<path class="st0" d="M46.6,65H18.4C8.2,65,0,56.8,0,46.6V18.4C0,8.2,8.2,0,18.4,0h28.3C56.8,0,65,8.2,65,18.4v28.3
	C65,56.8,56.8,65,46.6,65z"/>
<g>
	<g>
		<g>
			<g>
				<g>
					<path class="st1" d="M32.7,20.7c0.5,0,0.9,0,1.4,0c1.9,0.1,3.7,0.3,5.6,0.7c2.3,0.5,4,1.9,5,4c0.1,0.2,0.2,0.3,0.2,0.5
						c0.2,0.5,0.4,0.7,0.8,0.7c0.1,0,0.2,0,0.3,0c0.2,0,0.5,0,0.7,0c0.5,0,0.8,0.3,1,0.7s0.1,0.8-0.1,1.2c-0.3,0.4-0.3,0.4,0.2,0.7
						c0.2,0.1,0.3,0.2,0.5,0.3c0.8,0.4,1.3,1.1,1.4,2c0.7,3.6,0.8,7.2-0.2,10.8c-0.1,0.5-0.4,0.8-0.9,1c-0.1,0-0.2,0.1-0.2,0.2
						c-0.2,0.7-0.6,1-1.3,1c-1.3,0-2.5,0-3.8,0c-0.7-0.1-1.1-0.4-1.3-1.3c-3.2-0.6-6.3-0.9-9.5-0.9c-3.2,0-6.3,0.3-9.5,0.9
						c0,0.1,0,0.2-0.1,0.3c-0.2,0.5-0.6,0.9-1.1,0.9c-1.4,0-2.8,0-4.2,0c-0.6,0-1-0.4-1.2-1.2c-0.6-0.1-0.9-0.6-1.1-1.2
						c-0.5-2.1-0.8-4.2-0.6-6.4c0.1-1.4,0.3-2.8,0.5-4.2c0.1-0.9,0.7-1.6,1.5-2c0.2-0.1,0.4-0.2,0.5-0.3c0.3-0.1,0.3-0.3,0.1-0.5
						c-0.3-0.4-0.4-0.8-0.2-1.3c0.2-0.5,0.6-0.7,1.1-0.7c0.3,0,0.7,0,1,0c0.3,0,0.4-0.1,0.5-0.3c0.5-1,1-2,1.8-2.8
						c1-1.1,2.2-1.6,3.6-2C27.6,20.9,30.2,20.7,32.7,20.7 M22.8,28.4c3.2,0,6.4-0.1,9.7-0.2c0,0,0,0.1,0,0.1s0,0,0-0.1
						c0.7,0.1,1.4,0,2.1,0.1c2.7,0.1,5.3,0.2,8,0.2c0.7,0,0.9-0.4,0.7-1c-0.2-0.4-0.4-0.8-0.6-1.3c-0.7-1.4-1.8-2.2-3.3-2.6
						c-1.7-0.4-3.4-0.6-5.1-0.7c-0.6,0-1.2,0-1.8,0c-2.1,0-4.3,0.2-6.4,0.6c-1.1,0.3-2.2,0.6-2.9,1.6c-0.4,0.6-0.8,1.3-1.2,2
						C21.5,28,21.8,28.4,22.8,28.4 M45.2,33.7c0.5,0,1.1,0,1.7-0.1c0.8-0.1,1.1-0.5,1.1-1.3c0-0.2,0-0.3,0-0.5
						c0-0.3-0.2-0.5-0.5-0.5c-0.6,0-1.2,0-1.8,0.2c-1.2,0.3-2.4,0.6-3.4,1.3c-0.1,0-0.3,0.2-0.3,0.4c0,0.3,0.3,0.2,0.5,0.3
						C43.3,33.5,44.2,33.6,45.2,33.7 M18.1,33.7c0.6,0,1.2,0,1.7,0c1-0.1,1.9-0.2,2.8-0.2c0.1,0,0.3-0.1,0.4-0.2
						c0-0.1-0.1-0.3-0.2-0.4c-0.1-0.1-0.3-0.2-0.4-0.3c-1-0.6-2.2-0.9-3.3-1.1c-0.5-0.1-1-0.1-1.5-0.1c-0.2,0-0.4,0.2-0.5,0.3
						C16.7,32.5,17.2,33.5,18.1,33.7 M25.9,39.7c2.3-0.1,4.5-0.1,6.6-0.1c2.2,0,4.3,0,6.5,0c0.4,0,0.9-0.2,1.3-0.5
						c0.7-0.5,0.6-1.2-0.1-1.6c-0.4-0.2-0.8-0.4-1.3-0.5c-2.1-0.6-4.3-0.8-6.5-0.8c-2.1,0-4.1,0.2-6.1,0.7c-0.6,0.1-1.2,0.4-1.8,0.8
						c-0.6,0.4-0.6,0.9-0.1,1.4C24.8,39.5,25.3,39.7,25.9,39.7 M32.7,17.8c-2.9,0-5.6,0.3-8.2,0.9l-0.1,0l-0.1,0
						c-1.6,0.4-3.4,1.1-4.9,2.8c-0.7,0.7-1.2,1.5-1.6,2.2c-1.5,0.1-2.8,1.1-3.3,2.5c-0.2,0.5-0.3,1-0.3,1.5c-1,0.9-1.6,2-1.8,3.3
						c-0.2,1.4-0.4,2.9-0.5,4.3c-0.2,2.2,0,4.5,0.7,7.3l0,0.1l0,0.1c0.4,1.1,1,1.9,1.6,2.3c0.8,1.4,2.2,2,3.4,2h4.2
						c1.2,0,2.3-0.6,3-1.5c2.6-0.4,5.2-0.6,7.7-0.6c2.5,0,5,0.2,7.6,0.6c0.7,0.9,1.6,1.4,2.8,1.6l0.2,0h0.2h3.8
						c1.6,0,2.8-0.7,3.6-1.9c0.8-0.6,1.4-1.4,1.6-2.4c1-3.7,1.1-7.6,0.2-11.9c-0.2-1.4-0.8-2.5-1.9-3.4c0-0.7-0.2-1.2-0.4-1.6
						c-0.7-1.3-1.8-2.1-3.2-2.3c-1.4-2.7-3.8-4.5-6.8-5.2c-1.9-0.4-3.8-0.6-6.1-0.8l0,0l0,0C33.7,17.8,33.2,17.8,32.7,17.8
						L32.7,17.8z"/>
				</g>
			</g>
		</g>
	</g>
</g>
</svg>
