<?xml version="1.0" encoding="utf-8"?>
<!-- Generator: Adobe Illustrator 26.0.1, SVG Export Plug-In . SVG Version: 6.00 Build 0)  -->
<svg version="1.1" id="Layer_1" xmlns="http://www.w3.org/2000/svg" xmlns:xlink="http://www.w3.org/1999/xlink" x="0px" y="0px"
	 viewBox="0 0 65 65" style="enable-background:new 0 0 65 65;" xml:space="preserve">
<style type="text/css">
	.st0{fill:url(#SVGID_1_);}
	.st1{fill:#FFFFFF;}
</style>
<linearGradient id="SVGID_1_" gradientUnits="userSpaceOnUse" x1="1.841" y1="9.0792" x2="62.805" y2="55.6504">
	<stop  offset="0.3374" style="stop-color:#76DFFF"/>
	<stop  offset="1" style="stop-color:#0483AF"/>
</linearGradient>
<path class="st0" d="M46.6,65H18.4C8.2,65,0,56.8,0,46.6V18.4C0,8.2,8.2,0,18.4,0h28.3C56.8,0,65,8.2,65,18.4v28.3
	C65,56.8,56.8,65,46.6,65z"/>
<g>
	<g>
		<g>
			<g>
				<path class="st1" d="M42,43.2c-6.3-1.2-12.6-1.2-19,0c0,0.1,0,0.2-0.1,0.3c-0.2,0.5-0.6,0.9-1.1,0.9c-1.4,0-2.8,0-4.2,0
					c-0.6,0-1-0.4-1.2-1.2c-0.6-0.1-0.9-0.6-1.1-1.2c-0.5-2.1-0.8-4.2-0.6-6.4c0.1-1.4,0.3-2.8,0.5-4.2c0.1-0.9,0.7-1.6,1.5-2
					c0.2-0.1,0.4-0.2,0.5-0.3c0.3-0.1,0.3-0.3,0.1-0.5c-0.3-0.4-0.4-0.8-0.2-1.3c0.2-0.5,0.6-0.7,1.1-0.7c0.3,0,0.7,0,1,0
					s0.4-0.1,0.5-0.3c0.5-1,1-2,1.8-2.8c1-1.1,2.2-1.6,3.6-2c3-0.7,6-0.9,9-0.8c1.9,0.1,3.7,0.3,5.6,0.7c2.3,0.5,4,1.9,5,4
					c0.1,0.2,0.2,0.3,0.2,0.5c0.2,0.6,0.5,0.8,1.1,0.7c0.2,0,0.5,0,0.7,0c0.5,0,0.8,0.3,1,0.7c0.2,0.4,0.1,0.8-0.1,1.2
					c-0.3,0.4-0.3,0.4,0.2,0.7c0.2,0.1,0.3,0.2,0.5,0.3c0.8,0.4,1.3,1.1,1.4,2c0.7,3.6,0.8,7.2-0.2,10.8c-0.1,0.5-0.4,0.8-0.9,1
					c-0.1,0-0.2,0.1-0.2,0.2c-0.2,0.7-0.6,1-1.3,1c-1.3,0-2.5,0-3.8,0C42.6,44.4,42.2,44.1,42,43.2z M32.5,28.2
					C32.5,28.3,32.5,28.3,32.5,28.2c0.7,0.1,1.4,0,2.1,0.1c2.7,0.1,5.3,0.2,8,0.2c0.7,0,0.9-0.4,0.7-1c-0.2-0.4-0.4-0.8-0.6-1.3
					c-0.7-1.4-1.8-2.2-3.3-2.6c-1.7-0.4-3.4-0.6-5.1-0.7c-2.7-0.1-5.5,0-8.2,0.6c-1.1,0.3-2.2,0.6-2.9,1.6c-0.4,0.6-0.8,1.3-1.2,2
					c-0.5,0.9-0.2,1.3,0.8,1.3C26,28.4,29.2,28.3,32.5,28.2z M32.5,39.6c2.2,0,4.3,0,6.5,0c0.4,0,0.9-0.2,1.3-0.5
					c0.7-0.5,0.6-1.2-0.1-1.6c-0.4-0.2-0.8-0.4-1.3-0.5c-4.2-1.1-8.4-1.1-12.6-0.1c-0.6,0.1-1.2,0.4-1.8,0.8
					c-0.6,0.4-0.6,0.9-0.1,1.4c0.4,0.4,0.9,0.6,1.5,0.6C28.2,39.6,30.4,39.6,32.5,39.6z M19.8,33.7c1-0.1,1.9-0.2,2.8-0.2
					c0.1,0,0.3-0.1,0.4-0.2c0-0.1-0.1-0.3-0.2-0.4c-0.1-0.1-0.3-0.2-0.4-0.3c-1-0.6-2.2-0.9-3.3-1.1c-0.5-0.1-1-0.1-1.5-0.1
					c-0.2,0-0.4,0.2-0.5,0.3c-0.4,0.8,0.1,1.8,1,2C18.7,33.7,19.3,33.7,19.8,33.7z M45.2,33.7c0.5,0,1.1,0,1.7-0.1
					c0.8-0.1,1.1-0.5,1.1-1.3c0-0.2,0-0.3,0-0.5c0-0.3-0.2-0.5-0.5-0.5c-0.6,0-1.2,0-1.8,0.2c-1.2,0.3-2.4,0.6-3.4,1.3
					c-0.1,0-0.3,0.2-0.3,0.4c0,0.3,0.3,0.2,0.5,0.3C43.3,33.5,44.2,33.6,45.2,33.7z"/>
			</g>
		</g>
	</g>
</g>
</svg>
