<?xml version="1.0" encoding="utf-8"?>
<!-- Generator: Adobe Illustrator 26.0.1, SVG Export Plug-In . SVG Version: 6.00 Build 0)  -->
<svg version="1.1" id="Layer_1" xmlns="http://www.w3.org/2000/svg" xmlns:xlink="http://www.w3.org/1999/xlink" x="0px" y="0px"
	 viewBox="0 0 65 65" style="enable-background:new 0 0 65 65;" xml:space="preserve">
<style type="text/css">
	.st0{fill:url(#SVGID_1_);}
	.st1{fill:#FFFFFF;}
</style>
<linearGradient id="SVGID_1_" gradientUnits="userSpaceOnUse" x1="1.8445" y1="-5547.7832" x2="62.8085" y2="-5594.3545" gradientTransform="matrix(1 0 0 -1 0 -5538.7095)">
	<stop  offset="0.1904" style="stop-color:#59D86E"/>
	<stop  offset="1" style="stop-color:#19994C"/>
</linearGradient>
<path class="st0" d="M46.6,65H18.4C8.2,65,0,56.8,0,46.6V18.4C0,8.2,8.2,0,18.4,0h28.3C56.8,0,65,8.2,65,18.4v28.3
	C65,56.8,56.8,65,46.6,65z"/>
<path class="st1" d="M48.9,17.7c-1.8-1.5-4.3-2.2-6.6-1.7l-6.2,1.1c-1.4,0.3-2.7,1-3.7,2.1c-1-1.1-2.3-1.8-3.7-2.1l-6.2-1.1
	c-4.4-0.8-8.6,2.1-9.4,6.5c-0.1,0.5-0.1,1-0.1,1.5v17.4c0,3.9,2.8,7.2,6.6,7.9L29.9,51c1.7,0.3,3.5,0.3,5.2,0l10.1-1.8
	c3.8-0.7,6.6-4,6.6-7.9V23.9C51.8,21.5,50.8,19.2,48.9,17.7z M30.9,47.9c-0.1,0-0.3,0-0.4-0.1L20.4,46c-2.3-0.4-4-2.4-4-4.8V23.9
	c0-2.7,2.2-4.8,4.8-4.8c0.3,0,0.6,0,0.9,0.1l6.2,1.1c1.5,0.3,2.6,1.6,2.6,3.2V47.9z M48.6,41.3c0,2.3-1.7,4.3-4,4.8l-10.1,1.8
	c-0.1,0-0.3,0-0.4,0.1V23.4c0-1.6,1.1-2.9,2.6-3.2l6.2-1.1c2.6-0.5,5.1,1.3,5.6,3.9c0.1,0.3,0.1,0.6,0.1,0.9V41.3z"/>
</svg>
