<?xml version="1.0" encoding="utf-8"?>
<!-- Generator: Adobe Illustrator 26.0.1, SVG Export Plug-In . SVG Version: 6.00 Build 0)  -->
<svg version="1.1" id="Layer_1" xmlns="http://www.w3.org/2000/svg" xmlns:xlink="http://www.w3.org/1999/xlink" x="0px" y="0px"
	 viewBox="0 0 65 65" style="enable-background:new 0 0 65 65;" xml:space="preserve">
<style type="text/css">
	.st0{fill:url(#SVGID_1_);}
	.st1{fill:#FFFFFF;}
	.st2{fill:none;}
</style>
<linearGradient id="SVGID_1_" gradientUnits="userSpaceOnUse" x1="1.8438" y1="56.8457" x2="62.8077" y2="10.2744" gradientTransform="matrix(1 0 0 -1 0 65.9212)">
	<stop  offset="9.350728e-02" style="stop-color:#77D5C7"/>
	<stop  offset="0.6617" style="stop-color:#58B4A4"/>
	<stop  offset="1" style="stop-color:#4AA595"/>
</linearGradient>
<path class="st0" d="M46.6,65H18.4C8.2,65,0,56.8,0,46.6V18.4C0,8.2,8.2,0,18.4,0h28.3C56.8,0,65,8.2,65,18.4v28.3
	C65,56.8,56.8,65,46.6,65z"/>
<g>
	<g>
		<path class="st1" d="M42.3,15.4c0-0.4,0-0.9,0-1.3c0-0.5-0.2-0.8-0.4-1c-0.3-0.3-0.7-0.4-1.3-0.3c-0.9,0.1-1.3-0.1-1.5-0.7
			L39,11.8h-1.2L37.7,12c-0.8,0.9-0.6,1.9-0.5,2.9l0.1,0.4c0.1,0.4,0.6,0.8,1,0.9c0.3,0,0.6-0.2,0.9-0.3c0.1,0,0.1-0.1,0.2-0.1
			c0.2-0.1,0.4-0.2,0.5-0.3c0,0.3,0,0.7,0,1c0,1,0,2-0.3,3c-0.5,2.1-2.5,3.5-4.7,3.4c-2.3-0.2-4-1.8-4.3-4c-0.1-0.8-0.1-1.7,0-2.6
			c0-0.2,0-0.5,0-0.7c0.1,0.1,0.2,0.1,0.4,0.2c0.1,0,0.2,0.1,0.3,0.2c0.3,0.2,0.6,0.4,1,0.3c0.4-0.1,0.9-0.7,0.9-1.2
			c0-0.2,0-0.3,0-0.5c0.1-0.7,0.1-1.6-0.6-2.3l-0.1-0.1h-1.2l-0.1,0.3c-0.2,0.6-0.6,0.7-1.4,0.6c-0.5-0.1-0.9,0.1-1.2,0.3
			c-0.3,0.3-0.4,0.7-0.4,1.2c0,0.6,0,1.1,0,1.7c0,0.8,0,1.5,0,2.3c0.1,2.2,1,4,2.7,5.3c0.7,0.5,1.4,0.8,2.2,1.2
			c0.3,0.1,0.6,0.3,0.8,0.4c0,0.3,0,0.7,0,1c0,1,0,2.1,0,3.2c0,0.2,0,0.3,0,0.5c0.5,0,1.1,0.1,1.6,0.1c0.3,0,0.7,0.1,1,0.1
			c-0.1-1.2-0.1-2.4-0.1-3.6c0-0.5,0-0.9,0-1.4c3.1-0.7,5-2.6,5.6-5.4C42.3,18.2,42.3,16.8,42.3,15.4z"/>
		<path class="st1" d="M48.7,22.7c-0.1-1.4-0.9-2.4-2.2-2.9c-1.7-0.7-3.6,0.1-4.4,1.7c-0.8,1.7-0.2,3.6,1.4,4.6
			c0.2,0.2,0.4,0.4,0.5,0.5c0.1,1.1,0.1,2.2,0,3.2c-0.1,1.8-1.7,3.3-3.6,3.4c-0.2,0-0.4,0-0.5,0c0.1,0.4,0.2,0.8,0.2,1.2
			c0.1,0.4,0.1,0.9,0.1,1.3c0,0,0.1,0,0.1,0c2.8,0,5.3-2,6-4.8c0.2-1,0.2-2.1,0.2-3.2c0-0.3,0-0.5,0-0.8c0-0.5,0.1-0.6,0.5-0.8
			C48.2,25.4,48.8,24.2,48.7,22.7z M45.9,23.8c-0.2,0.2-0.5,0.3-0.7,0.3h0c-0.2,0-0.5-0.1-0.7-0.3c-0.2-0.2-0.3-0.4-0.3-0.7
			c0-0.3,0.1-0.5,0.3-0.7c0.2-0.2,0.4-0.3,0.7-0.3h0c0.5,0,1,0.5,1,1C46.2,23.3,46.1,23.6,45.9,23.8z"/>
		<path class="st1" d="M37.4,36c-0.4-1.9-1.9-3.1-3.9-3.1c-0.8,0-1.6,0-2.4,0l-1,0l0-1c0-0.8,0-1.6,0-2.5c0-2.2-1.7-3.9-4-3.9
			l-2.7,0c-2.3,0-4,1.7-4,4l0,3.3l-1,0c-0.9,0-1.7,0-2.6,0c-1.6,0-3,1.1-3.5,2.6c-0.1,0.2-0.1,0.3-0.1,0.5l-0.1,0.2l0,3.8l0.1,0.3
			c0,0.2,0.1,0.3,0.1,0.5c0.5,1.5,1.9,2.6,3.5,2.6c0.9,0,1.8,0,2.6,0l1,0l0,0.9c0,0.8,0,1.6,0,2.3c-0.1,2.3,1.6,3.8,3.3,4.1l0.1,0.1
			h3.9l0.4-0.1c1.7-0.4,3-2,3-3.8c0-0.7-0.5-1.3-1.2-1.4c-0.4-0.1-0.8,0-1.1,0.3c-0.3,0.3-0.5,0.7-0.6,1.1c-0.1,0.7-0.5,1.1-1.2,1.1
			c-0.9,0-1.8,0-2.7,0c-0.1,0-0.2,0-0.2,0c-0.6-0.1-0.9-0.5-0.9-1.2l0-4.6c0-0.9-0.6-1.5-1.5-1.5l-4.5,0c-0.1,0-0.2,0-0.3,0
			c-0.6,0-1-0.5-1-1.1c0-1,0-1.9,0-2.9c0-0.5,0.3-0.9,0.8-1c0.1,0,0.3,0,0.4,0l4.6,0c0.7,0,1.2-0.4,1.4-1c0.1-0.2,0.1-0.4,0.1-0.6
			l0-2c0-0.9,0-1.7,0-2.6c0-0.7,0.4-1.2,1.2-1.2c0.9,0,1.8,0,2.7,0c0.1,0,0.2,0,0.2,0c0.6,0.1,0.9,0.5,0.9,1.2l0,4.7
			c0,0.9,0.6,1.5,1.5,1.5l4.5,0c0.1,0,0.2,0,0.3,0c0.6,0,1,0.5,1,1c0,1,0,2,0,3c0,0.4-0.2,0.7-0.6,0.9c-0.2,0.1-0.4,0.1-0.7,0.1
			c-1,0-1.9,0-2.9,0l-1.7,0c-0.8,0-1.5,0.6-1.5,1.4c0,0.4,0.1,0.7,0.4,1c0.3,0.3,0.6,0.4,1,0.4l0.9,0c1.3,0,2.7,0,4,0
			c2.1-0.1,3.8-1.8,3.8-3.9c0-1,0-1.9,0-2.9C37.5,36.5,37.5,36.3,37.4,36z"/>
	</g>
	<g>
		<path class="st2" d="M36.9,47.6c0,0.1,0.3,0.3,0.4,0.4c0.2,0.2,0.4,0.4,0.4,0.4c0,0,0,0,0,0c0.1,0,0.5-0.4,0.8-0.7l-0.8-0.9
			C37.3,47.1,36.9,47.5,36.9,47.6z"/>
		<polygon class="st2" points="47.1,37.5 45.8,38.8 46.5,39.5 47.8,38.2 47.8,38.2 		"/>
		<path class="st1" d="M46,37.4h-0.8l-0.1,0.1c-0.2,0.3-0.3,0.5-0.3,0.7c0,0.4,0.3,0.6,0.5,0.8c0,0,0,0,0.1,0.1l-1.2,1.3
			c0,0-0.1-0.2-0.1-0.2c-0.3-0.4-0.7-0.7-1.1-1.1c-0.1-0.1-0.5-0.5-0.9-0.5c-0.3,0-0.6,0.4-0.7,0.5c-0.2,0.3,0.3,0.8,0.5,1
			c0.1,0.2,0.2,0.3,0.3,0.4l-4.3,4.3c-1,1-1.1,1.3-0.4,2.3c0,0-0.1,0.1-0.1,0.1c-0.7,0.6-1.5,1.5-0.8,2.7l-1.7,1.6
			c-0.2,0.2-0.4,0.4-0.4,0.8c0,0.2,0.1,0.4,0.3,0.6c0.2,0.2,0.4,0.2,0.5,0.2c0.4,0,0.6-0.3,0.8-0.4l1.6-1.7c1.2,0.7,2.1-0.1,2.7-0.7
			c0.1-0.1,0.1-0.1,0.2-0.2c0.9,0.6,1.3,0.5,2.2-0.3l0.5-0.5c0.6-0.6,1.3-1.2,1.9-1.9c0.5-0.5,1-1,1.6-1.6l0.5-0.5
			c0.1,0.1,0.1,0.1,0.2,0.2c0.2,0.2,0.7,0.7,1.3,0.2c0.2-0.2,0.3-0.4,0.3-0.6c0-0.3-0.3-0.6-0.4-0.8l-1.1-1l1.2-1.3
			c0,0,0.1,0.1,0.1,0.1c0.3,0.3,0.8,0.8,1.5,0.2l0.1-0.1v-0.8L46,37.4z M39.2,49.1c-0.3,0.3-0.6,0.6-0.7,0.6c0,0,0,0,0,0
			c0,0-0.2-0.1-0.4-0.3c-0.1-0.1-0.3-0.3-0.3-0.4c0-0.1,0.3-0.4,0.6-0.7L39.2,49.1z M46,42.1l-0.6-0.6l1.2-1.1l0.6,0.6l0,0L46,42.1z
			 M42.7,43.8c-0.2,0.2-0.3,0.4-0.3,0.6c0,0.3,0.2,0.5,0.4,0.7l1.1,1.1l-0.8,0.8c0,0,0,0,0,0c-0.2-0.2-0.4-0.5-0.7-0.7
			c-0.1-0.1-0.1-0.2-0.2-0.3c-0.2-0.2-0.4-0.5-0.8-0.6c-0.2,0-0.4,0.1-0.6,0.3c-0.2,0.2-0.3,0.4-0.3,0.6c0,0.4,0.3,0.6,0.6,0.8
			c0.1,0.1,0.2,0.2,0.2,0.2c0.2,0.3,0.5,0.5,0.7,0.7c0,0,0,0,0,0l-0.7,0.7l-2.5-2.4l4.4-4.4l2.5,2.5l-0.7,0.7L44,43.9
			c-0.2-0.2-0.4-0.4-0.7-0.4C43.1,43.5,42.9,43.6,42.7,43.8z"/>
	</g>
</g>
</svg>
