<?xml version="1.0" encoding="utf-8"?>
<!-- Generator: Adobe Illustrator 26.0.1, SVG Export Plug-In . SVG Version: 6.00 Build 0)  -->
<svg version="1.1" id="Layer_1" xmlns="http://www.w3.org/2000/svg" xmlns:xlink="http://www.w3.org/1999/xlink" x="0px" y="0px"
	 viewBox="0 0 65 65" style="enable-background:new 0 0 65 65;" xml:space="preserve">
<style type="text/css">
	.st0{fill:url(#SVGID_1_);}
	.st1{fill:#FFFFFF;}
</style>
<linearGradient id="SVGID_1_" gradientUnits="userSpaceOnUse" x1="1.8447" y1="5613.0742" x2="62.8087" y2="5659.6455" gradientTransform="matrix(1 0 0 1 0 -5604.0005)">
	<stop  offset="0.1904" style="stop-color:#59D86E"/>
	<stop  offset="1" style="stop-color:#19994C"/>
</linearGradient>
<path class="st0" d="M46.6,65H18.4C8.2,65,0,56.8,0,46.6V18.4C0,8.2,8.2,0,18.4,0h28.3C56.8,0,65,8.2,65,18.4v28.3
	C65,56.8,56.8,65,46.6,65z"/>
<g>
	<g>
		<path class="st1" d="M23.6,46.2c0.3,0.4,0.4,0.6,0.5,1c0.4,0.8,0.1,1.7-0.6,2.2c-0.6,0.4-1.3,0.8-1.9,1c-0.8,0.4-1.7,0.1-2.2-0.6
			c-1.8-3.2-3.7-6.5-5.5-9.7c-0.5-0.8-0.3-1.7,0.6-2.2c0.6-0.4,1.3-0.8,1.9-1c0.8-0.4,1.7-0.1,2.2,0.6c0.1,0.3,0.3,0.5,0.5,0.8
			c0.1-0.1,0.3-0.1,0.4-0.3c1.7-0.9,3.2-1.9,4.9-2.8c1-0.5,2-1,3.2-0.9c0.6,0.1,1.3,0.3,1.9,0.5c1.9,0.6,3.8,1.4,5.9,1.8
			c1.4,0.3,2.2,1.9,1.7,3.3c0,0.1-0.1,0.3-0.3,0.5c0.4-0.3,0.8-0.4,1-0.5c2.2-1.3,4.4-2.6,6.5-3.8c1-0.5,1.9-1,3.1-1.2
			c1.3-0.1,2.4,0.5,2.8,1.7c0.4,1.3,0,2.6-1.2,3.2c-3.8,2.4-7.8,4.7-11.7,7.2c-1.4,0.9-2.9,1.2-4.5,0.6c-2.6-0.8-5.3-1.4-7.8-2.2
			c-0.3-0.1-0.6-0.1-0.9,0.1C24.1,46,23.8,46,23.6,46.2z M22.9,45.1c0.4-0.3,0.6-0.4,1-0.6c0.4-0.3,0.6-0.3,1.2-0.1
			c2.8,0.8,5.6,1.5,8.5,2.3c1.2,0.3,2.2,0.1,3.1-0.4c4-2.4,7.9-4.9,12-7.4c0.3-0.1,0.4-0.4,0.5-0.6c0.4-1.2-0.3-2-1.5-1.9
			c-0.9,0-1.8,0.5-2.6,0.9c-2.2,1.3-4.2,2.4-6.4,3.7c-1.2,0.6-2.3,0.9-3.5,0.8c-0.8-0.1-1.5-0.3-2.3-0.5c-1-0.3-2-0.5-3.1-0.9
			c-0.4-0.1-0.5-0.4-0.4-0.8c0.1-0.3,0.4-0.5,0.8-0.4c0.1,0,0.1,0,0.3,0c1.3,0.4,2.6,0.6,4,1c0.6,0.1,1.3,0,1.5-0.5
			c0.5-0.8,0-1.8-0.9-1.9c-0.4-0.1-0.9-0.1-1.3-0.3c-1.8-0.5-3.5-1.2-5.3-1.7c-0.8-0.3-1.5-0.3-2.3,0c-0.4,0.1-0.8,0.4-1.2,0.5
			c-1.7,0.9-3.3,1.9-5,2.9L20,39.3C20.8,41.2,21.8,43.1,22.9,45.1z M20.8,49.4c0.1,0,0.3,0,0.3-0.1c0.6-0.4,1.3-0.6,1.8-1
			c0.3-0.1,0.3-0.4,0.1-0.6c-1.8-3.2-3.6-6.3-5.4-9.5c-0.3-0.4-0.4-0.4-0.8-0.3c-0.5,0.3-1,0.6-1.5,0.9c-0.4,0.3-0.4,0.4-0.3,0.8
			c0.5,0.8,0.9,1.7,1.4,2.4c1.3,2.3,2.6,4.6,4,6.9C20.5,49.2,20.6,49.3,20.8,49.4z"/>
		<path class="st1" d="M36.6,28.4c0.1,0.5,0.3,0.9,0.3,1.2c0.4,1.3,0.6,2.6,1,3.8c0.3,0.8,0.1,1-0.8,1.2c-1,0.3-1.9,0.1-2.7-0.6
			c-0.3-0.3-0.5-0.8-0.6-1.2c-0.4-1.2-0.6-2.3-1-3.6c-0.3,0-0.6,0.1-0.9,0.1c-2,0.3-4.1-1-4.5-3.1c-0.5-2,0.6-4.1,2.7-4.7
			c1-0.3,2-0.5,3.1-0.9c0.5-0.1,1-0.4,1.4-0.6c1.7-1,3.1-2.3,4.4-3.7c0.5-0.5,1-1,1.5-1.4c1-1,2.4-0.6,2.8,0.8
			c0.3,1.2,0.6,2.3,0.9,3.6c0.3,0,0.5,0,0.8,0.1c1,0.3,1.8,0.9,2,2c0.3,1.2-0.1,2-1.2,2.7c-0.3,0.1-0.3,0.3-0.3,0.5
			c0.3,1,0.5,2,0.8,3.1c0.1,0.6,0,1.3-0.4,1.7c-0.5,0.5-1,0.5-1.7,0.4c-1.7-0.4-3.5-0.9-5.1-1.3C38.6,28.4,37.7,28.4,36.6,28.4z
			 M42.8,28c-0.9-3.6-1.9-7-2.8-10.5c-0.3,0.1-0.4,0.3-0.4,0.4c-1.4,1.3-2.8,2.6-4.4,3.5C35,21.5,35,21.6,35,21.9
			c0.3,0.9,0.5,1.8,0.8,2.8c0.3,0.9,0.5,1.7,0.6,2.6C38.6,27.1,40.6,27.5,42.8,28z M33.7,22c-0.9,0.3-1.9,0.5-2.8,0.8
			c-0.1,0-0.3,0.1-0.4,0.1c-1.4,0.5-2.2,1.9-1.8,3.3c0.4,1.4,1.8,2.3,3.2,2c0.8-0.1,1.5-0.4,2.3-0.6c0.3-0.1,0.5-0.1,0.8-0.3
			C34.7,25.6,34.2,23.8,33.7,22z M45.7,28.3c0-0.1,0-0.1-0.1-0.3c-0.5-2-1.2-4.1-1.7-6.1c-0.5-1.9-1-3.8-1.5-5.8
			c-0.1-0.5-0.5-0.5-0.9-0.3c-0.6,0.6-0.6,0.6-0.4,1.5v0.1C42,21,43,24.6,43.9,28c0,0.1,0.1,0.3,0.3,0.4c0.3,0.1,0.6,0.3,0.9,0.3
			C45.5,28.8,45.6,28.7,45.7,28.3z M36.8,33.4c-0.4-1.5-0.9-3.2-1.3-4.9c-0.4,0.1-0.9,0.3-1.3,0.4c0.4,1.3,0.6,2.6,1,3.7
			C35.4,33.4,36.1,33.7,36.8,33.4z M44.8,20.6c0.3,0.9,0.5,1.7,0.6,2.6c0.5-0.4,0.6-0.9,0.5-1.4C46,21.1,45.6,20.7,44.8,20.6z"/>
		<path class="st1" d="M50.6,25.1c0,0.5-0.4,0.8-0.8,0.6c-0.5-0.3-0.9-0.5-1.4-0.8c-0.3-0.1-0.4-0.5-0.1-0.8
			c0.1-0.3,0.5-0.4,0.8-0.3c0.5,0.3,0.9,0.5,1.4,0.8C50.5,24.8,50.6,25,50.6,25.1z"/>
		<path class="st1" d="M49.4,21.4c-0.4,0-0.6-0.1-0.8-0.4c-0.1-0.3,0-0.6,0.3-0.6c0.5-0.1,1-0.4,1.5-0.4c0.3,0,0.5,0.1,0.6,0.4
			c0.1,0.3,0,0.5-0.3,0.6C50.5,21.1,50,21.2,49.4,21.4z"/>
		<path class="st1" d="M47.8,16c0.5,0,0.9,0.4,0.6,0.8c-0.3,0.5-0.5,0.9-0.8,1.4c-0.1,0.3-0.5,0.4-0.8,0.1c-0.3-0.1-0.4-0.5-0.3-0.8
			c0.3-0.5,0.5-0.9,0.8-1.4C47.5,16.1,47.7,16,47.8,16z"/>
		<path class="st1" d="M17.6,39.8c0,0.4-0.3,0.6-0.6,0.6s-0.6-0.3-0.6-0.6s0.3-0.6,0.6-0.6C17.3,39.2,17.6,39.4,17.6,39.8z"/>
	</g>
</g>
</svg>
