<?xml version="1.0" encoding="utf-8"?>
<!-- Generator: Adobe Illustrator 26.0.1, SVG Export Plug-In . SVG Version: 6.00 Build 0)  -->
<svg version="1.1" id="Layer_1" xmlns="http://www.w3.org/2000/svg" xmlns:xlink="http://www.w3.org/1999/xlink" x="0px" y="0px"
	 viewBox="0 0 65 65" style="enable-background:new 0 0 65 65;" xml:space="preserve">
<style type="text/css">
	.st0{fill:url(#SVGID_1_);}
	.st1{fill:#FFFFFF;}
</style>
<linearGradient id="SVGID_1_" gradientUnits="userSpaceOnUse" x1="1.8443" y1="6256.4448" x2="62.8083" y2="6303.0161" gradientTransform="matrix(1 0 0 1 0 -6247.3711)">
	<stop  offset="0.1904" style="stop-color:#5BD6AD"/>
	<stop  offset="1" style="stop-color:#1A996F"/>
</linearGradient>
<path class="st0" d="M46.6,65H18.4C8.2,65,0,56.8,0,46.6V18.4C0,8.2,8.2,0,18.4,0h28.3C56.8,0,65,8.2,65,18.4v28.3
	C65,56.8,56.8,65,46.6,65z"/>
<path class="st1" d="M41.6,32v6.2c0,0.8-0.3,1.2-1.1,1.2c-1.3,0.1-2.5,0-3.8,0c-0.6,0-0.9-0.4-0.9-1.2c0-1.7,0-3.3,0-5
	c0-0.9,0.3-1.2,1.3-1.3C38.5,31.9,40,32,41.6,32z"/>
<path class="st1" d="M52.7,28.6c0-0.8-0.1-1.6-0.2-2.4c-1.2-7.2-7.4-12.5-14.7-12.5c-8.4,0-16.7,0-25.1,0h-0.5V14
	c0,7.5,0,14.9,0,22.4c0,2.3,0.5,4.5,1.5,6.5c2.9,5.4,7.4,8.3,13.6,8.3c8.3,0.1,16.6,0,24.9,0c0.1,0,0.2,0,0.4,0v-0.4
	C52.7,43.4,52.7,36,52.7,28.6z M47.4,26.5c0,3.9,0,7.8,0,11.8c0,1.1-0.1,2.2-0.5,3.3c-0.7,2-2.2,3.1-4.2,3.4
	c-0.8,0.2-1.7,0.2-2.5,0.2c-1.3,0-2.7,0-4,0c-1.3,0-2.5-0.3-3.6-0.9c-0.1,0-0.3-0.1-0.3,0c-0.9,0.5-1.8,0.8-2.8,0.9
	c-0.1,0-0.2,0-0.3,0c-1.7,0-3.3,0-5,0c-1.6,0-3.1-0.4-4.4-1.4c-0.8-0.7-1.4-1.5-1.6-2.6c-0.2-0.7-0.3-1.5-0.4-2.3
	c0-5.7,0-11.4,0-17.1c0-0.4,0.1-0.5,0.4-0.6c1.7-0.6,3.3-1.2,5-1.8c0.1,0,0.2-0.1,0.4-0.1v0.5c0,6,0,12,0,18c0,0.3,0,0.5,0.1,0.8
	c0.1,0.4,0.5,0.6,0.9,0.7c0.3,0.1,0.6,0.1,0.9,0.1c1,0,2,0,3,0c0.8,0,1.5-0.7,1.5-1.5c0-1.9,0-3.7,0-5.6c0-0.9,0.2-1.9,0.5-2.7
	c0.8-1.9,2.2-2.9,4.1-3.3c0.7-0.1,1.5-0.2,2.3-0.2c3.4,0,6.8,0,10.2,0h0.4V26.5z"/>
</svg>
