<?xml version="1.0" encoding="utf-8"?>
<!-- Generator: Adobe Illustrator 26.0.1, SVG Export Plug-In . SVG Version: 6.00 Build 0)  -->
<svg version="1.1" id="Layer_1" xmlns="http://www.w3.org/2000/svg" xmlns:xlink="http://www.w3.org/1999/xlink" x="0px" y="0px"
	 viewBox="0 0 65 65" style="enable-background:new 0 0 65 65;" xml:space="preserve">
<style type="text/css">
	.st0{fill:url(#SVGID_1_);}
	.st1{fill:#FFFFFF;}
</style>
<linearGradient id="SVGID_1_" gradientUnits="userSpaceOnUse" x1="1.8445" y1="-5547.7832" x2="62.8085" y2="-5594.3545" gradientTransform="matrix(1 0 0 -1 0 -5538.7095)">
	<stop  offset="0.1904" style="stop-color:#59D86E"/>
	<stop  offset="1" style="stop-color:#19994C"/>
</linearGradient>
<path class="st0" d="M46.6,65H18.4C8.2,65,0,56.8,0,46.6V18.4C0,8.2,8.2,0,18.4,0h28.3C56.8,0,65,8.2,65,18.4v28.3
	C65,56.8,56.8,65,46.6,65z"/>
<path class="st1" d="M40.9,12.3c-0.9,0-1.7,0.8-1.7,1.7c0,5-4.4,6.7-8.4,6.7H19c-3.7,0-6.7,3-6.7,6.7v3.4c0,2,0.9,4,2.6,5.2l6,13.4
	c0.9,2,2.8,3.2,5,3.2c2.8,0,5-2.3,5-5c0-0.7-0.1-1.4-0.4-2l-3.7-8.1h4.1c4.1,0,8.4,1.8,8.4,6.7c0,0.9,0.8,1.7,1.7,1.7
	s1.7-0.8,1.7-1.7V14C42.6,13,41.9,12.3,40.9,12.3L40.9,12.3z M27.3,47c0.4,0.8,0,1.8-0.8,2.2c-0.2,0.1-0.4,0.1-0.7,0.1
	c-0.8,0-1.6-0.5-1.9-1.2l-4.7-10.6H23L27.3,47z M39.2,36.9c-2.4-1.9-5.4-2.8-8.4-2.7H19c-1.9,0-3.4-1.5-3.4-3.4v-3.4
	c0-1.9,1.5-3.4,3.4-3.4h11.8c3,0.1,6-0.8,8.4-2.7V36.9z M52.6,38.3c-0.4,0.8-1.4,1.2-2.3,0.8c0,0,0,0,0,0l-3.4-1.7
	c-0.8-0.4-1.2-1.4-0.8-2.3c0.4-0.8,1.4-1.2,2.3-0.8l3.4,1.7C52.6,36.5,53,37.5,52.6,38.3L52.6,38.3z M46.2,23.1
	c-0.4-0.8-0.1-1.8,0.8-2.3c0,0,0,0,0,0l3.4-1.7c0.8-0.4,1.8-0.1,2.3,0.8c0.4,0.8,0.1,1.8-0.8,2.3l0,0l-3.4,1.7
	C47.6,24.3,46.6,24,46.2,23.1C46.2,23.2,46.2,23.2,46.2,23.1z M46,29.1c0-0.9,0.8-1.7,1.7-1.7H51c0.9,0,1.7,0.8,1.7,1.7
	c0,0.9-0.8,1.7-1.7,1.7h-3.4C46.7,30.8,46,30.1,46,29.1z"/>
</svg>
