<?xml version="1.0" encoding="utf-8"?>
<!-- Generator: Adobe Illustrator 26.0.1, SVG Export Plug-In . SVG Version: 6.00 Build 0)  -->
<svg version="1.1" id="Layer_1" xmlns="http://www.w3.org/2000/svg" xmlns:xlink="http://www.w3.org/1999/xlink" x="0px" y="0px"
	 viewBox="0 0 65 65" style="enable-background:new 0 0 65 65;" xml:space="preserve">
<style type="text/css">
	.st0{fill:url(#SVGID_1_);}
	.st1{fill:#FFFFFF;}
</style>
<linearGradient id="SVGID_1_" gradientUnits="userSpaceOnUse" x1="1.8443" y1="6256.4448" x2="62.8083" y2="6303.0161" gradientTransform="matrix(1 0 0 1 0 -6247.3711)">
	<stop  offset="0.1904" style="stop-color:#FF2C2C"/>
	<stop  offset="1" style="stop-color:#991C1C"/>
</linearGradient>
<path class="st0" d="M46.6,65H18.4C8.2,65,0,56.8,0,46.6V18.4C0,8.2,8.2,0,18.4,0h28.3C56.8,0,65,8.2,65,18.4v28.3
	C65,56.8,56.8,65,46.6,65z"/>
<g>
	<g>
		<path class="st1" d="M53.4,36.6c-1.5-4-3-8.1-4.6-12c-0.5-1.2-1.5-2.2-2.3-3.2c-0.6-0.9-1.5-1.6-2-2.5c-1.1-2-3.1-3.1-5.1-2.6
			c-2.2,0.5-3.5,2.1-3.5,4.5c0,1.5,0,3.1,0,4.7h-6.7c0-1.6,0-3.2,0-4.7c0.1-1.9-0.8-3.2-2.5-4c-1.7-0.9-3.7-0.8-4.8,0.6
			c-1.6,2.3-4.1,4-5.2,6.5c-2,4.5-3.8,9.2-5.3,13.9c-1.4,4.3,1.1,9,5.4,10.6c4.2,1.7,9.4,0.1,11.1-4.1c1.1-2.7,2.6-3.1,5-2.8
			c0.6,0.1,1.1,0,1.7,0c1-0.1,1.4,0.2,1.8,1.2c1.6,5,6.7,7.5,11.5,5.8C52.7,46.8,55.2,41.6,53.4,36.6z M25.4,18.9
			c1,0.3,1.4,1.1,1,2.2c-1.2-0.4-2.3-0.8-3.5-1.2C23.5,18.7,24.4,18.5,25.4,18.9z M18.9,24.9c0.8-1.7,2.7-2.7,4.4-2.3
			c1.9,0.4,3.2,1.7,3.3,3.7c0.1,2.3,0,4.5,0,7.1c-3.1-2.5-6.4-3.2-10.3-1.8C17.2,29.1,18,27,18.9,24.9z M20.1,46.4
			c-3.6,0-6.5-2.9-6.5-6.5c0-3.6,2.9-6.5,6.5-6.5c3.6,0,6.6,3,6.5,6.6C26.6,43.6,23.7,46.4,20.1,46.4z M29.3,28.1h6.6v7.1h-6.6V28.1
			z M35,38.9c-3.2,0.3-5.3,0.1-5.8-0.9h6.6c0.1,0.1,0.1,0.2,0.2,0.3C35.6,38.5,35.3,38.8,35,38.9z M46.1,24.8
			c0.9,2.1,1.7,4.3,2.6,6.7c-4.5-1.2-5.8-1-10.2,1.6c0-2.6-0.2-5.2,0.1-7.7c0.1-1.6,1.9-2.7,3.5-2.9C43.8,22.4,45.5,23.2,46.1,24.8z
			 M39.4,19c1.1-0.5,2-0.3,2.8,0.9c-1.3,0.4-2.3,0.8-3.5,1.3C38.2,20.1,38.5,19.4,39.4,19z M44.9,46.4c-3.6,0-6.5-2.9-6.5-6.5
			c0-3.6,2.9-6.5,6.5-6.5c3.6,0,6.6,3,6.6,6.6C51.4,43.6,48.5,46.4,44.9,46.4z"/>
	</g>
</g>
</svg>
