<?xml version="1.0" encoding="utf-8"?>
<!-- Generator: Adobe Illustrator 26.0.1, SVG Export Plug-In . SVG Version: 6.00 Build 0)  -->
<svg version="1.1" id="Layer_1" xmlns="http://www.w3.org/2000/svg" xmlns:xlink="http://www.w3.org/1999/xlink" x="0px" y="0px"
	 viewBox="0 0 65 65" style="enable-background:new 0 0 65 65;" xml:space="preserve">
<style type="text/css">
	.st0{fill:url(#SVGID_1_);}
	.st1{fill:#FFFFFF;}
</style>
<linearGradient id="SVGID_1_" gradientUnits="userSpaceOnUse" x1="1.8445" y1="-5547.7832" x2="62.8085" y2="-5594.3545" gradientTransform="matrix(1 0 0 -1 0 -5538.7095)">
	<stop  offset="0.1904" style="stop-color:#59D86E"/>
	<stop  offset="1" style="stop-color:#19994C"/>
</linearGradient>
<path class="st0" d="M46.6,65H18.4C8.2,65,0,56.8,0,46.6V18.4C0,8.2,8.2,0,18.4,0h28.3C56.8,0,65,8.2,65,18.4v28.3
	C65,56.8,56.8,65,46.6,65z"/>
<g>
	<path class="st1" d="M52,17c0-2-1.4-3.8-3.4-4.2c-0.9-0.2-1.9-0.1-2.9-0.2c-0.4,0-0.7,0.2-0.7,0.6c0,0.4,0.2,0.6,0.7,0.6
		c0.6,0,1.2,0,1.8,0c1.8,0,3.2,1.5,3.2,3.2c0,4.8,0,9.5,0,14.3c0,1.6-1.2,3-2.8,3.2c-0.8,0.1-1.6,0-2.3,0.1c-0.2,0-0.5,0.1-0.7,0.2
		c-1.1,0.8-2.1,1.6-3.2,2.4c-0.1,0.1-0.2,0.2-0.4,0.3c0-0.7,0-1.4,0-2.1c0-0.7-0.2-0.9-0.9-0.9c-2.3,0-4.7,0-7,0
		c-0.5,0-1-0.2-1.5-0.3c-0.3-0.1-0.4-0.2-0.4-0.5c0-2.1,0-4.2,0-6.3c0-1.2-0.5-2.3-1.4-3.1C30.1,24.2,30,24,30,23.9
		c0-2.3,0-4.6,0-6.9c0-1.6,1.2-2.9,2.7-3.1c0.3-0.1,0.6-0.1,0.8-0.1c2.7,0,5.4,0,8.1,0c0.5,0,0.8-0.3,0.7-0.7c0-0.4-0.3-0.5-0.7-0.5
		c-2.7,0-5.4,0-8.1,0c-2.8,0-4.8,1.9-4.8,4.8c0,1.9,0,3.9,0,5.8c0,0.1,0,0.3,0,0.5c-0.3,0-0.5-0.1-0.7-0.1c-3.8,0-7.6,0-11.4,0
		c-1.7,0-3.2,1.3-3.5,2.9C13,27.1,13,27.8,13,28.5c0,0.4,0.2,0.6,0.6,0.6c0.4,0,0.6-0.2,0.6-0.6c0-0.4,0-0.7,0-1.1
		c0-1.6,1-2.7,2.7-2.7c3.6,0,7.2,0,10.8,0c1.6,0,2.7,1.1,2.7,2.7c0,3.6,0,7.1,0,10.7c0,0.1,0,0.3,0,0.5c-0.5,0-0.9,0-1.4,0
		c-1.3,0.1-2.2,0.8-2.6,2c0,0.1-0.1,0.3-0.2,0.4c-0.8,0.6-1.6,1.3-2.4,1.9c-0.1,0.1-0.2,0.1-0.3,0.1c0-0.4,0-0.8,0-1.2
		c0-0.8-0.1-1-1-1c-1.9,0-3.8,0-5.6,0c-1.6,0-2.6-1-2.6-2.6c0-1.4,0-2.8,0-4.1c0-0.6,0-1.2,0-1.8c0-0.5-0.3-0.7-0.7-0.6
		c-0.4,0.1-0.5,0.3-0.5,0.7c0,2,0,4,0,6c0,0.2,0,0.4,0.1,0.6c0.4,1.8,1.8,3,3.8,3c1.6,0,3.2,0,4.9,0c0.2,0,0.3,0,0.5,0
		c0,0.7,0,1.4,0,2c0,0.3,0,0.6,0.3,0.7c0.3,0.2,0.6,0,0.8-0.2c0.8-0.6,1.7-1.3,2.5-1.9c0.1-0.1,0.2-0.2,0.4-0.3c0,0.2,0,0.4,0,0.5
		c0,2.1,0,4.1,0,6.2c0,1.8,1.2,2.9,3,2.9c1,0,2.1,0,3.1,0c0.1,0,0.3,0,0.4,0c0,0.4,0,0.7,0,1.1c0,0.4,0.1,0.7,0.4,1
		c0.2,0,0.3,0,0.5,0c0.6-0.5,1.3-1,1.9-1.5c0.4-0.4,0.9-0.5,1.4-0.5c1.3,0,2.4-0.8,2.7-2.1c0.1-0.6,0.1-1.2,0.1-1.8
		c0-0.4-0.2-0.6-0.6-0.6c-0.4,0-0.6,0.2-0.6,0.6c0,0.3,0,0.7,0,1c0,1-0.7,1.7-1.7,1.6c-0.8,0-1.4,0.2-1.9,0.7
		c-0.2,0.2-0.5,0.4-0.7,0.5c-0.1,0-0.1,0.1-0.3,0.1c0-0.2,0-0.3,0-0.4c0-0.8-0.2-0.9-0.9-0.9c-1.2,0-2.5,0-3.7,0
		c-1.3,0-1.9-0.6-1.9-1.9c0-2.4,0-4.9,0-7.3c0-1.3,0.6-1.9,1.9-1.9c2.4,0,4.9,0,7.3,0c1.3,0,1.9,0.6,1.9,1.9c0,0.9,0,1.7,0,2.6
		c0,0.3,0.1,0.6,0.5,0.7c0.4,0.1,0.7-0.2,0.7-0.7c0-0.9,0-1.8,0-2.6c0-1.9-1.1-3.1-3.1-3.1c-1.6,0-3.1,0-4.7,0c-0.1,0-0.3,0-0.4,0
		c0-1.1,0-2.1,0-3.1c2.8,0.5,5.6,0.1,8.5,0.3c0,0.9,0,1.8,0,2.7c0,0.3,0,0.6,0.3,0.7c0.3,0.2,0.6,0,0.8-0.2c1.3-1,2.7-2.1,4.1-3.1
		c0.2-0.1,0.4-0.2,0.7-0.2c0.5,0,1,0,1.5,0c2.5-0.1,4.5-2,4.5-4.4C52,26.5,52,21.8,52,17z"/>
	<path class="st1" d="M41.3,17c-0.5,0.1-0.9,0.5-1,1.1c0,0.3,0,0.6-0.1,0.9c-0.3,1.5-1.6,2.3-2.4,3.4c-0.3-0.1-0.5-0.2-0.7-0.2
		c-1,0-2,0-3,0c-0.5,0-0.7,0.2-0.7,0.7c0,2.4,0,4.7,0,7.1c0,0.5,0.2,0.7,0.7,0.7c1,0,1.9,0,2.9,0c0.3,0,0.5-0.1,0.9-0.2
		c0.6,0.3,1.4,0.5,2.2,0.5c1.8,0,3.6,0,5.4,0c0.1,0,0.3,0,0.4,0c0.8-0.1,1.4-0.7,1.4-1.5c0-1.9,0-3.9,0-5.8c0-0.6-0.2-1-0.7-1.3
		c-0.3-0.1-0.6-0.2-0.9-0.2c-1,0-1.9,0-2.8,0c0-0.1,0-0.1,0-0.1c0.1-0.2,0.1-0.3,0.2-0.5c0.5-1.4,0.4-2.7-0.3-3.9
		C42.4,17.2,41.8,16.9,41.3,17z M36.6,29.6c-0.7,0-1.3,0-2,0c0-2,0-4,0-6.1c0.6,0,1.3,0,2,0C36.6,25.5,36.6,27.5,36.6,29.6z
		 M42,23.3c1.2,0,2.4,0,3.6,0c0.5,0,0.6,0.1,0.6,0.6c0,1.8,0,3.6,0,5.4c0,0.5-0.1,0.6-0.6,0.6c-1.8,0-3.6,0-5.4,0
		c-0.8,0-1.5-0.2-2.1-0.7c-0.1-0.1-0.2-0.3-0.2-0.4c0-1.4,0-2.8,0-4.2c0-0.2,0.1-0.4,0.2-0.5c0.7-0.8,1.3-1.6,2-2.3
		c0.8-0.9,1.4-2,1.4-3.2c0,0,0-0.1,0.1-0.3c0.5,1,0.6,1.9,0.3,2.9c-0.1,0.4-0.3,0.8-0.5,1.3C41.1,22.9,41.4,23.3,42,23.3z"/>
	<path class="st1" d="M18.6,33.7c-0.6,0-0.9,0.2-0.9,0.6c0,0.4,0.3,0.6,0.9,0.6c0.5,0,1,0,1.5,0c-0.1,0.7-0.2,1.2-0.3,1.8
		c-0.1,0.5,0.1,0.8,0.5,0.9c0.4,0.1,0.6-0.2,0.7-0.7c0.1-0.7,0.2-1.3,0.3-2c0.5,0,1,0,1.4,0c0,0,0,0.1,0,0.1
		c-0.1,0.6-0.2,1.2-0.3,1.8c-0.1,0.4,0.1,0.7,0.4,0.8c0.4,0.1,0.7-0.1,0.7-0.6c0.1-0.6,0.2-1.2,0.3-1.8c0-0.3,0.2-0.4,0.4-0.4
		c0.6,0,1.1,0,1.7,0c0.7,0,1-0.2,1-0.6c0-0.4-0.3-0.6-1-0.6c-0.5,0-1,0-1.5,0c-0.1,0-0.2,0-0.3,0c0.1-0.5,0.2-1,0.2-1.4
		c0.2,0,0.3,0,0.5,0c0.5,0,1,0,1.5,0c0.4,0,0.6-0.2,0.6-0.6c0-0.3-0.2-0.6-0.6-0.6c-0.3,0-0.5,0-0.8,0c-0.3,0-0.7,0-1,0
		c0.1-0.7,0.2-1.3,0.3-1.9c0.1-0.4-0.1-0.7-0.5-0.8c-0.4-0.1-0.6,0.1-0.7,0.6c-0.1,0.6-0.2,1.2-0.3,1.8c0,0.1-0.1,0.3-0.2,0.3
		c-0.4,0-0.8,0-1.3,0c0-0.3,0.1-0.4,0.1-0.6c0.1-0.5,0.2-0.9,0.2-1.4c0-0.4-0.1-0.7-0.5-0.7c-0.4-0.1-0.6,0.1-0.7,0.5
		c0,0.1,0,0.2,0,0.3c-0.1,0.6-0.2,1.2-0.3,1.9c-0.4,0-0.8,0-1.2,0c-0.4,0-0.8,0-1.2,0c-0.5,0-0.7,0.3-0.7,0.7
		c0.1,0.4,0.3,0.5,0.7,0.5c0.7,0,1.4,0,2.1,0c-0.1,0.5-0.2,1-0.2,1.5C19.7,33.7,19.1,33.7,18.6,33.7z M21.7,32.3
		c0-0.1,0.1-0.1,0.2-0.2c0.4,0,0.8,0,1.3,0c-0.1,0.5-0.2,1-0.2,1.5c-0.5,0-0.9,0-1.5,0C21.5,33.2,21.6,32.8,21.7,32.3z"/>
	<path class="st1" d="M33.2,42.8c-0.1,0.1-0.3,0-0.4,0c-1.3-0.7-2.8-0.1-3.2,1.3c-0.3,1,0,1.9,0.7,2.7c0.7,0.8,1.6,1.3,2.5,1.7
		c0.2,0.1,0.4,0.1,0.6,0c0.8-0.5,1.6-1,2.3-1.6c0.6-0.5,0.9-1.2,0.9-2.1C36.6,43,34.8,41.9,33.2,42.8z M35.3,44.8
		c0,0.5-0.2,0.9-0.5,1.2c-0.5,0.4-1,0.8-1.6,1.1c-0.1,0.1-0.2,0.1-0.3,0c-0.6-0.4-1.1-0.7-1.6-1.2c-0.5-0.4-0.6-1-0.4-1.7
		c0.1-0.4,0.4-0.6,0.8-0.6c0.4-0.1,0.6,0.1,0.9,0.4c0.3,0.5,0.8,0.5,1.1,0.1c0.4-0.5,0.6-0.6,1.1-0.5C35.1,43.9,35.3,44.3,35.3,44.8
		z"/>
</g>
</svg>
