<?xml version="1.0" encoding="utf-8"?>
<!-- Generator: Adobe Illustrator 26.0.1, SVG Export Plug-In . SVG Version: 6.00 Build 0)  -->
<svg version="1.1" id="Layer_1" xmlns="http://www.w3.org/2000/svg" xmlns:xlink="http://www.w3.org/1999/xlink" x="0px" y="0px"
	 viewBox="0 0 65 65" style="enable-background:new 0 0 65 65;" xml:space="preserve">
<style type="text/css">
	.st0{fill:url(#SVGID_1_);}
	.st1{fill:#FFFFFF;}
</style>
<linearGradient id="SVGID_1_" gradientUnits="userSpaceOnUse" x1="1.8443" y1="6256.4448" x2="62.8083" y2="6303.0161" gradientTransform="matrix(1 0 0 1 0 -6247.3711)">
	<stop  offset="0.1904" style="stop-color:#59D86E"/>
	<stop  offset="1" style="stop-color:#19994C"/>
</linearGradient>
<path class="st0" d="M46.6,65H18.4C8.2,65,0,56.8,0,46.6V18.4C0,8.2,8.2,0,18.4,0h28.3C56.8,0,65,8.2,65,18.4v28.3
	C65,56.8,56.8,65,46.6,65z"/>
<g>
	<g>
		<path class="st1" d="M23.7,12.8c-0.5,0.1-0.9,0.4-0.9,1c0,0.6,0.4,0.9,1,0.8c0.5,0,0.8-0.3,0.8-0.8C24.6,13.2,24.2,12.9,23.7,12.8
			z M23.7,12.8c-0.5,0.1-0.9,0.4-0.9,1c0,0.6,0.4,0.9,1,0.8c0.5,0,0.8-0.3,0.8-0.8C24.6,13.2,24.2,12.9,23.7,12.8z M23.7,12.8
			c-0.5,0.1-0.9,0.4-0.9,1c0,0.6,0.4,0.9,1,0.8c0.5,0,0.8-0.3,0.8-0.8C24.6,13.2,24.2,12.9,23.7,12.8z M23.7,12.8
			c-0.5,0.1-0.9,0.4-0.9,1c0,0.6,0.4,0.9,1,0.8c0.5,0,0.8-0.3,0.8-0.8C24.6,13.2,24.2,12.9,23.7,12.8z M52.5,18.5
			c-1.9,0.1-3.8,0-5.7,0c-0.9,0-1.6-0.2-2.3-0.8c-3.9-3.3-8.4-4.8-13.5-4c-1.3,0.2-1.5-0.2-1.4-1.3c0.1-1.5-0.6-2.5-2.2-2.5
			c-3.3,0-6.5,0-9.8,0c-1.5,0-2.3,0.8-2.2,2.3c0,2.1,0,4.2,0,6.3c0,1.4,0.8,2.1,2.2,2.2c0.5,0,1,0.1,1.6,0.1
			c-1.5,2.4-2.9,4.8-2.8,7.4c0.2,3.8-1.3,5.9-4.7,7c-0.7,0.2-1.2,0.9-0.7,1.6c1,1.3,0.2,1.7-0.8,2.3c-2,1.1-2.2,2-1.1,4.1
			c0.2,0.4,0.5,0.9,0.7,1.3c1.4,2.4,2.1,2.7,4.6,1.3c1-0.6,1.4-0.5,1.9,0.5c1.7,3.3,4,6,7,8.2c1.7,1.3,2.8,1,3.6-1
			c0.6-1.4,0.3-2.7-0.6-3.8c-0.5-0.6-1-1.1-1.6-1.7c0.9-0.5,1.6-1,2.4-1.4c1-0.5,1.2-1.1,0.7-2.2c-1.1-2-0.7-2.7,1.6-3.1
			c1.1-0.2,2.2,0.1,3.3,0.4c0.8,0.3,1.5,0.3,2.3-0.2c4.2-2.2,4.2-2.1,2-6.3c0-0.1,0-0.1-0.1-0.2c-0.4-0.6-0.4-0.9,0.2-1.5
			c1.8-1.7,2-3.6,1-5.5c-1-1.8-2.7-2.6-5.1-2c-0.9,0.2-1.2,0-1.5-0.7c-0.4-0.8-0.8-1.5-1.2-2.3c-0.2-0.4-0.5-0.9-1-0.9
			c-0.9-0.1-5,2.5-5.1,3.4c-0.5,3.5-3.1,4.7-6,6c-0.2-2.6,0.4-4.9,1.3-7.1c1.1-2.6,2.5-4.5,5.7-3.8c0.3,0.1,0.6,0,0.9,0
			c3.4,0,3.6-0.2,3.7-3.7c0-0.7-0.1-1.3,0.9-1.5c4.3-0.7,8.1,0.2,11.8,2.7c-1.9,0.9-2.2,1.3-2.2,3.2c0,1.3,0,2.6,0,3.9
			c0,3.5,0.4,3.9,3.9,3.9c5.2,0,5.5,0.4,4.1,5.5c-0.1,0.4-0.3,0.8-0.4,1.2c-1.2,3.1-1.2,3.1-4.4,3.1c-3,0-4.1,0.9-4,3.9
			c0.1,1.5-0.5,2.1-1.8,2.4c-0.5,0.1-1.1,0.3-1.6,0.4c-0.8,0.1-1.8,0-1.6,1.2c0.2,1,1.2,0.7,1.8,0.6c1.7-0.4,3.1-1,4.3,1.2
			c0.8,1.5,2.8,0.8,4.3,0.8c1.4,0,2.2,0.2,2,1.9c-0.1,0.5-0.1,1.2,0.6,1.4c0.6,0.2,1-0.2,1.4-0.6c1.3-1.1,2.4-2.5,4-3.2
			c1-0.4,1.3-1.4,1.3-2.5c0-1.5,0.1-3,0-4.4c-0.1-1.9-1.3-3-3.2-3c-0.8,0-1.5,0-2.5,0c1.4-2.9,2.3-5.5,2.1-8.4
			c-0.1-1.3,0.4-1.6,1.5-1.4c1.5,0.2,2.8-0.1,3.7-1.5v-7.7C54.9,18.9,53.9,18.4,52.5,18.5z M14.4,43.1c-0.2,1-1.2,1-1.9,1.4
			c-0.4,0.2-2.3-2.2-2.2-3c0.1-1.2,1.4-1,1.9-1.6C12.6,40,14.5,42.6,14.4,43.1z M25.2,51.5c0.2,0.5,0.1,1-0.2,1.4
			c-0.5,0.5-0.8-0.1-1.2-0.4c-1.6-1.2-3-2.7-4.2-4.3c-0.7-0.9-1-1.6,0.4-2.1c0.7-0.2,1.3-0.7,2.3-1.3c-0.4,2.6,0.5,4.3,2.2,5.6
			C24.8,50.7,25,51.2,25.2,51.5z M24.5,45.8C23.8,46,24.1,45.3,24,45c-0.1-0.7,0-1.4,0.8-1.5c0.8-0.1,1,0.8,1,1.3
			C25.8,45.5,25,45.7,24.5,45.8z M34.3,27.7c1.5,0.1,2.6,1.5,2.4,2.9c-0.1,0.7-0.3,1.4-1,1.6c-0.8,0.2-0.8-0.7-1.1-1.2
			c-0.4-0.6-0.7-1.4-1.2-2.1C32.6,27.8,33.4,27.7,34.3,27.7z M27.1,25.2c0.6-0.2,1.3-1.4,1.8-0.4c2.5,4.3,4.9,8.7,7.4,13.1
			c0,0.1,0,0.1,0.1,0.3c-0.3,0.7-1.1,0.7-1.6,1.2c-0.6,0.4-0.8,0.2-1.1-0.4c-2.3-4.2-4.7-8.5-7.1-12.7
			C26.2,25.7,26.5,25.3,27.1,25.2z M21,32.2c1.8-1,3.4-2.1,4.2-4.5c2.2,4,4.3,7.7,6.4,11.6c-5-0.1-8.4,3.4-12.5,5.3
			c-1.3,0.6-1.7,0.5-2.3-0.7c-1-2.1-2.2-4.1-3.4-6.1c-0.6-0.9-0.4-1.3,0.5-1.8C16.4,34.7,18.6,33.4,21,32.2z M19,18.8
			c2-2.6,2.1-2.6,4.3,0H19z M27.1,18.9c-0.9,0.1-1.5-0.4-1.9-1.1c-0.2-0.4,0.4-0.8,0.7-0.8c0.8,0.1,1.3,0.8,1.8,1.4
			C27.7,18.8,27.4,18.9,27.1,18.9z M27.8,13c-0.1,0.8,0,1.7,0,2.9c-1.3-1.5-2.4-1.3-3.4-0.1c-0.5,0.6-0.9,0.5-1.5,0
			c-1.9-1.7-2-1.6-3.8,0.1c-0.5,0.5-1.1,1-1.9,1.8c0-1.8,0.1-3.3,0-4.8c-0.1-1,0.4-1.2,1.3-1.2c2.6,0,5.3,0.1,7.9,0
			C27.4,11.7,27.9,11.9,27.8,13z M50.7,41c0.3,0,0.6,0.1,0.9,0.2c1.2,0.8,0.7,6-0.6,6.5c-0.9,0.4-1.4,1.2-2.5,1.9
			c0.1-1.7-0.8-2-2.1-1.9c-0.3,0-0.6,0-0.9,0c-4.5,0-5.4-1.2-4.4-5.7c0.2-0.8,0.6-1.1,1.4-1.1C45.2,41,48,41,50.7,41z M51.3,20.5
			c-2.1,3.3-4,3.3-7.3,0H51.3z M52.6,27.5c-3.2,0-6.4,0-9.6,0c-0.7,0-1.1-0.2-1.1-1c0-1.6,0-3.1,0-5c5.5,4,5.5,4,11.8,0
			c0,1.8,0,3.4,0,5C53.8,27.3,53.3,27.5,52.6,27.5z M48.1,45.2c0.6,0,0.9-0.4,0.8-0.9c0-0.5-0.3-0.8-0.8-0.8c-0.6,0-0.9,0.3-1,0.9
			C47.2,44.9,47.5,45.2,48.1,45.2z M45,43.5c-0.5-0.1-0.9,0.2-1,0.8c0,0.6,0.3,0.9,0.9,0.9c0.5,0,0.8-0.3,0.9-0.7
			C45.9,43.9,45.6,43.6,45,43.5z M23.7,12.8c-0.5,0.1-0.9,0.4-0.9,1c0,0.6,0.4,0.9,1,0.8c0.5,0,0.8-0.3,0.8-0.8
			C24.6,13.2,24.2,12.9,23.7,12.8z M23.7,12.8c-0.5,0.1-0.9,0.4-0.9,1c0,0.6,0.4,0.9,1,0.8c0.5,0,0.8-0.3,0.8-0.8
			C24.6,13.2,24.2,12.9,23.7,12.8z M23.7,12.8c-0.5,0.1-0.9,0.4-0.9,1c0,0.6,0.4,0.9,1,0.8c0.5,0,0.8-0.3,0.8-0.8
			C24.6,13.2,24.2,12.9,23.7,12.8z M23.7,12.8c-0.5,0.1-0.9,0.4-0.9,1c0,0.6,0.4,0.9,1,0.8c0.5,0,0.8-0.3,0.8-0.8
			C24.6,13.2,24.2,12.9,23.7,12.8z M23.7,12.8c-0.5,0.1-0.9,0.4-0.9,1c0,0.6,0.4,0.9,1,0.8c0.5,0,0.8-0.3,0.8-0.8
			C24.6,13.2,24.2,12.9,23.7,12.8z"/>
		<path class="st1" d="M31.6,46.8c0,0.6-0.3,0.9-0.9,0.9c-0.6,0-0.9-0.4-0.9-0.9c0-0.5,0.4-0.9,0.9-0.9
			C31.2,45.9,31.6,46.3,31.6,46.8z"/>
		<path class="st1" d="M45.9,44.5c-0.1,0.5-0.4,0.7-0.9,0.7c-0.6,0-0.9-0.3-0.9-0.9c0-0.6,0.4-0.9,1-0.8
			C45.6,43.6,45.9,43.9,45.9,44.5z"/>
		<path class="st1" d="M48.1,45.2c-0.6,0-0.9-0.3-0.9-0.9c0-0.5,0.4-0.9,1-0.9c0.5,0,0.8,0.3,0.8,0.8C49,44.9,48.7,45.2,48.1,45.2z"
			/>
		<path class="st1" d="M24.5,13.8c0,0.5-0.3,0.8-0.8,0.8c-0.6,0-0.9-0.3-1-0.8c0-0.6,0.4-0.8,0.9-1C24.2,12.9,24.6,13.2,24.5,13.8z"
			/>
		<path class="st1" d="M45.9,44.5c-0.1,0.5-0.4,0.7-0.9,0.7c-0.6,0-0.9-0.3-0.9-0.9c0-0.6,0.4-0.9,1-0.8
			C45.6,43.6,45.9,43.9,45.9,44.5z"/>
		<path class="st1" d="M48.1,45.2c-0.6,0-0.9-0.3-0.9-0.9c0-0.5,0.4-0.9,1-0.9c0.5,0,0.8,0.3,0.8,0.8C49,44.9,48.7,45.2,48.1,45.2z"
			/>
		<path class="st1" d="M24.5,13.8c0,0.5-0.3,0.8-0.8,0.8c-0.6,0-0.9-0.3-1-0.8c0-0.6,0.4-0.8,0.9-1C24.2,12.9,24.6,13.2,24.5,13.8z"
			/>
	</g>
</g>
</svg>
