<?xml version="1.0" encoding="utf-8"?>
<!-- Generator: Adobe Illustrator 26.0.1, SVG Export Plug-In . SVG Version: 6.00 Build 0)  -->
<svg version="1.1" id="Layer_1" xmlns="http://www.w3.org/2000/svg" xmlns:xlink="http://www.w3.org/1999/xlink" x="0px" y="0px"
	 viewBox="0 0 65 65" style="enable-background:new 0 0 65 65;" xml:space="preserve">
<style type="text/css">
	.st0{fill:url(#SVGID_1_);}
	.st1{fill:#FFFFFF;}
</style>
<linearGradient id="SVGID_1_" gradientUnits="userSpaceOnUse" x1="1.8447" y1="56.217" x2="62.8087" y2="9.6458" gradientTransform="matrix(1 0 0 -1 0 65.2912)">
	<stop  offset="0" style="stop-color:#C44FE0"/>
	<stop  offset="1" style="stop-color:#5A1399"/>
</linearGradient>
<path class="st0" d="M46.6,65H18.4C8.2,65,0,56.8,0,46.6V18.4C0,8.2,8.2,0,18.4,0h28.3C56.8,0,65,8.2,65,18.4v28.3
	C65,56.8,56.8,65,46.6,65z"/>
<g>
	<g>
		<path class="st1" d="M11.2,35c0.2-0.8,0.4-1.6,0.9-2.3c1.7-2.2,4.9-2.6,7-0.7c2,1.8,3.9,3.6,5.9,5.4c0.1,0.1,0.3,0.2,0.4,0.4
			c0.1-0.1,0.1-0.3,0.2-0.4c0.9-1.6,2.3-2.5,4.2-2.5c5.2,0,10.3,0,15.5,0c3.6,0,6.6,3.1,6.7,6.7c0,0.6,0,1.2,0,1.8
			c0,0.9-0.7,1.7-1.6,1.7c-0.9,0-1.6-0.7-1.6-1.7c0-0.7,0-1.5-0.1-2.2c-0.3-1.7-1.7-3-3.5-3c-5.1,0-10.2,0-15.4,0
			c-0.9,0-1.6,0.7-1.6,1.6c0,0.9,0.7,1.6,1.6,1.6c2.5,0,5.1,0,7.6,0c0.2,0,0.4,0,0.6,0c0.8,0.2,1.4,0.9,1.3,1.7
			c-0.1,0.8-0.7,1.5-1.6,1.5c-2.7,0-5.4,0-8.1,0c-0.2,0-0.4,0-0.6-0.1c-1-0.1-1.8-0.6-2.5-1.2c-3.1-2.9-6.3-5.8-9.4-8.7
			c-0.5-0.5-1.1-0.7-1.8-0.4c-0.6,0.2-0.9,0.7-1,1.3c-0.1,0.6,0.2,1.1,0.6,1.5c2.8,2.6,5.5,5.2,8.3,7.8c1.6,1.5,3.4,2.7,5.4,3.6
			c2.5,1.1,5.1,1.7,7.9,1.6c4.5,0,9,0,13.6,0c0.2,0,0.5,0,0.7,0.1c0.7,0.2,1.1,0.7,1.2,1.4c0,0.7-0.3,1.3-1,1.6
			c-0.1,0-0.2,0.1-0.3,0.1c-5.1,0-10.3,0-15.4,0c-0.4,0-0.8-0.1-1.2-0.1c-4.8-0.6-9.1-2.4-12.7-5.7c-2.9-2.6-5.8-5.4-8.7-8.1
			c-0.3-0.3-0.7-0.7-0.9-1.1c-0.3-0.6-0.4-1.2-0.7-1.8C11.2,35.7,11.2,35.3,11.2,35z"/>
		<path class="st1" d="M11.2,26c0.2-0.5,0.5-0.9,1-1.2c5.3-3.8,10.7-7.6,16-11.5c0.8-0.6,1.6-1.1,2.6-1.2c1.3-0.2,2.5,0.1,3.6,0.9
			c1.7,1.2,3.4,2.4,5.2,3.7c0-0.5,0-0.9,0-1.3c0-0.3,0-0.7,0-1c0-0.9,0.7-1.6,1.6-1.6c0.9,0,1.6,0.7,1.6,1.6c0,1.4,0,2.8,0,4.2
			c0,0.3,0.1,0.5,0.4,0.7c2.7,1.9,5.4,3.8,8,5.7c0.6,0.4,0.9,1,0.8,1.7c-0.2,1.1-1.5,1.6-2.4,1c-0.6-0.4-1.1-0.8-1.6-1.1
			c-0.1-0.1-0.2-0.1-0.4-0.2c0,0.9,0,1.6,0,2.4c0,0.4,0,0.8,0,1.2c0,0.9-0.7,1.6-1.6,1.6c-0.9,0-1.6-0.7-1.6-1.6c0-1.9,0-3.7,0-5.6
			c0-0.3-0.1-0.4-0.3-0.6c-3.9-2.7-7.8-5.5-11.6-8.2c-0.6-0.4-1.3-0.4-1.9,0c-3.7,2.7-7.5,5.4-11.2,8.1c-0.3,0.2-0.5,0.5-0.5,0.9
			c0,0.5,0,1.1,0,1.6c0,1-0.6,1.7-1.5,1.8c-0.9,0.1-1.6-0.6-1.7-1.7c-0.4,0.3-0.9,0.6-1.3,0.9c-0.2,0.1-0.4,0.3-0.6,0.4
			c-0.9,0.6-2,0.3-2.4-0.8c0-0.1-0.1-0.1-0.1-0.2C11.2,26.5,11.2,26.2,11.2,26z"/>
		<path class="st1" d="M31.8,24.4c0.3,0,0.6,0,0.8,0c0.9,0,1.5,0.7,1.6,1.5c0,0.6,0,1.1,0,1.7c0,0.9-0.7,1.5-1.5,1.6
			c-0.6,0-1.1,0-1.7,0c-0.9,0-1.5-0.7-1.6-1.5c0-0.6,0-1.1,0-1.7c0-0.9,0.7-1.5,1.5-1.6C31.2,24.4,31.5,24.4,31.8,24.4z"/>
	</g>
</g>
</svg>
