<?xml version="1.0" encoding="utf-8"?>
<!-- Generator: Adobe Illustrator 26.0.1, SVG Export Plug-In . SVG Version: 6.00 Build 0)  -->
<svg version="1.1" id="Layer_1" xmlns="http://www.w3.org/2000/svg" xmlns:xlink="http://www.w3.org/1999/xlink" x="0px" y="0px"
	 viewBox="0 0 65 65" style="enable-background:new 0 0 65 65;" xml:space="preserve">
<style type="text/css">
	.st0{fill:url(#SVGID_1_);}
	.st1{fill:#FFFFFF;}
</style>
<linearGradient id="SVGID_1_" gradientUnits="userSpaceOnUse" x1="1.841" y1="9.0792" x2="62.805" y2="55.6504">
	<stop  offset="0" style="stop-color:#FF6C89"/>
	<stop  offset="1" style="stop-color:#FF2424"/>
</linearGradient>
<path class="st0" d="M46.6,65H18.4C8.2,65,0,56.8,0,46.6V18.4C0,8.2,8.2,0,18.4,0h28.3C56.8,0,65,8.2,65,18.4v28.3
	C65,56.8,56.8,65,46.6,65z"/>
<path class="st1" d="M45.3,28.5h-1.6v-3.2c0-3.5-2.9-6.4-6.4-6.4h-1.6c-0.4-3.6-3.5-6.4-7.2-6.4s-6.8,2.8-7.2,6.4h-1.6
	c-3.5,0-6.4,2.9-6.4,6.4v9.6c0,4.4,3.6,8,8,8h1.6c0,4.4,3.6,8,8,8h12.8c4.4,0,8-3.6,8-8v-8C51.7,31.4,48.8,28.5,45.3,28.5z
	 M28.5,15.7c1.9,0,3.6,1.4,3.9,3.2h-7.8C24.9,17.1,26.6,15.7,28.5,15.7z M21.3,39.7c-2.6,0-4.8-2.2-4.8-4.8v-9.6
	c0-1.8,1.4-3.2,3.2-3.2h1.6v3.2c0,0.9,0.7,1.6,1.6,1.6c0.9,0,1.6-0.7,1.6-1.6v-3.2h8v3.2c0,0.9,0.7,1.6,1.6,1.6
	c0.9,0,1.6-0.7,1.6-1.6v-3.2h1.6c1.8,0,3.2,1.4,3.2,3.2v3.2H29.3c-3.5,0-6.4,2.9-6.4,6.4v4.8H21.3z M48.5,42.9
	c0,2.6-2.2,4.8-4.8,4.8H30.9c-2.6,0-4.8-2.2-4.8-4.8v-8c0-1.8,1.4-3.2,3.2-3.2h16c1.8,0,3.2,1.4,3.2,3.2V42.9z M43.7,36.5v1.6
	c0,3.5-2.9,6.4-6.4,6.4s-6.4-2.9-6.4-6.4v-1.6c0-0.9,0.7-1.6,1.6-1.6s1.6,0.7,1.6,1.6v1.6c0,1.8,1.4,3.2,3.2,3.2
	c1.8,0,3.2-1.4,3.2-3.2v-1.6c0-0.9,0.7-1.6,1.6-1.6S43.7,35.6,43.7,36.5z"/>
</svg>
