<?xml version="1.0" encoding="utf-8"?>
<!-- Generator: Adobe Illustrator 26.0.1, SVG Export Plug-In . SVG Version: 6.00 Build 0)  -->
<svg version="1.1" id="Layer_1" xmlns="http://www.w3.org/2000/svg" xmlns:xlink="http://www.w3.org/1999/xlink" x="0px" y="0px"
	 viewBox="0 0 65 65" style="enable-background:new 0 0 65 65;" xml:space="preserve">
<style type="text/css">
	.st0{fill:url(#SVGID_1_);}
	.st1{fill:#FFFFFF;}
</style>
<linearGradient id="SVGID_1_" gradientUnits="userSpaceOnUse" x1="1.841" y1="9.0792" x2="62.805" y2="55.6504">
	<stop  offset="0" style="stop-color:#87F26D"/>
	<stop  offset="1" style="stop-color:#14C67E"/>
</linearGradient>
<path class="st0" d="M46.6,65H18.4C8.2,65,0,56.8,0,46.6V18.4C0,8.2,8.2,0,18.4,0h28.3C56.8,0,65,8.2,65,18.4v28.3
	C65,56.8,56.8,65,46.6,65z"/>
<g>
	<g>
		<path class="st1" d="M29.8,28.5c0,0.8-0.5,1.3-1.3,1.4c-0.4,0-1-0.2-1.3,0.1c-0.2,0.2-0.1,0.8-0.1,1.3c0,0.8-0.5,1.3-1.3,1.4
			c-0.8,0-1.3-0.5-1.4-1.3c0-0.2,0-0.3,0-0.5c0-0.8,0-0.8-0.8-0.8c-0.2,0-0.3,0-0.5,0c-0.8,0-1.3-0.5-1.4-1.3c0-0.8,0.5-1.3,1.3-1.4
			c0.4,0,1,0.2,1.3-0.1c0.2-0.2,0.1-0.8,0.1-1.3c0-0.8,0.5-1.4,1.3-1.4c0.8,0,1.3,0.5,1.4,1.3c0,0.4-0.2,1,0.1,1.3
			c0.2,0.2,0.8,0.1,1.3,0.1C29.3,27.1,29.8,27.7,29.8,28.5z"/>
		<path class="st1" d="M37.9,28.5c0,0.8-0.6,1.3-1.4,1.3c-0.8,0-1.3-0.6-1.3-1.4c0-0.8,0.6-1.3,1.4-1.3
			C37.4,27.1,37.9,27.7,37.9,28.5z"/>
		<path class="st1" d="M40.6,25.8c0,0.8-0.5,1.4-1.3,1.4c-0.8,0-1.3-0.5-1.4-1.3c0-0.8,0.5-1.3,1.3-1.4C40,24.4,40.6,25,40.6,25.8z"
			/>
		<path class="st1" d="M40.6,31.1c0,0.8-0.5,1.4-1.3,1.4c-0.8,0-1.4-0.5-1.4-1.3c0-0.8,0.5-1.4,1.3-1.4C40,29.8,40.6,30.3,40.6,31.1
			z"/>
		<path class="st1" d="M43.3,28.5c0,0.8-0.5,1.3-1.4,1.3c-0.8,0-1.3-0.5-1.3-1.4c0-0.8,0.5-1.3,1.4-1.3
			C42.7,27.1,43.3,27.7,43.3,28.5z"/>
		<path class="st1" d="M51.3,39.1c-0.4-3.2-0.9-6.4-1.3-9.5c-0.8-6-6-10.5-12-10.5c-1.8,0-3.6,0-5.5,0c-1.8,0-3.5,0-5.3,0
			c-0.9,0-1.8,0.1-2.7,0.3c-4.8,0.9-8.7,4.9-9.6,9.7c-0.6,3.3-1.1,6.7-1.4,10c-0.1,1.2,0.1,2.4,0.7,3.5c1.2,2.3,3.2,3.4,5.7,3.4
			c2.5,0,4.3-1.1,5.5-3.3c0.8-1.4,1.5-2.9,2.2-4.4c0.1-0.2,0.2-0.3,0.5-0.3c2.8,0,5.7,0,8.5,0c0.3,0,0.4,0.1,0.5,0.3
			c0.7,1.4,1.4,2.8,2.1,4.2c1.5,3,4.7,4.3,7.9,3.2C50.1,44.5,51.6,41.9,51.3,39.1z M45.8,43.2c-0.3,0.1-0.6,0.1-0.8,0.1
			c-1.4,0-2.4-0.6-3.1-1.9c-0.9-1.7-1.8-3.5-2.6-5.3c-0.3-0.6-0.8-0.9-1.5-0.9c-3.5,0-7,0-10.4,0c-0.7,0-1.1,0.3-1.4,0.9
			c-0.9,1.8-1.7,3.5-2.6,5.3c-0.7,1.5-2,2.1-3.6,1.9c-1.5-0.2-2.8-1.3-3.2-2.7c-0.2-0.8,0-1.6,0.1-2.4c0.4-2.8,0.8-5.6,1.1-8.4
			c0.5-4.1,4.1-7.6,8.2-8c0.5-0.1,1-0.1,1.5-0.1c3.5,0,6.9,0,10.4,0c4.8,0,8.6,3.2,9.4,7.9c0.6,3.2,1,6.5,1.5,9.7
			C48.9,41.1,47.6,42.8,45.8,43.2z"/>
		<path class="st1" d="M29.8,28.5c0,0.8-0.5,1.3-1.3,1.4c-0.4,0-1-0.2-1.3,0.1c-0.2,0.2-0.1,0.8-0.1,1.3c0,0.8-0.5,1.3-1.3,1.4
			c-0.8,0-1.3-0.5-1.4-1.3c0-0.2,0-0.3,0-0.5c0-0.8,0-0.8-0.8-0.8c-0.2,0-0.3,0-0.5,0c-0.8,0-1.3-0.5-1.4-1.3c0-0.8,0.5-1.3,1.3-1.4
			c0.4,0,1,0.2,1.3-0.1c0.2-0.2,0.1-0.8,0.1-1.3c0-0.8,0.5-1.4,1.3-1.4c0.8,0,1.3,0.5,1.4,1.3c0,0.4-0.2,1,0.1,1.3
			c0.2,0.2,0.8,0.1,1.3,0.1C29.3,27.1,29.8,27.7,29.8,28.5z"/>
		<path class="st1" d="M37.9,28.5c0,0.8-0.6,1.3-1.4,1.3c-0.8,0-1.3-0.6-1.3-1.4c0-0.8,0.6-1.3,1.4-1.3
			C37.4,27.1,37.9,27.7,37.9,28.5z"/>
		<path class="st1" d="M40.6,25.8c0,0.8-0.5,1.4-1.3,1.4c-0.8,0-1.3-0.5-1.4-1.3c0-0.8,0.5-1.3,1.3-1.4C40,24.4,40.6,25,40.6,25.8z"
			/>
		<path class="st1" d="M40.6,31.1c0,0.8-0.5,1.4-1.3,1.4c-0.8,0-1.4-0.5-1.4-1.3c0-0.8,0.5-1.4,1.3-1.4C40,29.8,40.6,30.3,40.6,31.1
			z"/>
		<path class="st1" d="M43.3,28.5c0,0.8-0.5,1.3-1.4,1.3c-0.8,0-1.3-0.5-1.3-1.4c0-0.8,0.5-1.3,1.4-1.3
			C42.7,27.1,43.3,27.7,43.3,28.5z"/>
		<path class="st1" d="M29.8,28.5c0,0.8-0.5,1.3-1.3,1.4c-0.4,0-1-0.2-1.3,0.1c-0.2,0.2-0.1,0.8-0.1,1.3c0,0.8-0.5,1.3-1.3,1.4
			c-0.8,0-1.3-0.5-1.4-1.3c0-0.2,0-0.3,0-0.5c0-0.8,0-0.8-0.8-0.8c-0.2,0-0.3,0-0.5,0c-0.8,0-1.3-0.5-1.4-1.3c0-0.8,0.5-1.3,1.3-1.4
			c0.4,0,1,0.2,1.3-0.1c0.2-0.2,0.1-0.8,0.1-1.3c0-0.8,0.5-1.4,1.3-1.4c0.8,0,1.3,0.5,1.4,1.3c0,0.4-0.2,1,0.1,1.3
			c0.2,0.2,0.8,0.1,1.3,0.1C29.3,27.1,29.8,27.7,29.8,28.5z"/>
		<path class="st1" d="M40.6,25.8c0,0.8-0.5,1.4-1.3,1.4c-0.8,0-1.3-0.5-1.4-1.3c0-0.8,0.5-1.3,1.3-1.4C40,24.4,40.6,25,40.6,25.8z"
			/>
		<path class="st1" d="M37.9,28.5c0,0.8-0.6,1.3-1.4,1.3c-0.8,0-1.3-0.6-1.3-1.4c0-0.8,0.6-1.3,1.4-1.3
			C37.4,27.1,37.9,27.7,37.9,28.5z"/>
		<path class="st1" d="M43.3,28.5c0,0.8-0.5,1.3-1.4,1.3c-0.8,0-1.3-0.5-1.3-1.4c0-0.8,0.5-1.3,1.4-1.3
			C42.7,27.1,43.3,27.7,43.3,28.5z"/>
		<path class="st1" d="M40.6,31.1c0,0.8-0.5,1.4-1.3,1.4c-0.8,0-1.4-0.5-1.4-1.3c0-0.8,0.5-1.4,1.3-1.4C40,29.8,40.6,30.3,40.6,31.1
			z"/>
	</g>
</g>
</svg>
