<?xml version="1.0" encoding="utf-8"?>
<!-- Generator: Adobe Illustrator 26.0.1, SVG Export Plug-In . SVG Version: 6.00 Build 0)  -->
<svg version="1.1" id="Layer_1" xmlns="http://www.w3.org/2000/svg" xmlns:xlink="http://www.w3.org/1999/xlink" x="0px" y="0px"
	 viewBox="0 0 65 65" style="enable-background:new 0 0 65 65;" xml:space="preserve">
<style type="text/css">
	.st0{fill:url(#SVGID_1_);}
	.st1{fill:#FFFFFF;}
</style>
<linearGradient id="SVGID_1_" gradientUnits="userSpaceOnUse" x1="1.8447" y1="652.4445" x2="62.8087" y2="699.0157" gradientTransform="matrix(1 0 0 1 0 -643.3702)">
	<stop  offset="0" style="stop-color:#ADED70"/>
	<stop  offset="1" style="stop-color:#69BC1B"/>
</linearGradient>
<path class="st0" d="M46.6,65H18.4C8.2,65,0,56.8,0,46.6V18.4C0,8.2,8.2,0,18.4,0h28.3C56.8,0,65,8.2,65,18.4v28.3
	C65,56.8,56.8,65,46.6,65z"/>
<path class="st1" d="M26.9,46.9h-4.2V31.1c0-0.8-0.6-1.4-1.4-1.4h-0.7c-3.5,0-6.3,2.9-6.3,6.5v7.2c0,3.6,2.8,6.5,6.3,6.5h6.3
	c0.8,0,1.4-0.6,1.4-1.4S27.7,46.9,26.9,46.9z M17.1,38.3h2.8v2.9h-2.8V38.3z M19.9,32.6v2.8h-2.7C17.4,34,18.5,32.9,19.9,32.6z
	 M17.1,44h2.7v2.8C18.5,46.6,17.4,45.4,17.1,44z M40.9,15.2h-8.4c-3.9,0-7,3.2-7,7.2v5.8c0,3.3,2.2,6.2,5.3,7c0.1,0,0.2,0,0.4,0
	c0.6,0,1.2-0.4,1.4-1.1c0.2-0.8-0.3-1.6-1-1.8c-0.2,0-0.3-0.1-0.5-0.2l6.2-5.5l0.7,0.7c1.1,1.1,2.9,1.1,4,0l3.4-3.5V28
	c0,0.8,0.6,1.4,1.4,1.4c0.8,0,1.4-0.6,1.4-1.4v-5.8C47.9,18.4,44.8,15.2,40.9,15.2z M39.8,25.4l-0.7-0.7c-1-1.1-2.7-1.1-3.8-0.2
	l-6.5,5.7c-0.3-0.6-0.5-1.3-0.5-2.1v-5.8c0-2.4,1.9-4.3,4.2-4.3h8.4c1.6,0,3,0.9,3.7,2.3L39.8,25.4L39.8,25.4z M33.9,21.7
	c0,1.2-0.9,2.2-2.1,2.2c-1.2,0-2.1-1-2.1-2.2s0.9-2.2,2.1-2.2C33,19.5,33.9,20.5,33.9,21.7z M47.9,36.8v9.4c0,2-1.6,3.6-3.5,3.6
	s-3.5-1.6-3.5-3.6s1.6-3.6,3.5-3.6c0.2,0,0.5,0,0.7,0.1v-5.8c0-0.8-0.6-1.4-1.4-1.4h-4.2c-0.8,0-1.4,0.6-1.4,1.4v9.4
	c0,2-1.6,3.6-3.5,3.6s-3.5-1.6-3.5-3.6s1.6-3.6,3.5-3.6c0.2,0,0.5,0,0.7,0.1V37c0-2.4,1.9-4.3,4.2-4.3h4.2
	C46.1,32.5,47.9,34.4,47.9,36.8L47.9,36.8z"/>
</svg>
