<?xml version="1.0" encoding="utf-8"?>
<!-- Generator: Adobe Illustrator 26.0.1, SVG Export Plug-In . SVG Version: 6.00 Build 0)  -->
<svg version="1.1" id="Layer_1" xmlns="http://www.w3.org/2000/svg" xmlns:xlink="http://www.w3.org/1999/xlink" x="0px" y="0px"
	 viewBox="0 0 65 65" style="enable-background:new 0 0 65 65;" xml:space="preserve">
<style type="text/css">
	.st0{fill:url(#SVGID_1_);}
	.st1{fill:#FFFFFF;}
</style>
<linearGradient id="SVGID_1_" gradientUnits="userSpaceOnUse" x1="1.8445" y1="-5547.7832" x2="62.8085" y2="-5594.3545" gradientTransform="matrix(1 0 0 -1 0 -5538.7095)">
	<stop  offset="0.1904" style="stop-color:#59D86E"/>
	<stop  offset="1" style="stop-color:#19994C"/>
</linearGradient>
<path class="st0" d="M46.6,65H18.4C8.2,65,0,56.8,0,46.6V18.4C0,8.2,8.2,0,18.4,0h28.3C56.8,0,65,8.2,65,18.4v28.3
	C65,56.8,56.8,65,46.6,65z"/>
<path class="st1" d="M49.7,25.7c-0.9-0.9-2.3-0.9-3.2,0l-2.1,2.1l-7.3-7.3l2.1-2.1c0.9-0.9,0.9-2.3,0-3.2c-0.9-0.9-2.3-0.9-3.2,0
	l-3.4,3.4l-8,3.2c-2.4,1-4.2,3-5,5.5l-5,17.1c-0.5,1.6,0,3.4,1.2,4.6c0.9,0.9,2.1,1.4,3.3,1.4c0.4,0,0.9-0.1,1.3-0.2l17.1-5
	c2.5-0.7,4.5-2.5,5.5-5l3.2-8l3.4-3.4C50.6,28,50.6,26.6,49.7,25.7L49.7,25.7z M39,38.6c-0.5,1.1-1.4,2-2.6,2.3l-13,3.8l6.3-6.3
	c0.2,0,0.3,0.1,0.5,0.1c2.1,0,3.7-1.7,3.7-3.7c0-2.1-1.7-3.7-3.7-3.7s-3.7,1.7-3.7,3.7c0,0.2,0,0.3,0.1,0.5l-6.3,6.3l3.8-13
	c0.3-1.2,1.2-2.1,2.3-2.6l7-2.8l8.4,8.4L39,38.6L39,38.6z"/>
</svg>
