<?xml version="1.0" encoding="utf-8"?>
<!-- Generator: Adobe Illustrator 26.0.1, SVG Export Plug-In . SVG Version: 6.00 Build 0)  -->
<svg version="1.1" id="Layer_1" xmlns="http://www.w3.org/2000/svg" xmlns:xlink="http://www.w3.org/1999/xlink" x="0px" y="0px"
	 viewBox="0 0 65 65" style="enable-background:new 0 0 65 65;" xml:space="preserve">
<style type="text/css">
	.st0{fill:url(#SVGID_1_);}
	.st1{fill:#FFFFFF;}
</style>
<linearGradient id="SVGID_1_" gradientUnits="userSpaceOnUse" x1="1.841" y1="9.0792" x2="62.805" y2="55.6504">
	<stop  offset="0" style="stop-color:#C44FE0"/>
	<stop  offset="1" style="stop-color:#5A1399"/>
</linearGradient>
<path class="st0" d="M46.6,65H18.4C8.2,65,0,56.8,0,46.6V18.4C0,8.2,8.2,0,18.4,0h28.3C56.8,0,65,8.2,65,18.4v28.3
	C65,56.8,56.8,65,46.6,65z"/>
<g>
	<g>
		<g>
			<path class="st1" d="M48.1,46.9c0-0.1,0-0.3,0-0.4c0-3.7,0-7.3,0-11c0-0.7-0.2-1-0.9-1.3c-1-0.4-2-0.8-3-1.2
				c-0.3-0.1-0.4-0.3-0.4-0.6c0-4.7,0-9.3,0-14c0-0.9-0.4-1.3-1.3-1.3c-4.6,0-9,0-13.6,0c-0.8,0-1.3,0.5-1.3,1.3c0,1.2,0,2.3,0,3.5
				c0,0.1,0,0.2,0,0.4c-0.6-0.3-1.1-0.6-1.7-0.8c-0.4-0.2-0.8-0.2-1.2,0c-1.8,0.9-3.4,1.7-5.2,2.6c-0.5,0.3-0.7,0.7-0.7,1.3
				c0,1.9,0,3.8,0,5.7c0,1.1,0,2.2,0,3.3c0,0.1-0.1,0.3-0.1,0.3c-1.1,0.4-1.9,1.8-1.8,3.1c0.1,0.6,0,1.2-0.3,1.7
				C16,40.7,16,42,16.4,43.2c0.4,1.1,1.1,1.9,2.4,2.2c0,0.5,0,1,0,1.5c-0.7,0-1.3,0-2.1,0c-0.4,0-0.6,0.2-0.6,0.5s0.2,0.5,0.6,0.5
				c1,0,2.2,0,3.2,0c2.7,0,5.5,0,8.2,0c2.4,0,4.8,0,7.2,0c4.4,0,8.7,0,13.1,0c0.3,0,0.5-0.1,0.7-0.3c0-0.1,0-0.2,0-0.3
				C48.9,46.8,48.4,46.9,48.1,46.9z M19.7,39.6c0-0.4-0.2-0.6-0.5-0.6s-0.5,0.2-0.5,0.6c0,1.4,0,2.8,0,4.3c0,0.1,0,0.3,0,0.5
				c-0.3-0.2-0.5-0.3-0.7-0.5c-0.7-0.8-1-1.7-0.9-2.7c0-0.5,0.2-1,0.4-1.4c0.3-0.7,0.4-1.3,0.3-2.1c-0.1-0.6,0-1.2,0.4-1.7
				c0.5-0.7,1.3-0.7,2,0c0.4,0.5,0.5,1.1,0.4,1.7c-0.1,0.7,0,1.4,0.4,2.1c0.6,1.3,0.6,2.6-0.2,3.8c-0.2,0.3-0.5,0.6-1,0.7
				c0-0.5,0-1,0-1.5C19.7,41.7,19.7,40.6,19.7,39.6z M28.6,39.7c0-0.1,0-0.2,0-0.3c0-0.3-0.2-0.5-0.5-0.5s-0.5,0.2-0.5,0.5
				c0,0.1,0,0.2,0,0.3c0,1.4,0,2.8,0,4.2c0,0.1,0,0.2,0,0.4c-0.3-0.2-0.5-0.3-0.7-0.5c-0.7-0.8-1-1.7-0.9-2.7c0-0.5,0.2-1,0.4-1.4
				c0.3-0.7,0.4-1.3,0.3-2.1c-0.1-0.6,0.1-1.2,0.4-1.7c0.5-0.7,1.3-0.7,1.9,0c0.4,0.5,0.5,1.1,0.4,1.6c-0.1,0.8,0,1.5,0.4,2.2
				c0.7,1.3,0.4,3.1-0.5,4c-0.2,0.2-0.4,0.3-0.6,0.5c0,0-0.1,0-0.1-0.1C28.6,42.7,28.6,41.2,28.6,39.7z M34.1,35.5
				c0,3.6,0,7.3,0,10.9c0,0.1,0,0.3,0,0.4c-1.9,0-3.6,0-5.5,0c0-0.5,0-1,0-1.5c2.1-0.6,2.9-2.8,2.7-4.4c-0.1-0.6-0.3-1.2-0.5-1.7
				s-0.3-0.9-0.2-1.4c0.1-1-0.1-2-0.9-2.7c-0.8-0.8-2.1-0.8-2.9,0c-0.7,0.7-1,1.6-0.9,2.6c0.1,0.6-0.1,1.1-0.3,1.7
				c-0.7,1.6-0.7,3.2,0.4,4.7c0.4,0.6,1,1,1.9,1.2c0,0.5,0,1,0,1.5c-2.6,0-5.2,0-7.8,0c0-0.5,0-1,0-1.5c2.1-0.6,2.9-2.8,2.6-4.5
				c-0.1-0.6-0.3-1.1-0.5-1.7c-0.2-0.5-0.3-0.9-0.2-1.4c0.1-1.1-0.2-2.1-1-2.8c-0.2-0.1-0.3-0.3-0.5-0.4C20,34.4,20,34.3,20,34
				c0-2.9,0-5.9,0-8.8c0-0.3,0.1-0.4,0.3-0.5c1.7-0.8,3.3-1.7,5-2.5c0.1-0.1,0.3-0.1,0.5,0c0.6,0.3,1.1,0.6,1.8,0.9
				c0.2,0.1,0.3,0.2,0.3,0.4c0,3,0,6,0,9.1c0,0.1,0,0.2,0,0.3c0,0.3,0.2,0.4,0.5,0.4s0.5-0.2,0.5-0.4c0-0.1,0-0.2,0-0.3
				c0-4.7,0-9.4,0-14.1c0-0.5,0-0.5,0.5-0.5c4.4,0,8.7,0,13.2,0c0.5,0,0.5,0,0.5,0.4c0,4.5,0,9,0,13.5c0,0.1,0,0.2,0,0.3
				c-0.3-0.1-0.7-0.3-1-0.4c-0.4-0.2-0.8-0.2-1.2,0c-1.8,0.7-3.6,1.5-5.5,2.2C34.4,34.5,34.1,34.8,34.1,35.5z M47,46.7
				c0,0.1,0,0.1,0,0.2c-3.9,0-7.9,0-11.8,0c0-0.1,0-0.2,0-0.3c0-3.6,0-7.3,0-10.9c0-0.3,0.1-0.4,0.3-0.5c1.8-0.7,3.5-1.4,5.3-2.1
				c0.1-0.1,0.3-0.1,0.5,0c1.8,0.7,3.6,1.4,5.4,2.1c0.2,0.1,0.3,0.2,0.3,0.4C47,39.2,47,43,47,46.7z"/>
			<path class="st1" d="M37.4,24.8c0.7,0,1.3,0,2.1,0c0.7,0,1.2-0.5,1.2-1.2c0-0.4,0-0.8,0-1.2l0,0c0-0.4,0-0.8,0-1.2
				c0-0.7-0.5-1.1-1.1-1.2c-0.7,0-1.5,0-2.2,0c-0.6,0-1.1,0.5-1.1,1.1c0,0.8,0,1.6,0,2.5C36.1,24.4,36.7,24.8,37.4,24.8z M37.5,21.1
				c0.6,0,1.2,0,1.9,0c0.2,0,0.3,0.1,0.3,0.3c0,0.3,0,0.7,0,1c0,0.4,0,0.7,0,1.1c0,0.2-0.1,0.3-0.3,0.3c-0.6,0-1.2,0-1.9,0
				c-0.2,0-0.3-0.1-0.3-0.3c0-0.7,0-1.4,0-2.1C37.2,21.2,37.3,21.1,37.5,21.1z"/>
			<path class="st1" d="M34,25.7c-0.7,0-1.5,0-2.2,0s-1.2,0.5-1.2,1.2c0,0.4,0,0.8,0,1.2c0,0.4,0,0.8,0,1.2c0,0.7,0.5,1.2,1.1,1.2
				c0.7,0,1.5,0,2.2,0S35,30,35,29.4c0-0.8,0-1.6,0-2.4C35.1,26.2,34.6,25.7,34,25.7z M33.9,29.4c-0.6,0-1.2,0-2,0
				c-0.2,0-0.3-0.1-0.3-0.3c0-0.3,0-0.7,0-1c0-0.4,0-0.7,0-1.1c0-0.2,0.1-0.3,0.3-0.3c0.6,0,1.2,0,2,0c0.2,0,0.3,0.1,0.3,0.3
				c0,0.7,0,1.5,0,2.2C34.2,29.3,34.1,29.4,33.9,29.4z"/>
			<path class="st1" d="M31.9,24.8c0.7,0,1.3,0,2.1,0c0.7,0,1.2-0.5,1.2-1.2c0-0.4,0-0.7,0-1.1s0-0.7,0-1.1c0-0.8-0.5-1.3-1.2-1.3
				c-0.5,0-1,0-1.6,0c-0.4,0-0.6,0.2-0.6,0.5s0.2,0.5,0.6,0.5c0.5,0,0.9,0,1.5,0c0.2,0,0.3,0.1,0.3,0.3c0,0.7,0,1.4,0,2.1
				c0,0.2-0.1,0.3-0.3,0.3c-0.6,0-1.2,0-1.9,0c-0.2,0-0.3-0.1-0.3-0.3c0-0.5,0-1,0-1.5c0-0.4-0.2-0.6-0.5-0.6s-0.5,0.2-0.5,0.6
				c0,0.5,0,1.1,0,1.6C30.5,24.3,31.1,24.8,31.9,24.8z"/>
			<path class="st1" d="M23.2,28.9c0.5,0,0.9,0,1.5,0s1-0.4,1.1-1c0-0.3,0-0.6,0-0.9l0,0c0-0.3,0-0.6,0-0.9c-0.1-0.6-0.5-1-1.1-1
				c-0.5,0-0.9,0-1.5,0s-1.1,0.5-1.1,1.1c0,0.5,0,1.1,0,1.6C22,28.4,22.5,28.9,23.2,28.9z M23.1,27c0-0.9,0-0.9,0.9-0.9
				c0.8,0,0.7-0.1,0.7,0.7c0,0.3,0,0.6,0,0.9c0,0.2-0.1,0.3-0.3,0.3c-0.4,0-0.7,0-1.1,0c-0.2,0-0.3-0.1-0.3-0.3
				C23.1,27.4,23.1,27.2,23.1,27z"/>
			<path class="st1" d="M24.6,30.3c-0.5,0-0.9,0-1.5,0S22,30.8,22,31.4c0,0.3,0,0.5,0,0.8c0,0.3,0,0.5,0,0.8c0,0.6,0.5,1.1,1.1,1.1
				c0.4,0,0.9,0,1.3,0c0.6,0,1.1-0.4,1.1-1s0-1.2,0-1.8C25.7,30.8,25.2,30.4,24.6,30.3z M24.7,32.9c0,0.2-0.1,0.3-0.3,0.3
				c-0.4,0-0.7,0-1.1,0c-0.2,0-0.3-0.1-0.3-0.3c0-0.4,0-0.9,0-1.3c0-0.2,0.1-0.3,0.3-0.3c0.4,0,0.7,0,1.1,0c0.2,0,0.3,0.1,0.3,0.3
				c0,0.2,0,0.5,0,0.7C24.7,32.5,24.7,32.7,24.7,32.9z"/>
			<path class="st1" d="M44.1,36c-0.4,0-0.8,0-1.2,0c-0.7,0-1.2,0.5-1.2,1.2c0,0.2,0,0.5,0,0.7c0,0.3,0,0.5,0,0.8
				c0,0.7,0.5,1.1,1.1,1.2c0.4,0,0.9,0,1.3,0c0.6,0,1.1-0.5,1.1-1.1c0-0.5,0-1.1,0-1.6C45.3,36.5,44.7,36.1,44.1,36z M43.9,38.9
				c-0.3,0-0.6,0-0.9,0c-0.2,0-0.3-0.1-0.3-0.3c0-0.4,0-0.8,0-1.2c0-0.2,0.1-0.3,0.3-0.3c0.3,0,0.7,0,1,0c0.2,0,0.3,0.1,0.3,0.3
				s0,0.4,0,0.7c0,0.2,0,0.3,0,0.5C44.3,38.8,44.2,38.9,43.9,38.9z"/>
			<path class="st1" d="M44.1,41.4c-0.4,0-0.9,0-1.3,0c-0.7,0-1.1,0.5-1.1,1.2c0,0.5,0,1,0,1.5c0,0.7,0.5,1.1,1.2,1.2
				c0.4,0,0.9,0,1.3,0c0.6,0,1-0.4,1.1-1c0-0.3,0-0.6,0-0.9l0,0c0-0.3,0-0.5,0-0.8C45.3,41.8,44.8,41.4,44.1,41.4z M44.3,43.3
				c0,0.2,0,0.4,0,0.7c0,0.2-0.1,0.3-0.2,0.3c-0.4,0-0.7,0-1.1,0c-0.1,0-0.2-0.1-0.2-0.2c0-0.4,0-0.9,0-1.3c0-0.2,0.1-0.3,0.2-0.3
				c0.4,0,0.8,0,1.1,0c0.1,0,0.2,0.1,0.2,0.2C44.3,42.8,44.3,43.1,44.3,43.3L44.3,43.3z"/>
			<path class="st1" d="M39.3,41.4c-0.5,0-0.9,0-1.5,0s-1.1,0.5-1.1,1.1c0,0.5,0,1,0,1.6c0,0.7,0.5,1.1,1.2,1.1c0.4,0,0.9,0,1.3,0
				c0.6,0,1-0.4,1.1-1c0-0.3,0-0.6,0-0.9l0,0c0-0.3,0-0.5,0-0.8C40.5,41.8,40.1,41.4,39.3,41.4z M39.2,44.2c-0.4,0-0.7,0-1.1,0
				c-0.2,0-0.3-0.1-0.3-0.3c0-0.4,0-0.9,0-1.3c0-0.2,0.1-0.2,0.3-0.2c0.4,0,0.7,0,1.1,0c0.2,0,0.3,0.1,0.3,0.3s0,0.4,0,0.6
				c0,0.2,0,0.4,0,0.6C39.6,44.1,39.5,44.2,39.2,44.2z"/>
		</g>
		<g>
			<path class="st1" d="M48.1,46.9c0-0.1,0-0.3,0-0.4c0-3.7,0-7.3,0-11c0-0.7-0.2-1-0.9-1.3c-1-0.4-2-0.8-3-1.2
				c-0.3-0.1-0.4-0.3-0.4-0.6c0-4.7,0-9.3,0-14c0-0.9-0.4-1.3-1.3-1.3c-4.6,0-9,0-13.6,0c-0.8,0-1.3,0.5-1.3,1.3c0,1.2,0,2.3,0,3.5
				c0,0.1,0,0.2,0,0.4c-0.6-0.3-1.1-0.6-1.7-0.8c-0.4-0.2-0.8-0.2-1.2,0c-1.8,0.9-3.4,1.7-5.2,2.6c-0.5,0.3-0.7,0.7-0.7,1.3
				c0,1.9,0,3.8,0,5.7c0,1.1,0,2.2,0,3.3c0,0.1-0.1,0.3-0.1,0.3c-1.1,0.4-1.9,1.8-1.8,3.1c0.1,0.6,0,1.2-0.3,1.7
				C16,40.7,16,42,16.4,43.2c0.4,1.1,1.1,1.9,2.4,2.2c0,0.5,0,1,0,1.5c-0.7,0-1.3,0-2.1,0c-0.4,0-0.6,0.2-0.6,0.5s0.2,0.5,0.6,0.5
				c1,0,2.2,0,3.2,0c2.7,0,5.5,0,8.2,0c2.4,0,4.8,0,7.2,0c4.4,0,8.7,0,13.1,0c0.3,0,0.5-0.1,0.7-0.3c0-0.1,0-0.2,0-0.3
				C48.9,46.8,48.4,46.9,48.1,46.9z M19.7,39.6c0-0.4-0.2-0.6-0.5-0.6s-0.5,0.2-0.5,0.6c0,1.4,0,2.8,0,4.3c0,0.1,0,0.3,0,0.5
				c-0.3-0.2-0.5-0.3-0.7-0.5c-0.7-0.8-1-1.7-0.9-2.7c0-0.5,0.2-1,0.4-1.4c0.3-0.7,0.4-1.3,0.3-2.1c-0.1-0.6,0-1.2,0.4-1.7
				c0.5-0.7,1.3-0.7,2,0c0.4,0.5,0.5,1.1,0.4,1.7c-0.1,0.7,0,1.4,0.4,2.1c0.6,1.3,0.6,2.6-0.2,3.8c-0.2,0.3-0.5,0.6-1,0.7
				c0-0.5,0-1,0-1.5C19.7,41.7,19.7,40.6,19.7,39.6z M28.6,39.7c0-0.1,0-0.2,0-0.3c0-0.3-0.2-0.5-0.5-0.5s-0.5,0.2-0.5,0.5
				c0,0.1,0,0.2,0,0.3c0,1.4,0,2.8,0,4.2c0,0.1,0,0.2,0,0.4c-0.3-0.2-0.5-0.3-0.7-0.5c-0.7-0.8-1-1.7-0.9-2.7c0-0.5,0.2-1,0.4-1.4
				c0.3-0.7,0.4-1.3,0.3-2.1c-0.1-0.6,0.1-1.2,0.4-1.7c0.5-0.7,1.3-0.7,1.9,0c0.4,0.5,0.5,1.1,0.4,1.6c-0.1,0.8,0,1.5,0.4,2.2
				c0.7,1.3,0.4,3.1-0.5,4c-0.2,0.2-0.4,0.3-0.6,0.5c0,0-0.1,0-0.1-0.1C28.6,42.7,28.6,41.2,28.6,39.7z M34.1,35.5
				c0,3.6,0,7.3,0,10.9c0,0.1,0,0.3,0,0.4c-1.9,0-3.6,0-5.5,0c0-0.5,0-1,0-1.5c2.1-0.6,2.9-2.8,2.7-4.4c-0.1-0.6-0.3-1.2-0.5-1.7
				s-0.3-0.9-0.2-1.4c0.1-1-0.1-2-0.9-2.7c-0.8-0.8-2.1-0.8-2.9,0c-0.7,0.7-1,1.6-0.9,2.6c0.1,0.6-0.1,1.1-0.3,1.7
				c-0.7,1.6-0.7,3.2,0.4,4.7c0.4,0.6,1,1,1.9,1.2c0,0.5,0,1,0,1.5c-2.6,0-5.2,0-7.8,0c0-0.5,0-1,0-1.5c2.1-0.6,2.9-2.8,2.6-4.5
				c-0.1-0.6-0.3-1.1-0.5-1.7c-0.2-0.5-0.3-0.9-0.2-1.4c0.1-1.1-0.2-2.1-1-2.8c-0.2-0.1-0.3-0.3-0.5-0.4C20,34.4,20,34.3,20,34
				c0-2.9,0-5.9,0-8.8c0-0.3,0.1-0.4,0.3-0.5c1.7-0.8,3.3-1.7,5-2.5c0.1-0.1,0.3-0.1,0.5,0c0.6,0.3,1.1,0.6,1.8,0.9
				c0.2,0.1,0.3,0.2,0.3,0.4c0,3,0,6,0,9.1c0,0.1,0,0.2,0,0.3c0,0.3,0.2,0.4,0.5,0.4s0.5-0.2,0.5-0.4c0-0.1,0-0.2,0-0.3
				c0-4.7,0-9.4,0-14.1c0-0.5,0-0.5,0.5-0.5c4.4,0,8.7,0,13.2,0c0.5,0,0.5,0,0.5,0.4c0,4.5,0,9,0,13.5c0,0.1,0,0.2,0,0.3
				c-0.3-0.1-0.7-0.3-1-0.4c-0.4-0.2-0.8-0.2-1.2,0c-1.8,0.7-3.6,1.5-5.5,2.2C34.4,34.5,34.1,34.8,34.1,35.5z M47,46.7
				c0,0.1,0,0.1,0,0.2c-3.9,0-7.9,0-11.8,0c0-0.1,0-0.2,0-0.3c0-3.6,0-7.3,0-10.9c0-0.3,0.1-0.4,0.3-0.5c1.8-0.7,3.5-1.4,5.3-2.1
				c0.1-0.1,0.3-0.1,0.5,0c1.8,0.7,3.6,1.4,5.4,2.1c0.2,0.1,0.3,0.2,0.3,0.4C47,39.2,47,43,47,46.7z"/>
			<path class="st1" d="M37.4,24.8c0.7,0,1.3,0,2.1,0c0.7,0,1.2-0.5,1.2-1.2c0-0.4,0-0.8,0-1.2l0,0c0-0.4,0-0.8,0-1.2
				c0-0.7-0.5-1.1-1.1-1.2c-0.7,0-1.5,0-2.2,0c-0.6,0-1.1,0.5-1.1,1.1c0,0.8,0,1.6,0,2.5C36.1,24.4,36.7,24.8,37.4,24.8z M37.5,21.1
				c0.6,0,1.2,0,1.9,0c0.2,0,0.3,0.1,0.3,0.3c0,0.3,0,0.7,0,1c0,0.4,0,0.7,0,1.1c0,0.2-0.1,0.3-0.3,0.3c-0.6,0-1.2,0-1.9,0
				c-0.2,0-0.3-0.1-0.3-0.3c0-0.7,0-1.4,0-2.1C37.2,21.2,37.3,21.1,37.5,21.1z"/>
			<path class="st1" d="M37.4,30.5c0.7,0,1.3,0,2.1,0c0.7,0,1.2-0.5,1.2-1.2c0-0.4,0-0.8,0-1.2l0,0c0-0.4,0-0.8,0-1.2
				c0-0.7-0.5-1.1-1.1-1.2c-0.7,0-1.5,0-2.2,0c-0.6,0-1.1,0.5-1.1,1.1c0,0.8,0,1.6,0,2.5C36.1,30.1,36.7,30.5,37.4,30.5z M37.5,26.8
				c0.6,0,1.2,0,1.9,0c0.2,0,0.3,0.1,0.3,0.3c0,0.3,0,0.7,0,1c0,0.4,0,0.7,0,1.1c0,0.2-0.1,0.3-0.3,0.3c-0.6,0-1.2,0-1.9,0
				c-0.2,0-0.3-0.1-0.3-0.3c0-0.7,0-1.4,0-2.1C37.2,26.9,37.3,26.8,37.5,26.8z"/>
			<path class="st1" d="M34,25.7c-0.7,0-1.5,0-2.2,0s-1.2,0.5-1.2,1.2c0,0.4,0,0.8,0,1.2c0,0.4,0,0.8,0,1.2c0,0.7,0.5,1.2,1.1,1.2
				c0.7,0,1.5,0,2.2,0S35,30,35,29.4c0-0.8,0-1.6,0-2.4C35.1,26.2,34.6,25.7,34,25.7z M33.9,29.4c-0.6,0-1.2,0-2,0
				c-0.2,0-0.3-0.1-0.3-0.3c0-0.3,0-0.7,0-1c0-0.4,0-0.7,0-1.1c0-0.2,0.1-0.3,0.3-0.3c0.6,0,1.2,0,2,0c0.2,0,0.3,0.1,0.3,0.3
				c0,0.7,0,1.5,0,2.2C34.2,29.3,34.1,29.4,33.9,29.4z"/>
			<path class="st1" d="M31.9,24.8c0.7,0,1.3,0,2.1,0c0.7,0,1.2-0.5,1.2-1.2c0-0.4,0-0.7,0-1.1s0-0.7,0-1.1c0-0.8-0.5-1.3-1.2-1.3
				c-0.5,0-1,0-1.6,0c-0.4,0-0.6,0.2-0.6,0.5s0.2,0.5,0.6,0.5c0.5,0,0.9,0,1.5,0c0.2,0,0.3,0.1,0.3,0.3c0,0.7,0,1.4,0,2.1
				c0,0.2-0.1,0.3-0.3,0.3c-0.6,0-1.2,0-1.9,0c-0.2,0-0.3-0.1-0.3-0.3c0-0.5,0-1,0-1.5c0-0.4-0.2-0.6-0.5-0.6s-0.5,0.2-0.5,0.6
				c0,0.5,0,1.1,0,1.6C30.5,24.3,31.1,24.8,31.9,24.8z"/>
			<path class="st1" d="M23.2,28.9c0.5,0,0.9,0,1.5,0s1-0.4,1.1-1c0-0.3,0-0.6,0-0.9l0,0c0-0.3,0-0.6,0-0.9c-0.1-0.6-0.5-1-1.1-1
				c-0.5,0-0.9,0-1.5,0s-1.1,0.5-1.1,1.1c0,0.5,0,1.1,0,1.6C22,28.4,22.5,28.9,23.2,28.9z M23.1,27c0-0.9,0-0.9,0.9-0.9
				c0.8,0,0.7-0.1,0.7,0.7c0,0.3,0,0.6,0,0.9c0,0.2-0.1,0.3-0.3,0.3c-0.4,0-0.7,0-1.1,0c-0.2,0-0.3-0.1-0.3-0.3
				C23.1,27.4,23.1,27.2,23.1,27z"/>
			<path class="st1" d="M24.6,30.3c-0.5,0-0.9,0-1.5,0S22,30.8,22,31.4c0,0.3,0,0.5,0,0.8c0,0.3,0,0.5,0,0.8c0,0.6,0.5,1.1,1.1,1.1
				c0.4,0,0.9,0,1.3,0c0.6,0,1.1-0.4,1.1-1s0-1.2,0-1.8C25.7,30.8,25.2,30.4,24.6,30.3z M24.7,32.9c0,0.2-0.1,0.3-0.3,0.3
				c-0.4,0-0.7,0-1.1,0c-0.2,0-0.3-0.1-0.3-0.3c0-0.4,0-0.9,0-1.3c0-0.2,0.1-0.3,0.3-0.3c0.4,0,0.7,0,1.1,0c0.2,0,0.3,0.1,0.3,0.3
				c0,0.2,0,0.5,0,0.7C24.7,32.5,24.7,32.7,24.7,32.9z"/>
			<path class="st1" d="M44.1,36c-0.4,0-0.8,0-1.2,0c-0.7,0-1.2,0.5-1.2,1.2c0,0.2,0,0.5,0,0.7c0,0.3,0,0.5,0,0.8
				c0,0.7,0.5,1.1,1.1,1.2c0.4,0,0.9,0,1.3,0c0.6,0,1.1-0.5,1.1-1.1c0-0.5,0-1.1,0-1.6C45.3,36.5,44.7,36.1,44.1,36z M43.9,38.9
				c-0.3,0-0.6,0-0.9,0c-0.2,0-0.3-0.1-0.3-0.3c0-0.4,0-0.8,0-1.2c0-0.2,0.1-0.3,0.3-0.3c0.3,0,0.7,0,1,0c0.2,0,0.3,0.1,0.3,0.3
				s0,0.4,0,0.7c0,0.2,0,0.3,0,0.5C44.3,38.8,44.2,38.9,43.9,38.9z"/>
			<path class="st1" d="M39.3,36c-0.4,0-0.8,0-1.2,0c-0.7,0-1.2,0.5-1.2,1.2c0,0.2,0,0.5,0,0.7c0,0.3,0,0.5,0,0.8
				c0,0.7,0.5,1.1,1.1,1.2c0.4,0,0.9,0,1.3,0c0.6,0,1.1-0.5,1.1-1.1c0-0.5,0-1.1,0-1.6C40.5,36.5,40,36.1,39.3,36z M39.1,38.9
				c-0.3,0-0.6,0-0.9,0c-0.2,0-0.3-0.1-0.3-0.3c0-0.4,0-0.8,0-1.2c0-0.2,0.1-0.3,0.3-0.3c0.3,0,0.7,0,1,0c0.2,0,0.3,0.1,0.3,0.3
				s0,0.4,0,0.7c0,0.2,0,0.3,0,0.5C39.6,38.8,39.5,38.9,39.1,38.9z"/>
			<path class="st1" d="M44.1,41.4c-0.4,0-0.9,0-1.3,0c-0.7,0-1.1,0.5-1.1,1.2c0,0.5,0,1,0,1.5c0,0.7,0.5,1.1,1.2,1.2
				c0.4,0,0.9,0,1.3,0c0.6,0,1-0.4,1.1-1c0-0.3,0-0.6,0-0.9l0,0c0-0.3,0-0.5,0-0.8C45.3,41.8,44.8,41.4,44.1,41.4z M44.3,43.3
				c0,0.2,0,0.4,0,0.7c0,0.2-0.1,0.3-0.2,0.3c-0.4,0-0.7,0-1.1,0c-0.1,0-0.2-0.1-0.2-0.2c0-0.4,0-0.9,0-1.3c0-0.2,0.1-0.3,0.2-0.3
				c0.4,0,0.8,0,1.1,0c0.1,0,0.2,0.1,0.2,0.2C44.3,42.8,44.3,43.1,44.3,43.3L44.3,43.3z"/>
			<path class="st1" d="M39.3,41.4c-0.5,0-0.9,0-1.5,0s-1.1,0.5-1.1,1.1c0,0.5,0,1,0,1.6c0,0.7,0.5,1.1,1.2,1.1c0.4,0,0.9,0,1.3,0
				c0.6,0,1-0.4,1.1-1c0-0.3,0-0.6,0-0.9l0,0c0-0.3,0-0.5,0-0.8C40.5,41.8,40.1,41.4,39.3,41.4z M39.2,44.2c-0.4,0-0.7,0-1.1,0
				c-0.2,0-0.3-0.1-0.3-0.3c0-0.4,0-0.9,0-1.3c0-0.2,0.1-0.2,0.3-0.2c0.4,0,0.7,0,1.1,0c0.2,0,0.3,0.1,0.3,0.3s0,0.4,0,0.6
				c0,0.2,0,0.4,0,0.6C39.6,44.1,39.5,44.2,39.2,44.2z"/>
		</g>
	</g>
</g>
</svg>
