<?xml version="1.0" encoding="utf-8"?>
<!-- Generator: Adobe Illustrator 26.0.1, SVG Export Plug-In . SVG Version: 6.00 Build 0)  -->
<svg version="1.1" id="Layer_1" xmlns="http://www.w3.org/2000/svg" xmlns:xlink="http://www.w3.org/1999/xlink" x="0px" y="0px"
	 viewBox="0 0 65 65" style="enable-background:new 0 0 65 65;" xml:space="preserve">
<style type="text/css">
	.st0{fill:url(#SVGID_1_);}
	.st1{fill:#FFFFFF;}
</style>
<linearGradient id="SVGID_1_" gradientUnits="userSpaceOnUse" x1="1.8447" y1="56.217" x2="62.8087" y2="9.6458" gradientTransform="matrix(1 0 0 -1 0 65.2912)">
	<stop  offset="0" style="stop-color:#FF6C89"/>
	<stop  offset="1" style="stop-color:#FF2424"/>
</linearGradient>
<path class="st0" d="M46.6,65H18.4C8.2,65,0,56.8,0,46.6V18.4C0,8.2,8.2,0,18.4,0h28.3C56.8,0,65,8.2,65,18.4v28.3
	C65,56.8,56.8,65,46.6,65z"/>
<path class="st1" d="M32.5,25.3c0,0.2,0,0.3,0.1,0.5c0.1-0.1,0.3-0.2,0.4-0.3c0.7-0.6,1.6-1,2.7-1.2v-2.2h1.6c1.8,0,3.2,1.4,3.2,3.2
	v0.1c0.1,0.1,0.1,0.1,0.2,0.2c0.8,0.5,1.7,1.1,2.6,1.6c0.1,0.1,0.3,0.1,0.4,0.2v-2.1c0-3.5-2.9-6.4-6.4-6.4h-1.6
	c-0.4-3.6-3.5-6.4-7.2-6.4s-6.8,2.8-7.2,6.4h-1.6c-3.5,0-6.4,2.9-6.4,6.4v9.6c0,4.4,3.6,8,8,8h0.3c0-1.1,0-2.1,0-3.2h-0.2
	c-2.6,0-4.8-2.2-4.8-4.8v-9.6c0-1.8,1.4-3.2,3.2-3.2h1.6v3.2c0,0.9,0.7,1.6,1.6,1.6c0.9,0,1.6-0.7,1.6-1.6v-3.2h8V25.3z M24.6,18.9
	c0.3-1.8,2-3.2,3.9-3.2s3.6,1.4,3.9,3.2H24.6z"/>
<path class="st1" d="M48.2,31.8v-3.5c0-0.9-0.7-1.7-1.7-1.7s-1.7,0.7-1.7,1.7v1.2l-4.4-2.9c-2.1-1.4-4.8-1.4-6.8,0l-7.2,4.9
	c-1.7,1.1-2.7,3-2.7,5.1v9.6c0,3.4,2.7,6.1,6.1,6.1h3.3c0.9,0,1.7-0.7,1.7-1.7v-8.9c0-0.3,0.3-0.6,0.6-0.6h3.3
	c0.3,0,0.6,0.2,0.6,0.6v8.9c0,0.9,0.7,1.7,1.7,1.7h3.3c3.4,0,6.1-2.7,6.1-6.1v-9.6C50.4,34.7,49.6,33,48.2,31.8L48.2,31.8z M47,46.2
	c0,1.5-1.2,2.8-2.8,2.8h-1.7v-7.2c0-2.1-1.7-3.9-3.9-3.9h-3.3c-2.1,0-3.9,1.7-3.9,3.9v7.2h-1.7c-1.5,0-2.8-1.2-2.8-2.8v-9.6
	c0-0.9,0.5-1.8,1.2-2.3l7.2-4.9c0.9-0.6,2.2-0.6,3.1,0l7.2,4.9c0.8,0.5,1.2,1.4,1.2,2.3L47,46.2L47,46.2z"/>
</svg>
