<?xml version="1.0" encoding="utf-8"?>
<!-- Generator: Adobe Illustrator 26.0.1, SVG Export Plug-In . SVG Version: 6.00 Build 0)  -->
<svg version="1.1" id="Layer_1" xmlns="http://www.w3.org/2000/svg" xmlns:xlink="http://www.w3.org/1999/xlink" x="0px" y="0px"
	 viewBox="0 0 65 65" style="enable-background:new 0 0 65 65;" xml:space="preserve">
<style type="text/css">
	.st0{fill:url(#SVGID_1_);}
	.st1{fill:#FFFFFF;}
</style>
<linearGradient id="SVGID_1_" gradientUnits="userSpaceOnUse" x1="1.8447" y1="56.217" x2="62.8087" y2="9.6458" gradientTransform="matrix(1 0 0 -1 0 65.2912)">
	<stop  offset="0" style="stop-color:#FF6C89"/>
	<stop  offset="1" style="stop-color:#FF2424"/>
</linearGradient>
<path class="st0" d="M46.6,65H18.4C8.2,65,0,56.8,0,46.6V18.4C0,8.2,8.2,0,18.4,0h28.3C56.8,0,65,8.2,65,18.4v28.3
	C65,56.8,56.8,65,46.6,65z"/>
<g>
	<path class="st1" d="M24.5,25.4v-3.2h8v2.7c0.8-0.1,1.6-0.2,2.4-0.2c0.3,0,0.5,0,0.8,0v-2.6h1.6c1.6,0,2.8,1,3.1,2.5
		c1.2,0.1,2.3,0.3,3.3,0.6c0-3.5-2.9-6.3-6.4-6.3h-1.6c-0.4-3.6-3.5-6.4-7.2-6.4s-6.8,2.8-7.2,6.4h-1.6c-3.5,0-6.4,2.9-6.4,6.4V35
		c0,4.3,3.4,7.8,7.7,8v-2.3c0-0.3,0-0.6,0.1-1c-2.5-0.1-4.5-2.3-4.5-4.8v-9.6c0-1.8,1.4-3.2,3.2-3.2h1.6v3.2c0,0.9,0.7,1.6,1.6,1.6
		C23.8,27,24.5,26.3,24.5,25.4z M28.5,15.8c1.9,0,3.6,1.4,3.9,3.2h-7.8C24.9,17.2,26.6,15.8,28.5,15.8z"/>
	<path class="st1" d="M51.7,34.7c0-1-0.8-1.8-1.8-1.8c0,0-0.7,0-0.8,0c-0.9-1.7-2-3.3-3.1-4.8c-0.6-0.8-1.5-1.4-2.4-1.7
		c-2.1-1-10.8-1-13,0c-1,0.3-1.8,0.9-2.4,1.7c-1.2,1.5-2.2,3.1-3.1,4.8c0,0-0.8,0-0.8,0c-1,0-1.8,0.8-1.8,1.8v7.9
		c0,1.7,0.9,3.3,2.4,4.2v1.9c0,2,1.6,3.7,3.7,3.7s3.7-1.6,3.7-3.7v-1.2h9.7v1.2c0,2,1.6,3.7,3.7,3.7s3.7-1.6,3.7-3.7v-1.9
		c1.5-0.9,2.4-2.5,2.4-4.2V34.7z M30.1,29.6c0.3-0.4,0.7-0.7,1.2-0.8c1.8-0.9,9.7-0.9,11.6,0c0.5,0.1,0.9,0.4,1.2,0.8
		c1.8,2.4,3.4,5.1,4.5,7.9c-7.6-1.1-15.4-1.1-23,0C26.7,34.7,28.2,32,30.1,29.6z M29.7,48.7c0,0.7-0.5,1.2-1.2,1.2s-1.2-0.5-1.2-1.2
		v-1.2h2.4V48.7z M46.8,48.7c0,0.7-0.5,1.2-1.2,1.2c-0.7,0-1.2-0.5-1.2-1.2v-1.2h2.4V48.7z M46.8,45.1H27.3c-1.3,0-2.4-1.1-2.4-2.4
		V40c4-0.6,8.1-1,12.2-1c4.1,0.1,8.1,0.4,12.2,1v2.6C49.2,44,48.1,45.1,46.8,45.1z M29.7,42.7c0,0.7-0.5,1.2-1.2,1.2
		s-1.2-0.5-1.2-1.2s0.5-1.2,1.2-1.2S29.7,42,29.7,42.7z M46.8,42.7c0,0.7-0.5,1.2-1.2,1.2c-0.7,0-1.2-0.5-1.2-1.2s0.5-1.2,1.2-1.2
		C46.3,41.4,46.8,42,46.8,42.7z"/>
</g>
</svg>
