<?xml version="1.0" encoding="utf-8"?>
<!-- Generator: Adobe Illustrator 26.0.1, SVG Export Plug-In . SVG Version: 6.00 Build 0)  -->
<svg version="1.1" id="Layer_1" xmlns="http://www.w3.org/2000/svg" xmlns:xlink="http://www.w3.org/1999/xlink" x="0px" y="0px"
	 viewBox="0 0 65 65" style="enable-background:new 0 0 65 65;" xml:space="preserve">
<style type="text/css">
	.st0{fill:url(#SVGID_1_);}
	.st1{fill:#FFFFFF;}
</style>
<linearGradient id="SVGID_1_" gradientUnits="userSpaceOnUse" x1="1.8447" y1="56.217" x2="62.8087" y2="9.6458" gradientTransform="matrix(1 0 0 -1 0 65.2912)">
	<stop  offset="0" style="stop-color:#4565EE"/>
	<stop  offset="1" style="stop-color:#1237B7"/>
</linearGradient>
<path class="st0" d="M46.6,65H18.4C8.2,65,0,56.8,0,46.6V18.4C0,8.2,8.2,0,18.4,0h28.3C56.8,0,65,8.2,65,18.4v28.3
	C65,56.8,56.8,65,46.6,65z"/>
<g>
	<path class="st1" d="M48.8,26.3c-0.4,0-0.9,0.1-1.2-0.1c-0.2-0.2-0.2-0.7-0.3-1.1c-1.7-7.7-9.3-13.3-17.6-11.6
		c-6.5,1.3-10.5,5.4-12.1,11.8c-0.1,0.3,0,0.7-0.2,0.9c-0.2,0.2-0.6,0.1-1,0.1c-1.9,0-3.2,1.3-3.2,3.2c0,1,0,1.9,0,2.9c0,1,0,2,0,3
		c0,1.7,1.3,3,2.9,3.1c1.1,0,2.1,0,3.2,0c0.6,0,1-0.4,1-1V27.4c0-0.3-0.1-0.7-0.4-0.8c-0.5-0.2-0.4-0.5-0.3-0.9
		c1.5-6.9,8-11.3,15-10.3c5.4,0.8,9.9,5.2,10.8,10.6c0,0.2,0,0.3-0.2,0.4c-0.4,0.2-0.6,0.5-0.6,1v10c0,0.5,0.2,0.9,0.7,1
		c0.3,0.1,0.3,0.2,0.3,0.4c-0.1,5-3.7,9.4-8.7,10.5c-0.3,0.1-0.4,0.1-0.4-0.3c0-1.2-0.9-2.2-2.1-2.4c-0.9-0.1-1.8-0.1-2.7,0
		c-1.4,0.1-2.3,1.2-2.3,2.5s1,2.4,2.3,2.5c1.9,0.1,3.7,0.1,5.5-0.3c5.9-1.4,9.9-6,10.4-12.1c0.1-0.8,0.1-0.8,0.9-0.8
		c1.8,0,3.1-1.2,3.2-3c0-2,0-4.1,0-6.1C51.7,27.7,50.4,26.4,48.8,26.3z M18.3,36c0,0.4-0.1,0.5-0.5,0.5c-0.5,0-0.9,0-1.4,0
		c-0.8,0-1.1-0.4-1.1-1.1c0-2,0-3.9,0-5.8c0-0.8,0.4-1.1,1.1-1.1c0.5,0,1,0,1.5,0c0.3,0,0.4,0.1,0.4,0.4c0,1.2,0,2.5,0,3.7
		C18.3,33.7,18.3,34.8,18.3,36z M34.1,49.6c-0.3,0-0.7,0-1,0l0,0c-0.4,0-0.8,0-1.1-0.1c-0.3,0-0.5-0.2-0.5-0.5s0.2-0.4,0.5-0.5
		c0.7-0.1,1.4,0,2.1,0c0.3,0,0.4,0.2,0.4,0.5C34.5,49.4,34.4,49.6,34.1,49.6z M49.7,35.3c0,0.7-0.4,1.1-1.1,1.1c-0.5,0-1.1,0-1.6,0
		c-0.3,0-0.3-0.1-0.3-0.4v-3.8c0-1.2,0-2.4,0-3.6c0-0.4,0.1-0.4,0.4-0.4c0.5,0,1,0,1.5,0c0.8,0,1.1,0.4,1.1,1.1
		C49.7,31.5,49.7,33.4,49.7,35.3z"/>
	<path class="st1" d="M34.4,45.4c4.7-0.7,8.5-4.8,9.1-9.4c0.2-1.5,0-3,0.1-4.3v-3.2c0-0.7,0-1.4-0.1-2c-1.1-5.9-6.3-9.8-12.3-9.2
		c-5.4,0.6-9.7,5.2-9.8,10.7c-0.1,2.3,0,4.6,0,6.9c0,0.7,0.1,1.4,0.3,2C23,42.8,28.4,46.4,34.4,45.4z M23.5,35.6
		c-0.2-1.4,0-2.8-0.1-4.2c0.1-1.4-0.1-2.8,0.1-4.2c0.4-3.8,3.6-7.1,7.3-7.8c5.1-0.9,9.7,2.3,10.7,7.4c0.1,0.5,0.1,1.1,0.1,1.7
		c0,2,0,4,0,6c0,4.7-3.4,8.6-8.1,9.1C28.6,44.1,24,40.5,23.5,35.6z"/>
	<path class="st1" d="M36.5,38.1c-0.1-0.4-0.4-0.6-0.9-0.7c-0.4-0.1-0.7,0.2-1,0.4c-1,0.9-2.2,1.1-3.5,0.6c-0.4-0.2-0.7-0.5-1.1-0.8
		s-0.9-0.3-1.3,0s-0.4,0.8-0.2,1.2c0.2,0.3,0.5,0.6,0.8,0.8c0.9,0.7,2,0.9,3.1,0.9c1.4,0,2.7-0.5,3.7-1.5
		C36.5,39,36.6,38.6,36.5,38.1z"/>
</g>
</svg>
