<?xml version="1.0" encoding="utf-8"?>
<!-- Generator: Adobe Illustrator 26.0.1, SVG Export Plug-In . SVG Version: 6.00 Build 0)  -->
<svg version="1.1" id="Layer_1" xmlns="http://www.w3.org/2000/svg" xmlns:xlink="http://www.w3.org/1999/xlink" x="0px" y="0px"
	 viewBox="0 0 65 65" style="enable-background:new 0 0 65 65;" xml:space="preserve">
<style type="text/css">
	.st0{fill:url(#SVGID_1_);}
	.st1{fill:#FFFFFF;}
</style>
<linearGradient id="SVGID_1_" gradientUnits="userSpaceOnUse" x1="1.8445" y1="-5547.7832" x2="62.8085" y2="-5594.3545" gradientTransform="matrix(1 0 0 -1 0 -5538.7095)">
	<stop  offset="0.1859" style="stop-color:#FF9124"/>
	<stop  offset="1" style="stop-color:#D15400"/>
</linearGradient>
<path class="st0" d="M46.6,65H18.4C8.2,65,0,56.8,0,46.6V18.4C0,8.2,8.2,0,18.4,0h28.3C56.8,0,65,8.2,65,18.4v28.3
	C65,56.8,56.8,65,46.6,65z"/>
<g>
	<g>
		<path class="st1" d="M35.6,50.8c-0.5-0.2-1.1-0.3-1.5-0.6c-1.7-1.1-2.1-3.3-1.1-5c0.9-1.4,2.1-2.5,3.6-3.2c0.1,0,0.1-0.1,0.2-0.1
			c0,0,0,0,0.1-0.1c-1.1-1.2-1.6-2.7-1.3-4.4c0.2-1.2,0.8-2.2,1.8-3c1.9-1.6,4.7-1.4,6.5,0.3c1.6,1.5,2.3,4.7,0.1,7.1
			c0.5,0.3,1,0.6,1.5,0.9c1.1,0.7,1.9,1.7,2.5,2.8c1.1,2.1-0.1,4.7-2.5,5.2c-0.1,0-0.2,0.1-0.3,0.1C42,50.8,38.8,50.8,35.6,50.8z
			 M40.4,48.7C40.4,48.6,40.4,48.6,40.4,48.7c1.5,0,3,0,4.4,0c1.1,0,1.7-1.3,1.1-2.2c-1.3-2.1-3.2-3.2-5.6-3.2c-2,0-3.7,0.8-5,2.4
			c-0.3,0.4-0.6,0.8-0.7,1.2c-0.2,1,0.5,1.7,1.5,1.7C37.6,48.7,39,48.7,40.4,48.7z M37.6,38.3c0,1.5,1.2,2.7,2.7,2.8
			c1.5,0,2.8-1.2,2.8-2.7s-1.2-2.7-2.7-2.8C38.9,35.6,37.6,36.8,37.6,38.3z"/>
		<path class="st1" d="M20.2,50.8c-0.1,0-0.1-0.1-0.2-0.1c-2.2-0.5-3.2-2.8-2-4.7c0.6-1,1.4-1.7,2.4-2.3c0.1-0.1,0.3-0.2,0.5-0.3
			c-0.8-1.1-1.1-2.3-0.9-3.6c0.2-0.9,0.7-1.7,1.5-2.3c1.5-1.2,3.7-1.2,5.1,0.1c0.9,0.7,1.4,1.7,1.5,2.8s-0.2,2.1-0.9,2.9
			c0.6,0.5,1.3,1,1.9,1.5c0.6,0.6,1.1,1.2,1.3,2c0.5,1.7-0.6,3.4-2.3,3.8c-0.1,0-0.1,0.1-0.2,0.1C25.4,50.8,22.8,50.8,20.2,50.8z
			 M24.1,48.7C24.1,48.7,24.1,48.6,24.1,48.7c1.1,0,2.2,0,3.3,0c0.8,0,1.2-0.8,0.7-1.5c-1.9-2.9-6.1-3-8.1-0.1
			c-0.2,0.3-0.4,0.7-0.2,1.1c0.2,0.4,0.6,0.5,1,0.5C22,48.6,23,48.7,24.1,48.7z M22.2,40.9c0,1,0.9,1.9,1.9,1.9s1.9-0.9,1.9-1.9
			S25.1,39,24.1,39C23,38.9,22.2,39.8,22.2,40.9z"/>
		<path class="st1" d="M41.3,27.2c0,0.8,0,1.7,0,2.5c0,0.2,0,0.4-0.1,0.6c-0.2,0.6-0.9,0.9-1.5,0.6c-0.1-0.1-0.3-0.2-0.4-0.3
			c-1.2-1-2.4-2-3.6-3c-0.3-0.3-0.7-0.4-1.1-0.3c0,0.3,0,0.5-0.1,0.8c-0.4,2.4-2.4,4-5,4c-1.4,0-2.8,0-4.2,0c-0.2,0-0.4,0.1-0.6,0.2
			c-0.8,0.6-1.6,1.3-2.4,2c-0.4,0.3-0.8,0.5-1.3,0.3s-0.6-0.7-0.6-1.2c0-0.4,0-0.7,0-1.1c0-0.3-0.1-0.4-0.3-0.4
			c-1.4-0.4-2.4-1.4-3.1-2.8c-1.2-2.8,0.7-6.2,3.7-6.6c0.4-0.1,0.8-0.1,1.3-0.1c-0.1-0.4-0.1-0.8-0.1-1.3c-0.3-3.6,2.6-6.9,6.5-6.9
			c4,0,7.9,0,11.9,0c3.1,0,5.7,2.2,6.4,5.2c0.7,3.4-1.5,6.9-5,7.7C41.5,27.1,41.4,27.1,41.3,27.2z M39.1,27.5c0-0.5,0-1,0-1.4
			c0-0.6,0.4-1,1-1.1c0.2,0,0.4,0,0.6-0.1c2.2-0.3,3.9-2.3,3.7-4.4c-0.1-2.3-1.9-4.1-4.2-4.2c-1.7-0.1-3.5,0-5.2,0
			c-2.4,0-4.7,0-7.1,0c-2.6,0.1-4.6,2.7-4,5.3c0.5,2,2.2,3.4,4.3,3.4c1.9,0,3.8,0,5.7,0c2.3,0,1.6-0.3,3.4,1.3
			C38.1,26.7,38.6,27.1,39.1,27.5z M32.3,27.2c-0.1,0-0.3,0-0.4,0c-1.1,0-2.2,0-3.4,0c-0.4,0-0.8,0-1.1-0.1c-1.7-0.3-3.1-1-4.2-2.4
			c-0.1-0.1-0.2-0.2-0.4-0.2c-0.5,0-1.1,0-1.6,0c-1.6,0.1-2.7,1.8-2.3,3.3c0.3,1.2,1.2,1.9,2.6,2c0.7,0.1,1,0.4,1.1,1.1
			c0,0.1,0,0.1,0,0.2c0.4-0.3,0.7-0.6,1.1-0.9c0.3-0.3,0.7-0.4,1.1-0.4c1.6,0,3.1,0,4.7,0C31.2,29.9,32.4,28.8,32.3,27.2z"/>
	</g>
</g>
</svg>
