<?xml version="1.0" encoding="utf-8"?>
<!-- Generator: Adobe Illustrator 26.0.1, SVG Export Plug-In . SVG Version: 6.00 Build 0)  -->
<svg version="1.1" id="Layer_1" xmlns="http://www.w3.org/2000/svg" xmlns:xlink="http://www.w3.org/1999/xlink" x="0px" y="0px"
	 viewBox="0 0 65 65" style="enable-background:new 0 0 65 65;" xml:space="preserve">
<style type="text/css">
	.st0{fill:url(#SVGID_1_);}
	.st1{fill:#FFFFFF;}
</style>
<linearGradient id="SVGID_1_" gradientUnits="userSpaceOnUse" x1="1.8445" y1="-5547.7832" x2="62.8085" y2="-5594.3545" gradientTransform="matrix(1 0 0 -1 0 -5538.7095)">
	<stop  offset="0.1904" style="stop-color:#59D86E"/>
	<stop  offset="1" style="stop-color:#19994C"/>
</linearGradient>
<path class="st0" d="M46.6,65H18.4C8.2,65,0,56.8,0,46.6V18.4C0,8.2,8.2,0,18.4,0h28.3C56.8,0,65,8.2,65,18.4v28.3
	C65,56.8,56.8,65,46.6,65z"/>
<g>
	<g>
		<path class="st1" d="M50,17.8c0-1.3-0.7-2-2-2c-2.9,0-5.8,0-8.7,0c-0.7,0-1.3,0.2-1.8,0.7C29.8,24.3,22,32.1,14.2,39.9
			c-0.4,0.4-0.7,0.8-0.9,1.3v0.7c0.2,0.5,0.6,0.9,1,1.3c2.8,2.8,5.5,5.5,8.3,8.3c0.4,0.4,0.8,0.8,1.3,1h0.7c0.4-0.2,0.8-0.4,1.1-0.7
			c7.9-7.9,15.8-15.7,23.6-23.6c0.5-0.4,0.7-1,0.7-1.6C50,23.7,50,20.8,50,17.8z M26.6,44.8c-0.5,0.5-0.9,1-1.4,1.4
			c-0.5,0.5-1.1,0.5-1.6,0c-1.3-1.3-2.7-2.7-4-4c-0.5-0.5-0.4-1.1,0-1.5c0.4-0.4,0.8-0.8,1.2-1.2c1.2-1.1,3-0.8,3.8,0.7
			c0.1,0.2,0.2,0.3,0.4,0.3c1.3,0.2,2.3,1.3,2.3,2.9C27.3,43.7,27.1,44.3,26.6,44.8z M31.2,39.6c-0.5,0-1.1-0.1-1.6-0.1
			c0,0,0,0.1-0.1,0.1c0.1,0.1,0.3,0.2,0.4,0.4c0.4,0.5,0.4,1.1,0,1.5c-0.4,0.4-1.1,0.4-1.5,0c-1.4-1.3-2.7-2.7-4.1-4.1
			c-0.5-0.5-0.4-1.1,0-1.5c0.4-0.4,0.8-0.8,1.2-1.2c1.5-1.3,3.8-0.6,4.2,1.3c0.1,0.4,0,0.9,0,1.4c0.5,0,1,0.1,1.5,0.1
			c0.7,0,1.2,0.5,1.1,1.1C32.4,39.2,31.9,39.6,31.2,39.6z M37.6,33.6c-0.1,0.5-0.6,0.8-1.1,0.8c-0.1,0-0.2,0-0.4-0.1
			c-0.3-0.2-0.5-0.1-0.7,0.2c-0.3,0.3-0.6,0.6-0.9,0.9c-0.2,0.2-0.3,0.4-0.1,0.7c0.3,0.6,0,1.3-0.6,1.5c-0.6,0.2-1.1-0.1-1.4-0.7
			c-0.6-1.4-1.3-2.8-1.9-4.2c-0.2-0.4-0.3-0.8-0.5-1.2c-0.2-0.5-0.2-1,0.2-1.4c0.4-0.4,0.9-0.5,1.4-0.2c1.8,0.8,3.6,1.6,5.4,2.4
			C37.5,32.5,37.7,33,37.6,33.6z M42.4,28.6c-0.1,0.6-0.7,1-1.4,0.9c-0.9-0.2-1.9-0.3-2.8-0.5c-0.1,0-0.2,0-0.3,0
			c0.5,0.5,1,0.9,1.5,1.4c0.3,0.3,0.5,0.7,0.3,1.2c-0.3,0.7-1.2,0.9-1.8,0.4c-0.8-0.7-1.5-1.5-2.2-2.2c-0.6-0.6-1.1-1.1-1.7-1.7
			c-0.5-0.5-0.6-1-0.3-1.4c0.3-0.5,0.7-0.6,1.4-0.5c1,0.2,1.9,0.4,2.9,0.5c0.1,0,0.2,0,0.3,0c-0.5-0.5-0.9-1-1.4-1.5
			c-0.5-0.5-0.5-1.2-0.1-1.6c0.4-0.5,1.1-0.4,1.6,0.1c1.3,1.2,2.5,2.5,3.8,3.7C42.3,27.7,42.5,28.1,42.4,28.6z M45.5,25.7
			c-0.4,0.4-0.7,0.8-1.1,1.1c-0.5,0.5-1.1,0.5-1.6,0c-1.3-1.3-2.6-2.6-3.9-3.8c-0.5-0.5-0.5-1.1,0-1.6c0.3-0.3,0.7-0.7,1-1
			c1.2-1.1,2.6-1.3,4.1-0.6c1.5,0.8,2.4,2.3,2.4,4.1C46.4,24.4,46.1,25.1,45.5,25.7z"/>
		<path class="st1" d="M25,43.3c-0.2,0.2-0.4,0.4-0.7,0.6c-0.2-0.2-0.4-0.4-0.6-0.7c0.2-0.2,0.4-0.4,0.6-0.6c0.2-0.2,0.4-0.1,0.6,0
			C25.2,42.8,25.2,43.1,25,43.3z"/>
		<path class="st1" d="M22.6,41.3c-0.1,0.2-0.2,0.3-0.4,0.4c-0.1-0.1-0.2-0.2-0.4-0.4c0.2-0.2,0.3-0.3,0.5-0.4c0.1,0,0.2,0,0.3,0
			C22.6,41.1,22.6,41.2,22.6,41.3z"/>
		<path class="st1" d="M43.7,24.5c-0.8-0.8-1.6-1.6-2.4-2.4c0.6-0.8,1.3-0.7,2-0.1c0.3,0.2,0.5,0.5,0.7,0.8
			C44.4,23.5,44.3,23.9,43.7,24.5z"/>
		<path class="st1" d="M27.2,37.2c-0.2-0.2-0.4-0.4-0.5-0.6c0.2-0.2,0.4-0.5,0.7-0.4c0.1,0,0.2,0.1,0.3,0.2
			C27.7,36.8,27.4,37,27.2,37.2z"/>
		<path class="st1" d="M33.6,33.1c-0.1,0.1-0.2,0.2-0.4,0.4c-0.1-0.3-0.2-0.4-0.3-0.7C33.2,33,33.4,33,33.6,33.1z"/>
	</g>
</g>
</svg>
