<?xml version="1.0" encoding="utf-8"?>
<!-- Generator: Adobe Illustrator 26.0.1, SVG Export Plug-In . SVG Version: 6.00 Build 0)  -->
<svg version="1.1" id="Layer_1" xmlns="http://www.w3.org/2000/svg" xmlns:xlink="http://www.w3.org/1999/xlink" x="0px" y="0px"
	 viewBox="0 0 65 65" style="enable-background:new 0 0 65 65;" xml:space="preserve">
<style type="text/css">
	.st0{fill:url(#SVGID_1_);}
	.st1{fill:#FFFFFF;}
</style>
<linearGradient id="SVGID_1_" gradientUnits="userSpaceOnUse" x1="1.8445" y1="-5547.7832" x2="62.8085" y2="-5594.3545" gradientTransform="matrix(1 0 0 -1 0 -5538.7095)">
	<stop  offset="0.3374" style="stop-color:#FFDD57"/>
	<stop  offset="1" style="stop-color:#E5A10A"/>
</linearGradient>
<path class="st0" d="M46.6,65H18.4C8.2,65,0,56.8,0,46.6V18.4C0,8.2,8.2,0,18.4,0h28.3C56.8,0,65,8.2,65,18.4v28.3
	C65,56.8,56.8,65,46.6,65z"/>
<g>
	<g>
		<path class="st1" d="M22.8,30.4c0,0.4-0.4,0.8-0.8,0.8c-0.5,0-0.8-0.4-0.8-0.9c0-0.4,0.4-0.8,0.8-0.8C22.4,29.6,22.8,30,22.8,30.4
			z"/>
		<path class="st1" d="M51.2,30.6c-0.4-0.1-0.8-0.3-1.1-0.3c-0.5,0-0.8,0.4-0.9,0.8c0,0.5,0.3,0.8,0.8,0.9c0.1,0,0.1,0,0.3,0
			c0.6,0.1,1,0.6,1,1.3c0,0.6-0.5,1.1-1.1,1.1c-0.4,0-0.9,0-1.3,0c-0.3,0-0.3,0-0.3-0.3c0-0.4-0.1-0.9-0.1-1.3
			c-0.9-4.5-3.3-8-7.3-10.3c-0.3-0.1-0.3-0.3-0.3-0.5c0.1-0.9,0-1.8-0.1-2.6c-1-4.4-4.9-7.1-9.4-6.6c-3.6,0.4-6.8,3.3-7.4,6.9
			c-0.1,0.8-0.1,1.4-0.1,2.1h-0.1c-1.1-0.6-2.3-1.3-3.4-1.9c-1.1-0.6-2.3,0-2.4,1.4c0,1.5,0,3.1,0,4.6c0,0.3,0,0.4-0.1,0.5
			c-0.9,1.1-1.6,2.5-2.1,3.9c-0.1,0.3-0.1,0.3-0.4,0.3c-0.5,0-1,0-1.5,0C13,30.7,12.4,31.2,12,32c0,0.1,0,0.3-0.1,0.3v6
			c0.1,0,0.1,0.1,0.1,0.3c0.4,1,1.1,1.5,2.1,1.5c0.4,0,0.8,0,1.3,0c0.3,0,0.4,0.1,0.5,0.4c1,2.6,2.6,4.9,4.9,6.6
			c0.1,0.1,0.3,0.3,0.3,0.5c0,1,0,2.1,0,3.1s0.8,1.8,1.8,1.8c0.9,0,1.9,0,2.8,0c0.8,0,1.3-0.4,1.6-1c0.3-0.5,0.5-0.9,0.8-1.4
			c0.1-0.3,0.3-0.3,0.4-0.3c2.3,0.1,4.4,0.1,6.6,0c0.3,0,0.4,0,0.5,0.3c0.3,0.5,0.5,0.9,0.8,1.4c0.4,0.6,0.9,1,1.6,1
			c0.9,0,1.8,0,2.8,0c1.3,0,1.9-0.6,1.9-1.9c0-1,0-1.9,0-2.9c0-0.4,0.1-0.5,0.4-0.8c2.1-1.6,3.8-3.8,4.8-6.4c0.5-1.3,0.9-2.6,0.9-4
			c0-0.4,0.1-0.4,0.5-0.4c0.4,0,0.8,0,1.3,0c1.4,0,2.4-1,2.6-2.4C53,32.4,52.4,31.1,51.2,30.6z M28.8,15.5c2.4-1.5,4.8-1.6,7.3-0.1
			c2.4,1.4,3.5,3.6,3.5,6.4c0,1-0.4,1.9-0.8,2.8c0,0.1,0,0.3-0.3,0.1c-1.1-0.6-2.3-1-3.5-1.3c0.9-2-0.8-3.6-2.4-3.6
			c-0.5,0-0.9-0.1-1-0.6c-0.1-0.4,0-0.6,0.3-0.9c0.4-0.3,0.9-0.4,1.3-0.1c0.3,0.1,0.4,0.4,0.5,0.6c0.1,0.5,0.4,0.9,0.9,0.9
			c0.5,0,0.8-0.4,0.8-1c-0.1-1-0.6-1.6-1.5-2c-0.1-0.1-0.3-0.1-0.3-0.4c0-0.4-0.4-0.6-0.8-0.6S32,15.8,32,16.2c0,0.1,0,0.3-0.3,0.4
			c-1.3,0.5-1.9,1.6-1.6,2.8c0.3,1.1,1.3,2,2.5,2c0.3,0,0.5,0,0.8,0.3c0.5,0.4,0.5,1,0,1.4c-0.6,0.5-1.6,0.1-1.8-0.8
			c-0.1-0.5-0.4-0.8-0.9-0.8c-0.5,0-0.8,0.4-0.8,0.9c0,0.4,0.1,0.6,0.3,1c-0.9,0.3-1.8,0.4-2.5,0.8c-0.3,0.1-0.6,0.3-0.9,0.4
			c-0.3,0.1-0.4,0.1-0.4-0.1C24.8,21.4,25.8,17.3,28.8,15.5z M41.4,45.7c-0.4,0.3-0.5,0.6-0.5,1c0,1.1,0,2.3,0,3.4
			c0,0.4-0.1,0.5-0.5,0.5c-0.8,0-1.5,0-2.3,0c-0.4,0-0.5-0.1-0.6-0.4c-0.3-0.6-0.6-1.1-0.9-1.8c-0.3-0.5-0.5-0.5-1-0.5
			c-2.6,0.1-5.1,0.1-7.8,0c-0.5,0-0.8,0-1,0.5c-0.4,0.6-0.6,1.3-1,1.9c0,0.1,0,0.3-0.3,0.3c-0.9,0-1.8,0-2.5,0
			c-0.3,0-0.3-0.1-0.3-0.4c0-1.1,0-2.4,0-3.5c0-0.5-0.1-0.8-0.5-1c-2.4-1.6-4-3.9-5-6.6c-0.3-0.6-0.4-0.8-1.1-0.8
			c-0.6,0-1.1,0-1.8,0c-0.5,0-0.8-0.3-0.8-0.8c0-0.4,0-0.9,0-1.3c0-0.3,0-0.3,0.3-0.3s0.5,0,0.9,0c0.5,0,0.8-0.4,0.8-0.9
			c0-0.4-0.4-0.8-0.8-0.8c0,0,0,0-0.1,0c-0.4,0-0.8,0.1-1,0c-0.3-0.3-0.1-0.6-0.1-1c0-1.3,0-1.3,1.3-1.3c0.5,0,0.9,0,1.3,0
			c0.5,0,0.8-0.1,0.9-0.6c0.5-1.6,1.3-3.1,2.4-4.4c0.1-0.3,0.3-0.5,0.3-0.8c0-1.6,0-3.3,0-5c0.9,0.5,1.8,1,2.5,1.5
			c0.4,0.3,0.6,0.4,1,0.6c0.1,0.1,0.3,0.1,0.4,0.1c0.5-0.1,0.5,0.3,0.6,0.5c0.1,0.5,0.4,0.9,0.6,1.3c0.1,0.3,0.1,0.3-0.1,0.4
			c-0.4,0.3-0.8,0.6-1.1,0.9C23,27.2,23,27.6,23.4,28s0.8,0.4,1.3-0.1c1.5-1.4,3.1-2.4,5.1-2.8c3.8-0.8,7,0.1,9.9,2.6
			c0.1,0.1,0.1,0.1,0.3,0.3c0.4,0.4,0.9,0.4,1.1,0c0.4-0.4,0.3-0.8-0.1-1.1s-0.8-0.8-1.1-1c-0.3-0.1-0.3-0.3-0.1-0.5
			c0.1-0.3,0.4-0.6,0.5-1c0.1-0.3,0.1-0.3,0.4-0.1c3,1.9,5,4.6,5.9,8.1C47.9,37.5,45.8,42.7,41.4,45.7z"/>
		<path class="st1" d="M22.8,30.4c0,0.4-0.4,0.8-0.8,0.8c-0.5,0-0.8-0.4-0.8-0.9c0-0.4,0.4-0.8,0.8-0.8C22.4,29.6,22.8,30,22.8,30.4
			z"/>
		<path class="st1" d="M22.8,30.4c0,0.4-0.4,0.8-0.8,0.8c-0.5,0-0.8-0.4-0.8-0.9c0-0.4,0.4-0.8,0.8-0.8C22.4,29.6,22.8,30,22.8,30.4
			z"/>
	</g>
</g>
</svg>
