<?xml version="1.0" encoding="utf-8"?>
<!-- Generator: Adobe Illustrator 26.0.1, SVG Export Plug-In . SVG Version: 6.00 Build 0)  -->
<svg version="1.1" id="Layer_1" xmlns="http://www.w3.org/2000/svg" xmlns:xlink="http://www.w3.org/1999/xlink" x="0px" y="0px"
	 viewBox="0 0 65 65" style="enable-background:new 0 0 65 65;" xml:space="preserve">
<style type="text/css">
	.st0{fill:url(#SVGID_1_);}
	.st1{fill:#FFFFFF;}
</style>
<linearGradient id="SVGID_1_" gradientUnits="userSpaceOnUse" x1="1.8444" y1="-11151.7832" x2="62.8084" y2="-11198.3545" gradientTransform="matrix(1 0 0 -1 0 -11142.71)">
	<stop  offset="0.3374" style="stop-color:#FCDD5E"/>
	<stop  offset="1" style="stop-color:#DBB309"/>
</linearGradient>
<path class="st0" d="M46.6,65H18.4C8.2,65,0,56.8,0,46.6V18.4C0,8.2,8.2,0,18.4,0h28.3C56.8,0,65,8.2,65,18.4v28.3
	C65,56.8,56.8,65,46.6,65z"/>
<g>
	<path class="st1" d="M48.5,38.5c-1.1-4.7-3.4-8.6-7-11.6c-0.5-0.4-1-0.8-1.5-1.1c-0.1-0.1-0.2-0.2-0.4-0.2c1.3-2.6,0.7-4.4-1.8-6
		l2.8-4.8c0.3-0.6,0.4-1.2,0.2-1.7c-0.2-0.5-0.7-0.9-1.3-1c-1-0.3-2-0.5-2.9-0.6c-0.6-0.1-1.2-0.2-1.8-0.2l-0.8-0.1l-2.8,0l-0.2,0
		c0,0-0.1,0-0.1,0c-1.7,0.1-3.3,0.4-5.1,0.9c-0.9,0.2-1.2,0.7-1.4,1.1c-0.1,0.4-0.2,0.9,0.2,1.7l2.7,4.7c-1.1,0.5-1.9,1.4-2.3,2.6
		c-0.4,1.1-0.2,2.4,0.4,3.5c-2.2,1.3-4.1,3.1-5.6,5.4c-3,4.4-4.1,8.9-3.5,13.6c0.4,3,1.9,5.4,4.5,6.9c2.6,1.6,5.4,2,7.9,2.2
		c1.3,0.1,2.6,0.2,3.9,0.2c1.3,0,2.6-0.1,3.9-0.2c2.5-0.2,4.6-0.7,6.3-1.4c3.2-1.4,5.2-3.7,5.9-7C49.1,43.2,49,40.9,48.5,38.5z
		 M35.4,16.8c-0.4,0.6-0.7,1.3-1.1,1.9c-1.2,0-2.4,0-3.6,0c-0.7-1.3-1.5-2.5-2.2-3.8l0,0c2.6-0.5,5.3-0.5,8,0L35.4,16.8z M32.5,22
		c1.3,0,2.6,0.2,3.8,0.6c0.3,0.1,0.5,0.3,0.5,0.7c0,0.3-0.1,0.6-0.3,0.6C36.3,24,36.1,24,36,24c-2.3-0.6-4.7-0.6-7,0
		c-0.4,0.1-0.5,0-0.7-0.2c-0.2-0.2-0.2-0.5-0.1-0.8c0.1-0.2,0.4-0.3,0.6-0.4C30,22.2,31.2,22,32.5,22z M28.9,27.7
		c1.2-0.5,2.5-0.7,3.7-0.7c1.9,0,3.8,0.6,5.7,1.9c3.3,2.3,5.6,5.6,6.8,9.9c0.5,1.9,0.6,3.7,0.3,5.4c-0.4,2.4-1.6,4-3.9,5
		c-1.4,0.6-3,1-4.9,1.2c-0.9,0.1-1.9,0.1-2.8,0.2c-0.4,0-0.8,0-1.2,0.1c-2.2,0-4.7-0.2-7.2-0.8c-1.2-0.3-2.1-0.7-2.9-1.2
		c-1.7-1.1-2.6-2.7-2.8-4.7c-0.4-4.3,0.9-8.2,3.9-12C25,29.8,26.8,28.5,28.9,27.7z"/>
	<path class="st1" d="M32.1,41.8c-0.3-0.2-0.6-0.4-0.9-0.7c-0.7-0.7-1.7-0.7-2.4-0.1c-0.4,0.3-0.6,0.7-0.6,1.2
		c0,0.4,0.1,0.9,0.4,1.2c0.3,0.4,0.7,0.7,1.2,1.1c0.2,0.1,0.4,0.2,0.5,0.3c0.1,0.1,0.3,0.2,0.4,0.2c0.1,0.1,0,0.4,0,0.6
		c0,0.2,0,0.3,0,0.5c0,1,0.8,1.7,1.7,1.7c0,0,0,0,0,0c0.9,0,1.7-0.7,1.7-1.7c0-0.4,0-0.7,0-1.1c0,0,0,0,0.1-0.1
		c1.5-0.7,2.3-1.9,2.4-3.5c0.1-1.6-0.6-2.9-2-3.8C34,37.2,33.3,37,32.5,37c-0.3,0-0.6-0.2-0.7-0.5c-0.1-0.3-0.1-0.5,0.1-0.7
		c0.2-0.3,0.5-0.3,0.8-0.2c0.3,0.1,0.6,0.3,0.9,0.5c0.8,0.6,1.8,0.5,2.4-0.2c0.6-0.7,0.6-1.8-0.1-2.4c-0.4-0.4-0.8-0.7-1.3-0.9
		c-0.4-0.2-0.4-0.3-0.4-0.4l0-0.4c0-0.2,0-0.3,0-0.5c0-1-0.8-1.7-1.7-1.7c0,0,0,0,0,0c-0.9,0-1.7,0.8-1.7,1.7c0,0.4,0,0.8,0,1.1
		c-1.8,0.8-2.8,2.7-2.4,4.7c0.4,1.9,2,3.2,4,3.3c0.5,0,0.7,0.3,0.8,0.5c0.1,0.3,0,0.6-0.2,0.8C32.8,41.9,32.5,42,32.1,41.8z"/>
</g>
</svg>
