<?xml version="1.0" encoding="utf-8"?>
<!-- Generator: Adobe Illustrator 26.0.1, SVG Export Plug-In . SVG Version: 6.00 Build 0)  -->
<svg version="1.1" id="Layer_1" xmlns="http://www.w3.org/2000/svg" xmlns:xlink="http://www.w3.org/1999/xlink" x="0px" y="0px"
	 viewBox="0 0 65 65" style="enable-background:new 0 0 65 65;" xml:space="preserve">
<style type="text/css">
	.st0{fill:url(#SVGID_1_);}
	.st1{fill:#FFFFFF;}
</style>
<linearGradient id="SVGID_1_" gradientUnits="userSpaceOnUse" x1="1.8443" y1="11217.0752" x2="62.8083" y2="11263.6465" gradientTransform="matrix(1 0 0 1 0 -11208.001)">
	<stop  offset="0.3374" style="stop-color:#F4C540"/>
	<stop  offset="1" style="stop-color:#BA7E06"/>
</linearGradient>
<path class="st0" d="M46.6,65H18.4C8.2,65,0,56.8,0,46.6V18.4C0,8.2,8.2,0,18.4,0h28.3C56.8,0,65,8.2,65,18.4v28.3
	C65,56.8,56.8,65,46.6,65z"/>
<image style="display:none;overflow:visible;" width="271" height="271" xlink:href="bimeh-01.png"  transform="matrix(0.24 0 0 0.24 -2.000129e-02 -2.016662e-02)">
</image>
<g>
	<g>
		<path class="st1" d="M27.6,52.8c1.7-0.3,2.6-1.5,2.9-3.1c0-0.1,0-0.1,0.1-0.2c2.4,0.5,4.7,0.4,7.1-0.2c0.1,0.2,0.1,0.4,0.1,0.5
			c0.5,2.2,2.8,3.3,4.9,2.5c1.1-0.4,2-1.2,2.7-2.1c2.7-3.6,4.3-7.7,4.1-12.3c0-0.5-0.1-1-0.1-1.5c0.5-0.1,1-0.2,1.4-0.4
			c0.9-0.4,1.3-1.2,1.5-2.1c0.1-0.6-0.3-1.2-0.9-1.4c-0.6-0.2-1.2,0.1-1.5,0.7c-0.1,0.2,0,0.6-0.4,0.5c-0.4-0.1-0.8-0.1-0.9-0.6
			c-0.5-1.3-1.3-2.6-2.2-3.7c-0.4-0.5-0.8-0.7-1.4-0.5c-0.5,0.1-0.9,0.5-0.9,1c0,0.4,0.1,0.7,0.3,1.1c0.5,0.9,1.1,1.7,1.6,2.6
			c1,2,1.3,4.2,1.1,6.4c-0.4,3.3-1.7,6.2-3.8,8.8c-0.3,0.4-0.8,0.7-1.3,0.9c-0.7,0.3-1.2,0-1.4-0.7c0,0,0,0,0,0
			c-0.2-0.8-0.2-0.8,0.5-1.3c0.2-0.2,0.5-0.4,0.7-0.6c0.5-0.5,0.5-1.2,0-1.7c-0.4-0.5-1.2-0.6-1.7-0.2c-1.7,1.4-3.7,1.7-5.8,1.8
			c-1.2,0.1-2.3,0-3.5-0.4c-0.8-0.2-1.5-0.6-2.1-1.1c-0.5-0.4-1.1-0.5-1.6-0.2c-0.7,0.5-0.8,1.5-0.2,2c0.4,0.3,0.7,0.6,1.1,0.8
			c0.2,0.1,0.2,0.2,0.2,0.4c-0.1,0.2-0.1,0.4-0.2,0.7c-0.2,0.7-0.6,0.8-1.2,0.5c-0.7-0.4-1.2-1-1.5-1.7c-0.3-0.6-0.5-1.2-0.6-1.8
			c-0.2-0.9-0.6-1.2-1.5-1.3c-1.3-0.1-2.4-0.5-3.2-1.5c-0.3-0.3-0.5-0.7-0.6-1.1c-0.4-1.1-0.7-1.3-1.9-1.3c-0.6,0-1.2,0-1.8,0
			c0,0-0.1,0-0.1,0c0-0.1,0-0.3,0-0.4c0-1.5,0-2.9,0-4.4c0-1-0.8-1.6-1.7-1.4c-0.5,0.2-0.9,0.6-0.9,1.2c0,2.1,0,4.2,0,6.4
			c0,0.7,0.6,1.2,1.4,1.2c0.8,0,1.6,0,2.5,0c0.1,0,0.4,0.1,0.4,0.2c1,1.9,2.6,3.1,4.6,3.5c0.3,0.1,0.5,0.2,0.6,0.5
			c0.4,1.4,1.2,2.5,2.2,3.5c0.6,0.6,1.4,0.9,2.2,1.2C27,52.8,27.3,52.8,27.6,52.8z"/>
		<path class="st1" d="M42,32c0.5,0.6,0.5,1.3,0,1.8c-0.5,0.5-1.2,0.5-1.8,0c-0.5-0.4-1.1-0.7-1.7-1c-1.7-0.7-3.6-0.8-5.4-0.8
			c-2,0.1-4,0.4-5.6,1.9c-0.5,0.4-1.3,0.3-1.8-0.2c-0.4-0.5-0.4-1.3,0.1-1.8c0.2-0.2,0.4-0.3,0.6-0.5c-5.1-5-4.2-12.2-0.2-16.1
			c4.3-4.2,11.2-4.2,15.6,0c3.8,3.6,5.3,10.8-0.3,16.1C41.6,31.6,41.8,31.8,42,32z M35.2,14.9c-4.5-0.6-8.7,2.3-9.5,6.7
			C25,25,26.2,27.8,28.8,30c0.1,0.1,0.3,0.1,0.4,0.1c3.1-0.8,6.2-0.8,9.3,0c0.3,0.1,0.4,0,0.6-0.2c1.8-1.5,3-3.3,3.4-5.7
			c0.1-0.3,0.1-0.7,0.1-0.9C42.5,19,39.4,15.5,35.2,14.9z"/>
		<path class="st1" d="M17.8,28.3c0.9,0.1,1.6,0.5,2,1.2c0.2,0.3,0.3,0.6,0.5,0.8c0.5,0.8,1.5,0.8,2.1,0.1c0.3-0.4,0.6-0.8,0.8-1.1
			c0.3-0.5,0.3-1,0-1.4c-0.3-0.4-0.9-0.6-1.4-0.5c-0.3,0.1-0.4,0-0.6-0.2c-1.7-1.5-3.7-1.9-5.9-1.2c-1,0.3-1.3,1.2-0.8,2.1
			c0.7,1.2,1.4,2.4,2.2,3.6c0.1,0.2,0.1,0.4,0,0.6c-0.6,1.2-1,2.5-1.1,3.8c0,0.9,0.5,1.5,1.3,1.5c0.7,0,1.3-0.6,1.3-1.4
			c0-1.2,0.4-2.2,1-3.2c0.5-0.8,0.5-1.5,0-2.3C18.7,30,18.3,29.2,17.8,28.3z"/>
		<path class="st1" d="M21.1,35.1c0,1,0.8,1.8,1.8,1.7c1,0,1.7-0.8,1.7-1.8c0-1-0.8-1.7-1.8-1.7C21.8,33.4,21.1,34.1,21.1,35.1z"/>
		<path class="st1" d="M34.3,28.8c-1.5,0-2.9-0.3-4.1-1.2c-0.6-0.5-1.1-1.1-1.2-1.9c-0.1-0.7,0.2-1.3,0.9-1.5
			c0.7-0.2,1.3,0.2,1.6,0.8c0.1,0.3,0.3,0.6,0.5,0.7c1.2,0.7,2.5,0.8,3.9,0.3c0.2-0.1,0.4-0.3,0.6-0.4c-0.2-0.2-0.3-0.4-0.5-0.5
			c-0.8-0.2-1.6-0.5-2.5-0.6c-1-0.2-1.9-0.5-2.7-1c-1.8-1.2-1.7-3.7,0.2-4.8c0.5-0.3,1.1-0.5,1.6-0.6c0.3-0.1,0.4-0.2,0.4-0.5
			c0-1,0.8-1.6,1.7-1.3c0.6,0.2,0.9,0.7,0.9,1.3c0,0.4,0.1,0.5,0.5,0.7c1.2,0.4,2.2,1.1,2.6,2.4c0.3,0.7,0,1.4-0.7,1.7
			c-0.7,0.3-1.4,0-1.7-0.7c-0.3-0.7-0.9-0.9-1.5-1c-0.8-0.1-1.7-0.1-2.4,0.3c-0.3,0.2-0.3,0.3,0,0.5c0.5,0.2,0.9,0.4,1.4,0.5
			c1.2,0.3,2.3,0.4,3.4,1c1.3,0.6,2,1.7,1.9,3c-0.1,1-0.6,1.7-1.4,2.2C36.7,28.6,35.5,28.8,34.3,28.8z"/>
	</g>
</g>
</svg>
