<?xml version="1.0" encoding="utf-8"?>
<!-- Generator: Adobe Illustrator 26.0.1, SVG Export Plug-In . SVG Version: 6.00 Build 0)  -->
<svg version="1.1" id="Layer_1" xmlns="http://www.w3.org/2000/svg" xmlns:xlink="http://www.w3.org/1999/xlink" x="0px" y="0px"
	 viewBox="0 0 65 65" style="enable-background:new 0 0 65 65;" xml:space="preserve">
<style type="text/css">
	.st0{fill:url(#SVGID_1_);}
	.st1{fill:#FFFFFF;}
</style>
<linearGradient id="SVGID_1_" gradientUnits="userSpaceOnUse" x1="1.8445" y1="-5547.7832" x2="62.8085" y2="-5594.3545" gradientTransform="matrix(1 0 0 -1 0 -5538.7095)">
	<stop  offset="0.1904" style="stop-color:#59D86E"/>
	<stop  offset="1" style="stop-color:#19994C"/>
</linearGradient>
<path class="st0" d="M46.6,65H18.4C8.2,65,0,56.8,0,46.6V18.4C0,8.2,8.2,0,18.4,0h28.3C56.8,0,65,8.2,65,18.4v28.3
	C65,56.8,56.8,65,46.6,65z"/>
<path class="st1" d="M41.3,27.4c0,2-1.6,3.7-3.7,3.7c-2,0-3.7-1.6-3.7-3.7s1.6-3.7,3.7-3.7C39.7,23.7,41.3,25.3,41.3,27.4z
	 M41.3,37.4c-0.1,2.3-0.7,4.6-1.7,6.7c-2,3.7-5.8,6-10,5.9h-1.5v-8c0-2.8-2.3-5.1-5.1-5.1h-8v-1.5c0-4.2,2.2-8,5.9-10
	c2.1-1,4.4-1.6,6.7-1.7c4.3-5.6,11-8.8,18-8.8l0,0c2.4,0,4.4,1.9,4.4,4.4c0,0,0,0,0,0C50.1,26.4,46.9,33.1,41.3,37.4z M18,33.9h3.3
	c1.1-2.4,2.4-4.7,3.8-7c-1,0.2-2,0.6-2.9,1.1C20,29.2,18.4,31.4,18,33.9z M38,39.8c-2.2,1.5-4.5,2.7-7,3.8V47
	c2.5-0.4,4.7-1.9,5.9-4.2C37.4,41.8,37.8,40.9,38,39.8L38,39.8z M47.1,19.3c0-0.8-0.7-1.4-1.5-1.4c-7.5,0.2-12.6,3.1-17.6,10
	c-1.4,2-2.6,4.1-3.6,6.2c3.3,0.6,5.8,3.2,6.4,6.4c2.2-1,4.3-2.2,6.2-3.6C44,32,46.9,26.9,47.1,19.3z M23.9,41.1
	c1.7,1.7,1.7,4.5,0,6.2c-1.3,1.3-5.3,2.1-6.9,2.4l-2.1,0.4l0.4-2.1c0.3-1.6,1.1-5.6,2.4-6.9C19.5,39.4,22.2,39.4,23.9,41.1z
	 M22.3,44.2c0-0.4-0.2-0.8-0.4-1c-0.6-0.6-1.5-0.6-2.1,0c-0.6,1-0.9,2.1-1.2,3.2c1.1-0.2,2.2-0.6,3.2-1.2
	C22.1,44.9,22.3,44.6,22.3,44.2z"/>
</svg>
