<?xml version="1.0" encoding="utf-8"?>
<!-- Generator: Adobe Illustrator 26.0.1, SVG Export Plug-In . SVG Version: 6.00 Build 0)  -->
<svg version="1.1" id="Layer_1" xmlns="http://www.w3.org/2000/svg" xmlns:xlink="http://www.w3.org/1999/xlink" x="0px" y="0px"
	 viewBox="0 0 65 65" style="enable-background:new 0 0 65 65;" xml:space="preserve">
<style type="text/css">
	.st0{fill:url(#SVGID_1_);}
	.st1{fill:#FFFFFF;}
</style>
<linearGradient id="SVGID_1_" gradientUnits="userSpaceOnUse" x1="1.8443" y1="6256.4448" x2="62.8083" y2="6303.0161" gradientTransform="matrix(1 0 0 1 0 -6247.3711)">
	<stop  offset="0.1904" style="stop-color:#59D86E"/>
	<stop  offset="1" style="stop-color:#19994C"/>
</linearGradient>
<path class="st0" d="M46.6,65H18.4C8.2,65,0,56.8,0,46.6V18.4C0,8.2,8.2,0,18.4,0h28.3C56.8,0,65,8.2,65,18.4v28.3
	C65,56.8,56.8,65,46.6,65z"/>
<g>
	<g>
		<path class="st1" d="M53.8,17.8c0,8,0,16,0,24c0,0-0.1,0.1-0.1,0.1c-0.2,1.2-0.9,2.1-1.9,2.7c-0.7,0.4-1.4,0.5-2.1,0.5
			c-3.9,0-7.8,0-11.7,0c-0.2,0-0.4,0-0.6,0c0,1.6,0,3.1,0,4.7c0,0,0.1,0.1,0.1,0.1c0.5,0,1,0,1.5,0c0.2,0,0.5,0,0.7,0.1
			c0.6,0.2,0.9,0.8,0.8,1.3c-0.1,0.6-0.6,1.1-1.3,1.1c-4.5,0-9,0-13.4,0c-0.3,0-0.6-0.1-0.8-0.2c-0.5-0.3-0.7-0.8-0.5-1.3
			c0.1-0.5,0.6-0.9,1.1-0.9c0.6,0,1.3,0,1.9,0c0-1.6,0-3.2,0-4.7c-0.2,0-0.4,0-0.6,0c-3.9,0-7.8,0-11.6,0c-0.4,0-0.8,0-1.2-0.1
			c-1.8-0.5-2.9-1.9-2.9-3.7c0-7.6,0-15.3,0-22.9c0-0.6,0.1-1.2,0.4-1.7c0.7-1.5,2-2.1,3.6-2.2c5.7,0,11.3,0,17,0
			c5.8,0,11.7,0,17.5,0c1.4,0,2.5,0.4,3.3,1.5C53.4,16.5,53.5,17.2,53.8,17.8z M51.3,36.9c0-0.2,0-0.3,0-0.5c0-6,0-12,0-18
			c0-1.1-0.5-1.5-1.5-1.5c-11.5,0-23,0-34.5,0c-1.1,0-1.5,0.5-1.5,1.5c0,6,0,12,0,18c0,0.1,0,0.3,0,0.5
			C26.3,36.9,38.7,36.9,51.3,36.9z M13.7,39.5c0,0.5,0,1,0,1.5c0,1.2,0.4,1.6,1.6,1.6c11.5,0,22.9,0,34.4,0c0.2,0,0.4,0,0.6,0
			c0.5-0.1,1-0.5,1-1c0.1-0.7,0-1.4,0-2.1C38.7,39.5,26.3,39.5,13.7,39.5z M30.1,49.8c1.6,0,3.2,0,4.8,0c0-1.6,0-3.1,0-4.7
			c-1.6,0-3.2,0-4.8,0C30.1,46.7,30.1,48.2,30.1,49.8z"/>
		<path class="st1" d="M23,27.8c1.1,0.8,2.2,1.5,3.3,2.3c0.4,0.3,0.7,0.7,0.6,1.2c-0.1,0.5-0.4,0.8-0.8,1c-0.4,0.1-0.8,0.1-1.1-0.2
			c-1.6-1.1-3.2-2.2-4.8-3.3c-0.8-0.6-0.8-1.5,0-2.1c1.6-1.1,3.2-2.2,4.8-3.3c0.6-0.4,1.4-0.3,1.8,0.3c0.4,0.6,0.3,1.3-0.3,1.7
			c-1,0.7-2,1.4-3,2C23.3,27.6,23.2,27.7,23,27.8z"/>
		<path class="st1" d="M42,27.8c-1-0.7-2-1.4-3-2c-0.2-0.1-0.4-0.3-0.6-0.4C38,25,38,24.3,38.3,23.8c0.3-0.5,1-0.7,1.5-0.4
			c0.1,0.1,0.3,0.2,0.4,0.3c1.5,1,3,2,4.4,3c1,0.7,1,1.7,0,2.4c-1.5,1-3,2.1-4.6,3.1c-0.9,0.6-1.9,0.2-2-0.7c-0.1-0.6,0.2-1,0.6-1.3
			c0.9-0.6,1.9-1.3,2.8-1.9C41.7,28,41.8,28,42,27.8z"/>
		<path class="st1" d="M35,22.1c0.9,0,1.5,0.9,1.1,1.7c0,0.1-0.1,0.2-0.2,0.3c-1.6,2.8-3.2,5.7-4.8,8.5c-0.4,0.7-0.9,0.9-1.5,0.8
			c-0.7-0.2-1.1-1-0.9-1.7c0-0.1,0.1-0.2,0.2-0.3c1.6-2.8,3.2-5.7,4.8-8.5C34.1,22.5,34.4,22.1,35,22.1z"/>
	</g>
</g>
</svg>
