<?xml version="1.0" encoding="utf-8"?>
<!-- Generator: Adobe Illustrator 26.0.1, SVG Export Plug-In . SVG Version: 6.00 Build 0)  -->
<svg version="1.1" id="Layer_1" xmlns="http://www.w3.org/2000/svg" xmlns:xlink="http://www.w3.org/1999/xlink" x="0px" y="0px"
	 viewBox="0 0 65 65" style="enable-background:new 0 0 65 65;" xml:space="preserve">
<style type="text/css">
	.st0{fill:url(#SVGID_1_);}
	.st1{fill:#FFFFFF;}
</style>
<linearGradient id="SVGID_1_" gradientUnits="userSpaceOnUse" x1="1.8445" y1="-5547.7832" x2="62.8085" y2="-5594.3545" gradientTransform="matrix(1 0 0 -1 0 -5538.7095)">
	<stop  offset="0.1904" style="stop-color:#59D86E"/>
	<stop  offset="1" style="stop-color:#19994C"/>
</linearGradient>
<path class="st0" d="M46.6,65H18.4C8.2,65,0,56.8,0,46.6V18.4C0,8.2,8.2,0,18.4,0h28.3C56.8,0,65,8.2,65,18.4v28.3
	C65,56.8,56.8,65,46.6,65z"/>
<g>
	<g>
		<path class="st1" d="M13.1,20.9c0.1-0.4,0.2-0.8,0.4-1.2c0.4-1.2,1.6-2.4,3.5-2.3c9.4,0,18.8,0,28.2,0c2.3,0,3.7,1.8,3.9,3.6
			c0,0.3,0,0.6,0,0.9c0,5.2,0,10.3,0,15.5c0,0.2,0.1,0.5,0.2,0.6c0.9,0.8,0.8,2.1,0,2.7c0,0,0,0.1-0.1,0.1c0.2,0.4,0.3,0.8,0.5,1.2
			c0,0.1,0.2,0.2,0.3,0.2c1.1,0.1,1.7,0.8,1.7,1.9c0,0.4,0,0.8,0,1.2c0,1-0.7,1.7-1.7,1.7c-0.3,0-0.4,0.1-0.4,0.3
			c0,0.1,0,0.2-0.1,0.2c-0.3,0.5-0.4,0.9,0.1,1.4c0.5,0.5,0.3,1.4-0.2,2c-0.4,0.4-0.7,0.8-1.1,1.1c-0.7,0.6-1.6,0.6-2.3,0
			c-0.2-0.2-0.4-0.2-0.6-0.1c0,0,0,0,0,0c-0.6,0.2-1.1,0.4-1.2,1.2c-0.1,0.7-0.8,1.1-1.5,1.2c-0.5,0-0.9,0-1.4,0
			c-0.9,0-1.7-0.7-1.7-1.6c0-0.3-0.1-0.4-0.4-0.5c-0.6-0.2-1-0.5-1.6,0.1c-0.5,0.5-1.4,0.3-1.9-0.2c-0.4-0.4-0.8-0.7-1.1-1.1
			c-0.6-0.7-0.6-1.6,0-2.3c0.2-0.2,0.2-0.4,0.1-0.6c-0.1-0.1-0.1-0.3-0.2-0.5c-0.2-0.6-0.2-0.6-0.8-0.6c-1.9,0-3.8,0-5.7,0
			c-0.5,0-0.8-0.2-0.9-0.6c-0.1-0.5,0.3-0.9,0.8-0.9c1.3,0,2.6,0,3.9,0c0.1,0,0.3,0,0.5,0c0-0.5,0-0.9,0-1.4c0-1.2,0.6-1.8,1.8-1.9
			c0.1,0,0.3-0.1,0.3-0.2c0.2-0.4,0.3-0.7,0.5-1.1c-0.1-0.1-0.2-0.2-0.3-0.3c-0.6-0.7-0.6-1.6,0-2.3c0.3-0.4,0.7-0.7,1-1
			c0.7-0.7,1.7-0.7,2.4,0c0.2,0.2,0.3,0.2,0.6,0.1c0.1-0.1,0.2-0.1,0.2-0.1c0.5-0.1,0.9-0.4,0.9-1c0.1-0.7,0.7-1.2,1.4-1.2
			c0.5,0,1.1,0,1.6,0c1,0,1.6,0.7,1.7,1.6c0,0.3,0.1,0.4,0.3,0.4c0.3,0.1,0.6,0.3,0.9,0.4c0.1,0,0.3,0,0.3,0
			c0.4-0.4,0.9-0.6,1.5-0.5c0-2.5,0-5.1,0-7.7c-10.9,0-21.9,0-32.9,0c0,0.1,0,0.3,0,0.4c0,4.4,0,8.8,0,13.2c0,0.5,0.1,1,0.3,1.4
			c0.4,0.9,1,1.4,2.1,1.4c1.3,0,2.7,0,4,0c0.6,0,0.9,0.3,0.9,0.8c0,0.5-0.4,0.8-0.9,0.8c-1.3,0-2.6,0-3.9,0
			c-2.3,0.1-3.6-1.7-3.9-3.3c0-0.1,0-0.2-0.1-0.2C13.1,35.9,13.1,28.4,13.1,20.9z M14.7,27.4c11,0,21.9,0,32.9,0c0-0.3,0-0.6,0-1
			c0-1.7,0-3.5,0-5.2c0-1.5-1-2.4-2.5-2.4c-1.2,0-2.5,0-3.7,0c-8.1,0-16.3,0-24.4,0c-0.7,0-1.3,0.2-1.7,0.8
			c-0.4,0.6-0.6,1.2-0.6,1.9c0,1.8,0,3.7,0,5.5C14.7,27.1,14.7,27.3,14.7,27.4z M48.5,49.7c-0.1-0.1-0.1-0.2-0.2-0.2
			c-0.1-0.1-0.3-0.3-0.4-0.4c-0.4-0.4-0.4-0.6-0.1-1.1c0.3-0.6,0.5-1.1,0.7-1.7c0.2-0.7,0.4-0.8,1.1-0.8c0.9,0,0.8,0.1,0.8-0.8
			c0-0.9,0-0.9-0.9-0.9c-0.5,0-0.7-0.2-0.9-0.7c-0.2-0.6-0.4-1.2-0.7-1.7c-0.3-0.6-0.3-0.8,0.2-1.3c0.6-0.6,0.6-0.6,0-1.2
			c-0.6-0.6-0.6-0.6-1.3,0c-0.4,0.4-0.7,0.4-1.2,0.2c-0.6-0.3-1.2-0.5-1.8-0.7c-0.5-0.2-0.7-0.4-0.7-1c0-0.8,0-0.8-0.8-0.8
			c-0.9,0-0.9,0-0.9,0.9c0,0.6-0.2,0.8-0.7,0.9c-0.6,0.2-1.2,0.4-1.7,0.7c-0.6,0.3-0.8,0.3-1.3-0.2c-0.7-0.7-0.5-0.7-1.2,0
			c-0.6,0.6-0.6,0.6,0,1.3c0.4,0.4,0.4,0.7,0.2,1.2c-0.3,0.6-0.5,1.1-0.7,1.7c-0.2,0.5-0.4,0.7-1,0.7c-0.9,0-0.9,0-0.9,0.9
			c0,1-0.1,0.9,0.9,0.9c0.6,0,0.8,0.2,1,0.7c0.2,0.6,0.4,1.1,0.7,1.7c0.3,0.6,0.3,0.8-0.2,1.3c-0.7,0.7-0.6,0.5,0,1.1
			c0.6,0.7,0.7,0.7,1.3,0c0.4-0.4,0.6-0.4,1.1-0.2c0.6,0.3,1.1,0.5,1.7,0.7c0.7,0.2,0.8,0.4,0.8,1.1c0,0.9-0.1,0.8,0.8,0.8
			c1,0,1,0,1-0.9c0,0,0-0.1,0-0.1c0-0.4,0.2-0.6,0.6-0.8c0.7-0.3,1.4-0.5,2-0.8c0.4-0.2,0.7-0.1,1,0.1c0.2,0.2,0.3,0.3,0.5,0.5
			c0.1,0.1,0.3,0.2,0.4,0c0.3-0.3,0.6-0.6,0.8-0.8C48.4,49.8,48.4,49.7,48.5,49.7z"/>
		<path class="st1" d="M30.2,37.2c-0.6-0.6-1.1-1.3-1.7-1.9c-0.1-0.1-0.2-0.2-0.2-0.3c-0.2-0.3-0.2-0.7,0.1-1c0.3-0.3,0.7-0.3,1,0
			c0.8,0.8,1.5,1.7,2.3,2.6c0.3,0.4,0.3,0.9,0,1.3c-0.7,0.8-1.4,1.6-2.2,2.4c-0.3,0.3-0.8,0.3-1.1,0.1c-0.3-0.3-0.3-0.7,0-1.1
			c0.5-0.5,0.9-1.1,1.4-1.6C29.9,37.5,30,37.3,30.2,37.2z"/>
		<path class="st1" d="M19.1,37.2c0.6,0.7,1.2,1.3,1.7,1.9c0.1,0.1,0.2,0.3,0.3,0.4c0.1,0.3,0,0.7-0.3,0.9c-0.3,0.2-0.7,0.2-0.9,0
			c-0.8-0.9-1.6-1.7-2.3-2.6c-0.3-0.4-0.2-0.9,0.1-1.2c0.7-0.8,1.4-1.6,2.2-2.4c0.3-0.3,0.8-0.3,1.1-0.1c0.3,0.3,0.3,0.7,0,1.1
			c-0.5,0.5-1,1.1-1.4,1.6C19.4,36.8,19.3,37,19.1,37.2z"/>
		<path class="st1" d="M26.2,34.1c-0.2,0.7-0.3,1.4-0.5,2.1c-0.3,1.4-0.6,2.7-1,4.1c0,0.1,0,0.1-0.1,0.2c-0.1,0.4-0.5,0.6-0.9,0.5
			c-0.4-0.1-0.6-0.5-0.6-0.9c0.2-0.9,0.4-1.8,0.6-2.6c0.3-1.2,0.6-2.4,0.8-3.6c0.1-0.5,0.4-0.7,0.8-0.7
			C25.9,33.2,26.2,33.6,26.2,34.1z"/>
		<path class="st1" d="M24.6,45.4c0.4,0,0.8,0.3,0.8,0.8c0,0.4-0.3,0.7-0.7,0.7c-0.4,0-0.8-0.3-0.8-0.8
			C23.8,45.7,24.2,45.4,24.6,45.4z"/>
		<path class="st1" d="M39.2,25.7c-1.1,0-2.3,0-3.4,0c-1.3,0-2.3-1-2.5-2.3c-0.1-1.2,0.7-2.4,1.9-2.7c0.2-0.1,0.5-0.1,0.7-0.1
			c2.2,0,4.5,0,6.7,0c1.1,0,1.9,0.5,2.4,1.5c0.4,1,0.3,1.9-0.4,2.7c-0.5,0.6-1.2,0.9-2,0.9C41.4,25.7,40.3,25.7,39.2,25.7
			C39.2,25.7,39.2,25.7,39.2,25.7z M39.2,22.1c-1.1,0-2.2,0-3.3,0c-0.6,0-1.1,0.5-1.1,1c0,0.6,0.4,1,1.1,1c2.2,0,4.4,0,6.6,0
			c0.4,0,0.8-0.2,1-0.6c0.4-0.7-0.1-1.5-1-1.5C41.4,22.1,40.3,22.1,39.2,22.1z"/>
		<path class="st1" d="M29.4,23.2c0,1.4-1.2,2.6-2.6,2.6c-1.4,0-2.5-1.2-2.5-2.6c0-1.4,1.2-2.6,2.6-2.6
			C28.3,20.6,29.4,21.8,29.4,23.2z M27.9,23.2c0-0.6-0.5-1-1-1c-0.6,0-1,0.4-1,1c0,0.6,0.4,1,1,1.1C27.4,24.2,27.9,23.7,27.9,23.2z"
			/>
		<path class="st1" d="M22.8,23.2c0,1.4-1.2,2.6-2.6,2.6c-1.4,0-2.5-1.2-2.5-2.6c0-1.4,1.1-2.5,2.5-2.6
			C21.6,20.6,22.8,21.8,22.8,23.2z M20.2,22.1c-0.6,0-1,0.5-1,1c0,0.5,0.5,1,1,1c0.6,0,1-0.5,1-1C21.2,22.6,20.8,22.1,20.2,22.1z"/>
		<path class="st1" d="M42.1,39.9c2.6,0,4.7,2.1,4.7,4.7c0,2.6-2.1,4.7-4.7,4.7c-2.5,0-4.6-2.1-4.6-4.6
			C37.5,41.9,39.5,39.9,42.1,39.9z M39,44.5c0,1.7,1.4,3.1,3.1,3.1c1.7,0,3.2-1.4,3.2-3.1c0-1.7-1.4-3.1-3.1-3.1
			C40.4,41.4,39,42.8,39,44.5z"/>
	</g>
</g>
</svg>
