<?xml version="1.0" encoding="utf-8"?>
<!-- Generator: Adobe Illustrator 26.0.1, SVG Export Plug-In . SVG Version: 6.00 Build 0)  -->
<svg version="1.1" id="Layer_1" xmlns="http://www.w3.org/2000/svg" xmlns:xlink="http://www.w3.org/1999/xlink" x="0px" y="0px"
	 viewBox="0 0 65 65" style="enable-background:new 0 0 65 65;" xml:space="preserve">
<style type="text/css">
	.st0{fill:url(#SVGID_1_);}
	.st1{fill:#FFFFFF;}
</style>
<linearGradient id="SVGID_1_" gradientUnits="userSpaceOnUse" x1="1.8443" y1="6256.4448" x2="62.8083" y2="6303.0161" gradientTransform="matrix(1 0 0 1 0 -6247.3711)">
	<stop  offset="0.1904" style="stop-color:#59D86E"/>
	<stop  offset="1" style="stop-color:#19994C"/>
</linearGradient>
<path class="st0" d="M46.6,65H18.4C8.2,65,0,56.8,0,46.6V18.4C0,8.2,8.2,0,18.4,0h28.3C56.8,0,65,8.2,65,18.4v28.3
	C65,56.8,56.8,65,46.6,65z"/>
<path class="st1" d="M43.9,14.6H21.1c-4.5,0-8.1,3.6-8.1,8.1v19.5c0,4.5,3.6,8.1,8.1,8.1h22.7c4.5,0,8.1-3.6,8.1-8.1V22.8
	C52,18.3,48.3,14.6,43.9,14.6z M48.7,24.4h-6.3l5-5c0.8,0.9,1.3,2.1,1.3,3.4C48.7,22.8,48.7,24.4,48.7,24.4z M44.3,17.9l-6.4,6.4
	c0,0,0,0,0,0h-5.6l6.5-6.5h5.1C44,17.9,44.1,17.9,44.3,17.9z M34.2,17.9L28.1,24c-0.1,0.1-0.2,0.2-0.3,0.4h-5.7l6.5-6.5H34.2z
	 M21.1,17.9H24l-6.5,6.5h-1.3v-1.6C16.3,20.1,18.5,17.9,21.1,17.9z M43.9,47.1H21.1c-2.7,0-4.9-2.2-4.9-4.9V27.6h32.5v14.6
	C48.7,44.9,46.5,47.1,43.9,47.1z M37.4,38.7l-7.5,4c-1,0.6-2.3-0.1-2.3-1.3v-8.1c0-1.2,1.3-1.9,2.3-1.3l7.5,4
	C38.4,36.7,38.4,38.1,37.4,38.7L37.4,38.7z"/>
</svg>
