<?xml version="1.0" encoding="utf-8"?>
<!-- Generator: Adobe Illustrator 26.0.1, SVG Export Plug-In . SVG Version: 6.00 Build 0)  -->
<svg version="1.1" id="Layer_1" xmlns="http://www.w3.org/2000/svg" xmlns:xlink="http://www.w3.org/1999/xlink" x="0px" y="0px"
	 viewBox="0 0 65 65" style="enable-background:new 0 0 65 65;" xml:space="preserve">
<style type="text/css">
	.st0{fill:url(#SVGID_1_);}
	.st1{fill:#FFFFFF;}
</style>
<linearGradient id="SVGID_1_" gradientUnits="userSpaceOnUse" x1="1.8445" y1="-5547.7832" x2="62.8085" y2="-5594.3545" gradientTransform="matrix(1 0 0 -1 0 -5538.7095)">
	<stop  offset="0.1904" style="stop-color:#59D86E"/>
	<stop  offset="1" style="stop-color:#19994C"/>
</linearGradient>
<path class="st0" d="M46.6,65H18.4C8.2,65,0,56.8,0,46.6V18.4C0,8.2,8.2,0,18.4,0h28.3C56.8,0,65,8.2,65,18.4v28.3
	C65,56.8,56.8,65,46.6,65z"/>
<g>
	<g>
		<path class="st1" d="M50.6,46.4c-0.2,0.4-0.2,0.9-0.5,1.2c-0.7,1.2-1.8,1.9-3.2,1.9c-3.2,0-6.5,0-9.7,0c-6.3,0-12.7,0-19,0
			c-1.8,0-3.3-1.1-3.6-2.8c-0.1-0.6-0.1-1.3-0.1-2c0-0.3,0.2-0.5,0.5-0.5c0.3,0,0.6,0,0.9,0c0-0.2,0-0.3,0-0.4c0-6.1,0-12.1,0-18.2
			c0-1.8,1.2-3.2,3-3.5c0.2,0,0.4,0,0.6,0c1,0,2,0,3.1,0c0.5,0,0.8,0.2,0.8,0.5c0,0.3-0.3,0.5-0.8,0.5c-1,0-2,0-3.1,0
			c-1.5,0-2.5,1-2.5,2.5c0,6.1,0,12.2,0,18.3c0,0.1,0,0.2,0,0.3c0.2,0,0.3,0,0.4,0c3.7,0,7.4,0,11.1,0c0.6,0,1,0.2,1.3,0.7
			c0.2,0.3,0.4,0.4,0.8,0.4c1.3,0,2.7,0,4,0c0.3,0,0.6-0.1,0.8-0.4c0.3-0.5,0.7-0.7,1.3-0.7c3.7,0,7.4,0,11.2,0c0.1,0,0.3,0,0.5,0
			c0-0.2,0-0.3,0-0.4c0-6,0-12.1,0-18.1c0-1.6-1-2.6-2.6-2.6c-1.2,0-2.3,0-3.5,0c-0.1,0-0.2,0-0.4,0c-0.3-0.1-0.4-0.3-0.4-0.5
			c0-0.3,0.2-0.5,0.5-0.5c1.5,0,3-0.1,4.4,0c1.8,0.2,3,1.7,3,3.5c0,6,0,12.1,0,18.1c0,0.1,0,0.3,0,0.4c0.5,0.2,1.1-0.2,1.4,0.4
			C50.6,45.2,50.6,45.8,50.6,46.4z M49.5,45.3c-0.1,0-0.2,0-0.3,0c-4.2,0-8.5,0-12.7,0c-0.2,0-0.3,0.1-0.5,0.2
			c-0.4,0.5-0.9,0.8-1.6,0.8c-1.4,0-2.7,0-4.1,0c-0.7,0-1.2-0.3-1.6-0.8c-0.1-0.2-0.3-0.3-0.5-0.3c-4.2,0-8.3,0-12.5,0
			c-0.1,0-0.2,0-0.3,0c-0.2,1.8,0.9,3.1,2.7,3.1c9.5,0,19.1,0,28.6,0C48.6,48.4,49.7,47.1,49.5,45.3z"/>
		<path class="st1" d="M19.1,41.9c2.6,0,5.1,0,7.7,0c0-0.7,0-1.5,0-2.2c0-1.1,0.4-2,1.1-2.8c0.2-0.2,0.4-0.4,0.6-0.6
			c0.2-0.2,0.2-0.3,0.1-0.6c-1.2-2.2-0.3-5,2-6.1c2.3-1.1,5,0,5.9,2.3c0,0.1,0.1,0.2,0.1,0.4c0,0.3-0.1,0.5-0.4,0.5
			c-0.2,0-0.4-0.1-0.6-0.2c-0.1-0.1-0.1-0.2-0.2-0.4c-0.7-1.5-2.3-2.3-3.8-1.9c-1.6,0.4-2.6,1.8-2.5,3.5c0.1,1.5,1.3,2.8,2.8,3.1
			c1.6,0.2,3.2-0.7,3.7-2.2c0.2-0.5,0.4-0.7,0.7-0.6c0.4,0.1,0.4,0.4,0.3,1c-0.1,0.1-0.1,0.3-0.2,0.4c-0.3,0.5-0.3,0.5,0.2,1
			c1,1,1.5,2.2,1.5,3.6c0,0.6,0,1.2,0,1.8c2.6,0,5.1,0,7.7,0c0-0.1,0-0.3,0-0.4c0-5.2,0-10.5,0-15.7c0-0.5,0-0.5-0.5-0.5
			c-1.2,0-2.4,0-3.6,0c-0.3,0-0.5-0.1-0.6-0.4c-0.1-0.3,0.1-0.5,0.3-0.6c0.1,0,0.2,0,0.3,0c1.2,0,2.5,0,3.7,0c0.8,0,1.3,0.5,1.3,1.3
			c0,5.6,0,11.2,0,16.8c0,0.5-0.2,0.7-0.7,0.7c-2.1,0-4.2,0-6.3,0c-7,0-14,0-21,0c-0.7,0-0.9-0.1-0.9-0.9c0-0.7,0-1.3,0-2
			c0-0.4,0.2-0.7,0.5-0.7c0.3,0,0.5,0.2,0.5,0.7C19.1,40.7,19.1,41.3,19.1,41.9z M35.5,36.9c-2,1.6-4,1.6-6.1,0
			c-0.7,0.6-1.3,1.2-1.5,2.2c-0.1,0.9-0.1,1.9-0.1,2.9c3.1,0,6.2,0,9.2,0c0-0.6,0-1.2,0-1.9C37.2,38.7,36.5,37.7,35.5,36.9z"/>
		<path class="st1" d="M32.2,28.1c-1.8,0-3.7,0-5.5,0c-1.4,0-2.4-1-2.4-2.4c0-1.5,0-2.9,0-4.4c0-0.4,0.3-0.7,0.6-0.6
			c0.3,0.1,0.4,0.3,0.4,0.6c0,1.4,0,2.9,0,4.3c0,1,0.5,1.5,1.5,1.5c3.6,0,7.2,0,10.9,0c1,0,1.4-0.5,1.4-1.4c0-2.5,0-5.1,0-7.6
			c0-1-0.5-1.4-1.5-1.4c-3.6,0-7.2,0-10.9,0c-1,0-1.4,0.5-1.4,1.5c0,0.3,0,0.6,0,0.8c0,0.4-0.2,0.6-0.5,0.6c-0.3,0-0.5-0.2-0.5-0.6
			c0-0.5,0-1,0.1-1.5c0.2-1.1,1.1-1.8,2.2-1.8c3.8,0,7.6,0,11.3,0c1.2,0,2.1,0.9,2.3,2.1c0,0.1,0,0.2,0,0.4c0,2.6,0,5.2,0,7.7
			c0,1.2-0.7,2.1-1.8,2.4c-0.2,0-0.4,0-0.6,0C35.9,28.1,34,28.1,32.2,28.1z"/>
		<path class="st1" d="M18.1,31.6c0-2,0-3.9,0-5.9c0-0.9,0.5-1.4,1.4-1.4c1,0,2,0,3,0c0.5,0,0.8,0.2,0.8,0.5c0,0.3-0.3,0.5-0.8,0.5
			c-1,0-2,0-2.9,0c-0.3,0-0.4,0.1-0.4,0.4c0,3.9,0,7.8,0,11.7c0,0.1,0,0.2,0,0.3c0,0.3-0.2,0.5-0.5,0.5c-0.3,0-0.5-0.2-0.5-0.6
			c0-0.9,0-1.9,0-2.8C18.1,33.8,18.1,32.7,18.1,31.6z"/>
		<path class="st1" d="M30.9,18.5c0.2,0.1,0.5,0.1,0.7,0.3c1.1,0.6,2.1,1.2,3.1,1.8c1,0.6,1,1.8,0,2.5c-1,0.6-2.1,1.2-3.1,1.8
			c-1,0.6-2.1-0.1-2.1-1.2c0-1.3,0-2.5,0-3.8C29.5,19.1,30.1,18.5,30.9,18.5z M30.5,21.8c0,0.6,0,1.2,0,1.8c0,0.4,0.2,0.6,0.6,0.4
			c1-0.6,2-1.2,3-1.8c0.4-0.2,0.4-0.5,0-0.7c-1-0.6-2-1.2-3-1.8c-0.4-0.2-0.6-0.1-0.6,0.3C30.5,20.6,30.5,21.2,30.5,21.8z"/>
	</g>
</g>
</svg>
