<svg version="1.2" xmlns="http://www.w3.org/2000/svg" viewBox="0 0 512 512" width="512" height="512">
	<title>user-svg</title>
	<style>
		.s0 { fill: #585b5e } 
	</style>
	<path id="Layer" fill-rule="evenodd" class="s0" d="m128 128c0-70.7 57.3-128 128-128 70.7 0 128 57.3 128 128 0 70.7-57.3 128-128 128-70.7-0.1-127.9-57.3-128-128zm42.7 0c0 47.1 38.2 85.3 85.3 85.3 47.1 0 85.3-38.2 85.3-85.3 0-47.1-38.2-85.3-85.3-85.3-47.1 0-85.3 38.2-85.3 85.3z"/>
	<path id="Layer" class="s0" d="m256 298.7c-106 0.1-191.9 86-192 192 0 11.8 9.6 21.3 21.3 21.3 11.7 0 21.3-9.6 21.3-21.3 0-82.5 66.9-149.3 149.3-149.3 82.4 0 149.3 66.9 149.3 149.3 0 11.8 9.6 21.3 21.3 21.3 11.8 0 21.3-9.6 21.3-21.3 0.1-106-85.8-191.9-191.8-192z"/>
</svg>