<?xml version="1.0" encoding="utf-8"?>
<!-- Generator: Adobe Illustrator 26.0.1, SVG Export Plug-In . SVG Version: 6.00 Build 0)  -->
<svg version="1.1" id="Outline" xmlns="http://www.w3.org/2000/svg" xmlns:xlink="http://www.w3.org/1999/xlink" x="0px" y="0px"
	 viewBox="0 0 688 561.8" style="enable-background:new 0 0 688 561.8;" xml:space="preserve">
<g>
	<path d="M671.2,219c-0.5-1.3-1-2.5-1.4-3.8c-1-2.8-2.1-5.8-3.5-8.6c-6.7-13.8-18.4-22-35.8-25.1v-4.7c0-5.8,0-11.6,0-17.5
		c0-12.6,0.1-25.6-0.1-38.4c-0.3-26.9-10.6-51.8-28.9-70.2c-18.4-18.4-43.1-28.6-69.7-28.6C389.3,22,249,22,114.8,22.2
		c-26.4,0-51.1,10.3-69.5,28.8c-18.4,18.5-28.6,43.3-28.6,69.7c-0.1,96.2-0.1,197.9,0,320.1c0,7.2,0.7,14,1.9,20.1
		c4.8,23,16.8,42.7,34.5,56.9c17.7,14.3,39.6,21.8,63.3,21.8c60.2,0,121,0,181.3,0c39.9,0,79.7,0,118.9,0l114.3,0c0.7,0,1.3,0,2,0
		c45.4-0.6,84.3-31.7,94.6-75.5c2.2-9.3,2.6-19,2.8-26.3c0.3-14.4,0.2-28.8,0.2-42.7c0-4.9,0-9.8,0-14.6c1.8-0.7,3.7-1.4,5.4-2.1
		c5.2-2,10-3.8,14.7-6.4c12.8-7,17.6-19.5,20.7-30.9l0.1-0.4V219.5L671.2,219z M590.7,162.3c-0.1,6.2-0.1,12.5-0.1,18.8
		c0,0.1,0,0.2,0,0.4h-5.8c-18.4,0-36.8,0-55.2,0c-42.1,0-85.7-0.1-128.6,0.1c-46.5,0.2-84.4,30-94.3,74.3
		c-6.7,29.8-1.6,58.9,14.4,82c15.1,21.9,39,36.5,65.7,40.3c5.7,0.8,11.4,0.9,16.8,0.9c47.8,0,96.3,0,143.3,0l43.6,0
		c0.1,1.2,0.2,2.4,0.2,3.6l0,12.2c0,14.3,0.1,29,0,43.6c-0.2,35.7-25.2,60.6-60.8,60.6c-131.3,0.1-270.1,0.1-412.6,0
		c-35.7,0-60.6-24.9-60.7-60.6c0-99.4,0-202.7,0-315.7c0-35.1,25.3-60.7,60.1-60.7c66.8-0.1,135.3-0.1,204.8-0.1
		c68.8,0,138.7,0,209.1,0.1c33.4,0,58.6,24,59.9,57.1C590.9,133.5,590.8,148.1,590.7,162.3z M477.6,340.1c-24.6,0-50.1,0.1-75.2-0.1
		c-28.9-0.1-51.4-18.1-57.5-45.7c-4.1-18.6,0-37.2,11.1-51c11.1-13.8,27.7-21.5,46.6-21.5c30.3-0.1,60.9-0.1,91.3-0.1
		c24.6,0,49,0,73.1,0c18.3,0,36.6,0,54.9,0c8.2,0,9.6,1.3,9.6,9.5c0,33,0,65.9,0,98.9c0,8.7-1.2,9.9-9.9,9.9c-26.6,0-53.1,0-79.7,0
		l-31.2,0C499.7,340,488.6,340.1,477.6,340.1z"/>
	<path d="M405.3,249.9c-8.2-0.1-15.8,3-21.6,8.7c-5.7,5.6-8.9,13.2-8.9,21.2c0,8,3.2,15.6,9,21.5c5.7,5.7,13.2,8.9,21.1,8.9
		c0.1,0,0.1,0,0.2,0c17.1-0.1,30.6-13.6,30.6-30.7v0C435.7,262.5,422.9,250.1,405.3,249.9z"/>
</g>
</svg>
