<?xml version="1.0" encoding="utf-8"?>
<!-- Generator: Adobe Illustrator 26.0.1, SVG Export Plug-In . SVG Version: 6.00 Build 0)  -->
<svg version="1.1" id="Layer_1" xmlns="http://www.w3.org/2000/svg" xmlns:xlink="http://www.w3.org/1999/xlink" x="0px" y="0px"
	 viewBox="0 0 65 65" style="enable-background:new 0 0 65 65;" xml:space="preserve">
<style type="text/css">
	.st0{fill:url(#SVGID_1_);}
	.st1{fill:#FFFFFF;}
</style>
<linearGradient id="SVGID_1_" gradientUnits="userSpaceOnUse" x1="1.8445" y1="-5547.7832" x2="62.8085" y2="-5594.3545" gradientTransform="matrix(1 0 0 -1 0 -5538.7095)">
	<stop  offset="0" style="stop-color:#4565EE"/>
	<stop  offset="1" style="stop-color:#1237B7"/>
</linearGradient>
<path class="st0" d="M46.6,65H18.4C8.2,65,0,56.8,0,46.6V18.4C0,8.2,8.2,0,18.4,0h28.3C56.8,0,65,8.2,65,18.4v28.3
	C65,56.8,56.8,65,46.6,65z"/>
<g>
	<g>
		<g>
			<g>
				<path class="st1" d="M17.3,50c-1.5-3.8-3-7.6-4.5-11.4c1.3-0.8,2.5-1.5,3.8-2.3c1.5,3.8,3,7.6,4.5,11.4
					c-0.7,0.4-1.3,0.8-1.9,1.2C18.5,49.3,18,49.6,17.3,50C17.4,50,17.3,50,17.3,50z"/>
				<path class="st1" d="M30.1,36.2c0,0.7,0,1.3,0,1.9c0.1,0,0.3,0,0.4,0c1.8,0,3.5,0,5.3,0c0.7,0,1.4-0.3,2-0.6
					c1.2-0.7,2.4-1.4,3.6-2.1c1.2-0.7,2.5-1.5,3.8-2.2c2-1.1,4.1-1.3,6.3-0.7c0.5,0.1,0.7,0.4,0.8,0.9c0.1,0.4-0.2,0.7-0.5,0.9
					c-5.7,3.6-11.3,7.1-17,10.7c-0.1,0.1-0.3,0.1-0.5,0.1c-3.7,0-7.5,0-11.2,0c-0.2,0-0.3-0.1-0.4-0.3c-1-2.4-1.9-4.9-2.9-7.3
					c0-0.1-0.1-0.3,0-0.4c0.5-1.5,1.3-2.9,2.5-3.9c1.6-1.3,3.4-1.5,5.3-1c0.1,0,0.2,0,0.3,0.1c1.2,0.5,2.4,0.5,3.7,0.5
					c1.2,0,2.4,0,3.6,0c0.9,0,1.6,0.7,1.7,1.5c0.1,0.8-0.4,1.5-1.2,1.8c-0.2,0.1-0.5,0.1-0.7,0.1c-1.4,0-2.9,0-4.3,0
					C30.4,36.2,30.2,36.2,30.1,36.2z"/>
			</g>
		</g>
		<g>
			<g>
				<path class="st1" d="M40.1,28.5c-1.8,0-3.5,0-5.2,0c0,0.2,0,0.5-0.1,0.7c-0.2,0.9-0.9,1.5-1.8,1.5c-0.3,0-0.7,0-1,0
					c-1-0.1-1.6-0.9-1.7-1.9c0-0.1,0-0.2,0-0.4c-0.5-0.1-0.9-0.3-1.2-0.6c-0.4-0.4-0.7-1-0.7-1.6c0-1,0-2,0-3c0-0.8,0.4-1.4,1.1-1.9
					c0.1-0.1,0.2-0.2,0.2-0.3c0.3-1.2,0.7-2.5,1-3.7c0.4-1.4,1.5-2.3,3-2.3c2.5,0,4.9,0,7.4,0c1.5,0,2.6,0.9,3,2.3
					c0.3,1.2,0.7,2.5,1,3.7c0,0.1,0.1,0.3,0.2,0.3c0.7,0.4,1,1.1,1.1,1.9c0,1,0,2,0,2.9c0,1.1-0.6,2-1.7,2.3h-0.1
					c0,0.3,0,0.5-0.1,0.8c-0.2,0.9-0.9,1.5-1.8,1.5c-0.3,0-0.7,0-1,0c-1-0.1-1.6-0.9-1.6-1.9C40.1,28.8,40.1,28.7,40.1,28.5z
					 M37.5,27c2.2,0,4.4,0,6.7,0c0.5,0,0.8-0.3,0.8-0.8c0-0.9,0-1.9,0-2.8c0-0.5-0.3-0.8-0.8-0.8c-4.4,0-8.9,0-13.3,0
					c-0.5,0-0.8,0.3-0.8,0.8c0,0.9,0,1.8,0,2.8c0,0.6,0.3,0.9,0.9,0.9C33.1,27,35.3,27,37.5,27z M43.7,21c-0.3-1.2-0.6-2.3-1-3.5
					c-0.2-0.6-0.8-1-1.5-1c-2.5,0-5,0-7.5,0c-0.8,0-1.3,0.4-1.5,1.2c-0.2,0.6-0.3,1.2-0.5,1.9c-0.1,0.5-0.3,1-0.4,1.4
					C35.5,21,39.5,21,43.7,21z M31.9,28.5c0,0.1,0,0.2,0,0.3c0,0.4,0.1,0.5,0.5,0.5c0.2,0,0.4,0,0.6,0c0.2,0,0.3-0.1,0.4-0.3
					c0-0.1,0-0.3,0-0.4C32.9,28.5,32.4,28.5,31.9,28.5z M43.1,28.5c-0.5,0-1,0-1.5,0c0,0.1,0,0.2,0,0.3c0,0.3,0.1,0.5,0.5,0.5
					c0.2,0,0.4,0,0.6,0c0.2,0,0.4-0.1,0.4-0.4C43.1,28.8,43.1,28.7,43.1,28.5z"/>
				<path class="st1" d="M37.5,24c0.7,0,1.5,0,2.2,0c0.5,0,0.8,0.3,0.8,0.7c0,0.4-0.3,0.8-0.8,0.8c-1.5,0-2.9,0-4.4,0
					c-0.5,0-0.8-0.3-0.8-0.8c0-0.4,0.3-0.7,0.8-0.7C36.1,24,36.8,24,37.5,24z"/>
				<path class="st1" d="M31.9,23.6c0.6,0,1.1,0.5,1.1,1.1s-0.5,1.1-1.1,1.1s-1.1-0.5-1.1-1.1S31.3,23.6,31.9,23.6z"/>
				<path class="st1" d="M44.3,24.8c0,0.6-0.5,1.1-1.1,1.1s-1.1-0.5-1.1-1.1s0.5-1.1,1.1-1.1C43.8,23.6,44.3,24.2,44.3,24.8z"/>
			</g>
		</g>
	</g>
	<g>
		<g>
			<g>
				<path class="st1" d="M17.3,50c-1.5-3.8-3-7.6-4.5-11.4c1.3-0.8,2.5-1.5,3.8-2.3c1.5,3.8,3,7.6,4.5,11.4
					c-0.7,0.4-1.3,0.8-1.9,1.2C18.5,49.3,18,49.6,17.3,50C17.4,50,17.3,50,17.3,50z"/>
				<path class="st1" d="M30.1,36.2c0,0.7,0,1.3,0,1.9c0.1,0,0.3,0,0.4,0c1.8,0,3.5,0,5.3,0c0.7,0,1.4-0.3,2-0.6
					c1.2-0.7,2.4-1.4,3.6-2.1c1.2-0.7,2.5-1.5,3.8-2.2c2-1.1,4.1-1.3,6.3-0.7c0.5,0.1,0.7,0.4,0.8,0.9c0.1,0.4-0.2,0.7-0.5,0.9
					c-5.7,3.6-11.3,7.1-17,10.7c-0.1,0.1-0.3,0.1-0.5,0.1c-3.7,0-7.5,0-11.2,0c-0.2,0-0.3-0.1-0.4-0.3c-1-2.4-1.9-4.9-2.9-7.3
					c0-0.1-0.1-0.3,0-0.4c0.5-1.5,1.3-2.9,2.5-3.9c1.6-1.3,3.4-1.5,5.3-1c0.1,0,0.2,0,0.3,0.1c1.2,0.5,2.4,0.5,3.7,0.5
					c1.2,0,2.4,0,3.6,0c0.9,0,1.6,0.7,1.7,1.5c0.1,0.8-0.4,1.5-1.2,1.8c-0.2,0.1-0.5,0.1-0.7,0.1c-1.4,0-2.9,0-4.3,0
					C30.4,36.2,30.2,36.2,30.1,36.2z"/>
			</g>
		</g>
		<g>
			<g>
				<path class="st1" d="M40.1,28.5c-1.8,0-3.5,0-5.2,0c0,0.2,0,0.5-0.1,0.7c-0.2,0.9-0.9,1.5-1.8,1.5c-0.3,0-0.7,0-1,0
					c-1-0.1-1.6-0.9-1.7-1.9c0-0.1,0-0.2,0-0.4c-0.5-0.1-0.9-0.3-1.2-0.6c-0.4-0.4-0.7-1-0.7-1.6c0-1,0-2,0-3c0-0.8,0.4-1.4,1.1-1.9
					c0.1-0.1,0.2-0.2,0.2-0.3c0.3-1.2,0.7-2.5,1-3.7c0.4-1.4,1.5-2.3,3-2.3c2.5,0,4.9,0,7.4,0c1.5,0,2.6,0.9,3,2.3
					c0.3,1.2,0.7,2.5,1,3.7c0,0.1,0.1,0.3,0.2,0.3c0.7,0.4,1,1.1,1.1,1.9c0,1,0,2,0,2.9c0,1.1-0.6,2-1.7,2.3h-0.1
					c0,0.3,0,0.5-0.1,0.8c-0.2,0.9-0.9,1.5-1.8,1.5c-0.3,0-0.7,0-1,0c-1-0.1-1.6-0.9-1.6-1.9C40.1,28.8,40.1,28.7,40.1,28.5z
					 M37.5,27c2.2,0,4.4,0,6.7,0c0.5,0,0.8-0.3,0.8-0.8c0-0.9,0-1.9,0-2.8c0-0.5-0.3-0.8-0.8-0.8c-4.4,0-8.9,0-13.3,0
					c-0.5,0-0.8,0.3-0.8,0.8c0,0.9,0,1.8,0,2.8c0,0.6,0.3,0.9,0.9,0.9C33.1,27,35.3,27,37.5,27z M43.7,21c-0.3-1.2-0.6-2.3-1-3.5
					c-0.2-0.6-0.8-1-1.5-1c-2.5,0-5,0-7.5,0c-0.8,0-1.3,0.4-1.5,1.2c-0.2,0.6-0.3,1.2-0.5,1.9c-0.1,0.5-0.3,1-0.4,1.4
					C35.5,21,39.5,21,43.7,21z M31.9,28.5c0,0.1,0,0.2,0,0.3c0,0.4,0.1,0.5,0.5,0.5c0.2,0,0.4,0,0.6,0c0.2,0,0.3-0.1,0.4-0.3
					c0-0.1,0-0.3,0-0.4C32.9,28.5,32.4,28.5,31.9,28.5z M43.1,28.5c-0.5,0-1,0-1.5,0c0,0.1,0,0.2,0,0.3c0,0.3,0.1,0.5,0.5,0.5
					c0.2,0,0.4,0,0.6,0c0.2,0,0.4-0.1,0.4-0.4C43.1,28.8,43.1,28.7,43.1,28.5z"/>
				<path class="st1" d="M37.5,24c0.7,0,1.5,0,2.2,0c0.5,0,0.8,0.3,0.8,0.7c0,0.4-0.3,0.8-0.8,0.8c-1.5,0-2.9,0-4.4,0
					c-0.5,0-0.8-0.3-0.8-0.8c0-0.4,0.3-0.7,0.8-0.7C36.1,24,36.8,24,37.5,24z"/>
				<path class="st1" d="M31.9,23.6c0.6,0,1.1,0.5,1.1,1.1s-0.5,1.1-1.1,1.1s-1.1-0.5-1.1-1.1S31.3,23.6,31.9,23.6z"/>
				<path class="st1" d="M44.3,24.8c0,0.6-0.5,1.1-1.1,1.1s-1.1-0.5-1.1-1.1s0.5-1.1,1.1-1.1C43.8,23.6,44.3,24.2,44.3,24.8z"/>
			</g>
		</g>
	</g>
</g>
</svg>
