<?xml version="1.0" encoding="utf-8"?>
<!-- Generator: Adobe Illustrator 26.0.1, SVG Export Plug-In . SVG Version: 6.00 Build 0)  -->
<svg version="1.1" id="Layer_1" xmlns="http://www.w3.org/2000/svg" xmlns:xlink="http://www.w3.org/1999/xlink" x="0px" y="0px"
	 viewBox="0 0 65 65" style="enable-background:new 0 0 65 65;" xml:space="preserve">
<style type="text/css">
	.st0{fill:url(#SVGID_1_);}
	.st1{fill:#FFFFFF;}
</style>
<linearGradient id="SVGID_1_" gradientUnits="userSpaceOnUse" x1="1.8402" y1="11217.0713" x2="62.8042" y2="11263.6426" gradientTransform="matrix(1 0 0 1 0 -11208.001)">
	<stop  offset="0" style="stop-color:#4565EE"/>
	<stop  offset="1" style="stop-color:#1237B7"/>
</linearGradient>
<path class="st0" d="M46.6,65H18.4C8.2,65,0,56.8,0,46.6V18.4C0,8.2,8.2,0,18.4,0h28.3C56.8,0,65,8.2,65,18.4v28.3
	C65,56.8,56.8,65,46.6,65z"/>
<path class="st1" d="M48.8,29.8c0-0.1,0-0.2,0-0.3l-1.8-8c-0.7-3.1-3.4-5.3-6.6-5.3H24.6c-3.2,0-5.9,2.2-6.6,5.3l-1.8,8
	c0,0.1,0,0.2,0,0.3v1.4c0,1.3,0.5,2.6,1.4,3.6V42c0,3.7,3,6.8,6.8,6.8h16.3c3.7,0,6.8-3,6.8-6.8v-7.3c0.9-1,1.4-2.3,1.4-3.6v-1.3
	C48.9,29.8,48.8,29.8,48.8,29.8z M18.9,29.9l1.7-7.8c0.4-1.9,2.1-3.2,4-3.2h1.1V23c0,0.7,0.6,1.4,1.4,1.4c0.7,0,1.4-0.6,1.4-1.4
	v-4.1h8.1V23c0,0.7,0.6,1.4,1.4,1.4s1.4-0.6,1.4-1.4v-4.1h1.1c1.9,0,3.6,1.3,4,3.2l1.7,7.8v1.2c0,1.5-1.2,2.7-2.7,2.7H42
	c-1.5,0-2.7-1.2-2.7-2.7c0-0.7-0.6-1.4-1.4-1.4s-1.4,0.6-1.4,1.4c0,1.5-1.2,2.7-2.7,2.7h-2.7c-1.5,0-2.7-1.2-2.7-2.7
	c0-0.7-0.6-1.4-1.4-1.4c-0.7,0-1.4,0.6-1.4,1.4c0,1.5-1.2,2.7-2.7,2.7h-1.4c-1.5,0-2.7-1.2-2.7-2.7v-1.2
	C18.8,29.9,18.9,29.9,18.9,29.9z M40.6,46.1H24.4c-2.2,0-4.1-1.8-4.1-4.1v-5.6c0.4,0.1,0.9,0.2,1.4,0.2H23c1.6,0,3-0.7,4.1-1.8
	c1,1.2,2.5,1.8,4.1,1.8h2.7c1.6,0,3-0.7,4.1-1.8c1,1.2,2.5,1.8,4.1,1.8h1.4c0.5,0,0.9-0.1,1.4-0.2V42C44.7,44.2,42.9,46.1,40.6,46.1
	z"/>
</svg>
