<?xml version="1.0" encoding="utf-8"?>
<!-- Generator: Adobe Illustrator 26.0.1, SVG Export Plug-In . SVG Version: 6.00 Build 0)  -->
<svg version="1.1" id="Layer_1" xmlns="http://www.w3.org/2000/svg" xmlns:xlink="http://www.w3.org/1999/xlink" x="0px" y="0px"
	 viewBox="0 0 65 65" style="enable-background:new 0 0 65 65;" xml:space="preserve">
<style type="text/css">
	.st0{fill:url(#SVGID_1_);}
	.st1{fill:#FFFFFF;}
</style>
<linearGradient id="SVGID_1_" gradientUnits="userSpaceOnUse" x1="1.841" y1="9.0792" x2="62.805" y2="55.6504">
	<stop  offset="0.3374" style="stop-color:#76DFFF"/>
	<stop  offset="1" style="stop-color:#0483AF"/>
</linearGradient>
<path class="st0" d="M46.6,65H18.4C8.2,65,0,56.8,0,46.6V18.4C0,8.2,8.2,0,18.4,0h28.3C56.8,0,65,8.2,65,18.4v28.3
	C65,56.8,56.8,65,46.6,65z"/>
<g>
	<g>
		<path class="st1" d="M48.2,21.2c-0.8-1-2-1.5-3.3-1.5H21.8l-0.1-0.5c-0.3-2.2-2.1-3.8-4.3-3.8h-0.3c-0.8,0-1.4,0.6-1.4,1.4
			c0,0.8,0.6,1.4,1.4,1.4h0.3c0.7,0,1.3,0.5,1.4,1.3l2,16.7c0.4,3.6,3.5,6.3,7.1,6.3h14.9c0.8,0,1.4-0.6,1.4-1.4
			c0-0.8-0.6-1.4-1.4-1.4H28c-1.8,0-3.4-1.1-4-2.9h17c3.5,0,6.4-2.5,7-5.9l1.1-6.2C49.4,23.4,49.1,22.1,48.2,21.2z M46.4,24.2
			l-1.1,6.2c-0.4,2-2.1,3.5-4.2,3.5H23.5l-1.3-11.4H45c0.8,0,1.4,0.6,1.4,1.4C46.4,24,46.4,24.1,46.4,24.2z"/>
		<circle class="st1" cx="25.8" cy="46.8" r="2.9"/>
		<circle class="st1" cx="40.1" cy="46.8" r="2.9"/>
	</g>
	<g>
		<path class="st1" d="M48.2,21.2c-0.8-1-2-1.5-3.3-1.5H21.8l-0.1-0.5c-0.3-2.2-2.1-3.8-4.3-3.8h-0.3c-0.8,0-1.4,0.6-1.4,1.4
			c0,0.8,0.6,1.4,1.4,1.4h0.3c0.7,0,1.3,0.5,1.4,1.3l2,16.7c0.4,3.6,3.5,6.3,7.1,6.3h14.9c0.8,0,1.4-0.6,1.4-1.4
			c0-0.8-0.6-1.4-1.4-1.4H28c-1.8,0-3.4-1.1-4-2.9h17c3.5,0,6.4-2.5,7-5.9l1.1-6.2C49.4,23.4,49.1,22.1,48.2,21.2z M46.4,24.2
			l-1.1,6.2c-0.4,2-2.1,3.5-4.2,3.5H23.5l-1.3-11.4H45c0.8,0,1.4,0.6,1.4,1.4C46.4,24,46.4,24.1,46.4,24.2z"/>
		<circle class="st1" cx="25.8" cy="46.8" r="2.9"/>
		<circle class="st1" cx="40.1" cy="46.8" r="2.9"/>
	</g>
</g>
</svg>
