<?xml version="1.0" encoding="utf-8"?>
<!-- Generator: Adobe Illustrator 26.0.1, SVG Export Plug-In . SVG Version: 6.00 Build 0)  -->
<svg version="1.1" id="Layer_1" xmlns="http://www.w3.org/2000/svg" xmlns:xlink="http://www.w3.org/1999/xlink" x="0px" y="0px"
	 viewBox="0 0 65 65" style="enable-background:new 0 0 65 65;" xml:space="preserve">
<style type="text/css">
	.st0{fill:url(#SVGID_1_);}
	.st1{fill:#FFFFFF;}
</style>
<linearGradient id="SVGID_1_" gradientUnits="userSpaceOnUse" x1="1.8445" y1="-5547.7832" x2="62.8085" y2="-5594.3545" gradientTransform="matrix(1 0 0 -1 0 -5538.7095)">
	<stop  offset="0" style="stop-color:#4565EE"/>
	<stop  offset="1" style="stop-color:#1237B7"/>
</linearGradient>
<path class="st0" d="M46.6,65H18.4C8.2,65,0,56.8,0,46.6V18.4C0,8.2,8.2,0,18.4,0h28.3C56.8,0,65,8.2,65,18.4v28.3
	C65,56.8,56.8,65,46.6,65z"/>
<path class="st1" d="M46.3,25.5l-9-8.9c-1.1-1.1-2.6-1.5-4.1-1.3l-9.5,1.3c-1.2,0.2-2,1.2-1.9,2.4c0.2,1.2,1.2,2,2.4,1.9l9.5-1.3
	c0.2,0,0.4,0,0.6,0.2l8.9,8.9c1.1,1.1,1.1,2.9,0,4l-0.7,0.7c-0.2-0.2-0.3-0.4-0.5-0.6l-9-8.9c-1.1-1.1-2.6-1.5-4.1-1.3l-9.5,1.3
	c-1,0.1-1.8,1-1.9,2l-0.7,9.2c-0.1,1.5,0.4,3,1.5,4l8.8,8.7c1.4,1.4,3.2,2.2,5.1,2.2l0,0c1.9,0,3.8-0.8,5.1-2.2L42,43
	c1.3-1.4,2-3.1,2-4.9l2.3-2.3C49,32.9,49,28.3,46.3,25.5L46.3,25.5z M38.9,39.8l-4.7,4.8c-0.5,0.6-1.3,0.9-2.1,0.9s-1.5-0.3-2.1-0.9
	l-8.8-8.7C21,35.8,21,35.5,21,35.3l0.6-7.5l7.8-1c0.2,0,0.4,0,0.6,0.2l8.9,8.9C40,36.9,40,38.7,38.9,39.8L38.9,39.8z M28.2,31.8
	c0,2.8-4.3,2.8-4.3,0C23.9,28.9,28.1,28.9,28.2,31.8z"/>
</svg>
