<?xml version="1.0" encoding="utf-8"?>
<!-- Generator: Adobe Illustrator 26.0.1, SVG Export Plug-In . SVG Version: 6.00 Build 0)  -->
<svg version="1.1" id="Layer_1" xmlns="http://www.w3.org/2000/svg" xmlns:xlink="http://www.w3.org/1999/xlink" x="0px" y="0px"
	 viewBox="0 0 65 65" style="enable-background:new 0 0 65 65;" xml:space="preserve">
<style type="text/css">
	.st0{fill:url(#SVGID_1_);}
	.st1{fill:#FFFFFF;}
</style>
<linearGradient id="SVGID_1_" gradientUnits="userSpaceOnUse" x1="1.8445" y1="-5547.7832" x2="62.8085" y2="-5594.3545" gradientTransform="matrix(1 0 0 -1 0 -5538.7095)">
	<stop  offset="0" style="stop-color:#4565EE"/>
	<stop  offset="1" style="stop-color:#1237B7"/>
</linearGradient>
<path class="st0" d="M46.6,65H18.4C8.2,65,0,56.8,0,46.6V18.4C0,8.2,8.2,0,18.4,0h28.3C56.8,0,65,8.2,65,18.4v28.3
	C65,56.8,56.8,65,46.6,65z"/>
<g>
	<g>
		<path class="st1" d="M13,19.5C13.1,19.5,13.1,19.4,13,19.5c0.4-0.8,0.9-1,1.7-0.8c2.5,0.7,5,1.3,7.5,2c0.9,0.2,1.2,0.8,1,1.7
			c0,0.2-0.1,0.4-0.1,0.6c0.2,0,0.3,0,0.4,0c2,0,4,0,5.9,0c0.2,0,0.5-0.1,0.6-0.2c1.6-1.3,3.3-1.7,5.2-0.8c1.2,0.5,2.4,1.3,3.5,1.9
			c0.4,0.2,0.8,0.5,1.2,0.7c0.7,0.4,1.4,0.2,2-0.1c0.1,0,0.1-0.2,0.1-0.4c-0.1-0.6-0.3-1.1-0.4-1.7c-0.2-0.7,0.2-1.3,0.9-1.5
			c2.6-0.7,5.1-1.4,7.7-2c0.9-0.2,1.6,0.3,1.6,1.3c0,5.9,0,11.8,0,17.8c0,0.8-0.5,1.3-1.3,1.3c-1.3,0-2.6,0-3.9,0
			c-0.7,0-0.9-0.1-1.4-0.7c-0.2,0.1-0.4,0.2-0.6,0.3c0.1,1.2-0.3,2.1-1.2,2.8c-0.3,0.3-0.7,0.4-1.1,0.6c-0.1,0.1-0.2,0.2-0.3,0.3
			c-0.3,2.2-2.4,3.4-4.5,2.5c-0.1,0-0.1,0-0.2-0.1c-0.6,0.9-1.5,1.5-2.6,1.6s-2-0.4-2.8-1.3c-0.1,0.1-0.1,0.1-0.2,0.2
			c-1.1,1.5-3.2,1.7-4.6,0.5c-2.6-2.2-5-4.6-7.4-7.1c-0.1-0.1-0.2-0.2-0.4-0.4c0.1,0.4-0.5,0.5-1.3,0.5c-1.2,0-2.3,0-3.5,0
			c-0.7,0-1.2-0.3-1.5-0.9C13,31.9,13,25.7,13,19.5z M22.5,25.4c0,0.1-0.1,0.2-0.1,0.4c-0.7,3-1.4,6-2.1,9c-0.1,0.3,0,0.5,0.2,0.8
			c2.8,2.7,5.6,5.4,8.3,8.2c0.1,0.1,0.1,0.1,0.2,0.2c0.3,0.2,0.7,0.1,0.9-0.1c0.2-0.3,0.3-0.7,0-0.9c-0.1-0.1-0.2-0.2-0.3-0.3
			c-0.9-0.9-1.8-1.8-2.7-2.7c-0.4-0.4-0.5-0.8-0.3-1.3s0.5-0.7,1-0.8s0.8,0.2,1.1,0.5c1.7,1.8,3.5,3.5,5.2,5.2
			c0.4,0.4,0.8,0.4,1.1,0.1c0.3-0.3,0.3-0.7-0.1-1.1c-0.9-0.9-1.8-1.8-2.7-2.7c-0.5-0.5-1.1-1.1-1.6-1.6c-0.4-0.4-0.4-1-0.2-1.4
			c0.2-0.4,0.7-0.7,1.2-0.6c0.3,0.1,0.6,0.3,0.8,0.5c1.9,1.8,3.7,3.7,5.6,5.6c0.1,0.1,0.2,0.2,0.2,0.2c0.3,0.2,0.7,0.2,1-0.1
			c0.2-0.2,0.3-0.7,0-0.9c-0.1-0.1-0.2-0.2-0.3-0.3c-1.8-1.8-3.6-3.6-5.4-5.4c-0.5-0.5-0.6-1-0.3-1.5c0.4-0.8,1.4-0.9,2-0.2
			c1.7,1.7,3.5,3.5,5.2,5.2c0.1,0.1,0.2,0.2,0.3,0.3c0.3,0.2,0.7,0.1,0.9-0.1c0.2-0.3,0.3-0.6,0.1-0.9c-0.1-0.1-0.2-0.2-0.3-0.3
			c-2.3-2.3-4.5-4.5-6.8-6.8c-0.9-0.9-1.8-1-2.9-0.3c-0.7,0.4-1.3,0.9-2,1.2c-1,0.5-2,0.8-3.1,0.7c-1.4-0.1-2.5-0.9-3.4-1.9
			c-0.5-0.6-0.5-1.3,0.1-1.9c1.2-1.2,2.4-2.5,3.5-3.8c0,0,0.1-0.1,0.1-0.2C25.8,25.4,24.2,25.4,22.5,25.4z M26.4,30.3
			c0.7,0.4,1.4,0.4,2,0.1c0.8-0.4,1.6-0.8,2.4-1.3c2.1-1.3,4.2-1.2,6,0.6c2,2,3.9,3.9,5.9,5.9c0.2,0.2,0.5,0.6,0.7,0.7
			c0.3,0,0.6-0.2,1-0.4c0.3-0.1,0.3-0.2,0.2-0.5c-0.4-1.8-0.8-3.7-1.3-5.5c-0.3-1.1-0.5-2.2-0.8-3.3c-1.6,0.7-3.1,0.5-4.5-0.4
			c-0.6-0.4-1.3-0.8-1.9-1.1c-0.7-0.4-1.4-0.7-2.1-1c-0.8-0.4-1.6-0.2-2.4,0.4c-0.2,0.2-0.5,0.4-0.6,0.6
			C29.6,26.8,28,28.5,26.4,30.3z M15.5,36.5c0.5,0,1,0,1.5,0c0.4,0,0.5-0.1,0.6-0.5c0.7-3.3,1.5-6.6,2.3-9.9
			c0.3-1.1,0.5-2.3,0.8-3.4c-1.7-0.5-3.4-0.9-5.2-1.4C15.5,26.5,15.5,31.5,15.5,36.5z M44.4,22.8c0.5,2.1,1,4.2,1.4,6.3
			c0.5,2.4,1.1,4.8,1.6,7.1c0,0.1,0.1,0.3,0.2,0.3c0.6,0,1.2,0,1.8,0c0-5.1,0-10.1,0-15.1C47.8,21.8,46.1,22.3,44.4,22.8z"/>
	</g>
</g>
</svg>
