<?xml version="1.0" encoding="utf-8"?>
<!-- Generator: Adobe Illustrator 26.0.1, SVG Export Plug-In . SVG Version: 6.00 Build 0)  -->
<svg version="1.1" id="Layer_1" xmlns="http://www.w3.org/2000/svg" xmlns:xlink="http://www.w3.org/1999/xlink" x="0px" y="0px"
	 viewBox="0 0 65 65" style="enable-background:new 0 0 65 65;" xml:space="preserve">
<style type="text/css">
	.st0{fill:url(#SVGID_1_);}
	.st1{fill:#FFFFFF;}
</style>
<linearGradient id="SVGID_1_" gradientUnits="userSpaceOnUse" x1="1.841" y1="9.0792" x2="62.805" y2="55.6504">
	<stop  offset="0.3374" style="stop-color:#76DFFF"/>
	<stop  offset="1" style="stop-color:#0483AF"/>
</linearGradient>
<path class="st0" d="M46.6,65H18.4C8.2,65,0,56.8,0,46.6V18.4C0,8.2,8.2,0,18.4,0h28.3C56.8,0,65,8.2,65,18.4v28.3
	C65,56.8,56.8,65,46.6,65z"/>
<path class="st1" d="M40.6,25.5c0.8,0.8,0.8,2.1,0,2.8L32.8,36c-0.6,0.6-1.5,1-2.4,1s-1.7-0.3-2.4-1l-3.7-3.6c-0.8-0.8-0.8-2,0-2.8
	s2-0.8,2.8,0l3.3,3.2l7.3-7.2C38.6,24.7,39.9,24.7,40.6,25.5L40.6,25.5z M48.6,24v12.1c0,4.1-3.3,7.4-7.4,7.4h-1.6l-5,4.1
	c-0.6,0.5-1.4,0.8-2.2,0.8s-1.6-0.3-2.2-0.9l-4.8-4.1h-1.7c-4.1,0-7.4-3.3-7.4-7.4V24c0-4.1,3.3-7.4,7.4-7.4h17.4
	C45.3,16.6,48.6,19.9,48.6,24L48.6,24z M44.6,24c0-1.8-1.5-3.4-3.4-3.4H23.8c-1.8,0-3.4,1.5-3.4,3.4v12.1c0,1.8,1.5,3.4,3.4,3.4h2.4
	c0.5,0,0.9,0.2,1.3,0.5l5,4.2l5.1-4.3c0.4-0.3,0.8-0.5,1.3-0.5h2.3c1.9,0,3.4-1.5,3.4-3.4V24L44.6,24z"/>
</svg>
