<?xml version="1.0" encoding="utf-8"?>
<!-- Generator: Adobe Illustrator 26.0.1, SVG Export Plug-In . SVG Version: 6.00 Build 0)  -->
<svg version="1.1" id="Layer_1" xmlns="http://www.w3.org/2000/svg" xmlns:xlink="http://www.w3.org/1999/xlink" x="0px" y="0px"
	 viewBox="0 0 65 65" style="enable-background:new 0 0 65 65;" xml:space="preserve">
<style type="text/css">
	.st0{fill:url(#SVGID_1_);}
	.st1{fill:#FFFFFF;}
</style>
<linearGradient id="SVGID_1_" gradientUnits="userSpaceOnUse" x1="1.841" y1="9.0792" x2="62.805" y2="55.6504">
	<stop  offset="0.3374" style="stop-color:#76DFFF"/>
	<stop  offset="1" style="stop-color:#0483AF"/>
</linearGradient>
<path class="st0" d="M46.6,65H18.4C8.2,65,0,56.8,0,46.6V18.4C0,8.2,8.2,0,18.4,0h28.3C56.8,0,65,8.2,65,18.4v28.3
	C65,56.8,56.8,65,46.6,65z"/>
<g>
	<g>
		<path class="st1" d="M39.2,47.3c-4.5,0-9,0-13.5,0c0,0.4,0,0.9,0,1.3c0,1.5-1.2,2.7-2.7,2.7c-0.9,0-1.8,0-2.7,0
			c-1.5,0-2.7-1.2-2.7-2.7c0-0.5,0-1,0-1.5c0-0.1-0.1-0.3-0.2-0.4c-0.8-0.6-1.1-1.3-1.1-2.3s0-2,0-2.9c0-1,0.3-1.8,0.9-2.6
			s1.2-1.6,1.8-2.4c-0.5,0-0.9,0-1.3,0c-0.8,0-1.4-0.6-1.4-1.4c0-0.8,0.6-1.3,1.4-1.3c0.9,0,1.9,0,2.8,0c0.3,0,0.4-0.1,0.6-0.4
			c0.4-0.9,0.9-1.8,1.3-2.7c0.8-1.6,2.1-2.4,3.8-2.4c4.2,0,8.4,0,12.6,0c1.7,0,3,0.8,3.8,2.3c0.5,0.9,0.9,1.8,1.4,2.7
			c0.1,0.2,0.3,0.3,0.5,0.3c0.9,0,1.8,0,2.7,0s1.5,0.6,1.5,1.4c0,0.8-0.6,1.3-1.5,1.3c-0.4,0-0.8,0-1.2,0c0.1,0.2,0.2,0.3,0.3,0.4
			c0.5,0.7,1,1.3,1.5,2c0.6,0.8,0.9,1.7,0.9,2.8c0,0.9,0,1.9,0,2.8c0,1-0.4,1.8-1.1,2.4c-0.1,0.1-0.2,0.2-0.2,0.4c0,0.5,0,1,0,1.5
			c0,1.5-1.2,2.7-2.7,2.7c-0.9,0-1.8,0-2.7,0c-1.5,0-2.6-1.2-2.7-2.7C39.2,48.2,39.2,47.8,39.2,47.3z M42.2,36.1
			c-0.7-1.4-1.4-2.8-2.1-4.1c-0.3-0.5-0.7-0.8-1.3-0.8c-4.2,0-8.5,0-12.7,0c-0.6,0-1,0.3-1.3,0.8c-0.6,1.2-1.2,2.3-1.7,3.5
			c-0.1,0.2-0.2,0.4-0.3,0.6c0.4,0.3,0.8,0.5,1.3,0.5c5.6,0,11.2,0,16.8,0C41.4,36.5,41.8,36.4,42.2,36.1z M23.7,42.6
			c0-1.1-0.9-2-2-2s-2,0.9-2,2s0.9,2,2,2C22.8,44.6,23.7,43.7,23.7,42.6z M45.3,42.6c0-1.1-0.9-2-2-2s-2,0.9-2,2s0.9,2,2,2
			C44.4,44.6,45.3,43.7,45.3,42.6z"/>
		<path class="st1" d="M42.4,24.4c-0.3,0-0.5,0-0.8,0c-0.6,0-1-0.2-1.3-0.7c-0.6-0.9-1.7-0.9-2.3,0c-0.3,0.5-0.7,0.7-1.2,0.7
			c-0.2,0-0.4,0-0.7,0c-0.5,0-0.9-0.2-1.1-0.6c-0.7-1-1.7-1-2.4,0c-0.3,0.4-0.7,0.6-1.2,0.6s-1.1-0.1-1.5,0c-0.4,0.2-0.7,0.7-1.1,1
			c-2,1.7-4.3,2.1-6.8,1.2s-3.9-2.8-4.3-5.4c-0.5-3.6,1.7-6.8,5.3-7.5c2.6-0.5,4.7,0.3,6.5,2.2c0.2,0.2,0.4,0.3,0.7,0.3
			c4.3,0,8.5,0,12.8,0c0.9,0,1.7,0.3,2.3,1c0.4,0.4,0.8,0.8,1.2,1.2c1.1,1.1,1.1,2.7,0,3.8c-0.4,0.4-0.8,0.8-1.2,1.3
			c-0.6,0.6-1.3,0.9-2.1,0.9C42.9,24.4,42.7,24.4,42.4,24.4z M27.1,20.4c0-1.5-1.2-2.7-2.7-2.7s-2.7,1.2-2.7,2.7s1.2,2.7,2.7,2.7
			S27.1,21.9,27.1,20.4z"/>
	</g>
</g>
</svg>
