<?xml version="1.0" encoding="utf-8"?>
<!-- Generator: Adobe Illustrator 26.0.1, SVG Export Plug-In . SVG Version: 6.00 Build 0)  -->
<svg version="1.1" id="Layer_1" xmlns="http://www.w3.org/2000/svg" xmlns:xlink="http://www.w3.org/1999/xlink" x="0px" y="0px"
	 viewBox="0 0 65 65" style="enable-background:new 0 0 65 65;" xml:space="preserve">
<style type="text/css">
	.st0{fill:url(#SVGID_1_);}
	.st1{fill:#FFFFFF;}
</style>
<linearGradient id="SVGID_1_" gradientUnits="userSpaceOnUse" x1="1.841" y1="9.0792" x2="62.805" y2="55.6504">
	<stop  offset="0.3374" style="stop-color:#76DFFF"/>
	<stop  offset="1" style="stop-color:#0483AF"/>
</linearGradient>
<path class="st0" d="M46.6,65H18.4C8.2,65,0,56.8,0,46.6V18.4C0,8.2,8.2,0,18.4,0h28.3C56.8,0,65,8.2,65,18.4v28.3
	C65,56.8,56.8,65,46.6,65z"/>
<path class="st1" d="M40.9,49.4H24.1c-3.9,0-7-3.1-7-7V22.7c0-3.9,3.1-7,7-7H41c3.9,0,7,3.1,7,7v19.7C47.9,46.2,44.8,49.4,40.9,49.4
	z M24.1,18.5c-2.3,0-4.2,1.9-4.2,4.2v19.7c0,2.3,1.9,4.2,4.2,4.2H41c2.3,0,4.2-1.9,4.2-4.2V22.7c0-2.3-1.9-4.2-4.2-4.2H24.1z
	 M38.1,29.7H26.9c-2.3,0-4.2-1.9-4.2-4.2s1.9-4.2,4.2-4.2h11.2c2.3,0,4.2,1.9,4.2,4.2S40.4,29.7,38.1,29.7z M26.9,24.1
	c-0.8,0-1.4,0.6-1.4,1.4s0.6,1.4,1.4,1.4h11.2c0.8,0,1.4-0.6,1.4-1.4s-0.6-1.4-1.4-1.4H26.9z M24.1,33.9c-0.8,0-1.4,0.6-1.4,1.4
	s0.6,1.4,1.4,1.4s1.4-0.6,1.4-1.4S24.8,33.9,24.1,33.9z M29.7,33.9c-0.8,0-1.4,0.6-1.4,1.4s0.6,1.4,1.4,1.4s1.4-0.6,1.4-1.4
	S30.5,33.9,29.7,33.9z M35.3,33.9c-0.8,0-1.4,0.6-1.4,1.4s0.6,1.4,1.4,1.4s1.4-0.6,1.4-1.4S36.1,33.9,35.3,33.9z M24.1,39.5
	c-0.8,0-1.4,0.6-1.4,1.4s0.6,1.4,1.4,1.4s1.4-0.6,1.4-1.4S24.8,39.5,24.1,39.5z M29.7,39.5c-0.8,0-1.4,0.6-1.4,1.4s0.6,1.4,1.4,1.4
	s1.4-0.6,1.4-1.4S30.5,39.5,29.7,39.5z M40.9,33.9c-0.8,0-1.4,0.6-1.4,1.4s0.6,1.4,1.4,1.4s1.4-0.6,1.4-1.4S41.7,33.9,40.9,33.9z
	 M42.3,40.9c0-0.8-0.6-1.4-1.4-1.4h-5.6c-0.8,0-1.4,0.6-1.4,1.4s0.6,1.4,1.4,1.4h5.6C41.7,42.3,42.3,41.7,42.3,40.9z"/>
</svg>
