<?xml version="1.0" encoding="utf-8"?>
<!-- Generator: Adobe Illustrator 26.0.1, SVG Export Plug-In . SVG Version: 6.00 Build 0)  -->
<svg version="1.1" id="Layer_1" xmlns="http://www.w3.org/2000/svg" xmlns:xlink="http://www.w3.org/1999/xlink" x="0px" y="0px"
	 viewBox="0 0 65 65" style="enable-background:new 0 0 65 65;" xml:space="preserve">
<style type="text/css">
	.st0{fill:url(#SVGID_1_);}
	.st1{fill:#FFFFFF;}
</style>
<linearGradient id="SVGID_1_" gradientUnits="userSpaceOnUse" x1="1.841" y1="9.0792" x2="62.805" y2="55.6504">
	<stop  offset="0.3374" style="stop-color:#76DFFF"/>
	<stop  offset="1" style="stop-color:#0483AF"/>
</linearGradient>
<path class="st0" d="M46.6,65H18.4C8.2,65,0,56.8,0,46.6V18.4C0,8.2,8.2,0,18.4,0h28.3C56.8,0,65,8.2,65,18.4v28.3
	C65,56.8,56.8,65,46.6,65z"/>
<g>
	<g>
		<g>
			<path class="st1" d="M17.6,31.4c0-3.8,0-7.6,0-11.4c0-2.4,1.5-4.3,3.8-4.9c0.4-0.1,0.9-0.1,1.3-0.1c5.4,0,10.8,0,16.2,0
				c2.9,0,5,2.1,5.1,5c0,1.5,0,3.1,0,4.6c0,1.1-0.9,1.9-2,1.7c-0.8-0.1-1.3-0.8-1.3-1.6c0-1.5,0-3.1,0-4.6c0-1.2-0.7-1.8-1.8-1.8
				c-5.3,0-10.7,0-16,0c-1.2,0-1.8,0.7-1.8,1.8c0,7.5,0,15.1,0,22.6c0,1.1,0.7,1.8,1.8,1.8c1.6,0,3.1,0,4.7,0c1.2,0,1.9,1.1,1.5,2.2
				c-0.3,0.6-0.7,1-1.4,1c-1.8,0-3.6,0.1-5.3,0c-2.5-0.1-4.5-2.3-4.5-5C17.6,39,17.6,35.2,17.6,31.4z"/>
			<path class="st1" d="M31.4,46.1c0.1-1.1,0.1-2.3,0.2-3.4c0.1-0.5,0.2-1,0.5-1.5c2.1-3.6,4.1-7.2,6.2-10.8c1-1.7,2.9-2.2,4.6-1.2
				c0.9,0.5,1.8,1,2.7,1.6c1.7,1,2.2,2.9,1.2,4.5c-2.1,3.6-4.2,7.3-6.3,10.9c-0.3,0.5-0.7,0.9-1.2,1.2c-0.9,0.7-1.9,1.3-2.8,1.9
				c-1.2,0.8-2.4,0.8-3.6,0.1C31.7,48.7,31.2,47.6,31.4,46.1C31.4,46.3,31.4,46.2,31.4,46.1L31.4,46.1z M34.6,46.6
				c0.2-0.1,0.3-0.1,0.4-0.2c0.8-0.5,1.6-1,2.4-1.6c0.2-0.1,0.3-0.3,0.5-0.5c2-3.4,4-6.9,6-10.3c0.1-0.1,0.1-0.2,0.2-0.4
				c-0.9-0.5-1.9-1.1-2.8-1.6c-0.1,0.1-0.2,0.2-0.2,0.3c-2,3.4-3.9,6.8-5.9,10.2c-0.2,0.3-0.3,0.7-0.3,1c0,0.6-0.1,1.2-0.1,1.9
				C34.7,45.8,34.7,46.2,34.6,46.6z"/>
			<path class="st1" d="M30.7,26.5c-1.6,0-3.3,0-4.9,0c-0.8,0-1.4-0.5-1.6-1.3c-0.2-0.7,0.2-1.5,0.9-1.8c0.3-0.1,0.6-0.2,0.9-0.2
				c3.2,0,6.4,0,9.6,0c1,0,1.7,0.7,1.7,1.6c0,1-0.7,1.6-1.7,1.6C34,26.5,32.4,26.5,30.7,26.5z"/>
			<path class="st1" d="M29.4,29.8c1.2,0,2.4,0,3.6,0c0.8,0,1.5,0.6,1.6,1.4s-0.4,1.5-1.1,1.8c-0.1,0-0.3,0.1-0.4,0.1
				c-2.4,0-4.8,0-7.3,0c-0.7,0-1.2-0.4-1.5-1c-0.3-0.6-0.1-1.2,0.3-1.7c0.3-0.4,0.8-0.5,1.3-0.5C27.1,29.8,28.3,29.8,29.4,29.8
				L29.4,29.8z"/>
			<path class="st1" d="M27.7,36.3c0.6,0,1.2,0,1.7,0c0.9,0,1.6,0.7,1.7,1.6c0,0.8-0.6,1.6-1.5,1.7c-1.3,0.1-2.6,0.1-3.8,0
				c-0.9,0-1.6-0.8-1.5-1.7s0.8-1.5,1.7-1.5C26.5,36.3,27.1,36.3,27.7,36.3z"/>
		</g>
	</g>
	<g>
		<g>
			<path class="st1" d="M17.6,31.4c0-3.8,0-7.6,0-11.4c0-2.4,1.5-4.3,3.8-4.9c0.4-0.1,0.9-0.1,1.3-0.1c5.4,0,10.8,0,16.2,0
				c2.9,0,5,2.1,5.1,5c0,1.5,0,3.1,0,4.6c0,1.1-0.9,1.9-2,1.7c-0.8-0.1-1.3-0.8-1.3-1.6c0-1.5,0-3.1,0-4.6c0-1.2-0.7-1.8-1.8-1.8
				c-5.3,0-10.7,0-16,0c-1.2,0-1.8,0.7-1.8,1.8c0,7.5,0,15.1,0,22.6c0,1.1,0.7,1.8,1.8,1.8c1.6,0,3.1,0,4.7,0c1.2,0,1.9,1.1,1.5,2.2
				c-0.3,0.6-0.7,1-1.4,1c-1.8,0-3.6,0.1-5.3,0c-2.5-0.1-4.5-2.3-4.5-5C17.6,39,17.6,35.2,17.6,31.4z"/>
			<path class="st1" d="M31.4,46.1c0.1-1.1,0.1-2.3,0.2-3.4c0.1-0.5,0.2-1,0.5-1.5c2.1-3.6,4.1-7.2,6.2-10.8c1-1.7,2.9-2.2,4.6-1.2
				c0.9,0.5,1.8,1,2.7,1.6c1.7,1,2.2,2.9,1.2,4.5c-2.1,3.6-4.2,7.3-6.3,10.9c-0.3,0.5-0.7,0.9-1.2,1.2c-0.9,0.7-1.9,1.3-2.8,1.9
				c-1.2,0.8-2.4,0.8-3.6,0.1C31.7,48.7,31.2,47.6,31.4,46.1C31.4,46.3,31.4,46.2,31.4,46.1L31.4,46.1z M34.6,46.6
				c0.2-0.1,0.3-0.1,0.4-0.2c0.8-0.5,1.6-1,2.4-1.6c0.2-0.1,0.3-0.3,0.5-0.5c2-3.4,4-6.9,6-10.3c0.1-0.1,0.1-0.2,0.2-0.4
				c-0.9-0.5-1.9-1.1-2.8-1.6c-0.1,0.1-0.2,0.2-0.2,0.3c-2,3.4-3.9,6.8-5.9,10.2c-0.2,0.3-0.3,0.7-0.3,1c0,0.6-0.1,1.2-0.1,1.9
				C34.7,45.8,34.7,46.2,34.6,46.6z"/>
			<path class="st1" d="M30.7,26.5c-1.6,0-3.3,0-4.9,0c-0.8,0-1.4-0.5-1.6-1.3c-0.2-0.7,0.2-1.5,0.9-1.8c0.3-0.1,0.6-0.2,0.9-0.2
				c3.2,0,6.4,0,9.6,0c1,0,1.7,0.7,1.7,1.6c0,1-0.7,1.6-1.7,1.6C34,26.5,32.4,26.5,30.7,26.5z"/>
			<path class="st1" d="M29.4,29.8c1.2,0,2.4,0,3.6,0c0.8,0,1.5,0.6,1.6,1.4s-0.4,1.5-1.1,1.8c-0.1,0-0.3,0.1-0.4,0.1
				c-2.4,0-4.8,0-7.3,0c-0.7,0-1.2-0.4-1.5-1c-0.3-0.6-0.1-1.2,0.3-1.7c0.3-0.4,0.8-0.5,1.3-0.5C27.1,29.8,28.3,29.8,29.4,29.8
				L29.4,29.8z"/>
			<path class="st1" d="M27.7,36.3c0.6,0,1.2,0,1.7,0c0.9,0,1.6,0.7,1.7,1.6c0,0.8-0.6,1.6-1.5,1.7c-1.3,0.1-2.6,0.1-3.8,0
				c-0.9,0-1.6-0.8-1.5-1.7s0.8-1.5,1.7-1.5C26.5,36.3,27.1,36.3,27.7,36.3z"/>
		</g>
	</g>
</g>
</svg>
