<?xml version="1.0" encoding="utf-8"?>
<!-- Generator: Adobe Illustrator 26.0.1, SVG Export Plug-In . SVG Version: 6.00 Build 0)  -->
<svg version="1.1" id="Layer_1" xmlns="http://www.w3.org/2000/svg" xmlns:xlink="http://www.w3.org/1999/xlink" x="0px" y="0px"
	 viewBox="0 0 65 65" style="enable-background:new 0 0 65 65;" xml:space="preserve">
<style type="text/css">
	.st0{fill:url(#SVGID_1_);}
	.st1{fill:#FFFFFF;}
</style>
<linearGradient id="SVGID_1_" gradientUnits="userSpaceOnUse" x1="1.8441" y1="11860.4453" x2="62.8081" y2="11907.0166" gradientTransform="matrix(1 0 0 1 0 -11851.3721)">
	<stop  offset="0.1904" style="stop-color:#FF2C2C"/>
	<stop  offset="1" style="stop-color:#991C1C"/>
</linearGradient>
<path class="st0" d="M46.6,65H18.4C8.2,65,0,56.8,0,46.6V18.4C0,8.2,8.2,0,18.4,0h28.3C56.8,0,65,8.2,65,18.4v28.3
	C65,56.8,56.8,65,46.6,65z"/>
<g>
	<g>
		<path class="st1" d="M47.2,48.3v-0.4c0-2.7,0-5.5,0-8.2c0-0.8-0.4-1.2-1.2-1.2c-1.3,0-2.6,0-3.9,0c-0.8,0-1.2,0.4-1.2,1.2v8.5
			h-2.1V37.7c0-0.9-0.4-1.3-1.3-1.3h-3.8c-0.9,0-1.3,0.4-1.3,1.3c0,3.4,0,6.8,0,10.2v0.4h-2.1v-0.4c0-1.6,0-3.1,0-4.7
			c0-0.8-0.4-1.2-1.2-1.2c-1.3,0-2.6,0-3.9,0c-0.8,0-1.2,0.4-1.2,1.2c0,1.6,0,3.1,0,4.7v0.4H22c0-1.3,0-2.5,0-3.8
			c0-0.7-0.4-1.1-1.1-1.1c-1.4,0-2.7,0-4.1,0c-0.7,0-1.1,0.4-1.1,1.1c0,1,0,2,0,3v0.8c-0.4,0-0.8,0-1.1,0c-0.5,0-0.9,0.3-1,0.8
			c-0.1,0.5,0.1,0.9,0.6,1.2c0.1,0,0.1,0.1,0.2,0.1h34.4c0.3-0.2,0.6-0.4,0.8-0.8v-0.6C49,48.1,48.1,48.4,47.2,48.3z M19.9,48.3
			h-2.1v-2.8h2.1V48.3z M28.3,48.3h-2.1v-4.2h2.1V48.3z M36.7,48.3h-2.1v-9.8h2.1V48.3z M45.1,48.3H43v-7.7h2.1V48.3z"/>
		<path class="st1" d="M48.6,50.5c0.3-0.2,0.6-0.4,0.8-0.8c0,0.3,0,0.5,0,0.8C49.1,50.5,48.9,50.5,48.6,50.5z"/>
		<path class="st1" d="M47.2,28.3c-0.1,0.1-0.2,0.2-0.3,0.3c-1.6,1.6-3.1,3.1-4.7,4.7c-0.4,0.4-0.7,0.5-1.2,0.5c-3.8,0-7.5,0-11.3,0
			c-0.2,0-0.4,0.1-0.6,0.2c-2.1,2.1-4.2,4.2-6.2,6.3c-0.4,0.4-0.8,0.6-1.3,0.5c-2.3,0-4.7,0-7,0c-0.8,0-1.4-0.8-1-1.5
			c0.2-0.4,0.6-0.6,1-0.6c2.2,0,4.3,0,6.5,0c0.3,0,0.5-0.1,0.6-0.3c2.1-2.1,4.2-4.2,6.2-6.3c0.4-0.4,0.7-0.5,1.2-0.5
			c3.8,0,7.5,0,11.3,0c0.2,0,0.4-0.1,0.6-0.2c1.5-1.5,3.1-3.1,4.7-4.7c-0.1,0-0.2,0-0.3,0c-0.5,0-0.9,0-1.4,0c-0.6,0-1-0.5-1-1
			c0-0.6,0.4-1,1-1.1c1.4,0,2.9,0,4.3,0c0.5,0,1,0.5,1,1c0,1.4,0,2.9,0,4.3c0,0.6-0.5,1-1.1,1c-0.6,0-1-0.5-1-1
			C47.2,29.5,47.2,28.9,47.2,28.3z"/>
		<path class="st1" d="M38.8,19.2c0-0.7-0.4-1.1-1.1-1.1c-0.3,0-0.6,0-1,0c0-0.3,0-0.6,0-0.9c0-0.7-0.4-1.2-1-1.2
			c-0.6,0-1.1,0.5-1.1,1.1c0,0.3,0,0.6,0,1c-0.3,0-0.6,0-0.9,0c-0.7,0-1.2,0.4-1.2,1.2c0,1.8,0,3.6,0,5.4c0,0.7,0.4,1.2,1.2,1.2
			c0.3,0,0.6,0,0.9,0c0,0.3,0,0.6,0,0.9c0,0.7,0.4,1.2,1.1,1.2c0.6,0,1-0.5,1-1.2c0-0.3,0-0.6,0-0.9c0.4,0,0.7,0,1,0
			c0.7,0,1.1-0.4,1.1-1.1C38.8,22.8,38.8,21,38.8,19.2z M36.7,23.6h-2.1v-3.5h2.1V23.6z"/>
		<path class="st1" d="M22,26.9c0-0.7-0.4-1.1-1.1-1.1c-0.3,0-0.6,0-1,0c0-0.4,0-0.7,0-1c0-0.6-0.5-1.1-1-1.1
			c-0.6,0-1.1,0.5-1.1,1.1c0,0.3,0,0.6,0,1c-0.4,0-0.7,0-1,0c-0.6,0-1.1,0.4-1.1,1.1c0,1.8,0,3.7,0,5.5c0,0.6,0.4,1.1,1.1,1.1
			c0.3,0,0.7,0,1,0c0,0.4,0,0.7,0,1c0,0.7,0.4,1.2,1.1,1.1c0.6,0,1-0.5,1-1.2c0-0.3,0-0.6,0-0.9c0.4,0,0.7,0,1,0
			c0.7,0,1.1-0.4,1.1-1.1C22,30.5,22,28.7,22,26.9z M19.9,31.4h-2.1v-3.5h2.1V31.4z"/>
		<path class="st1" d="M47.2,15.7c0-0.7-0.4-1.2-1.2-1.2c-1.3,0-2.7,0-4,0c-0.7,0-1.2,0.4-1.2,1.1c0,1.8,0,3.6,0,5.4
			c0,0.7,0.4,1.2,1.2,1.2c1.3,0,2.6,0,4,0c0.8,0,1.2-0.4,1.2-1.2c0-0.9,0-1.8,0-2.7C47.2,17.5,47.2,16.6,47.2,15.7z M45.1,20.1H43
			v-3.5h2.1V20.1z"/>
		<path class="st1" d="M29.2,20.9c-1.3,0-2.6,0-4,0c-0.7,0-1.2,0.4-1.2,1.2c0,0.9,0,1.8,0,2.7c0,0.9,0,1.8,0,2.7
			c0,0.7,0.4,1.1,1.2,1.1c1.3,0,2.7,0,4,0c0.7,0,1.2-0.4,1.2-1.2c0-1.8,0-3.6,0-5.4C30.4,21.3,30,20.9,29.2,20.9z M28.3,26.4h-2.1
			V23h2.1V26.4z"/>
	</g>
</g>
</svg>
