<?xml version="1.0" encoding="utf-8"?>
<!-- Generator: Adobe Illustrator 26.0.1, SVG Export Plug-In . SVG Version: 6.00 Build 0)  -->
<svg version="1.1" id="Layer_1" xmlns="http://www.w3.org/2000/svg" xmlns:xlink="http://www.w3.org/1999/xlink" x="0px" y="0px"
	 viewBox="0 0 65 65" style="enable-background:new 0 0 65 65;" xml:space="preserve">
<style type="text/css">
	.st0{fill:url(#SVGID_1_);}
	.st1{fill:#FFFFFF;stroke:#FEFEFE;stroke-miterlimit:10;}
</style>
<linearGradient id="SVGID_1_" gradientUnits="userSpaceOnUse" x1="1.8441" y1="11860.4453" x2="62.8081" y2="11907.0166" gradientTransform="matrix(1 0 0 1 0 -11851.3721)">
	<stop  offset="0.1904" style="stop-color:#FF2C2C"/>
	<stop  offset="1" style="stop-color:#991C1C"/>
</linearGradient>
<path class="st0" d="M46.6,65H18.4C8.2,65,0,56.8,0,46.6V18.4C0,8.2,8.2,0,18.4,0h28.3C56.8,0,65,8.2,65,18.4v28.3
	C65,56.8,56.8,65,46.6,65z"/>
<g>
	<g>
		<g>
			<path class="st1" d="M42.6,32c-0.7-1.4-1.7-2.7-2.7-3.9c-0.4-0.5-1.1-0.5-1.5,0.1c-0.9,1-1.6,2-2.3,3.2c-0.4,0.7-0.8,1.3-0.8,2.1
				c0,2.1,1.7,3.8,3.8,3.8C41.8,37.3,43.8,34.5,42.6,32z M39.9,35.2c-1,0.4-2.2-0.1-2.5-1.2c-0.1-0.4-0.1-0.8,0.1-1.2
				c0.5-0.9,1-1.8,1.7-2.6c0.6,0.8,1.2,1.6,1.6,2.5C41.3,33.7,40.9,34.8,39.9,35.2z M42.6,32c-0.7-1.4-1.7-2.7-2.7-3.9
				c-0.4-0.5-1.1-0.5-1.5,0.1c-0.9,1-1.6,2-2.3,3.2c-0.4,0.7-0.8,1.3-0.8,2.1c0,2.1,1.7,3.8,3.8,3.8C41.8,37.3,43.8,34.5,42.6,32z
				 M39.9,35.2c-1,0.4-2.2-0.1-2.5-1.2c-0.1-0.4-0.1-0.8,0.1-1.2c0.5-0.9,1-1.8,1.7-2.6c0.6,0.8,1.2,1.6,1.6,2.5
				C41.3,33.7,40.9,34.8,39.9,35.2z M42.6,32c-0.7-1.4-1.7-2.7-2.7-3.9c-0.4-0.5-1.1-0.5-1.5,0.1c-0.9,1-1.6,2-2.3,3.2
				c-0.4,0.7-0.8,1.3-0.8,2.1c0,2.1,1.7,3.8,3.8,3.8C41.8,37.3,43.8,34.5,42.6,32z M39.9,35.2c-1,0.4-2.2-0.1-2.5-1.2
				c-0.1-0.4-0.1-0.8,0.1-1.2c0.5-0.9,1-1.8,1.7-2.6c0.6,0.8,1.2,1.6,1.6,2.5C41.3,33.7,40.9,34.8,39.9,35.2z M42.6,32
				c-0.7-1.4-1.7-2.7-2.7-3.9c-0.4-0.5-1.1-0.5-1.5,0.1c-0.9,1-1.6,2-2.3,3.2c-0.4,0.7-0.8,1.3-0.8,2.1c0,2.1,1.7,3.8,3.8,3.8
				C41.8,37.3,43.8,34.5,42.6,32z M39.9,35.2c-1,0.4-2.2-0.1-2.5-1.2c-0.1-0.4-0.1-0.8,0.1-1.2c0.5-0.9,1-1.8,1.7-2.6
				c0.6,0.8,1.2,1.6,1.6,2.5C41.3,33.7,40.9,34.8,39.9,35.2z M42.6,32c-0.7-1.4-1.7-2.7-2.7-3.9c-0.4-0.5-1.1-0.5-1.5,0.1
				c-0.9,1-1.6,2-2.3,3.2c-0.4,0.7-0.8,1.3-0.8,2.1c0,2.1,1.7,3.8,3.8,3.8C41.8,37.3,43.8,34.5,42.6,32z M39.9,35.2
				c-1,0.4-2.2-0.1-2.5-1.2c-0.1-0.4-0.1-0.8,0.1-1.2c0.5-0.9,1-1.8,1.7-2.6c0.6,0.8,1.2,1.6,1.6,2.5C41.3,33.7,40.9,34.8,39.9,35.2
				z M42.6,32c-0.7-1.4-1.7-2.7-2.7-3.9c-0.4-0.5-1.1-0.5-1.5,0.1c-0.9,1-1.6,2-2.3,3.2c-0.4,0.7-0.8,1.3-0.8,2.1
				c0,2.1,1.7,3.8,3.8,3.8C41.8,37.3,43.8,34.5,42.6,32z M39.9,35.2c-1,0.4-2.2-0.1-2.5-1.2c-0.1-0.4-0.1-0.8,0.1-1.2
				c0.5-0.9,1-1.8,1.7-2.6c0.6,0.8,1.2,1.6,1.6,2.5C41.3,33.7,40.9,34.8,39.9,35.2z M42.6,32c-0.7-1.4-1.7-2.7-2.7-3.9
				c-0.4-0.5-1.1-0.5-1.5,0.1c-0.9,1-1.6,2-2.3,3.2c-0.4,0.7-0.8,1.3-0.8,2.1c0,2.1,1.7,3.8,3.8,3.8C41.8,37.3,43.8,34.5,42.6,32z
				 M39.9,35.2c-1,0.4-2.2-0.1-2.5-1.2c-0.1-0.4-0.1-0.8,0.1-1.2c0.5-0.9,1-1.8,1.7-2.6c0.6,0.8,1.2,1.6,1.6,2.5
				C41.3,33.7,40.9,34.8,39.9,35.2z M42.6,32c-0.7-1.4-1.7-2.7-2.7-3.9c-0.4-0.5-1.1-0.5-1.5,0.1c-0.9,1-1.6,2-2.3,3.2
				c-0.4,0.7-0.8,1.3-0.8,2.1c0,2.1,1.7,3.8,3.8,3.8C41.8,37.3,43.8,34.5,42.6,32z M39.9,35.2c-1,0.4-2.2-0.1-2.5-1.2
				c-0.1-0.4-0.1-0.8,0.1-1.2c0.5-0.9,1-1.8,1.7-2.6c0.6,0.8,1.2,1.6,1.6,2.5C41.3,33.7,40.9,34.8,39.9,35.2z M42.6,32
				c-0.7-1.4-1.7-2.7-2.7-3.9c-0.4-0.5-1.1-0.5-1.5,0.1c-0.9,1-1.6,2-2.3,3.2c-0.4,0.7-0.8,1.3-0.8,2.1c0,2.1,1.7,3.8,3.8,3.8
				C41.8,37.3,43.8,34.5,42.6,32z M39.9,35.2c-1,0.4-2.2-0.1-2.5-1.2c-0.1-0.4-0.1-0.8,0.1-1.2c0.5-0.9,1-1.8,1.7-2.6
				c0.6,0.8,1.2,1.6,1.6,2.5C41.3,33.7,40.9,34.8,39.9,35.2z M42.6,32c-0.7-1.4-1.7-2.7-2.7-3.9c-0.4-0.5-1.1-0.5-1.5,0.1
				c-0.9,1-1.6,2-2.3,3.2c-0.4,0.7-0.8,1.3-0.8,2.1c0,2.1,1.7,3.8,3.8,3.8C41.8,37.3,43.8,34.5,42.6,32z M39.9,35.2
				c-1,0.4-2.2-0.1-2.5-1.2c-0.1-0.4-0.1-0.8,0.1-1.2c0.5-0.9,1-1.8,1.7-2.6c0.6,0.8,1.2,1.6,1.6,2.5C41.3,33.7,40.9,34.8,39.9,35.2
				z M42.6,32c-0.7-1.4-1.7-2.7-2.7-3.9c-0.4-0.5-1.1-0.5-1.5,0.1c-0.9,1-1.6,2-2.3,3.2c-0.4,0.7-0.8,1.3-0.8,2.1
				c0,2.1,1.7,3.8,3.8,3.8C41.8,37.3,43.8,34.5,42.6,32z M39.9,35.2c-1,0.4-2.2-0.1-2.5-1.2c-0.1-0.4-0.1-0.8,0.1-1.2
				c0.5-0.9,1-1.8,1.7-2.6c0.6,0.8,1.2,1.6,1.6,2.5C41.3,33.7,40.9,34.8,39.9,35.2z"/>
			<path class="st1" d="M50.9,47.1c-0.3-0.1-0.3-0.3-0.3-0.5c0-9.4,0-18.7,0-28.1c0-0.3,0.1-0.4,0.3-0.6c1.2-0.6,1.8-1.9,1.5-3.2
				c-0.3-1.3-1.4-2.2-2.7-2.2c-7,0-14,0-21,0c-1.3,0-2.5,0.9-2.8,2.2c-0.3,1.3,0.3,2.6,1.5,3.2c0.3,0.1,0.4,0.3,0.4,0.6
				c0,9.2,0,18.5,0,27.7c0,0.1,0,0.1,0,0.2c0,0.2,0,0.3-0.3,0.3c-0.4,0-0.8,0-1.2,0c-0.4,0-0.5-0.1-0.5-0.5c0-5.1,0-10.3,0-15.4
				c0-0.7-0.1-0.9-0.8-1.2c-0.6-0.2-1.1-0.5-1.7-0.7C23,28.9,23,28.7,23,28.4c0-1.9,0-3.7,0-5.6c0-1.6-1.6-2.9-3.2-2.6
				c-1.5,0.2-2.5,1.4-2.5,2.9c0,1.1,0,2.2,0,3.4c-0.6-0.2-1-0.4-1.5-0.6c-0.5-0.2-0.9,0-1.2,0.4c-0.2,0.2-0.2,0.5-0.2,0.8
				c0,6.5,0,12.9,0,19.4c0,0.3-0.1,0.5-0.4,0.7c-0.9,0.5-1.5,1.3-1.5,2.4c-0.1,1.7,1.2,3,3,3h23.4c3.6,0,7.2,0,10.8,0
				c1.3,0,2.5-0.9,2.8-2.2C52.7,49,52.1,47.7,50.9,47.1z M27.8,15.4c0-0.4,0.3-0.8,0.7-0.9c0.2-0.1,0.4-0.1,0.6-0.1h20.2
				c0.2,0,0.4,0,0.5,0c0.5,0.1,0.8,0.5,0.8,0.9c0,0.5-0.3,0.9-0.8,0.9c-0.2,0-0.3,0-0.5,0H29c-0.2,0-0.4,0-0.6-0.1
				C28,16.2,27.8,15.8,27.8,15.4z M48.7,46.5c0,0.2-0.1,0.3-0.3,0.3c-1.4,0-2.8,0-4.1,0c-0.2,0-0.3-0.1-0.3-0.3c0-1.7,0-3.4,0-5.1
				c0-0.2,0.1-0.3,0.3-0.3c1.4,0,2.8,0,4.1,0c0.2,0,0.3,0.1,0.3,0.3c0,0.9,0,1.7,0,2.6C48.7,44.8,48.7,45.6,48.7,46.5z M48.2,39.2
				c-6,0-12.1,0-18.1,0c-0.4,0-0.5-0.1-0.5-0.4c0-4.2,0-8.3,0-12.5c0-0.3,0.1-0.4,0.4-0.4c3,0,6.1,0,9.1,0c3,0,6,0,9,0
				c0.4,0,0.5,0.1,0.5,0.5c0,4.1,0,8.3,0,12.4C48.7,39.1,48.6,39.2,48.2,39.2z M42,41.4c0,1.7,0,3.4,0,5c0,0.3-0.1,0.3-0.4,0.3
				c-1.7,0-3.4,0-5,0c-0.3,0-0.3-0.1-0.3-0.3c0-1.7,0-3.4,0-5c0-0.3,0.1-0.3,0.3-0.3c0.8,0,1.7,0,2.5,0c0.8,0,1.7,0,2.5,0
				C42,41.1,42,41.1,42,41.4z M34.4,41.4c0,0.9,0,1.7,0,2.6c0,0.8,0,1.7,0,2.5c0,0.2-0.1,0.3-0.3,0.3c-1.4,0-2.8,0-4.2,0
				c-0.2,0-0.3-0.1-0.3-0.3c0-1.7,0-3.5,0-5.2c0-0.2,0.1-0.3,0.3-0.3c1.4,0,2.8,0,4.2,0C34.3,41.1,34.4,41.1,34.4,41.4z M48.3,23.9
				c-3.1,0-6.1,0-9.2,0c-3,0-6,0-9,0c-0.4,0-0.4-0.1-0.4-0.4c0-1.6,0-3.3,0-4.9c0-0.3,0.1-0.4,0.4-0.4c6.1,0,12.2,0,18.2,0
				c0.3,0,0.4,0.1,0.4,0.4c0,1.6,0,3.3,0,4.9C48.7,23.9,48.6,23.9,48.3,23.9z M19.2,23c0-0.5,0.4-0.9,0.9-0.9c0.5,0,1,0.3,1,0.9
				c0,1.7,0,3.4,0,5.1c-0.6-0.2-1.2-0.5-1.7-0.7c-0.2-0.1-0.2-0.2-0.2-0.3C19.2,25.7,19.2,24.3,19.2,23z M16.3,28.2c2.5,1,5,2,7.4,3
				c0.2,0.1,0.2,0.2,0.2,0.3c0,1.2,0,2.4,0,3.6c0,0.2,0,0.3-0.2,0.3c-2.4,0-4.7,0-7.1,0c-0.2,0-0.3,0-0.3-0.2
				C16.3,32.8,16.3,30.6,16.3,28.2z M16.3,37.6c0-0.3,0.1-0.3,0.4-0.3c2.3,0,4.6,0,6.9,0c0.3,0,0.4,0,0.3,0.3c0,1,0,2.1,0,3.2
				c0,0.3-0.1,0.3-0.4,0.3c-1.2,0-2.3,0-3.5,0c-1.1,0-2.3,0-3.4,0c-0.2,0-0.4,0-0.4-0.3C16.3,39.7,16.3,38.6,16.3,37.6z M16.3,43.3
				c0-0.3,0.1-0.3,0.3-0.3c2.3,0,4.6,0,7,0c0.3,0,0.3,0.1,0.3,0.3c0,1.1,0,2.1,0,3.2c0,0.2-0.1,0.3-0.3,0.3c-1.2,0-2.3,0-3.5,0
				c-1.2,0-2.3,0-3.5,0c-0.2,0-0.3-0.1-0.3-0.3C16.3,45.4,16.3,44.4,16.3,43.3z M49.3,50.6H15.7c-0.8,0-1.3-0.3-1.3-0.9
				c0-0.6,0.5-1,1.3-1h33.5c0.8,0,1.3,0.3,1.3,0.9C50.6,50.2,50.1,50.6,49.3,50.6z"/>
		</g>
		<g>
			<path class="st1" d="M42.6,32c-0.7-1.4-1.7-2.7-2.7-3.9c-0.4-0.5-1.1-0.5-1.5,0c-0.8,1-1.6,2-2.3,3.2c-0.4,0.7-0.7,1.4-0.7,2.2
				c0,2.1,1.7,3.8,3.8,3.8C41.8,37.3,43.8,34.5,42.6,32z M39.9,35.2c-1,0.4-2.2-0.1-2.5-1.2c-0.1-0.4-0.1-0.8,0.1-1.2
				c0.5-0.9,1-1.8,1.7-2.6c0.6,0.8,1.2,1.6,1.6,2.5C41.3,33.7,40.9,34.8,39.9,35.2z"/>
		</g>
		<g>
			<path class="st1" d="M42.6,32c-0.7-1.4-1.7-2.7-2.7-3.9c-0.4-0.5-1.1-0.5-1.5,0c-0.8,1-1.6,2-2.3,3.2c-0.4,0.7-0.7,1.4-0.7,2.2
				c0,2.1,1.7,3.8,3.8,3.8C41.8,37.3,43.8,34.5,42.6,32z M39.9,35.2c-1,0.4-2.2-0.1-2.5-1.2c-0.1-0.4-0.1-0.8,0.1-1.2
				c0.5-0.9,1-1.8,1.7-2.6c0.6,0.8,1.2,1.6,1.6,2.5C41.3,33.7,40.9,34.8,39.9,35.2z"/>
		</g>
	</g>
</g>
</svg>
