<?xml version="1.0" encoding="utf-8"?>
<!-- Generator: Adobe Illustrator 26.0.1, SVG Export Plug-In . SVG Version: 6.00 Build 0)  -->
<svg version="1.1" id="Layer_1" xmlns="http://www.w3.org/2000/svg" xmlns:xlink="http://www.w3.org/1999/xlink" x="0px" y="0px"
	 viewBox="0 0 65 65" style="enable-background:new 0 0 65 65;" xml:space="preserve">
<style type="text/css">
	.st0{fill:url(#SVGID_1_);}
	.st1{fill:#FFFFFF;}
</style>
<linearGradient id="SVGID_1_" gradientUnits="userSpaceOnUse" x1="1.8441" y1="11860.4453" x2="62.8081" y2="11907.0166" gradientTransform="matrix(1 0 0 1 0 -11851.3721)">
	<stop  offset="0.1904" style="stop-color:#FF2C2C"/>
	<stop  offset="1" style="stop-color:#991C1C"/>
</linearGradient>
<path class="st0" d="M46.6,65H18.4C8.2,65,0,56.8,0,46.6V18.4C0,8.2,8.2,0,18.4,0h28.3C56.8,0,65,8.2,65,18.4v28.3
	C65,56.8,56.8,65,46.6,65z"/>
<g>
	<g>
		<path class="st1" d="M14.6,31.9c0.1-0.8,0.2-1.6,0.3-2.4C16,22.4,21.6,16.5,28.7,15c6.1-1.2,11.5,0.3,16.2,4.6
			c0.1,0.1,0.2,0.2,0.3,0.3c0.4,0.4,0.4,1.1,0,1.5c-0.4,0.4-1,0.4-1.5,0c-0.7-0.6-1.5-1.3-2.3-1.9c-3-2.1-6.4-3.1-10.1-2.7
			c-6.2,0.6-10.7,3.8-13.3,9.5c-1.2,2.6-1.5,5.4-1.2,8.2c0.4,3.5,1.9,6.6,4.4,9.2c0.7,0.7,0.4,1.6-0.4,1.8c-0.4,0.1-0.8-0.1-1.1-0.4
			c-2.2-2.2-3.7-4.8-4.5-7.8c-0.3-1.2-0.4-2.4-0.6-3.6c0-0.1,0-0.2-0.1-0.4C14.6,32.8,14.6,32.3,14.6,31.9z"/>
		<path class="st1" d="M31.6,50.4c-0.7-0.1-1.5-0.2-2.2-0.4c-1.2-0.3-2.4-0.6-3.6-1c-0.6-0.2-0.9-0.8-0.7-1.4
			c0.2-0.6,0.8-0.8,1.4-0.6c1.6,0.5,3.3,1,5,1.1c2.4,0.2,4.8-0.1,7-1.1c5.5-2.3,8.8-6.5,9.7-12.4c0.6-3.6-0.1-7-1.9-10.1
			c-0.1-0.2-0.2-0.4-0.3-0.6c-0.1-0.5,0.2-1,0.6-1.2c0.5-0.2,1,0,1.3,0.5c0.8,1.4,1.4,2.8,1.9,4.4c2.7,9.7-3.2,19.8-13,22.2
			c-0.9,0.2-1.9,0.3-2.9,0.5c-0.1,0-0.2,0-0.3,0.1C32.9,50.4,32.3,50.4,31.6,50.4z"/>
		<path class="st1" d="M32.5,45.9c-7.4,0-13.4-6.1-13.4-13.4c0-7.4,6-13.5,13.4-13.4c7.4,0,13.4,6,13.4,13.4
			C45.9,39.9,39.9,45.9,32.5,45.9z M32.5,43.8c6.2,0,11.3-5.1,11.3-11.3c0-6.2-5.1-11.3-11.3-11.3c-6.2,0-11.3,5.1-11.3,11.3
			C21.2,38.7,26.3,43.8,32.5,43.8z"/>
		<path class="st1" d="M33.5,39c0,0.4,0,0.7,0,1.1c0,0.6-0.5,1.1-1.1,1.1c-0.6,0-1.1-0.5-1-1.1c0.1-0.7-0.1-1.1-0.8-1.5
			c-1.3-0.6-1.9-1.8-2-3.2c0-0.7,0.4-1.2,1-1.2c0.6,0,1,0.4,1.1,1.1c0.1,0.9,0.6,1.5,1.4,1.7c1,0.2,2-0.5,2.1-1.5
			c0.1-1.1-0.7-2-1.7-2c-1.8-0.1-3.3-1.1-3.7-2.8c-0.6-2,0.4-4,2.3-4.7c0.3-0.1,0.3-0.2,0.3-0.5c0-0.3,0-0.7,0-1
			c0-0.6,0.5-1.1,1.1-1.1c0.6,0,1,0.5,1,1.1c0,0.3,0,0.7,0,1c0,0.2,0.1,0.3,0.3,0.4c1.5,0.6,2.5,2,2.5,3.6c0,0.6-0.4,1.1-1,1.1
			c-0.5,0.1-1-0.4-1.1-1c0-0.2,0-0.4-0.1-0.6c-0.3-0.9-1.1-1.4-2-1.2c-0.9,0.2-1.5,1-1.4,1.9c0.1,0.8,0.8,1.5,1.7,1.6
			c1.9,0.1,3.4,1.2,3.8,3c0.4,1.7-0.4,3.5-2,4.3C34,38.8,33.8,38.9,33.5,39z"/>
	</g>
</g>
</svg>
