<?xml version="1.0" encoding="utf-8"?>
<!-- Generator: Adobe Illustrator 26.0.1, SVG Export Plug-In . SVG Version: 6.00 Build 0)  -->
<svg version="1.1" id="Layer_1" xmlns="http://www.w3.org/2000/svg" xmlns:xlink="http://www.w3.org/1999/xlink" x="0px" y="0px"
	 viewBox="0 0 65 65" style="enable-background:new 0 0 65 65;" xml:space="preserve">
<style type="text/css">
	.st0{fill:url(#SVGID_1_);}
	.st1{fill:none;}
	.st2{fill:#FFFFFF;}
</style>
<linearGradient id="SVGID_1_" gradientUnits="userSpaceOnUse" x1="1.8441" y1="11860.4453" x2="62.8081" y2="11907.0166" gradientTransform="matrix(1 0 0 1 0 -11851.3721)">
	<stop  offset="0.1904" style="stop-color:#FF2C2C"/>
	<stop  offset="1" style="stop-color:#991C1C"/>
</linearGradient>
<path class="st0" d="M46.6,65H18.4C8.2,65,0,56.8,0,46.6V18.4C0,8.2,8.2,0,18.4,0h28.3C56.8,0,65,8.2,65,18.4v28.3
	C65,56.8,56.8,65,46.6,65z"/>
<g>
	<path class="st1" d="M18.4,34.3C18.4,34.3,18.4,34.3,18.4,34.3c-0.7,0-1.4,0.3-1.9,0.8s-0.8,1.2-0.8,1.9c0,1.4,1.2,2.6,2.6,2.6
		c0.7,0,1.4-0.3,1.9-0.8c0.5-0.5,0.8-1.2,0.8-1.9C21,35.5,19.9,34.3,18.4,34.3z M18.8,38c-0.5,0.4-0.7,0.5-0.9,0.5h-0.1
		c-0.3,0-0.7-0.3-0.9-0.6c-0.2-0.3-0.1-0.8,0.1-1.1c0.3-0.4,0.8-0.9,1.2-1.2c0.3-0.2,0.8-0.3,1.1-0.1c0.3,0.1,0.4,0.3,0.5,0.5
		l0.1,0.1l0,0.2C20,36.9,19.2,37.7,18.8,38z"/>
	<path class="st1" d="M39.2,28.4h-8.5v-3.1c0.2,0,0.4,0,0.6,0c0.7,0,1.4,0,2,0.1c1.1,0.1,2.3,0.6,3.5,1.3
		C37.5,27.4,38.3,27.9,39.2,28.4L39.2,28.4z"/>
	<path class="st1" d="M49.2,35.1c-0.5-0.5-1.2-0.8-1.9-0.8c-1.5,0-2.6,1.2-2.6,2.6c0,1.4,1.2,2.6,2.6,2.6c0.7,0,1.4-0.3,1.9-0.8
		c0.5-0.5,0.8-1.2,0.8-1.9S49.7,35.6,49.2,35.1z M48.3,38.5c-0.1,0.1-0.3,0.1-0.4,0.1c-0.2,0-0.4-0.1-0.5-0.2
		c-0.5-0.4-1-0.9-1.4-1.4c-0.2-0.3-0.2-0.6-0.1-1c0.2-0.4,0.6-0.6,1-0.6c0.4,0,1,0.5,1.3,0.9c0.4,0.4,0.8,0.9,0.8,1.3
		C48.9,37.9,48.7,38.3,48.3,38.5z"/>
	<path class="st2" d="M56.5,33.3c-0.3-1.4-1.1-2.4-2.5-2.9c-0.6-0.2-1.1-0.4-1.6-0.6c-2.5-0.8-5.2-1.2-8.8-1.4
		c-0.2,0-0.5-0.1-0.7-0.2c-1.7-1-3.4-2.1-5-3.2c-1.8-1.1-3.6-1.7-5.5-1.8c-2.6,0-5.2,0-7.5,0c-0.5,0-1.1,0.1-1.6,0.2l-0.1,0
		c-1.4,0.2-2.7,0.9-3.9,1.5l-0.3,0.1c-0.3,0.2-0.6,0.3-1,0.5c-1.1,0.6-2.1,1.1-3.3,1.4c-0.8,0.2-1.7,0.3-2.5,0.4
		c-0.5,0.1-0.9,0.1-1.4,0.2c-1.4,0.2-2.3,1.2-2.3,2.6v4.2c0,1.7,0.9,2.9,2.5,3.4c0.4,0.1,0.7,0.2,1.1,0.3c0.6,0.2,1.1,0.3,1.7,0.5
		c0.1,0,0.2,0.1,0.2,0.2c0.8,1.8,2.2,2.8,4,2.9c1.8,0.1,3.2-0.5,4.3-2c0.1-0.1,0.1-0.2,0.3-0.2c6.8,0,13.7,0,20.5,0
		c0.2,0,0.2,0,0.3,0.2c1,1.3,2.3,2.1,3.9,2.1c0,0,0,0,0,0c2.5,0,4.6-2,4.8-4.5c0.2-2.5-1.7-4.7-4.1-5c-2.6-0.3-4.9,1.3-5.4,3.9
		c-0.1,0.4-0.1,0.8-0.1,1.1v0.1H23.2c0-0.1,0-0.3-0.1-0.4c-0.1-0.5-0.2-1.1-0.3-1.6c-0.2-0.8-0.7-1.5-1.5-2.1
		c-0.7-0.5-1.5-0.9-2.3-1c-1.2-0.1-2.3,0.1-3.2,0.8c-1.1,0.8-1.8,1.9-2.1,3.3l-0.5-0.1c-0.6-0.2-1.2-0.3-1.8-0.5
		c-0.3-0.1-0.8-0.4-0.8-1c0-0.5,0-1,0-1.5c0-0.1,0-0.2,0-0.3h0.1c0.4,0,1.3,0,1.3-1.1c0-1-0.9-1.1-1.3-1.1c0,0-0.1,0-0.1,0v-0.5
		c0-0.4,0.1-0.5,0.5-0.5c0.3,0,0.6-0.1,0.9-0.1l0.2,0c1.5-0.2,3.3-0.4,4.9-1.1c0.7-0.3,0.7-0.3,1.2,0.2c1.3,1.5,3,2.1,5.4,1.9
		c0.3,0,0.7-0.2,0.8-0.4c0.2-0.2,0.2-0.5,0.2-0.8c-0.1-0.6-0.5-0.9-1.1-0.9c-0.4,0-0.8,0-1.2,0h-0.1l0.1-0.3
		c0.2-0.8,0.4-1.6,0.6-2.4c0,0,0.1,0,0.1,0c1.3-0.4,2.6-0.3,4-0.3c0.5,0,1,0,1.5,0v3.1h-0.7c-0.4,0-0.8,0-1.2,0c-0.6,0-1,0.5-1,1
		c0,0.6,0.4,1,1,1.1c0.2,0,0.3,0,0.5,0h4.1c3.2,0,6.5,0,9.8,0c2.1,0,4.3,0.1,6.5,0.3c2,0.2,3.8,0.6,5.5,1.3
		c-0.3,0.1-0.5,0.3-0.6,0.6c-0.1,0.3,0,0.7,0.2,1c0.2,0.3,0.6,0.4,0.9,0.4c0.3,0,0.7,0,1,0l0,0.5c0,0.7,0,1.3,0,2
		c0,0.4-0.1,0.5-0.5,0.5c-0.7,0.1-1,0.6-1,1.2c0.1,0.6,0.6,1,1.3,0.9c1-0.1,1.7-0.7,2.1-1.7l0.2-0.5l0-3.8L56.5,33.3z M47.3,34.3
		c0.7,0,1.4,0.3,1.9,0.8c0.5,0.5,0.8,1.2,0.8,1.9s-0.3,1.4-0.8,1.9c-0.5,0.5-1.1,0.8-1.9,0.8c-1.4,0-2.6-1.2-2.6-2.6
		C44.7,35.5,45.8,34.3,47.3,34.3z M16.5,35.1c0.5-0.5,1.2-0.8,1.9-0.8c0,0,0,0,0,0c1.5,0,2.6,1.1,2.6,2.6c0,0.7-0.3,1.4-0.8,1.9
		c-0.5,0.5-1.2,0.8-1.9,0.8c-1.4,0-2.6-1.2-2.6-2.6C15.8,36.3,16,35.6,16.5,35.1z M20.7,29.1l-2-2.4l2.8-1.4L20.7,29.1z M30.6,28.4
		v-3.1c0.2,0,0.4,0,0.6,0c0.7,0,1.4,0,2,0.1c1.1,0.1,2.3,0.6,3.5,1.3c0.8,0.5,1.6,1,2.3,1.5l0.1,0.1H30.6z"/>
	<path class="st2" d="M41.7,35.5c0,0.5-0.3,0.9-0.9,1c-0.2,0-0.3,0-0.5,0H25.5c-0.2,0-0.4,0-0.6,0C24.3,36.4,24,36,24,35.4
		c0-0.5,0.4-0.9,0.9-1c0.2,0,0.3,0,0.5,0h14.9c0.1,0,0.3,0,0.5,0C41.4,34.5,41.7,34.9,41.7,35.5z"/>
	<path class="st2" d="M20,36.3c0,0.6-0.8,1.4-1.2,1.7c-0.5,0.4-0.7,0.5-0.9,0.5h-0.1c-0.3,0-0.7-0.3-0.9-0.6
		c-0.2-0.3-0.1-0.8,0.1-1.1c0.3-0.4,0.8-0.9,1.2-1.2c0.3-0.2,0.8-0.3,1.1-0.1c0.3,0.1,0.4,0.3,0.5,0.5l0.1,0.1L20,36.3z"/>
	<path class="st2" d="M48.9,37.5c0,0.4-0.2,0.8-0.6,1c-0.1,0.1-0.3,0.1-0.4,0.1c-0.2,0-0.4-0.1-0.5-0.2c-0.5-0.4-1-0.9-1.4-1.4
		c-0.2-0.3-0.2-0.6-0.1-1c0.2-0.4,0.6-0.6,1-0.6c0.4,0,1,0.5,1.3,0.9C48.5,36.6,48.9,37.1,48.9,37.5z"/>
</g>
</svg>
