<?xml version="1.0" encoding="utf-8"?>
<!-- Generator: Adobe Illustrator 26.0.1, SVG Export Plug-In . SVG Version: 6.00 Build 0)  -->
<svg version="1.1" id="Layer_1" xmlns="http://www.w3.org/2000/svg" xmlns:xlink="http://www.w3.org/1999/xlink" x="0px" y="0px"
	 viewBox="0 0 65 65" style="enable-background:new 0 0 65 65;" xml:space="preserve">
<style type="text/css">
	.st0{fill:url(#SVGID_1_);}
	.st1{fill:none;}
	.st2{fill:#FFFFFF;stroke:#FFFFFF;stroke-miterlimit:10;}
</style>
<linearGradient id="SVGID_1_" gradientUnits="userSpaceOnUse" x1="1.8441" y1="11860.4453" x2="62.8081" y2="11907.0166" gradientTransform="matrix(1 0 0 1 0 -11851.3721)">
	<stop  offset="0.1904" style="stop-color:#FF2C2C"/>
	<stop  offset="1" style="stop-color:#991C1C"/>
</linearGradient>
<path class="st0" d="M46.6,65H18.4C8.2,65,0,56.8,0,46.6V18.4C0,8.2,8.2,0,18.4,0h28.3C56.8,0,65,8.2,65,18.4v28.3
	C65,56.8,56.8,65,46.6,65z"/>
<g>
	<rect x="30.6" y="40.1" class="st1" width="2" height="7.4"/>
	<path class="st1" d="M45.1,22.2c1.3,0,2.4-1,2.4-2.3c0-1.4-1-2.4-2.4-2.5c-1.3,0-2.4,1-2.4,2.3C42.7,21.1,43.8,22.2,45.1,22.2z"/>
	<path class="st1" d="M27.5,33.4c0.8-0.7,1.5-1.4,2.4-2.1c0.5-0.4,0.7-0.8,0.6-1.4c0-0.2-0.1-0.4-0.2-0.6c-0.6-0.6-1.2-1.2-1.8-1.8
		C28,27,28,26.4,28.4,26c0.4-0.4,1-0.4,1.5,0.1c0.2,0.2,0.4,0.3,0.6,0.6c0-1.1,0-2,0-3c0-0.6,0.4-1,1-1c0.6,0,1,0.5,1,1.1v5.2
		c0.2-0.1,0.2-0.2,0.3-0.3c0.9-0.8,1.8-1.6,2.6-2.4c0.5-0.4,0.8-0.4,1.4-0.1c0,0,0.1,0,0.1,0.1c0-0.1,0-0.1,0-0.2c0-1.1,0-2.1,0-3.2
		c0-0.4-0.1-0.8-0.2-1.2c-0.6-2.7-3.2-4.5-5.9-4.2c-2.8,0.4-4.8,2.7-4.8,5.5V27c0,1.5,0,2.9,0.3,4.4c0.2,0.8,0.3,1.5,0.9,2.1
		C27.4,33.5,27.5,33.4,27.5,33.4z"/>
	<path class="st1" d="M22.5,26.5c-0.5-0.9-1-1.7-1.5-2.6C21,23.9,21,24,20.9,24c-0.9,1.5-1.8,3-2.4,4.7c-1.3,3.2-1.3,6.3-0.2,9.5
		c0.3,1,0.8,2,1.7,2.7c0.7,0.6,1.4,0.6,2.1,0c0.7-0.5,1.1-1.3,1.5-2.1c-0.8-0.6-0.8-1.2-0.1-1.9c0.2-0.2,0.5-0.4,0.7-0.6
		c0.1-0.1,0.2-0.2,0.2-0.3c0.2-1.5,0.3-2.9,0.1-4.4C24.1,29.8,23.4,28.1,22.5,26.5z"/>
	<path class="st1" d="M22.3,43.1c-0.2,0.1-0.3,0.2-0.3,0.4c0,1.2,0,2.5,0,3.7v0.3h2.6v-6.4c-0.1,0.2-0.2,0.2-0.3,0.3
		C23.8,42.2,23.1,42.8,22.3,43.1z"/>
	<path class="st1" d="M38.7,42.8c0,0.2,0.1,0.2,0.3,0.2h2.6v-2.8h-2.8V42.8z"/>
	<path class="st1" d="M37.6,29.5c-0.4-0.4-0.9-0.8-1.3-1.2c-0.1,0.1-0.1,0.1-0.2,0.1c-3.1,2.8-6.2,5.5-9.3,8.2
		c-0.1,0.1-0.2,0.3-0.2,0.5c0,3.3,0,6.7,0,10c0,0.1,0,0.2,0,0.4h2v-8.2c0-0.8,0.4-1.2,1.2-1.2h3.6c0.9,0,1.2,0.4,1.2,1.2v8.2h11.3
		c0-0.1,0-0.1,0-0.2c0-3.4,0-6.8,0-10.2c0-0.1-0.1-0.3-0.2-0.4C43,34.3,40.3,31.9,37.6,29.5z M43.6,43.8c0,0.7-0.4,1.1-1.2,1.1
		c-0.8,0-1.5,0-2.3,0c-0.8,0-1.5,0-2.3,0c-0.7,0-1.1-0.4-1.1-1.1v-4.6c0-0.7,0.4-1.1,1.1-1.1h4.6c0.7,0,1.1,0.4,1.1,1.1V43.8z"/>
	<path class="st2" d="M48.7,47.6c-0.3,0-0.5,0-0.8,0v-8.8c0.2,0.1,0.3,0.1,0.4,0.1c0.5,0.1,0.9-0.1,1.1-0.5c0.2-0.4,0.1-0.9-0.2-1.2
		c-0.7-0.6-1.3-1.3-2-1.8c-0.7-0.5-1-1.2-0.9-2.1c0.1-1.2,0-2.5,0-3.7c0-0.8-0.4-1.2-1-1.2c-0.6,0-1,0.5-1,1.3v3.1
		c-0.1-0.1-0.2-0.1-0.2-0.2c-1.6-1.4-3.2-2.8-4.8-4.3C39.1,28.2,39,28,39,27.8c0-1.6,0-3.2,0-4.8c0-3.6-2.4-6.6-5.8-7.4
		c-4.2-1-8.6,2.1-9,6.4c-0.1,0.8-0.1,1.7-0.1,2.5V25c-0.1-0.2-0.2-0.3-0.2-0.4c-0.7-1-1.3-2.1-2-3.1c-0.4-0.6-1.2-0.6-1.7,0
		c-1.9,2.7-3.5,5.5-4.3,8.7c-0.9,3.4-0.5,6.7,1,9.9c0.4,0.9,1,1.8,1.9,2.4c0.3,0.2,0.6,0.4,0.9,0.5c0.2,0.1,0.3,0.2,0.3,0.5
		c0,1.2,0,2.4,0,3.6v0.4c-0.1,0-0.3,0-0.4,0c-1,0-2,0-3,0c-0.6,0-1.1,0.2-1.3,0.8v0.5c0.2,0.6,0.7,0.8,1.3,0.8c10.5,0,21.1,0,31.6,0
		c0.1,0,0.2,0,0.4,0c0.5,0,0.9-0.4,0.9-1C49.6,48.1,49.3,47.7,48.7,47.6z M24.6,47.5H22v-0.3c0-1.2,0-2.4,0-3.7c0-0.2,0-0.3,0.3-0.4
		c0.9-0.3,1.5-0.9,2-1.6c0.1-0.1,0.1-0.2,0.3-0.3V47.5z M24.4,36c0,0.1-0.1,0.2-0.2,0.3c-0.2,0.2-0.5,0.4-0.7,0.6
		c-0.8,0.7-0.8,1.3,0.1,1.9c-0.3,0.8-0.8,1.5-1.5,2.1c-0.7,0.6-1.5,0.6-2.1,0c-0.9-0.7-1.3-1.7-1.7-2.7c-1.1-3.2-1.1-6.4,0.2-9.5
		c0.7-1.6,1.5-3.2,2.4-4.7c0,0,0.1-0.1,0.1-0.2c0.5,0.9,1,1.8,1.5,2.6c0.9,1.7,1.6,3.4,1.9,5.2C24.7,33.1,24.6,34.6,24.4,36z
		 M26.1,27v-4.1c0-2.8,2.1-5.1,4.8-5.5c2.7-0.3,5.3,1.5,5.9,4.2C37,22,37,22.5,37,22.9c0,1.1,0,2.1,0,3.2c0,0,0,0.1,0,0.2
		c-0.1,0-0.1,0-0.1-0.1c-0.5-0.3-0.9-0.3-1.4,0.1c-0.9,0.8-1.8,1.6-2.6,2.4c-0.1,0.1-0.2,0.2-0.3,0.3v-5.2c0-0.6-0.5-1.1-1-1.1
		c-0.5,0-1,0.5-1,1c0,1,0,1.9,0,3c-0.2-0.2-0.4-0.4-0.6-0.6c-0.5-0.5-1.1-0.5-1.5-0.1c-0.4,0.4-0.4,1,0.1,1.5
		c0.6,0.6,1.2,1.2,1.8,1.8c0.2,0.2,0.2,0.3,0.2,0.6c0.1,0.6-0.1,1.1-0.6,1.4c-0.8,0.7-1.6,1.4-2.4,2.1c-0.1,0-0.1,0.1-0.2,0.1
		c-0.6-0.6-0.8-1.3-0.9-2.1C26,29.9,26.1,28.5,26.1,27z M32.6,47.5h-2v-7.4h2V47.5z M45.9,47.3c0,0.1,0,0.1,0,0.2H34.6v-8.2
		c0-0.9-0.4-1.2-1.2-1.2h-3.6c-0.8,0-1.2,0.4-1.2,1.2v8.2h-2c0-0.1,0-0.2,0-0.4c0-3.3,0-6.7,0-10c0-0.1,0.1-0.4,0.2-0.5
		c3.1-2.8,6.2-5.5,9.3-8.2c0,0,0.1-0.1,0.2-0.1c0.4,0.4,0.9,0.8,1.3,1.2c2.7,2.4,5.4,4.8,8.1,7.2c0.1,0.1,0.2,0.3,0.2,0.4
		C45.9,40.5,45.9,43.9,45.9,47.3z"/>
	<path class="st2" d="M45.1,24.2c2.4,0,4.4-2,4.4-4.4c0-2.4-2-4.4-4.4-4.4c-2.4,0-4.4,2-4.4,4.4C40.7,22.3,42.7,24.2,45.1,24.2z
		 M45.2,17.4c1.4,0,2.4,1.1,2.4,2.5c0,1.3-1.1,2.3-2.4,2.3c-1.3,0-2.4-1.1-2.4-2.5C42.8,18.5,43.8,17.4,45.2,17.4z"/>
	<path class="st2" d="M42.4,38.1h-4.6c-0.7,0-1.1,0.4-1.1,1.1v4.6c0,0.7,0.4,1.1,1.1,1.1c0.8,0,1.5,0,2.3,0c0.8,0,1.5,0,2.3,0
		c0.8,0,1.2-0.4,1.2-1.1v-4.6C43.6,38.5,43.2,38.1,42.4,38.1z M41.6,43H39c-0.1,0-0.3,0-0.3-0.2v-2.6h2.8V43z"/>
</g>
</svg>
