<?xml version="1.0" encoding="utf-8"?>
<!-- Generator: Adobe Illustrator 26.0.1, SVG Export Plug-In . SVG Version: 6.00 Build 0)  -->
<svg version="1.1" id="Layer_1" xmlns="http://www.w3.org/2000/svg" xmlns:xlink="http://www.w3.org/1999/xlink" x="0px" y="0px"
	 viewBox="0 0 65 65" style="enable-background:new 0 0 65 65;" xml:space="preserve">
<style type="text/css">
	.st0{fill:url(#SVGID_1_);}
	.st1{fill:#FFFFFF;}
</style>
<linearGradient id="SVGID_1_" gradientUnits="userSpaceOnUse" x1="1.8441" y1="11860.4453" x2="62.8081" y2="11907.0166" gradientTransform="matrix(1 0 0 1 0 -11851.3721)">
	<stop  offset="0.1904" style="stop-color:#FF2C2C"/>
	<stop  offset="1" style="stop-color:#991C1C"/>
</linearGradient>
<path class="st0" d="M46.6,65H18.4C8.2,65,0,56.8,0,46.6V18.4C0,8.2,8.2,0,18.4,0h28.3C56.8,0,65,8.2,65,18.4v28.3
	C65,56.8,56.8,65,46.6,65z"/>
<g>
	<g>
		<g>
			<path class="st1" d="M38.4,45.3c-0.3,0.8-0.3,1.5-0.2,2.1c0.1,0.3,0.2,0.4,0.3,0.5c0.1,0.1,0.3,0.1,0.6,0
				c0.3-0.1,0.5-0.2,0.9-0.4l0.6-0.4c3.6-2.3,7.2-4.5,10.8-6.8c0.3-0.2,0.7-0.6,1-1c0.3-0.4,0.4-0.8,0.4-1.2c-0.1,0-0.2,0.1-0.3,0.2
				c-3.4,2.2-6.9,4.3-10.3,6.5l-1.3,0.8c-1,0.6-1.5,0.3-1.8-0.1C39,45.3,38.9,45,39,44.7c0.1-0.3,0.3-0.7,0.8-0.9l0.9-0.5
				c3.6-2.3,7.2-4.5,10.8-6.8c0.2-0.1,0.5-0.3,0.7-0.4c0.6-0.2,1.1-0.3,1.6-0.1c0.5,0.2,0.9,0.6,1.1,1.2c0,0.1,0.1,0.2,0.1,0.2
				l0,0.2l0,1.1c-0.1,0.2-0.1,0.3-0.2,0.5c-0.1,0.4-0.3,0.9-0.6,1.2c-0.5,0.7-1,1.2-1.5,1.6c-3.4,2.2-7.1,4.5-11.6,7.3
				c-0.4,0.3-1.1,0.6-1.8,0.7c-0.1,0-0.3,0-0.5,0c-0.6,0-1.2-0.2-1.7-0.6c-0.6-0.5-1-1.3-1.1-2.3c-0.1-1.8,0.4-3.6,1.7-5.5
				c0.6-0.8,1.4-1.6,2.4-2.2c3-1.8,5.9-3.7,8.9-5.6l2.8-1.8L48,29.9c-6.6-4.2-13.3-8.4-19.9-12.6c-0.2-0.1-0.2-0.1-0.4,0
				c-2.8,1.8-5.6,3.6-8.5,5.3L15,25.3c-2,1.3-3.2,3.9-2.8,6c0.4,1.8,1.3,3.3,2.9,4.2c6.6,4.1,13.1,8.3,19.7,12.4
				c0.2,0.1,0.4,0.2,0.5,0.4c0.4,0.4,0.4,0.9,0.1,1.3c-0.3,0.4-0.8,0.6-1.2,0.4c-0.2-0.1-0.3-0.2-0.5-0.2c-1.9-1.2-3.8-2.4-5.6-3.5
				c-4.7-2.9-9.5-6-14.2-9c-2.9-1.9-4.2-4.6-3.7-8c0.3-2.4,1.6-4.4,3.7-5.7c2.7-1.7,5.4-3.4,8.1-5.1c1.8-1.1,3.5-2.2,5.2-3.3
				c0.5-0.3,1-0.3,1.6,0l25.6,16.1c0.2,0.1,0.3,0.3,0.4,0.4c0.1,0.1,0.1,0.1,0.2,0.2l0.1,0.1v0.7l-0.1,0.1c-0.1,0.1-0.1,0.1-0.2,0.2
				c-0.1,0.1-0.3,0.3-0.5,0.4l-1.9,1.2c-3.6,2.3-7.2,4.6-10.8,6.8C40,42.3,39,43.6,38.4,45.3z"/>
		</g>
		<g>
			<path class="st1" d="M33.1,28c0,0.4-0.2,0.7-0.6,1c-0.5,0.3-1,0.6-1.5,0.9c-0.6,0.4-1.2,0.3-1.6-0.3c-0.3-0.5-0.2-1.1,0.4-1.5
				c0,0,0.1-0.1,0.1-0.1c-0.3-0.2-0.7-0.4-1-0.6c-1.2-0.8-2.4-1.5-3.5-2.2c-0.5-0.3-0.7-0.3-1.2,0c-0.9,0.6-1.8,1.2-2.8,1.8
				c-0.2,0.1-0.5,0.3-0.7,0.4l1.3,0.8c1.2,0.8,2.5,1.5,3.7,2.3c0.1,0.1,0.2,0.1,0.2,0c0.3-0.2,0.6-0.4,0.9-0.6
				c0.5-0.3,1.2-0.2,1.5,0.3c0.3,0.5,0.2,1.1-0.3,1.5L28,31.9c-0.5,0.3-0.9,0.7-1.5,0.9c-0.2,0.1-0.4,0.1-0.6,0.1
				c-0.2,0-0.5,0-0.6-0.1c-2.4-1.5-4.8-3-7.1-4.4c-0.4-0.2-0.6-0.6-0.6-0.9s0.2-0.7,0.6-1c1.4-0.9,2.8-1.7,4.1-2.6l1.8-1.2
				c0.4-0.3,0.8-0.3,1.3,0l1.9,1.2c1.7,1,3.4,2.1,5,3.2C32.9,27.3,33.1,27.6,33.1,28z"/>
		</g>
		<g>
			<path class="st1" d="M35.1,40.7c0,0.3-0.2,0.7-0.5,0.8c-0.2,0.1-0.4,0.2-0.5,0.2c-0.1,0-0.3,0-0.4-0.1c-0.1-0.1-0.3-0.1-0.4-0.2
				l-0.1,0c-5.7-3.6-11.4-7.1-17.2-10.7c-0.2-0.1-0.4-0.2-0.5-0.4c-0.4-0.4-0.4-0.9-0.1-1.3c0.3-0.4,0.8-0.6,1.2-0.4
				c0.2,0.1,0.3,0.1,0.5,0.2l17.3,10.8C34.7,39.7,35.1,40,35.1,40.7z"/>
		</g>
		<g>
			<path class="st1" d="M45.8,32.2c0,0.4-0.2,0.7-0.5,0.9c-0.2,0.1-0.4,0.2-0.6,0.2c-0.1,0-0.2,0-0.4-0.1c-0.2-0.1-0.3-0.2-0.5-0.2
				L27.6,22.8c-1-0.7-0.8-1.3-0.6-1.7c0.2-0.3,0.4-0.4,0.6-0.5c0.3-0.1,0.7,0,1.2,0.3l16.3,10.3C45.4,31.4,45.8,31.7,45.8,32.2z"/>
		</g>
		<g>
			<path class="st1" d="M37.1,38.1c0,0.4-0.2,0.7-0.5,0.9c-0.2,0.1-0.4,0.2-0.6,0.2c-0.1,0-0.3,0-0.4-0.1c-0.1,0-0.3-0.1-0.4-0.2
				l-6.8-4.2c-0.2-0.1-0.3-0.2-0.4-0.3c-0.4-0.4-0.4-0.9-0.1-1.3c0.3-0.4,0.8-0.6,1.2-0.4c0.1,0.1,0.3,0.1,0.4,0.2l6.8,4.2
				C36.6,37.2,37.1,37.5,37.1,38.1z"/>
		</g>
		<g>
			<path class="st1" d="M39.8,36.7c-0.2,0.3-0.5,0.5-0.8,0.5c-0.1,0-0.3,0-0.4-0.1c-0.1,0-0.2-0.1-0.4-0.2l-1.1-0.7
				c-1.9-1.2-3.8-2.3-5.7-3.5l-0.1,0c-0.2-0.1-0.4-0.2-0.5-0.4c-0.2-0.4-0.2-0.8-0.1-1c0.1-0.2,0.3-0.4,0.5-0.5
				c0.1,0,0.1-0.1,0.2-0.1l0.2-0.1l0.4,0.2c0.2,0.1,0.3,0.1,0.4,0.2c2.1,1.3,4.2,2.6,6.3,3.9l0.5,0.3c0.1,0.1,0.2,0.2,0.3,0.2
				C40.1,35.7,40.1,36.3,39.8,36.7z"/>
		</g>
		<g>
			<path class="st1" d="M42.9,34c0,0.5-0.2,0.9-0.5,1.1c-0.2,0.1-0.4,0.2-0.6,0.2c-0.1,0-0.3,0-0.4-0.1c-0.1,0-0.2-0.1-0.4-0.2
				l-6.7-4.2c-0.1-0.1-0.2-0.1-0.3-0.2c-0.5-0.4-0.6-1-0.3-1.5c0.3-0.5,0.9-0.6,1.5-0.3c0.4,0.2,0.7,0.4,1.1,0.6l1.6,1
				c1.4,0.9,2.8,1.8,4.3,2.7c0.2,0.1,0.4,0.4,0.5,0.5c0,0.1,0.1,0.1,0.1,0.1l0.1,0.1L42.9,34z"/>
		</g>
	</g>
</g>
</svg>
