<?xml version="1.0" encoding="utf-8"?>
<!-- Generator: Adobe Illustrator 26.0.1, SVG Export Plug-In . SVG Version: 6.00 Build 0)  -->
<svg version="1.1" id="Layer_1" xmlns="http://www.w3.org/2000/svg" xmlns:xlink="http://www.w3.org/1999/xlink" x="0px" y="0px"
	 viewBox="0 0 65 65" style="enable-background:new 0 0 65 65;" xml:space="preserve">
<style type="text/css">
	.st0{fill:url(#SVGID_1_);}
	.st1{fill:#FFFFFF;stroke:#FFFFFF;stroke-width:0.5669;stroke-miterlimit:10;}
</style>
<linearGradient id="SVGID_1_" gradientUnits="userSpaceOnUse" x1="1.8441" y1="11860.4453" x2="62.8081" y2="11907.0166" gradientTransform="matrix(1 0 0 1 0 -11851.3721)">
	<stop  offset="0.1904" style="stop-color:#FF2C2C"/>
	<stop  offset="1" style="stop-color:#991C1C"/>
</linearGradient>
<path class="st0" d="M46.6,65H18.4C8.2,65,0,56.8,0,46.6V18.4C0,8.2,8.2,0,18.4,0h28.3C56.8,0,65,8.2,65,18.4v28.3
	C65,56.8,56.8,65,46.6,65z"/>
<g>
	<g>
		<path class="st1" d="M54.1,32c-1.1-2.3-2.1-4.6-3.2-6.9c-0.2-0.4-0.4-0.6-0.8-0.8c-3.1-1.2-6.2-2.4-9.4-3.6
			c-0.3-0.1-0.5-0.3-0.6-0.6c-0.6-1.2-1.2-2.4-1.8-3.5c-0.3-0.5-0.6-0.7-1.2-0.4c-0.5,0.2-1,0.4-1.6,0.7c-0.4,0.2-0.6,0.6-0.4,1
			c0.1,0.4,0.6,0.6,1,0.4c0.2-0.1,0.4-0.1,0.6-0.3c0.3-0.2,0.5-0.1,0.6,0.3c3.4,6.7,6.8,13.3,10.2,20c0.2,0.3,0.1,0.4-0.2,0.6
			c-1.8,0.8-3.7,1.6-5.5,2.4c-0.3,0.2-0.5,0.1-0.6-0.2c-1-2-2.1-4.1-3.1-6.1c-2.4-4.7-4.8-9.4-7.2-14.1c-0.1-0.3-0.1-0.4,0.2-0.5
			c0.6-0.2,1.3-0.5,1.9-0.8c0.6-0.2,0.8-0.6,0.6-1.1c-0.2-0.4-0.6-0.6-1.2-0.3c-2.7,1.1-5.5,2.1-8.2,3.1c-0.8,0.3-1,0.7-0.6,1.4
			c0.8,1.6,1.6,3.1,2.4,4.7c0.1,0.3,0.1,0.4-0.2,0.5c-0.3,0.1-0.6,0.2-0.9,0.3c-1.2,0.5-2.5,0.9-3.7,1.4c-0.4,0.2-0.6,0.6-0.5,1
			c0.1,0.4,0.5,0.6,0.9,0.5c0.2,0,0.3-0.1,0.5-0.2c1.4-0.5,2.9-1,4.3-1.6c0.3-0.1,0.4-0.1,0.5,0.2c0.6,1.1,1.1,2.2,1.7,3.4
			c0.1,0.2,0.1,0.3-0.2,0.5c-1.4,0.6-2.8,1.1-4.2,1.7c-0.2,0.1-0.3,0.1-0.5,0c-2-0.8-4.1-1.7-6.2-2.5c0.3-0.1,0.6-0.2,0.9-0.3
			c0.5-0.2,0.7-0.6,0.6-1.1c-0.2-0.4-0.6-0.6-1.1-0.4c-0.9,0.3-1.8,0.7-2.6,1c-0.3,0.1-0.5,0.3-0.7,0.6c-1.3,2.5-2.6,4.9-3.9,7.4
			c-0.4,0.7-0.2,1.1,0.5,1.4c4,1.7,8.1,3.5,12.1,5.2c0.5,0.2,0.9,0.2,1.3,0c2.8-1.3,5.6-2.5,8.4-3.7c0.3-0.1,0.4-0.1,0.5,0.2
			c0.9,1.8,1.9,3.7,2.8,5.5c0.4,0.8,0.7,0.9,1.5,0.5c3.5-1.6,7.1-3.2,10.6-4.9c1-0.5,1.4-0.4,1.1-1.9c0-0.1,0-0.2,0-0.2
			c-0.1-1.6-0.2-3.2-1.2-4.6c-0.2-0.2-0.3-0.6-0.4-0.8c-0.2-0.3-0.1-0.4,0.2-0.6c1.7-0.7,3.4-1.5,5-2.2C54.3,33.1,54.4,32.8,54.1,32
			z M23.5,40.4c0,1.2,0,2.4,0,3.6c0,0.4-0.1,0.4-0.4,0.2c-3.4-1.5-6.8-2.9-10.2-4.4c-0.3-0.1-0.3-0.2-0.1-0.4c1-1.9,2-3.8,3.1-5.8
			c0.1-0.3,0.3-0.3,0.5-0.2c2.3,0.9,4.5,1.9,6.8,2.8c0.2,0.1,0.3,0.2,0.3,0.5C23.4,38,23.5,39.2,23.5,40.4z M43.4,26.7
			c-0.7-1.3-1.3-2.6-2.1-4.1c2.2,0.9,4.4,1.7,6.5,2.5c-0.1,0.2-0.4,0.2-0.6,0.3c-1.1,0.5-2.3,0.9-3.4,1.4C43.7,27,43.5,27,43.4,26.7
			z M32.6,41c-2.4,1.1-4.9,2.1-7.3,3.2C25,44.4,25,44.3,25,44c0-1.2,0-2.4,0-3.6c0-1.2,0-2.4,0-3.5c0-0.3,0.1-0.5,0.4-0.6
			c1.3-0.5,2.7-1.1,4-1.7c0.3-0.1,0.4-0.1,0.5,0.2c1,1.9,2,3.9,2.9,5.8C32.9,40.8,32.9,40.9,32.6,41z M37.6,46.6c-1-2-2-3.9-3-5.8
			c-3-5.9-6-11.8-9.1-17.8c-0.2-0.4-0.2-0.5,0.2-0.6c1.1-0.4,2.2-0.8,3.3-1.2c0.3-0.1,0.4,0,0.5,0.2c3.5,6.9,7,13.8,10.6,20.7
			c0.1,0.2,0.1,0.3,0,0.5C39.3,43.9,38.5,45.2,37.6,46.6z M48.4,42.1c0,0.2-0.1,0.2-0.2,0.3c-2.8,1.3-5.5,2.5-8.3,3.8
			c0,0-0.1,0-0.2,0c0.7-1,1.3-2,1.9-3c0.1-0.1,0.2-0.2,0.3-0.2c2.1-0.9,4.1-1.8,6.2-2.8C48.2,40.8,48.3,41.5,48.4,42.1z M52.2,32.4
			c-1.5,0.7-3,1.3-4.5,2c-0.2,0.1-0.3,0.1-0.4-0.1c-0.9-1.9-1.9-3.7-2.8-5.6c-0.1-0.2-0.1-0.3,0.1-0.4c1.6-0.7,3.2-1.3,4.9-2
			c0,0,0.1,0,0.1-0.1c0.2,0,0.2,0.1,0.2,0.2c0.9,1.9,1.7,3.7,2.6,5.6C52.5,32.2,52.4,32.3,52.2,32.4z"/>
	</g>
</g>
</svg>
