<?xml version="1.0" encoding="utf-8"?>
<!-- Generator: Adobe Illustrator 26.0.1, SVG Export Plug-In . SVG Version: 6.00 Build 0)  -->
<svg version="1.1" id="Layer_1" xmlns="http://www.w3.org/2000/svg" xmlns:xlink="http://www.w3.org/1999/xlink" x="0px" y="0px"
	 viewBox="0 0 65 65" style="enable-background:new 0 0 65 65;" xml:space="preserve">
<style type="text/css">
	.st0{fill:url(#SVGID_1_);}
	.st1{fill:#FFFFFF;}
</style>
<linearGradient id="SVGID_1_" gradientUnits="userSpaceOnUse" x1="1.8441" y1="11860.4453" x2="62.8081" y2="11907.0166" gradientTransform="matrix(1 0 0 1 0 -11851.3721)">
	<stop  offset="0.1904" style="stop-color:#FF2C2C"/>
	<stop  offset="1" style="stop-color:#991C1C"/>
</linearGradient>
<path class="st0" d="M46.6,65H18.4C8.2,65,0,56.8,0,46.6V18.4C0,8.2,8.2,0,18.4,0h28.3C56.8,0,65,8.2,65,18.4v28.3
	C65,56.8,56.8,65,46.6,65z"/>
<g>
	<g>
		<path class="st1" d="M17.6,27.4v-1.4c0-0.6-0.5-1.2-1.2-1.2c-0.6,0-1.2,0.5-1.2,1.2v1.4c-1.8,0.2-3.2,1.7-3.2,3.5v8.9
			c0,1.8,1.4,3.4,3.2,3.5v1.4c0,0.6,0.5,1.2,1.2,1.2c0.6,0,1.2-0.5,1.2-1.2v-1.4c1.8-0.2,3.2-1.7,3.2-3.5V31
			C20.8,29.1,19.4,27.6,17.6,27.4z M18.5,39.9c0,0.7-0.6,1.2-1.2,1.2h-1.6c-0.7,0-1.2-0.6-1.2-1.2V31c0-0.7,0.6-1.2,1.2-1.2h1.6
			c0.7,0,1.2,0.6,1.2,1.2V39.9z"/>
	</g>
	<g>
		<path class="st1" d="M28.3,21.6v-1.4c0-0.6-0.5-1.2-1.2-1.2c-0.6,0-1.2,0.5-1.2,1.2v1.4c-1.8,0.2-3.2,1.7-3.2,3.5V34
			c0,1.8,1.4,3.4,3.2,3.5v1.4c0,0.6,0.5,1.2,1.2,1.2c0.6,0,1.2-0.5,1.2-1.2v-1.4c1.8-0.2,3.2-1.7,3.2-3.5v-8.9
			C31.5,23.3,30.1,21.8,28.3,21.6z M29.2,34c0,0.7-0.6,1.2-1.2,1.2h-1.6c-0.7,0-1.2-0.6-1.2-1.2v-8.9c0-0.7,0.6-1.2,1.2-1.2h1.6
			c0.7,0,1.2,0.6,1.2,1.2V34z"/>
	</g>
	<g>
		<path class="st1" d="M39,27.4v-1.4c0-0.6-0.5-1.2-1.2-1.2c-0.6,0-1.2,0.5-1.2,1.2v1.4c-1.8,0.2-3.2,1.7-3.2,3.5v8.9
			c0,1.8,1.4,3.4,3.2,3.5v1.4c0,0.6,0.5,1.2,1.2,1.2c0.6,0,1.2-0.5,1.2-1.2v-1.4c1.8-0.2,3.2-1.7,3.2-3.5V31
			C42.2,29.1,40.8,27.6,39,27.4z M39.9,39.9c0,0.7-0.6,1.2-1.2,1.2h-1.6c-0.7,0-1.2-0.6-1.2-1.2V31c0-0.7,0.6-1.2,1.2-1.2h1.6
			c0.7,0,1.2,0.6,1.2,1.2V39.9z"/>
	</g>
	<g>
		<path class="st1" d="M49.7,21.6v-1.4c0-0.6-0.5-1.2-1.2-1.2c-0.6,0-1.2,0.5-1.2,1.2v1.4c-1.8,0.2-3.2,1.7-3.2,3.5V34
			c0,1.8,1.4,3.4,3.2,3.5v1.4c0,0.6,0.5,1.2,1.2,1.2c0.6,0,1.2-0.5,1.2-1.2v-1.4c1.8-0.2,3.2-1.7,3.2-3.5v-8.9
			C52.9,23.3,51.5,21.8,49.7,21.6z M50.6,34c0,0.7-0.6,1.2-1.2,1.2h-1.6c-0.7,0-1.2-0.6-1.2-1.2v-8.9c0-0.7,0.6-1.2,1.2-1.2h1.6
			c0.7,0,1.2,0.6,1.2,1.2V34z"/>
	</g>
</g>
</svg>
